<?xml version="1.0" encoding="UTF-8"?>
<svg id="Layer_2" data-name="Layer 2" xmlns="http://www.w3.org/2000/svg" viewBox="0 0 105.34 71.36">
  <defs>
    <style>
      .cls-1 {
        fill: #fff;
      }
    </style>
  </defs>
  <g id="Layer_1-2" data-name="Layer 1">
    <g>
      <g>
        <path class="cls-1" d="M61.35,19.99c-.75.27-1.43.26-2.05-.02-.62-.28-1.09-.9-1.43-1.84l-2.8-7.76-1.76.63c-.11.04-.2.05-.28,0-.08-.04-.14-.12-.18-.23-.09-.25-.02-.41.2-.49.68-.25,1.21-.74,1.6-1.49.38-.75.46-1.54.24-2.38-.09-.31.02-.52.33-.63.13-.05.26-.05.39-.01.12.04.21.12.26.25l.93,2.57,3.17-1.24c.32-.11.54.02.68.4.07.19.09.36.06.51-.03.15-.12.25-.26.29-1.8.57-2.9.93-3.28,1.06l2.68,7.44c.39,1.07.97,1.46,1.76,1.18.68-.25,1.11-1,1.28-2.28,0-.21.1-.34.28-.41.15-.05.28-.06.39-.01.11.04.19.13.24.26.04.11.05.21.03.32-.07.45-.16.86-.25,1.21-.1.35-.23.72-.41,1.08-.18.37-.42.69-.72.96-.3.27-.66.48-1.07.63Z"/>
        <path class="cls-1" d="M65.08,18.38c-.18.06-.32.07-.44,0-.12-.06-.2-.16-.25-.3-.04-.12-.05-.24,0-.35.04-.11.11-.18.23-.22.11-.04.26-.07.45-.08s.33-.04.45-.08c.45-.16.54-.62.27-1.38l-4.41-12.22c-.18-.49-.4-.69-.68-.59-.16.06-.35.21-.55.44s-.34.37-.41.39c-.12.04-.24.02-.36-.06-.12-.08-.2-.18-.24-.31-.07-.2-.03-.34.11-.44,1.06-.87,1.87-1.75,2.44-2.64.08-.14.19-.23.32-.28.26-.1.44,0,.54.27l2.49,6.89c.3-.76.73-1.43,1.3-2.04.57-.6,1.22-1.04,1.96-1.3.47-.17.93-.26,1.38-.26.45,0,.88.07,1.3.23.42.16.79.43,1.14.82.34.39.62.88.83,1.47l2.24,6.22c.27.75.64,1.05,1.1.88.11-.04.24-.11.4-.22.16-.11.29-.18.4-.22.11-.04.22-.03.31.03.09.06.16.15.21.27.11.32,0,.54-.36.67-.11.04-.44.14-.99.31-.56.17-1.03.33-1.43.47-.4.15-.88.33-1.42.56-.54.23-.87.36-.98.4-.17.06-.32.07-.45,0s-.21-.15-.26-.29c-.04-.12-.04-.24,0-.35.04-.11.12-.19.24-.23.11-.04.26-.07.45-.08.19-.01.33-.04.43-.08.46-.17.56-.63.29-1.38l-2.05-5.69c-.3-.83-.72-1.39-1.26-1.68-.54-.29-1.17-.3-1.89-.04-.52.19-1,.49-1.46.9-.45.41-.82.92-1.11,1.52l2.49,6.89c.27.75.64,1.05,1.1.88.11-.04.24-.11.39-.22.16-.11.29-.18.39-.22.11-.04.22-.03.32.03.1.06.17.15.21.27.05.14.05.27,0,.39-.05.12-.17.21-.34.27-.12.04-.46.15-1.02.32-.55.17-1.03.33-1.43.47s-.87.33-1.41.55c-.54.23-.87.36-.99.4Z"/>
        <path class="cls-1" d="M82.67,12.3c-.69.25-1.38.35-2.06.31-.69-.04-1.34-.22-1.96-.53s-1.19-.78-1.7-1.41-.94-1.39-1.26-2.28c-.34-.93-.5-1.84-.5-2.72,0-.88.16-1.67.46-2.36.3-.69.72-1.29,1.26-1.81.54-.52,1.17-.9,1.88-1.16.65-.23,1.26-.34,1.84-.33.58.01,1.09.11,1.51.3.43.19.82.46,1.18.81.36.35.66.71.88,1.09.23.38.42.79.58,1.23.17.46.07.75-.29.88l-7.04,2.45.05.14c.51,1.42,1.26,2.46,2.25,3.14.99.68,2.03.83,3.1.44.82-.29,1.44-.77,1.89-1.43.44-.66.7-1.38.78-2.14.02-.23.12-.37.29-.43.14-.05.27-.06.39-.04.12.03.2.1.24.21.04.12.04.29,0,.51-.08.42-.17.79-.26,1.13-.09.33-.23.72-.42,1.15-.19.43-.42.81-.67,1.14-.26.33-.59.64-1.01.96-.42.31-.89.57-1.41.75ZM77.25,6.02l4.71-1.92c.2-.09.33-.19.37-.29s.02-.28-.06-.52c-.29-.79-.74-1.37-1.35-1.74-.62-.36-1.3-.41-2.06-.14-.83.3-1.38.86-1.64,1.69-.26.83-.26,1.8.02,2.91Z"/>
      </g>
      <g>
        <path class="cls-1" d="M30.85,39.47c-1.69,0-3.07-.57-4.15-1.71-1.08-1.14-1.62-2.63-1.62-4.48,0-.97.16-1.87.47-2.68s.74-1.48,1.28-2.02c.54-.54,1.17-.95,1.9-1.25.72-.29,1.49-.44,2.31-.44,1.68,0,3.06.57,4.14,1.72,1.08,1.15,1.61,2.64,1.61,4.47,0,.97-.16,1.87-.47,2.67s-.74,1.48-1.27,2.02c-.54.54-1.17.95-1.89,1.25s-1.49.44-2.31.44ZM27.37,32.71c0,1.05.14,1.99.41,2.84.28.85.71,1.54,1.29,2.07.59.53,1.29.8,2.12.8,1.07,0,1.89-.44,2.46-1.31s.85-2.03.85-3.46c0-1.05-.14-1.99-.41-2.84-.28-.85-.71-1.54-1.3-2.07-.59-.53-1.3-.8-2.12-.8-1.07,0-1.89.44-2.46,1.32-.56.88-.84,2.03-.84,3.46Z"/>
        <path class="cls-1" d="M38.8,39.87c-.16,0-.3-.04-.4-.12-.1-.08-.15-.2-.15-.34,0-.04.03-.18.09-.41.06-.23.11-.57.17-1.02.05-.45.08-.95.08-1.52v-12.24c0-.52-.15-.79-.44-.79-.17,0-.38.08-.66.23-.28.15-.45.23-.53.23-.13,0-.23-.06-.32-.17-.08-.11-.12-.24-.12-.38,0-.08.03-.16.08-.23s.11-.12.19-.15c1.29-.46,2.35-1.01,3.19-1.65.13-.1.26-.15.4-.15.28,0,.42.15.42.44v7.26c1.13-1.31,2.42-1.97,3.87-1.97.95,0,1.77.25,2.49.76.71.51,1.25,1.19,1.62,2.05.37.86.55,1.81.55,2.88,0,.94-.14,1.82-.41,2.65-.27.83-.66,1.56-1.16,2.19-.5.63-1.14,1.13-1.91,1.49s-1.63.55-2.57.55c-.43,0-.83-.05-1.21-.14s-.67-.19-.88-.3c-.21-.11-.42-.21-.63-.3-.21-.09-.38-.14-.51-.14-.37,0-.65.31-.82.92-.06.24-.2.35-.42.35ZM40.79,35.51c0,.94.26,1.67.79,2.2.53.53,1.17.79,1.94.79,1.04,0,1.88-.5,2.51-1.51.64-1.01.96-2.31.96-3.91s-.3-2.71-.9-3.48c-.6-.76-1.41-1.14-2.45-1.14s-2,.44-2.86,1.32v5.72Z"/>
        <path class="cls-1" d="M50,45.01c-.59,0-1.09-.14-1.51-.41s-.63-.63-.63-1.08c0-.29.09-.54.28-.74.19-.2.42-.3.71-.3.19,0,.36.04.5.13s.25.2.33.33c.08.13.16.26.24.38.08.13.18.23.3.32.12.09.26.13.41.13.47,0,.78-.27.95-.8.17-.53.25-1.37.25-2.5v-10.52c0-.53-.15-.79-.44-.79-.17,0-.39.08-.67.23-.27.15-.44.23-.52.23-.13,0-.23-.06-.32-.17-.08-.11-.12-.24-.12-.38,0-.21.09-.33.26-.38,1.32-.47,2.38-1.01,3.17-1.64.16-.11.3-.16.42-.16.28,0,.42.15.42.44v10.58c0,.76-.05,1.48-.14,2.15s-.24,1.32-.45,1.93c-.2.61-.46,1.13-.77,1.57-.31.44-.69.79-1.14,1.05s-.97.39-1.53.39ZM51.06,23.22c0-.45.16-.83.47-1.15s.7-.47,1.16-.47.86.16,1.19.47c.33.32.49.7.49,1.15,0,.48-.16.88-.49,1.21-.33.33-.72.49-1.19.49s-.85-.16-1.16-.49c-.31-.33-.46-.73-.46-1.21Z"/>
        <path class="cls-1" d="M61.04,39.47c-.73,0-1.41-.14-2.05-.41s-1.19-.66-1.67-1.16c-.48-.5-.85-1.14-1.12-1.91-.27-.77-.41-1.63-.41-2.57s.15-1.9.46-2.73c.3-.83.71-1.52,1.23-2.07.52-.55,1.12-.97,1.8-1.27.68-.3,1.41-.45,2.17-.45.69,0,1.3.1,1.85.31.54.21.98.47,1.32.8s.62.71.84,1.16c.22.45.38.89.46,1.33.09.44.13.89.13,1.35s-.19.73-.57.73l-7.46-.09v.15c0,1.5.35,2.75,1.05,3.72s1.63,1.47,2.77,1.47c.87,0,1.62-.24,2.26-.71.64-.47,1.13-1.06,1.46-1.75.1-.21.24-.31.42-.31.15,0,.28.03.38.1.1.06.15.16.15.28,0,.13-.06.29-.17.48-.22.37-.43.69-.63.97s-.46.6-.79.94-.67.62-1.02.84c-.35.22-.78.41-1.27.56-.5.15-1.03.23-1.58.23ZM58.06,31.72l5.08-.2c.22-.01.37-.06.45-.15s.12-.25.12-.5c0-.84-.23-1.54-.68-2.09s-1.08-.83-1.89-.83c-.88,0-1.59.34-2.12,1.03s-.85,1.6-.97,2.75Z"/>
        <path class="cls-1" d="M72.55,39.47c-.73,0-1.41-.14-2.05-.41s-1.19-.66-1.67-1.16c-.47-.5-.84-1.14-1.12-1.9s-.41-1.62-.41-2.56c0-1,.15-1.92.46-2.75.31-.83.73-1.52,1.26-2.07.53-.55,1.16-.98,1.88-1.28.72-.3,1.49-.45,2.32-.45,1.18,0,2.15.26,2.9.77s1.13,1.09,1.13,1.72c0,.35-.12.64-.37.86-.25.23-.54.34-.89.34-.31,0-.56-.09-.77-.27-.2-.18-.37-.4-.49-.66-.12-.26-.25-.52-.38-.78s-.33-.48-.6-.67-.61-.27-1.02-.27c-1.04,0-1.83.44-2.38,1.31s-.83,2-.83,3.38c0,1.52.35,2.77,1.05,3.74.7.98,1.62,1.47,2.76,1.47.84,0,1.57-.24,2.2-.72.63-.48,1.12-1.08,1.47-1.81.07-.17.2-.25.38-.25.15,0,.28.03.38.1.1.07.15.17.15.29,0,.12-.05.26-.15.44-.22.39-.44.74-.66,1.05s-.49.63-.81.96c-.32.33-.66.6-1.01.82-.35.22-.76.4-1.24.54-.47.14-.97.21-1.49.21Z"/>
        <path class="cls-1" d="M82.63,39.47c-.79,0-1.43-.24-1.92-.71-.48-.48-.73-1.22-.73-2.22v-8.25h-1.87c-.11,0-.2-.02-.26-.09-.06-.07-.09-.16-.09-.27,0-.26.12-.4.35-.4.72,0,1.39-.29,2.01-.86.62-.57.96-1.29,1.03-2.16.02-.32.2-.48.53-.48.14,0,.27.04.37.12.1.08.16.19.16.32v2.73l3.41-.09c.34,0,.5.2.5.61,0,.2-.04.37-.12.5-.08.13-.19.2-.34.19-1.89-.07-3.04-.11-3.45-.12v7.91c0,1.14.42,1.71,1.26,1.71.72,0,1.38-.57,1.98-1.71.08-.19.21-.29.4-.29.16,0,.28.04.37.12.09.08.13.19.13.32,0,.12-.03.22-.09.31-.22.4-.44.75-.65,1.05s-.46.59-.76.88c-.29.29-.63.5-1,.66s-.78.23-1.22.23Z"/>
        <path class="cls-1" d="M86.74,33.05c-.28,0-.42-.18-.42-.55,0-.25.08-.48.23-.69.15-.21.35-.31.58-.31,1.33.06,2.38.1,3.15.1s1.89-.03,3.36-.1c.29,0,.44.19.44.56,0,.24-.08.47-.23.68-.15.21-.35.31-.58.31-1.6-.06-2.65-.08-3.17-.08s-1.64.03-3.36.08Z"/>
      </g>
      <g>
        <path class="cls-1" d="M74.76,48.11c-.2-.4-.23-.82-.08-1.24.14-.42.42-.73.83-.94.42-.21.84-.24,1.27-.1.43.14.74.41.94.82.21.43.25.86.1,1.3-.14.44-.43.75-.84.96s-.84.23-1.26.08c-.42-.16-.74-.45-.95-.88ZM81.14,62.8c-.17.08-.32.1-.45.06-.13-.04-.23-.13-.29-.26-.06-.12-.07-.23-.04-.35s.1-.2.21-.25c.11-.05.25-.1.44-.13s.32-.08.42-.12c.45-.22.5-.69.14-1.41l-3.2-6.5c-.23-.48-.48-.65-.75-.52-.15.08-.32.24-.5.5-.18.26-.3.41-.37.44-.12.06-.24.05-.36-.01s-.22-.16-.28-.28c-.04-.07-.05-.15-.04-.24s.05-.16.11-.21c.98-1,1.68-1.96,2.12-2.88.09-.17.2-.28.31-.33.25-.12.44-.05.57.21l4.36,8.85c.35.72.75.97,1.18.76.1-.05.22-.14.37-.26.14-.12.27-.21.38-.27s.22-.06.32,0,.18.13.24.25c.15.3.05.54-.29.71-.1.05-.42.19-.96.42s-.99.44-1.37.63c-.38.19-.83.43-1.34.71-.51.28-.82.45-.93.5Z"/>
        <path class="cls-1" d="M91.7,57.88c-.21.1-.4.08-.57-.07l-8.31-7.21c-.35-.31-.59-.5-.73-.57-.14-.08-.28-.08-.42,0-.1.05-.22.13-.36.25-.14.12-.25.2-.36.25-.11.05-.22.06-.33.01-.11-.05-.19-.13-.25-.24-.06-.12-.07-.25-.03-.38.04-.13.15-.24.31-.32.11-.05.42-.19.94-.4.52-.22.97-.42,1.34-.6.37-.18.81-.42,1.3-.7s.79-.45.88-.5c.17-.08.33-.1.46-.06.13.05.23.13.29.25.06.12.07.23.05.34-.03.11-.09.19-.2.25-.1.05-.25.1-.43.14-.19.04-.33.09-.43.14-.35.17-.45.4-.31.69.08.17.21.31.4.44l5.77,5.11-.52-7.84c0-.15-.04-.29-.11-.41-.07-.13-.16-.23-.28-.27-.12-.04-.26-.03-.41.05-.11.05-.23.14-.38.26-.14.12-.27.2-.38.26s-.21.06-.32,0c-.1-.05-.18-.13-.24-.25-.06-.12-.07-.25-.04-.38.04-.13.14-.24.3-.32.09-.04.34-.15.75-.31s.75-.31,1.03-.45c.28-.14.6-.32.98-.54.38-.23.61-.36.7-.41.17-.08.31-.1.44-.05.12.05.22.14.28.26.06.12.07.23.05.34-.02.11-.09.19-.2.25-.1.05-.24.09-.4.13-.17.03-.3.08-.4.13-.15.08-.25.2-.29.37-.04.17-.05.45-.02.84l.72,11.02c0,.11-.02.21-.07.3-.05.09-.12.16-.2.2Z"/>
        <path class="cls-1" d="M102.15,52.73c-.66.32-1.33.5-2.02.54-.69.04-1.36-.07-2.01-.31-.65-.24-1.27-.64-1.85-1.21-.58-.57-1.09-1.28-1.5-2.13-.44-.89-.7-1.77-.8-2.65s-.03-1.68.19-2.4c.22-.72.57-1.37,1.05-1.94.48-.57,1.06-1.03,1.74-1.36.62-.3,1.22-.48,1.8-.54.58-.05,1.09,0,1.54.13.45.14.87.37,1.26.67.4.3.73.63,1,.99.27.35.51.74.71,1.16.21.44.15.74-.19.91l-6.73,3.22.07.14c.66,1.35,1.53,2.31,2.59,2.88,1.06.57,2.11.6,3.13.09.78-.38,1.35-.93,1.72-1.63.37-.71.54-1.45.53-2.22,0-.23.08-.38.24-.46.13-.07.26-.09.38-.08.12.01.21.08.26.19.06.12.08.29.06.51-.04.43-.08.81-.13,1.15-.05.34-.15.74-.29,1.19s-.33.86-.54,1.21-.52.71-.89,1.06c-.38.36-.82.66-1.32.91ZM96.06,47.1l4.47-2.43c.19-.11.31-.22.34-.33.03-.11,0-.28-.12-.51-.37-.76-.89-1.28-1.54-1.58-.65-.29-1.34-.26-2.06.09-.79.39-1.27,1.01-1.44,1.86-.17.85-.06,1.82.35,2.89Z"/>
      </g>
      <g>
        <path class="cls-1" d="M3.51,52.46c-.23-.06-.46-.12-.68-.2s-.41-.15-.55-.21c-.14-.06-.33-.16-.56-.29-.23-.13-.38-.22-.46-.27-.08-.05-.24-.16-.5-.32s-.4-.26-.44-.28c-.27-.17-.37-.43-.29-.77.03-.1.07-.24.13-.41.06-.17.11-.3.13-.39.08-.31.12-.67.14-1.08.01-.41.02-.62.03-.65.03-.11.1-.19.23-.24.13-.05.26-.05.4-.02.15.04.25.09.32.17.06.08.1.2.1.36-.01.99.21,1.81.68,2.46.46.65,1.07,1.07,1.84,1.25.72.17,1.32.12,1.8-.16s.79-.68.91-1.21c.11-.46.05-.91-.17-1.35-.22-.44-.61-.83-1.17-1.19l-1.49-.98c-.81-.51-1.43-1.11-1.84-1.8s-.53-1.42-.34-2.19c.25-1.03.84-1.76,1.76-2.2.93-.44,1.95-.52,3.09-.25.38.09.88.28,1.5.55.62.27,1.04.44,1.29.51.2.05.33.12.39.22.06.1.06.25.01.44l-.12.42c-.08.31-.12.64-.14.97-.02.34-.01.62,0,.84.02.23.02.36,0,.4-.02.08-.09.13-.2.17-.12.04-.24.04-.36.01-.2-.05-.31-.17-.34-.36-.36-1.87-1.19-2.96-2.47-3.27-.61-.15-1.14-.11-1.61.11-.47.22-.77.62-.91,1.19-.21.85.29,1.66,1.5,2.42l1.48.97c.85.55,1.46,1.18,1.8,1.89.35.71.42,1.48.22,2.29-.11.45-.3.85-.59,1.21-.28.36-.64.67-1.06.91-.42.24-.93.39-1.54.45-.6.06-1.24,0-1.93-.17Z"/>
        <path class="cls-1" d="M14.37,55.09c-1.64-.4-2.85-1.28-3.63-2.64s-.95-2.94-.51-4.74c.23-.95.59-1.78,1.09-2.49.5-.71,1.07-1.27,1.72-1.66.65-.39,1.36-.65,2.14-.76.77-.12,1.56-.08,2.35.12,1.64.4,2.84,1.28,3.61,2.65.78,1.37.95,2.94.51,4.72-.23.95-.59,1.78-1.08,2.49-.49.71-1.06,1.27-1.71,1.66s-1.36.65-2.13.77-1.55.08-2.35-.12ZM12.58,47.7c-.25,1.02-.33,1.97-.27,2.86.07.89.32,1.66.77,2.32.44.66,1.07,1.08,1.87,1.28,1.04.25,1.94.02,2.7-.7.76-.71,1.3-1.77,1.64-3.16.25-1.02.34-1.97.27-2.86-.07-.89-.33-1.66-.77-2.32-.45-.66-1.07-1.08-1.87-1.28-1.04-.25-1.94-.02-2.7.7-.75.72-1.3,1.77-1.63,3.16Z"/>
        <path class="cls-1" d="M26.21,57.96c-.71-.17-1.34-.47-1.9-.88-.55-.42-1-.92-1.34-1.52-.34-.6-.55-1.3-.64-2.11-.08-.81-.02-1.67.21-2.58.24-.97.6-1.83,1.1-2.56.5-.73,1.07-1.3,1.72-1.71.65-.41,1.36-.68,2.13-.8.77-.12,1.56-.09,2.36.11,1.15.28,2.03.76,2.64,1.44.61.68.84,1.32.69,1.94-.08.34-.27.59-.56.75-.29.16-.61.2-.94.12-.3-.07-.53-.22-.68-.45-.16-.22-.26-.48-.32-.76-.06-.28-.12-.56-.19-.85-.07-.29-.21-.55-.43-.79-.22-.24-.53-.41-.92-.51-1.01-.25-1.88,0-2.62.71-.74.72-1.28,1.75-1.6,3.09-.36,1.48-.31,2.77.13,3.89.45,1.11,1.23,1.81,2.33,2.08.82.2,1.58.14,2.31-.18.72-.32,1.34-.79,1.86-1.41.11-.14.25-.19.42-.15.15.04.26.1.34.19.08.09.11.2.08.32-.03.11-.11.24-.25.39-.31.32-.6.61-.89.86-.29.25-.62.5-1.01.74-.39.24-.78.42-1.17.56-.39.13-.83.21-1.33.23-.49.02-.99-.03-1.5-.15Z"/>
        <path class="cls-1" d="M32.29,59.19c-.18-.04-.31-.12-.38-.24-.07-.12-.09-.25-.06-.39.03-.12.09-.22.19-.29.1-.07.21-.09.33-.06.12.03.26.09.42.18.16.09.3.15.4.17.49.12.83-.21,1.01-.99l1.71-7.04c.12-.52.04-.81-.24-.88-.17-.04-.4-.02-.71.07s-.49.12-.56.1c-.12-.03-.21-.11-.27-.24-.05-.13-.06-.26-.03-.39.02-.08.06-.15.13-.21.07-.06.14-.09.22-.1,1.39-.14,2.55-.42,3.47-.85.18-.07.33-.09.45-.06.27.07.37.24.3.53l-2.33,9.58c-.19.78-.05,1.23.42,1.34.11.03.26.04.45.03s.34,0,.46.04c.12.03.2.09.25.2.05.1.06.22.03.34-.08.33-.3.45-.67.36-.11-.03-.45-.12-1.01-.29-.56-.17-1.05-.3-1.46-.4-.42-.1-.91-.21-1.48-.32-.57-.11-.92-.18-1.03-.21ZM36.81,43.82c.11-.44.35-.77.73-1.01.38-.23.79-.29,1.24-.18.45.11.8.36,1.04.74.24.38.3.79.2,1.23-.11.47-.37.82-.75,1.06-.39.24-.81.31-1.26.2-.45-.11-.79-.36-1.02-.75-.23-.39-.28-.82-.17-1.29Z"/>
        <path class="cls-1" d="M42.81,61.99c-.71-.17-1.34-.47-1.89-.88-.55-.41-1-.92-1.34-1.52-.35-.6-.56-1.3-.64-2.12s-.01-1.68.21-2.6c.23-.96.6-1.81,1.09-2.54.49-.74,1.05-1.31,1.68-1.72.63-.41,1.31-.68,2.05-.81.74-.13,1.47-.11,2.21.07.67.16,1.24.41,1.72.74.48.33.85.69,1.1,1.09s.43.84.54,1.33.16.95.14,1.4c-.02.45-.08.89-.19,1.35-.11.47-.36.66-.73.58l-7.22-1.84-.04.15c-.35,1.46-.31,2.75.14,3.87.45,1.12,1.23,1.81,2.35,2.08.84.21,1.63.15,2.37-.16.73-.31,1.34-.76,1.83-1.36.15-.18.31-.25.48-.2.15.04.26.1.34.18s.11.19.08.31c-.03.13-.12.27-.28.43-.3.3-.58.57-.84.8-.26.23-.59.47-.99.73-.4.26-.8.45-1.19.58-.39.13-.85.21-1.37.24-.52.03-1.05-.02-1.6-.15ZM41.75,53.76l4.99,1c.22.04.38.02.47-.04.1-.07.17-.22.23-.46.2-.82.14-1.55-.17-2.2-.31-.64-.86-1.06-1.64-1.25-.86-.21-1.62-.04-2.3.5-.68.54-1.21,1.36-1.59,2.45Z"/>
        <path class="cls-1" d="M52.73,64.4c-.77-.19-1.34-.57-1.7-1.15-.36-.58-.42-1.35-.18-2.33l1.95-8.02-1.82-.44c-.11-.02-.19-.07-.23-.15-.04-.08-.05-.18-.02-.29.06-.26.21-.36.44-.3.7.17,1.42.05,2.16-.36.73-.41,1.24-1.03,1.51-1.86.1-.31.3-.42.63-.35.14.03.25.1.33.2.08.1.11.22.08.35l-.64,2.65,3.33.72c.33.08.44.32.35.71-.05.19-.12.35-.23.46-.11.11-.23.14-.38.1-1.82-.52-2.93-.83-3.32-.93l-1.87,7.68c-.27,1.11,0,1.76.82,1.96.7.17,1.48-.23,2.32-1.19.12-.17.27-.23.46-.19.15.04.26.1.33.2.07.1.09.21.05.34-.03.11-.08.2-.16.28-.31.34-.6.63-.88.87-.27.24-.59.47-.94.68-.35.21-.73.34-1.13.4s-.81.03-1.24-.07Z"/>
        <path class="cls-1" d="M57.51,71.27c-.66-.16-1.12-.43-1.39-.82-.27-.39-.36-.79-.26-1.19.08-.31.24-.55.49-.72.25-.17.54-.21.88-.12.26.06.46.17.6.32.14.15.24.3.28.45.04.15.12.3.24.44.12.15.27.24.47.29.4.1.9-.14,1.5-.73.59-.58,1.35-1.56,2.26-2.93l-1.78-10.65c-.07-.46-.14-.77-.2-.92-.06-.15-.17-.25-.32-.29-.1-.02-.23-.04-.41-.03-.18,0-.32-.01-.43-.04-.12-.03-.2-.1-.26-.2-.06-.1-.07-.22-.04-.35.03-.13.11-.24.22-.31s.27-.09.45-.05c.12.03.45.13.98.29.54.17,1.01.3,1.41.4.4.1.88.2,1.44.29.56.1.9.16,1.01.19.18.04.3.13.37.25.07.12.08.25.05.38-.03.12-.09.22-.18.29-.09.07-.2.09-.31.06-.11-.03-.25-.08-.42-.17-.17-.08-.31-.14-.42-.17-.38-.09-.6.02-.68.33-.03.13-.03.33.02.59l1.28,7.7,4.66-6.34c.09-.13.15-.27.19-.41.04-.15.02-.29-.05-.4-.07-.12-.19-.2-.36-.24-.1-.02-.25-.04-.44-.04-.2,0-.35-.02-.46-.05-.12-.03-.2-.09-.25-.2-.05-.1-.06-.22-.03-.34.03-.13.1-.24.21-.31.11-.08.26-.09.44-.05.1.02.36.1.78.25.42.14.78.25,1.08.32.31.07.68.15,1.12.22.44.07.71.12.8.14.18.04.31.13.38.25.07.12.09.25.06.38-.03.13-.09.22-.19.29-.1.07-.21.09-.33.06-.11-.03-.24-.08-.39-.16-.15-.08-.27-.13-.36-.16-.18-.04-.34-.01-.48.09-.14.1-.33.31-.56.63l-7.8,10.49c-.53.71-1.02,1.3-1.47,1.75-.45.45-.88.78-1.27.97-.4.2-.76.31-1.08.35-.33.03-.68,0-1.05-.08Z"/>
      </g>
    </g>
  </g>
</svg>