<?xml version="1.0" encoding="UTF-8"?>
<svg id="Layer_2" data-name="Layer 2" xmlns="http://www.w3.org/2000/svg" viewBox="0 0 773.02 329.21">
  <defs>
    <style>
      .cls-1 {
        fill: #606060;
      }
    </style>
  </defs>
  <g id="Layer_1-2" data-name="Layer 1">
    <path class="cls-1" d="M105.31,147.9c.43.34.44,1.2.33,1.82-.52,3.04-2.66,9.88-2.49,14.24-.39,2.29,3.71,7.66,1.26,8.72-2.36-.07-3.26-4.25-4.66-5.15-.28-.21-.6-.32-.93-.23-.59.12-1.3.99-1.74,1.61-1.93,2.88-4.22,5.83-8.01,5.06-1.84-.22-3.68.29-5.53.08-2.54-.35-5.3-3.07-7.3-4.8-1.06-.92-1.91-1.43-2.6-1.16-.98.41-1.48,1.71-2.01,2.64-1.14,2.27-2.56,4.68-4.5,5.78-.87.56-1.95.68-2.86.23-.77-.32-1.48-.76-2.31-.48-.89.28-1.89,1.29-2.73,1.88-2.75,2.01-5.59,1.08-6.08-2.26-.21-1.37-.16-2.85-.86-4.08-.7-1.34-2.35-1.91-2.87-.24-.43,2.09.49,4.66-.1,6.78-.57,2.29-2.26,2.54-2.69-.13-.3-1.7-.4-3.99-.73-5.58-.21-1.01-.49-1.57-.87-1.57-1.01.25-2.12,1.94-3.16,2.54-2.28,1.75-5.59,1.46-7.61-.67-1.26-1.24-1.98-3.12-2.99-4.49-.39-.51-.8-.82-1.2-.82-2.74.68-2.33,6.64-5.3,7.26-2.67-.5-1.71-5.52-2.67-7.31-.28-.9-1.05-1.45-1.39-.24-.59,1.92.01,6.39-.93,8.94-.2.42-.32.97-.76.73-1.18-1.89-1.32-5.25-1.95-7.5-.4-3.59-3.88-3.64-6.62-4.61-1.54-.52-4.97-1.33-3.35,1.41,1.24,2.33,4.95,3.72,4.7,6.75-.29,3.66-6.41,9.19-9.76,8.32-3.4-1.1-1.88-5.37-.06-8.2,1.09-1.69,2.99-2.85,1.5-4.95-1.21-1.98-1.7-5.15.4-6.74,2.72-2.58,9,2.18,11.87.16,1.41-1.36.47-4.16,2.12-5.33,2-.92,2.34,2.34,2.56,3.71.15,1.33,1.07,2.28,2.4,2.46,3.44.44,9.03,1.01,12.27-.26,1.45-.42,3.39-1.63,4.66-.28.99,1.12,1.25,3.01.55,4.46-.74,1.57-2.3,3.03-2.13,3.8.2.71,1.16.47,1.72.28,3.1-1.15,4.96-6.66,5.97-11.04.4-2.5,2.37-5.01,3.58-1.1.74,2.28-.68,5,.19,7.19.99,1.83,5.35.07,7.45-.97,1.79-.96,3.87-1,5.78-1.38,2.72-.99,1.98-4.32,3.01-7.11.79-3.82,4.14-5.59,4.42-.61-.04,4.58-1.99,9.43-3.08,13.96.02.2.14.14.28.04,1.97-1.88,5.45-7.03,7.62-8.98,1.19-.63,1.61,1.29,2.14,2.2,1.27,2.74,1.72,4.57,4.18,1.45,1.25-1.66,6.02-5.16,6.27-1.78-.12,2.13-1.97,4.36-2.44,6.34-.21.81-.08,1.27.31,1.27,2.49-.93,3.94-4.63,6.05-6.36,2.16-2.25,5.48-2.96,7.05-4.97,1.97-2.36,2.8-11.19,6.58-10.76l.06.04Z"/>
    <path class="cls-1" d="M516.32,98.61c.51.26.49,1.03.36,1.61-.84,3.32-3.38,12.19-4.35,15.83-1.09,3.14,2.3,1.98,4.18,2.43.78.16,2.08.26,1.89,1.17-.17.31-.49.55-.85.76-4.36,2.1-7.19,1.32-7.05,7.33-.06.82-.18,1.65-.43,2.35-.53,1.75-2.17,2.58-2.79.73-.96-2.48,1.09-6.2-1.31-7.78-4.29-1.58-5.7,5.48-10.7,3.52-1.58-.55-2.58-2.51-4.34-2.35-3.23,1.03-6.03,3.74-9.57,3.98-2.5.56-4.04-1.22-5.58-2.82-2.24-2.25-3.34,1.82-5.34,1.99-1.63,0-2.93-2.76-4.72-2.68-1.85.14-4.15,3.86-6.56,2.88-1.06-.39-1.7-1.74-2.6-2.23-.45-.18-.42-.16-.81-.15-1.81.37-3.26,2.33-5.07,2.86-1.94.72-3.6-.5-5.5-.55-2.89,0-5.11,2.36-8.38,3.52-1.09.43-2.23.77-3.14,1.49-2.09,1.62-2.24,5.48-3.44,7.53-.73,1.49-2.75,1.63-3.27.1-.52-1.13.3-3.07.71-5.08,1.33-5.51,2.62-12.41,6.17-15.65,2.55-2.38,6.76-3.69,10.08-2,1.81.89,2.58,2.52,3.69,2.3.72-.12,1.24-.58,1.85-1.04,7.85-6.59,9.26,2.51,14.98,2.04,6.9-2.87,8.15-13.64,13.68-17.82,1.9-1.48,4.99-1.49,6.31.65,1.52,2.39-.4,6.98-2.61,9.88-.6.89-2.02,2.31.11,1.87,1.34-.28,3.48-.24,4.31,1.2,2.64,4.12-3.75,5.38-5.25,7.31-.09.13-.1.23.06.27,1.68-.11,3.85-1.21,5.56-1.73,2.86-1.04,5.72-2.06,7.37-4.26,1.32-1.55,2.56-4.32,4.67-4.67.67-.07,1.03.4.88,1.34-.29,1.8-1.85,3.92-2.32,5.71-.32,1.09-.11,2.06.9.98.79-.73,1.53-1.87,3.48-2.03,2.11-.34,5.05.45,6.75-.89,1.76-2.85,2.21-10.5,3.71-15.35.52-2.02,1.89-4.83,4.2-4.61l.08.03ZM476.64,114.5c.53-.8,1.59-1.18,2.58-1.99,1.65-1.33,3.17-3.12,3.43-5.2.21-1.55-.73-3.55-2.29-2.54-3.87,3.56-5.73,8.5-7.19,13.46-.18.7-.26,1.54.21,2.09.95,1.21,4.23.48,4.62-1.14.17-.7-.52-1.27-1.08-1.91-.61-.75-.95-1.76-.35-2.63l.09-.14Z"/>
    <path class="cls-1" d="M77.77,269.7c1.47-.97,2.43-2.73,3.86-3.82,2.42-2,5.4-2.35,6.32-.47.58.92.76,2.52,1.96,2.74,1.63.05,3.2-1.52,4.76-2.01,1.93-.92,4.54.45,5.78-.33,2.09-2.01,2.53-5.47,3.95-8.02.58-1.24,1.21-2.4,1.91-3.32,2.33-3.12,4.32-1.7,3.46,1.36-1.16,4.36-4.65,7.61-5.46,11.91-.64,2.27-.17,7.77-3.23,7.98-1.4-.16-1.46-2.36-2.31-2.75-.04-.03-.39-.06-.65.05-.88.32-2.34,1.36-3.69,1.53-2.05.29-4.08-.43-6.14-.5-4.46-.31-9.49,1.43-13.89.62-1.98-.43-3.59-2.67-5.71-2.24-1.95.47-4.43,4.11-7.28,4.28-3.85.22-4.07-6.73-7.9-6.8-2.51,0-4.16,3.95-5.84,5.36-.52.3-.94.07-1.43-.34-.88-.78-1.84-2.07-3.13-1.97-.92.08-1.74.81-2.49,1.35-2.4,1.86-5.14,2.97-8.06,2.69-2.61-.04-3.28-2.64-3.34-4.82-.17-2.53-1.19-5.32-.32-6.3.61-.68,1.63-.51,2.46-.64,2.66-.23,4.08-4.23,7.07-3.33,1.95.56,2.44,3.36,1.2,5.12-1.1,1.86-3.78,2.14-5.1,3.54-.7.74-1.17,1.82-.16,2.15,1.04.18,2.28-.54,3.28-.96,3.31-1.24,5.92-3.72,7.87-6.82,1.07-1.35,2.09-3.62,3.77-4.03,1.44-.19,2.25,2.41,3.85,3.38,1.18.71,2.64,1.07,3.8,1.83,1.39.85,2.14,1.7,3.3,1.29,2.17-.93,4.5-2.42,6.96-1.83.92.1,1.94.41,2.47-.58,1.27-3.57,2.91-9.28,5.21-11.51,2.25-2.05,3.32.82,2.55,2.86-.61,1.97-1.89,4.97-2.78,7.29-.96,2.49-1.81,4.34-.9,5.42.92,1.04,2.66,1.38,3.9.69l.14-.08Z"/>
    <path class="cls-1" d="M125.28,211.85c1.32,1.33.95,3.37-.13,4.74-2.09,2.78-5.79,4.78-5.6,8.4.32,1.72,2.27.83,3.25.04,1.19-.9,2.21-2.12,2.89-3.46,1.22-2.31,1.77-5.71,3.18-7.04,3.41-2.66,3.05,4.33,3.57,6.1,1.27,4.36,4.52-5.33,5.6-6.23,1.18-1.51,3.09-1.35,4.77-2.12,1.04-.43,1.96-1.21,3.08-1.44,3.78-.47,5.24,4.46,2.9,7.18-.83,1.73-5.27,3.44-4.46,5.4.37.33.76.35,1.34.13,3.7-1.87,5.09-7.81,7.78-9.6,1.79-1.39,2.63-.07,2.6,1.94.12.89-.31,2.85.42,3.19.92-.19,2.12-2.09,3.07-2.76,1.31-1.02,3.41-2.6,4.99-1.38,1.17.95,1.03,4.17,1.8,4.68.77.37,1.28-.69,1.75-1.25,1.32-1.82,2.46-4.7,4.05-6.14,2.43-1.87,2.8,2.14,2.79,3.86-.16,4.27-.9,15.28-4.63,17.28-1.16.49-2.66-.22-2.92-1.45-.27-1.31.81-2.46,1.48-3.52,1.08-1.52,1.81-3.8.99-4.1-1.12-.19-2.18.92-3.29,1.16-4.06,1.31-4.37-5.86-6.44-3.66-1.01,1-2.86,3.58-4.26,5.31-.76.88-1.58,2.14-2.79,2.23-1.82-.08-1.86-3.11-3.52-3.4-.96-.03-2.61,1.79-4.37,2.08-1.48.39-2.89-.24-3.71-1.55-1.03-1.21-1.36-4.1-2.9-4.54-.98-.06-2.08,2.68-3.88,3.79-.61.41-1.36.67-2.07.68-1.62.05-2.82-1.33-3.77-1.47-1.97-.01-3.28,3.12-5.37,4.43-4.41,3.14-6.69-.32-7.96-4.25-.53-1.4-2.38-2.32-2.25-3.9.22-1.13,2.18-2.22,3.38-3.94,2.36-3.45,4.6-8.85,8.54-5.56l.12.13Z"/>
    <path class="cls-1" d="M17.63,105.24c.78.29.9,1.49.85,3.37.03,3.43-.08,12.16.06,14.13.18,1.5,2.93-3.79,3.4-4.16.68-.9,1.21-1.55,2.14-1.86,1.28-.41,2.73.7,2.62,2.04-.05,1.42-1.86,3.07-2.66,4.61-1.05,1.89.49,3.05,2.11,1.78,2.08-1.68,3.25-5.86,5.57-6.65,1.55-.56,3.14.76,4.61.84.64.02,1.16-.45,1.54-.83.55-.63,1.44-.87,2.17-.37,1.36.79,1.85,2.51,3.07,2.61,2.28-.63,5.37-3.49,7.78-4.92,1.9-1.04,3.65-3.23,5.78-3.05,2.33,1.07-.04,6.33.16,8.7.13,3.29-.41,5.2-3.24,6.95-1.6.98-3.39,2.83-5.32,2.11-.83-.41-1.28-1.19-1.2-2.08.33-1.9,3.84-2.59,5.14-4.66,1.16-1.69-.18-2.64-1.9-2-2.54.97-4.72,2.78-6.35,4.9-1.03,1.35-2.53,2.6-3.72,2.25-.86-.25-1.51-1.09-2.22-1.54-.83-.61-2.15-.15-3.09.23-3.42,1.23-7.1,2.53-10.55,2.26-2.8-.15-5.23-4.2-6.48.4-.95,3.75-2.57,9.07-5.24,11.53-1.39,1.42-3.86,1.86-5.27.67-2-1.71-.77-4.81.16-6.91.74-1.56,1.58-3.09,2.67-4.43,1.57-1.92,3.82-3.23,4.58-5.5.86-2.69.32-5.7.31-8.46-.04-1.17-.08-2.06-.4-2.29-.29-.24-.86.13-1.75.94-1.37,1.26-3.38,3.21-4.8,4.54-.96.84-1.83,1.7-3.01,1.71-4.51-.71-3.72-10.37-1.39-11.07,2.75-.39.96,5.47,2.34,6.07,2,.48,5.6-5.14,6.73-6.81,1.4-2.22,2.07-5.23,4.72-5.12l.09.03Z"/>
    <path class="cls-1" d="M431.52,162.1c-.65.85-1.94,1.19-2.75,1.75-1.72,1.12-.49,2.77,1.25,2.47,3.94-1.35,6.36-6.25,10.06-7.41.89-.32,2.18-.31,2.45.75.24,2.96-3.45,4.69-5,6.86-1.31,1.58-1.5,2.97.29,2.54,3.31-1.02,5.84-2.85,8.08-5.61,2.13-2.24,5.03-6.18,6.86-4.46,1.21,1.7,1.95,1.9,3.94.85,1.35-.66,2.74-1.61,4.18-2.06,1.68-.47,2.28.74,3.82,1.56,1.84.9,4.17,1.2,4.56,3.62.23.86.5,1.63,1,1.78,1.25.55,3.59-3.3,5.42-5.69.7-.98,2.1-2.28,3.02-1.75,2.46,1.69,1.31,7.29.24,9.84-.89,1.96-2.3.98-3.54.04-.37-.23-.77-.48-1.2-.34-.73.22-1.48,2.02-2.86,2.58-.61.29-1.31.29-1.94.08-1.51-.5-2.35-2.33-3.32-3.38-1.71-1.63-2.6,1.52-3.92,3.36-2.54,3.78-4.31,2.95-6.91.41-.61-.47-.99-.82-1.55-.64-.7.29-1.22,2.33-2.14,2.82-.8.47-1.42-.34-1.77-1.03-1.06-2.19-1.52-4.87-4.26-2.3-3.55,3.17-8.62,7-11.23,4.61-.89-.79-1.6-1.88-2.72-2.34-1.11-.51-2.52-.34-3.77-.5-2.02-.25-3.83-1.66-4.51-3.58-.88-1.9.06-6.14-2.59-6.51-1.72.08-3.42,4.61-4.11,7.12-.62,3.29-3.64,4.86-3.9.86-.06-1.9-.08-5.02-.09-6.99.01-.63.03-1.34.37-1.84.41-.53,1.06-.51,1.69-.62.85-.11,1.77-.43,2.55-.89,3.34-2.61,4.91-.81,8.54-.32,1.79.28,4.07-.75,5.48.71.79.9,1.13,2.49.36,3.53l-.09.12Z"/>
    <path class="cls-1" d="M250.79,123.95c-.42-.08-.88.14-1.37.58-6.44,6.6-2.59,18.24-7.43,25.57-1.25,2.09-4,2.9-6.13,1.65-6.68-3.66-1.52-14.8,3.93-20.52,1.93-1.54,3.33-4.96.86-6.62-.97-.56-2.39.28-3.83,1.17-3.33,2.4-5.3,2.43-8.46.1-.72-.43-1.32-.3-1.94.17-1.43,1.13-4.16,4.12-6.17,4.21-2.26.16-2.57-2.58-1.96-4.24.93-2.98,3.56-7.87,5.4-10.38,3.79-5.14,6.88,2.88,7.63,6.05.85,2.07,2.5,2.19,3,.05.21-3.66,2.11-8.84,5.8-8.99,3.35-.2,3.74,3.4,3.55,5.99-.08,1.62.68,4.21,2.34,4.3,1.03.07,2-.99,3.43-2.48,1.57-1.61,3.54-3.64,5.21-5.36,3.18-3.51,4.28-4.34,6.52-.5,2.3,4.1.48,9-3.45,11.9-.84.59-1.92,1.04-2.91.89-1.83-.02-2.57-2.95-3.92-3.52l-.1-.02ZM236.22,147.89c5.66,1.02,5.72-9.16,6.13-13.91.03-.35.11-.99-.09-1.16-.31-.14-.74.38-1.02.65-3.28,3.43-5.54,8.07-5.51,12.88,0,.5.07,1.13.39,1.45l.1.09Z"/>
    <path class="cls-1" d="M342.74,199.64c.27.22.38.58.41.96.18,1.85-1.22,5.71-.94,7.45.45,1.29,2.39.23,3.6.2,1.45-.34,5.07.12,3.28,2.12-2.23,1.92-6.35,1.33-8.17,3.23-2.9,2.91-2.37,14.96-6.98,16.46-2.15-.33-.89-3.58-.36-4.91,1.13-2.64,2.14-5.37,2.63-8.23.62-2.97-1.2-4.02-3.36-2.38-2.85,2.08-3.25,6.39-4.63,10.05-.44,1.09-1.27,2.53-2.57,2.21-.74-.19-1.34-.83-2.03-1.15-1.6-.66-3.42.79-5.46.52-3.44-.34-4.95-5.17-8.53-5.19-1.23-.07-1.92,1.36-2.12,2.58-.52,2.57-.68,6.22-2.12,7.17-.96.45-1.8-1.77-1.68-3.92.05-1.48.38-2.93.41-4.42.11-2.02-.68-4.29-.14-5.43.32-.8,1.1-1.17,1.75-1.68.64-.46,1.25-1.33,1.58-2.18.94-2.42,1.82-5.34,3.46-7.48,3.27-4.42,6.77-3.48,8.37,1.78.28,1.02.6,2.39-.05,3.26-1.33.95-2.64-1.92-3.72-2.87-2.36-2.23-3.31,2.08-4.53,4.65-.78,1.69-1.96,4.88,1.01,4.82,3.27.15,5.45-3.43,8.4-3.27,1.98,0,3.37,1.96,4.99,2.72,2.12.08,2.38-7.35,4.25-8.65,2.24-.96,5.36,1.32,7.74.59,1.46-.69.91-2.91,1.53-5.06.38-1.75,1.82-4.47,3.89-4.01l.08.05Z"/>
    <path class="cls-1" d="M160.28,121.27c1.86.88,4.71-6.03,6.41-7.09,1.51-1.43,4.13-.96,4.11.79.46,2.15-7.62,11.89-1.3,9.03,4.36-1.98,5.3-8.01,9.23-10.04,3.63-1.87,6.15,1.36,6.31,4.93.2,2.12.1,6.08-1.25,7.3-.98.45-2.07-.59-3.07-.87-3.84-1.64-9.4,2.58-13.62,2.65-1.3.07-2.48-.52-3.5-1.21-1.03-.67-1.81-1.03-2.47-.35-2.5,3.34-3.26,10.7-6.92,14.49-2.77,3.14-6.77,1.54-6.84-2.52.1-6.6,8.74-8.84,8.75-15.82.08-1.15,1.13-5.85-1.11-4.11-1.3,1.2-2.51,3.04-4.29,3.71-4.41,2.04-9.79-2.16-6.34-6.21,2.92-2.63,2.22,4.38,5.28,2.69,3.02-1.94,7.06-9.26,9.27-8.15,1.61,1.25,1.17,5.49,1.04,7.76-.1,1.3-.09,2.5.27,2.94l.06.07Z"/>
    <path class="cls-1" d="M117.53,100.99c.58.59.38,1.79.22,2.67-1.56,8.66-4.76,16.8-4.26,25.65.05.88.02,2.31-.46,2.84-.48.64-1.43-.31-1.77-.98-1.2-1.58-.87-5.23-2.85-4.51-1.19.5-2.24,1.45-3.39,2.09-5.22,3.06-8.61,0-8.98-6.75-.08-2.05-.73-4.98-2.86-2.66-2.48,2.59-3.76,8.84-7.57,6.03-.79-.91-.85-2.47-.95-3.56-.06-.67-.19-1.11-.46-1.09-.98.37-2.4,2.92-4.15,2.69-1.1-.07-1.84-.83-2.56-.35-.47.28-.88.89-1.3,1.33-1.78,2.33-4.72-.05-5.3-2.47-.71-4.98,5.02-8.01,9.63-7.62,1.06.11,1.78.6,2.71.57,1.3-.1,2.16-2.03,3.72-2.34,1.73-.33,2.01,1.99,1.97,3.26.04.68-.34,1.9.13,2.23.86-.22,1.46-1.32,2.15-1.93,1.67-1.9,4.27-3.55,5.67-2.83,1.7.36,2.75,4.13,2.93,6.43.14.66.09,1.52.51,2.01.36.32,1.19-.87,2.27-2.43.79-1.06,1.73-2.78,2.76-3.26.84-.36,1.67.39,2.43.74,1.71,1.05,2.46-.3,2.87-1.86.89-3.05,2.58-9.44,3.37-12.03.38-1.57,2.41-2.81,3.42-1.93l.08.07Z"/>
    <path class="cls-1" d="M324.17,255.88c.23.15.31.42.37.72.27,1.47-.62,5.56-.37,7.17.18,1.49,1.68,1.34,2.95,1.38,1.82-.04,4.34.46,5.84-.4.84-.37,1.42-.84,2.35-.77,1.34.19,2.26,2.09,3.43,2.8.92.7,2.43.82,3.47.36,1.43-.53,2.57-1.86,3.67-2.8.42-.32.74-.59,1.21-.44,1.22.74,1.41,3.14,2.17,5.54.23.89.56,1.9.49,2.76-.1.93-.99,1.24-1.85.97-1.18-.38-1.96-1.6-3.18-1.89-1.12-.35-3.09.69-4.55.76-1.99.25-3.64-1-4.88-2.45-1.44-1.72-2.52-1.98-4.29-.59-3,2.13-9.18,3.28-12.26,2.77-3.3-.47-.82-5.56-5.15-1.78-3.26,3.11-8.91,4.41-11.2.41-1.17-2.2-3.05-4.15-5.62-2.64-3.12,1.45-4.3,4.97-7.29,4.8-3.69-1.18-2.06-10.03.1-11.43,3.09-1.64.12,5.87,3.15,4.54,1.21-.49,2.42-1.35,3.68-1.81,2.35-.96,5.03-.65,7.61-1.11,2.13-.25,4.1-1.38,6.26-1.1,2.41.35,5.36,2.98,7.62.7,1.82-1.62,2.96-4.43,4.86-5.96.38-.32.93-.71,1.35-.56l.07.03Z"/>
    <path class="cls-1" d="M338.32,147.72c.43.28.45,1.1.14,2.31-.51,1.98-1.48,4.96-1.8,6.53-.08.44-.1.89.07,1.26.64,1.05,2.3,1.2,3.42,1.22.92-.01,1.34-.65,1.41-1.47.19-1.64-.12-4.89.14-6.44.17-1.56,2.16-2.09,3.35-1.33.5.32.72.92.71,1.83.03,2.06-.73,4.56-.32,6.61.8,1.7,3.7-.72,4.49,2.14.82,1.7,1.67,9.26,3.59,9.11,1.45-.33,2.15-2.1,2.82-3.38,1.61-3.36,3.23-7.61,6.7-8.52,2.61-.79,5.42.78,5.73,3.6.33,1.88.09,4.2-.24,6.25-.21,1.06-.51,2.24-1.41,2.89-1.48.97-2.97-1.84-4.51-1-.58.3-1.23.96-1.81,1.43-2.91,2.53-7.98,4.03-10.83,1.38-1.24-1.11-1.83-2.77-2.17-4.37-.24-.86-.74-5.16-1.79-3.07-.64,1.47-.99,3.32-1.68,4.83-1.5,3.6-3.32,4.22-3.9.94-.63-2.15.38-4.9-.79-6.8-.83-1.1-3.26-1.81-4.22-.55-.8,1.35-.43,3.32-.91,4.84-.44,2.2-2.54,4.01-3.26,3.02-.65-1.17-.24-2.62-.19-3.97.06-1.58.57-4.19.2-5.37-.31-.73-1.21-.45-1.86-.44-1.41.2-3.41-.26-3.58-1.1-.08-.68.38-.9,1.04-1.28,1.93-.91,4.87-.96,5.93-3.08,1.07-2.32,1.22-5.72,3.16-7.25.61-.51,1.56-1.12,2.31-.82l.08.05Z"/>
    <path class="cls-1" d="M339.92,111.23c.74,1.13,1.35,2.38,1.57,3.71.35,1.56-.46,6.1,1.87,6.17.84-.22,1.45-2.15,1.81-3.21,1-2.39,1.71-6.64,3.5-7.12.67-.09,1.27.27,1.94.39,1.22.31,2.51.07,3.77-.17,3.15-.75,4.88,1.95,4.66,5.25-.27,2.8,1.18,5.75,3.42,2.02.47-.9.94-2.08,1.44-3.23.92-1.77,1.62-4.5,3.54-5.06,1.9-.02,1.83,2.7,1.76,4.12-.29,4.83-.05,11.57-5.93,12.04-2.3.18-5.28.34-6.89-.84-2.01-1.69-2.52-3.18-5.5-2.22-1.97.51-4.26.45-6.03,1.39-2.29,1.23-3.71,2.74-5.55-.41-.63-.91-1.38-2.36-2.57-1.61-.75.43-1.69,1.76-2.74,2.14-1.16.5-2.18-.28-2.37-1.55-.3-1.68.32-3.52.09-5.23-.19-1.78-.88-2.96-.25-4.02.86-1.22,2.03-2.39,2.95-3.61,1.77-2.38,3.62-1.73,5.37.88l.11.17Z"/>
    <path class="cls-1" d="M565.01,259.2c.46.34,1.25.36,1.91.43,2.9.19,6.66.83,8.7,2.89.59.62,1.64,1.69,1.08,2.46-.37.33-1,.32-1.57.32-2.33-.13-6.68-.53-8.8-.66-1.17-.08-1.95.1-2.21,1.57-.59,1.81-.19,6.97-2.36,6.96-1.07-.12-2.16-.91-3.28-.89-2.97.45-6.52,2.2-10.24.91-1.23-.27-2.45-1.11-3.58-.94-.9.2-1.62,1.68-3.02,2-.98.25-2-.21-2.67-.94-1.7-1.57-1.04-5.09-2.91-4.8-2.82.92-7.23,5.87-9.68,2.65-1.83-3.51.81-7.61,3.51-9.94,1.86-1.6,5.75-4.03,7.57-1.62,1.63,2.67,2.3,6.31,3.91,8.95.43.7.97.57,1.22-.14.65-1.38.69-4.68,1.64-6.23.78-1.29,1.98-.59,2.6.9.76,1.67.23,3.84,1.19,5.41,1.55,1.95,6.64,2.16,8.17.57,1.31-1.46.45-3.68.74-5.44.26-2.23,2.78-3.48,3.78-5.65,1.06-2.1,1.28-4.73,2.53-6.72,1.64-2.42,2.78-.14,2.55,1.75-.08,2.07-1.07,4.32-1.1,5.36,0,.3.04.56.25.76l.07.06Z"/>
    <path class="cls-1" d="M201.24,224.35c1.02.33,2.28-.16,2.8-1.1.62-1.01-.03-2.6.26-4.42.69-4.76,5.03-11.23,10.15-8.32,2.62,1.72,2.01,6.53,2.44,10.31.05.71.07,1.52-.26,2.1-.63,1.15-2.17,1.06-3.14.33-.97-.61-1.42-1.21-2.3-.77-.52.24-1.15.89-1.64,1.36-3.94,3.94-9.25,6.67-11.95,2.28-.6-.88-1.18-2.1-2.29-2.21-1.06-.08-2.23.87-3.18,1.42-4.56,2.79-8.21.19-6.65-5.11.97-3.05,2.75-6.26,5.37-8.08,1.85-1.36,4.62,1,6.31-.43,1.17-1.31.81-5.99,2.96-7.39.72-.43,1.46.07,1.82.75,2.48,3.11-4.06,16.86-.8,19.24l.12.05ZM195.54,215.29c-2.6-2.42-7.92,4.17-6.88,7.1,2,1.44,8.18-5.18,6.96-7.02l-.08-.09Z"/>
    <path class="cls-1" d="M772.59,144.53c.57.48.49,1.57.26,2.34-1.79,6.34-8.91,16.95-8.1,21.63.08,2.13,5.15,3.11,3.87,5.28-1.33,1.37-3.93.42-5.12-1.09-1.36-1.35-2.09-4.27-4.35-2.47-1.76,1.19-4.76,3.4-6.55,4.61-1.05.73-2.26,1.15-3.48.57-2.12-.95-4.42-3.01-4.77-5.37-.32-2.15-1.06-1.36-2.52-.29-2.04,1.62-6.85,6.27-7.08.85.3-2.85,2.17-7.37,4.58-8.36,1.63-.41,1.31,1.97,1.63,2.92.58,1.38,3.78-2.68,5.34-3.11,2.28-.99,2.43,2.38,2.16,4-.02.99-.64,2.87.19,3.52.56.21,1.67-1.39,2.84-2.79,1.66-1.89,3.56-3.66,5.82-4.07,1.69-.45,3.75.25,4.71-1.52,1.35-2.54,3.89-9.2,5.78-12.91.72-1.7,2.95-4.77,4.72-3.79l.08.06Z"/>
    <path class="cls-1" d="M391.47,114.23c2.26,1.3,4.49-2.85,5.2-4.99.85-1.91,2.48-9.21,5.34-6.99.52.85.1,2.02-.24,2.93-1.11,3.1-3.08,7.08-2.65,10.49.29.83,2.04-.09,2.9-.44,4.32-1.87,11.02-1.28,11.36,2.5.16,1.31-.69,2.6-1.41,3.6-.48.7-.79,1.19-.08,1.53.84.45,3.21.51,3.86,1.02.2.14.31.32.26.55-2.14,2.99-7.8,3.79-10.52,1.01-1.6-1.38-1.66-4.38-3.28-4.37-1.58.34-2.72,1.95-4.27,2.48-1.47.65-2.97.69-3.56-.95-.4-1.01-.34-2.45-1.07-3.29-1.53-1.66-3.17.76-3.31,2.3-.47,2.31-1.24,5.5-2.49,6.26-.82.54-1.53.02-1.76-1-.51-1.75.96-3.91,0-5.55-1-1.44-4.92-.82-6.56-2.42-1.28-1.71,4.38-2.02,5.36-2.56,1.63-.48,2.52-1.49,2.88-3.06,1-3.3,1-9.32,4.62-10.77.29-.03.64.07.76.23.57.72.35,1.81.17,2.67-.53,2.02-1.36,4.25-1.83,6.33-.15.78-.26,1.78.26,2.39l.08.08Z"/>
    <path class="cls-1" d="M382.76,264.2c.73.49.93,2.13,1.46,2.21.25.06.58-.21,1.02-.65.87-.86,1.95-2.03,3.28-2.06,3.67-.1,4.74,6.48,8.24,7.1,1.87.18,5,.53,6.63-.39.92-.67.39-2.44.78-4.02,1.65-5.24,9.57-3.43,8.98,2.21-.07,2.03-1.51,3.83-1.23,5.87.32,2.28,2.66,4.41,1.81,6.85-2.03,5.05-12.82,2.61-16.32-.97-1.01-1.23-.85-2.42.39-2.38.87-.01,2.3.51,4.04.99,2.32.61,4.74,1.32,6.67,1,1.19-.3.92-1.55.58-2.52-.59-1.56-1.62-3.24-3.46-2.95-7.96,1-10.26,2.41-15.58-4.92-3.57-4.28-3.12,1.09-3.5,3.74-.68,2.49-2.63,2-3.3-.27-.22-.75-.31-.95-.61.12-.9,2.88-3.49,2.13-4.07-.5-.57-3.02.08-6.38,2.53-8.14.45-.34,1.1-.64,1.58-.37l.09.06Z"/>
    <path class="cls-1" d="M453.26,218.08c.59.11.97-.93,1.25-1.41,1.09-2.13,1.68-4.97,4.08-5.28,1.64-.14,2.55,1.98,4.21,1.72,1.48-.34,3.23-.95,3.61,1.06.3,2.46-1.73,4.51-2.17,6.87-.67,2.16-.15,5.09-1.3,6.28-1.57,1.81-2.69-.14-3.98-1.11-1.1-.71-2.58-.26-3.84-.11-7.54,1.29-5-4.87-6.31-9.41-.75-.88-1.79.61-2.8,1.97-1.19,1.69-2.31,4.1-3.85,4.98-2.24,1.24-5.64,2.31-7.96.74-4.4-2.98-1.76-14.33,3.21-12.09,1.58.61,2.89,2.46,3.94,3.58.4.38.79.53,1.32.35,3.63-1.8,7.78-10.34,9.88-1.2.21.95.09,2.29.66,3.04l.06.04Z"/>
    <path class="cls-1" d="M301.5,309.28c-.9,1-2.07.19-2.58-.81-.42-.56-.37-1.62-.96-1.88-.28.05-.47.37-.66.65-.97,1.79-3.13,5.24-3.99,7.49-.47,1.94,2.27,1.1,3.3.8,1.72-.5,3.35-1.98,4.78-1.98,2.25.1,1.6,2.2,1.25,3.67-.04.73,1.24.33,1.8.15,3.5-1.16,5.67-3.72,7.25-6.76,1.09-1.74,3.42-1.54,3.19.8-.1,1.08-.8,2.2-1.22,3.24-.43,1-.66,2.06-.37,3.13.48,2.21,3.24,4.2,3.28,6.67-.39,3.08-3.86,1.12-4.84-.59-1.57-1.84-1.97-4.39-3.35-4.71-1.33.14-2.32,1.54-3.52,2.25-2.58,1.81-6.62,3.7-8.76.47-1.56-2-3.38-2.27-4.53.57-.62,1.44-1.14,3.1-2.26,4.26-1.14,1.31-2.98,1.18-2.99-.8-.11-1.42.81-3.27.5-4.1-.55-1.23-2.61-.64-3.71-1.03-2.05-.51-2.27-2.97-.34-3.76,2.88-.86,6.12-.36,7.17-3.91,1.42-3.21,5.49-14.1,10.01-12.08,2.05,1.06,3.08,6.15,1.65,8.15l-.09.1Z"/>
    <path class="cls-1" d="M549.39,116.45c.37.7.05,1.14-.16,1.85-.42.96-.57,2.69.84,1.92,1.22-.67,3.28-3.73,4.43-4.4.16-.09.32-.15.48-.17,1.18-.22,1.96,2.49,3.3,2.55,1.54.08,3.01-2.52,4.51-2.53,1.48-.04,2.3,1.48,3.67,1.92,1.3.56,2.82.35,4.14.86,2.86,1.14,2.93,6.09,1.89,8.58-.34.81-1.07,1.81-2.03,1.2-1.17-.66-1.67-2.62-3.05-2.99-.89-.17-1.64,1.33-2.81,2.21-4.47,2.91-1.52-3.85-1.67-5.58-.24-2.08-2.04.11-2.44,1.03-1.1,2.35-1.91,5.48-3.77,6.83-3.87,2.86-2.81-3.12-2.76-5.36.01-.92.16-1.81-.11-2.61-.3-.71-1.26.89-2.33,2.61-.92,1.48-1.92,2.95-3.1,3.36-2.66.71-2.51-3.23-3.04-4.86-1.23-3.27-4.38,6.42-6.85,7.26-.41.21-.86.29-1.27.11-2.9-2.19,1.88-8.94,3.36-11.29,1.64-2.35,2.72-3.79,4.71-3.82,1.32-.02,3.13.18,3.99,1.25l.06.09Z"/>
    <path class="cls-1" d="M371.16,303.45c.39.59.21,1.47.1,2.19-.49,2.46-1.54,7.12-1.97,9.32-.35,1.51.25,1.75,1.75,1.36,1.7-.48,3.96-.87,4.88-2.55,1.11-2.16.44-6.52,2.76-8.45.69-.57,1.91-1.28,2.58-.44.69.91-.75,5.33-1.07,7.42-.2,1.16-1.03,4.02-.6,4.38.62.35,1.52-.38,2.21-.57,2.54-1.16,5.26-.68,7.81-1.43,2.78-.83,5.91-2.92,6.84.47.35,1.72-1.47,2.42-2.91,2.92-.83.31-1.41.73-1.48,1.47-.12,1.68,1.49,4.64,1.2,5.89-.58,1.75-3.94-.11-4.72-1.08-1.48-1.58-1.4-4.36-2.64-4.94-.66-.34-1.36-.15-2.05.12-1.9.81-3.65,2.44-5.35,3.57-1.28.79-2.62,1.87-3.54.54-.55-1.04-.42-2.92-2-2.94-1.57-.05-4.09.37-5.26,1.51-.73.71-.95,1.9-1.39,3.18-1.64,5.19-4.36,4.11-3.36-1.4.11-1.29,1.12-3.06.05-4.08-.9-.65-3.67-.28-5.01-1.33-1.45-.95-.96-2.63.91-2.82,1.37-.22,3.41.21,4.75.09,1.56-.03,2.09-1.41,2.37-2.73.74-2.81,2.06-10.92,5.09-9.72l.06.07Z"/>
    <path class="cls-1" d="M463.13,323.11c.8,1.62,7.05-1.51,8.82-1.46,4.73-.4,1.22,2.64-1.04,3.63-7.32,3.7-10.87,4.65-14.65-3.08-.44-.74-.93-1.3-1.5-1.5-2.81-.68-4.16,4.21-6.28,4.31-1.47.18-2.94-.86-4.39-.18-1.17.5-2.62,1.67-3.91,1.03-1.18-.65-1.22-2.22-.88-3.41.88-3.58,2.8-9.51,5.01-10.3,1.88-.61,1.24,2.47,1.28,3.5,0,.6.13.94.47.93.34,0,.88-.33,1.56-.72,2.44-1.43,5.66-2.32,8.41-1.26,2.49,1.06,3.14,3.99,5.32,1.57,1.83-1.92,3.66-4.51,6.16-5.49,2.04-.83,4.25.92,3.81,2.99-.81,2.72-4.01,5.75-6.52,7.72-.55.45-1.44,1.04-1.65,1.64v.07Z"/>
    <path class="cls-1" d="M420.07,204.82c.92,1.12.01,3.59.05,5.02-.02.65-.12,1.34.4,1.76.84.64,4.02-.45,5.65-.27,2.51.21,2.21,3.41,2.16,5.36.01,1.67-1.96,12.09-4.4,9.32-1.27-2.42.49-6.82.02-9.62-.63-1.14-2.5-.84-3.3,0-1,.94-.43,3.15-.8,4.96-.52,3.31-3.95,3.35-3.64-.33.03-.85.18-1.74.06-2.41-.25-1.68-2.28-1.83-3.43-.86-1.37,1.1-1.87,3.25-3.26,4.44-4.82,4.72-13.34-3.96-10.24-8.46,1.69-2.48,5.48-2.83,7.98-1.49,1.55.75,2.15,1.72,3.45,1.66,1.92-.41,4.49-1.19,5.46-3.1.84-1.7.51-4.43,1.88-5.61.49-.47,1.29-.83,1.89-.44l.08.06Z"/>
    <path class="cls-1" d="M461.71,253.71c.37.25.51.8.46,1.64-.07,1.92-.66,4.31-.47,6.28.18,1.23,1.38,1.2,3.06,1.25.86.02,1.74.09,2.6.06,2.24.07,4.08-1.58,6.18-1.15,1.53.43,2.47,2.07,2.77,3.56.3,1.55.1,2.82,1.07,3.63.89,1.14,6.25,1.91,5.71,3.35-.77.68-2.62.65-3.88.53-2.36-.27-4.86-.75-7.02-1.67-2.94-1.35-4.3-5.27-8.26-4.23-1.74.41-3.14,1.61-4.74,2.35-1.85.98-4.05.65-5.13,1.98-.6.73-.84,1.75-1.47,2.45-2.02,1.85-3.1-1.86-3.86-3.21-1.08-2.12-6.02-1.07-7.11-3.41,1.44-1.48,4.85-.59,6.42-2.19.93-.89.64-2.66.89-4.38.16-1.17.52-2.49,1.37-3.33.95-.91,1.96-.36,2.19,1.16.36,1.91-.56,4.22.28,6,1.1,1.98,3.46,2.49,3.94-.22.54-2.25,1.32-6.29,1.83-8.34.24-1.37,1.72-2.8,3.1-2.18l.09.06Z"/>
    <path class="cls-1" d="M254.64,272.82c-1.81,1.57,9.65,7.13,9.63,10.64-.08,6.3-14.05,4.38-19.36,3.77-.84-.13-1.99-.26-2.12-1.21.51-2.77,5.48-1.2,7.65-1.33,1.9.04,3.79-.09,5.64-.44,7.37-1.3.07-4.29-2.53-5.89-2.47-1.18-3.6-4.11-6.04-4.73-2.78-.84-5.64,1.15-8.2,1.55-2.89-.02-1.81-4.51-.13-5.58,1.61-1.01,3.57.12,5.34.17,3.32.28,5.68-1.63,8.77-2.74,1.85-.7,3.99-1.18,6.09-1.33,6.54-.85,9.66,3.82,1.2,6.12-1.61.51-4.65.49-5.87.96l-.07.04Z"/>
    <path class="cls-1" d="M518.91,271.71c.96.97,2.97.98,3.95,1.99,1,.87.65,2.4-.41,2.98-2.14,1.06-4.88-2.36-7.19-2.02-2.17.28-4.33,3.93-6.93,2.56-1.45-.93-.3-2.68.75-3.56,1.71-1.42,1.58-3.42-.36-4.45-1.72-.98-3.57-.79-5.57-.38-1.49.28-4.46,1.02-3.48,1.64,1.9.53,4.76-.7,6.41.5.8.59.72,1.6,0,2.31-2.46,2.37-9.63,2.46-11.44-1.67-1.34-2.73-.85-6.36.99-8.74,3.6-4.55,11.38.67,16.32,4.1.78.51,1.73,1.2,2.59.91,1.34-.45,2.87-3.6,4.35-4.57,1.29-.97,2.83-1.22,3.15.2.5,2-4.45,5.98-3.21,8.11l.08.1Z"/>
    <path class="cls-1" d="M696.36,168.16c-.33,1.44,1.59,2.54,2.94,2.72,1.66.08,3.98,1.49,2.19,3.07-.75.66-2.12.67-3.5.55-6.97-.33-3.91-6.93-8.73-7.72-2.9-.23-4.33,2.53-5.7,4.97-.37.56-.78,1.45-1.47,1.48-1.32-.25-1.32-2.68-2.67-2.92-2.39.4-7.93,8.76-10.8,3.38-1.43-3.09.13-6.07,2.27-8.41,1.17-1.32,2.47-3.12,4.02-2.81,2.98.38,5.89,4.24,8.89,2.45.69-.4,1.38-.89,2.13-1.21,2.92-1.32,5.7.58,8.07-.98,1.73-1.08,3.33-2.95,5.42-3.3,2.2-.47,4.53,2.24,3.22,4.22-1.37,1.93-5.42,2.42-6.25,4.41l-.04.13Z"/>
    <path class="cls-1" d="M224.16,273.26c.9.35,2.12.14,2.92.83,1.02.78.61,2.38-.69,2.98-.8.4-1.86.49-2.87.24-4.04-1.54-3.43-4.03-8.48-1.29-3.07,1.53-6.71,2.05-8.26-1.36-.64-1.31-1.35-1.97-2.95-2.08-.86-.12-2.45.08-2.84,1.03-.58,1.31-.78,5.05-3.03,3.83-.75-.54-1.18-3.18-1.64-4.78-.19-1.01-.67-2.21-.03-3.08,1.13-1.31,6.84-.96,10.49-.93,1.93.07,3.71-.34,5.51-.97,1.61-.66,3.18-.3,3.87,1.29.39.9.61.54.93-.17,1.15-2.68,4.21-9.91,5.88-13.83,1.39-4.03,2.37-2.14,2.67.45-.03,4.41-2.11,8.26-2.12,12.77.04,1.53-.57,3.91.54,5.03l.09.05Z"/>
    <path class="cls-1" d="M503.57,213.14c.61.41,2.39.07,4.08-.03,3.86-.22,8.51-.24,11.23,2.92,4.27,5.43-7.12,14.19-10.94,7.17-1.19-1.54-1.03-3.96-2.3-5.31-.92-.81-3.49-.71-4.93-.44-.98.17-1.44.82-1.71,1.72-.66,2.17-1.99,7.14-2.76,9.67-.19.55-.45,1.25-.98,1.32-1.7-.48-2.3-3.24-2.08-4.85.15-2.06,1.73-4.73.65-6.35-.48-.77-1.45-1.27-2.07-1.85-.32-.3-.44-.61-.28-.89.53-.77,2.21-1.09,3.19-1.41,1.77-.43,3.28-1.33,4.36-2.81,1.6-1.87,3.84-6.23,6.16-7.07.83-.31,1.43.41,1.26,1.22-.13,1.76-2.97,5.06-3.13,6.33-.04.23,0,.46.17.61l.07.05Z"/>
    <path class="cls-1" d="M228.39,312.57c1.04.99-.31,5.79,1.61,5.42,3.1-1.38,12.24-5.9,14.72-2.25.64,1.17-.07,3.3.92,3.49.81-.06,1.56-.75,2.25-1.24,3.26-2.86,7.66-3.38,12.04-3.6.74-.03,1.56-.03,2.15.35,1.25.73,1.3,3,0,3.64-.56.29-1.33.29-2,.37-8.1.83-20.56,11.43-24.51,4.21-.49-.73-.92-2.06-1.79-2.13-2.02.4-4.36,2.91-6.73,2.06-2-.7-3.3-4.93-2.81-7.15.32-1.26,2.78-3.89,4.09-3.25l.08.07Z"/>
    <path class="cls-1" d="M372.42,286.18c-4.57,3.65-13.62.97-14.5-5.15-.2-2.75,3.94-5.11,5.71-7.04,1.04-.92,1.97-1.51,2.61-1.39.97.18.98,1.46.56,2.17-.74,1.5-3.13,2.24-4.42,3.74-1.59,1.72-.44,3.79,1.51,4.68,2.51,1.2,5,1.97,6.02-.46.97-2.65-.03-9.37-1.45-13.14-.33-.48-.77-.47-1.43-.1-1.51.92-3.54,2.31-5.39,2.91-8.54,3.44-10.73-12.46-6.13-9.82,1.02.82,1.36,3.22,2.29,4.38,3.02,4.2,9.54-2.6,12.47-5.05,3.51-2.95,1.48,7.33,2.38,8.92.88,5.11,3.85,11.39-.1,15.23l-.13.11Z"/>
    <path class="cls-1" d="M219.58,318.31c.49.89,2.11,1.15,1.54,2.46-2.04,3.32-6.61,5.69-10.38,4.06-3.17-1.04-6.83-3.04-7.79-5.97-.23-.54-.42-1.44-.97-1.53-1.02-.03-2.19,1.07-3.1,1.65-2.67,1.72-4.32,3.73-6.38,5.61-3.37,2.22-3.11-1.99-2.34-4.02.81-2.61,2.65-9.62,6.26-7.86.43.35.75.84,1.19,1.15.88.61,1.91.11,2.84-.3,4.35-2.15,5.48-.59,6.88,3.01.57,1.23,1.46,1.74,2.48.42.5-.56.98-1.36,1.43-2.03,2.78-4.12,8.68-4.94,8.76-1.04.15,1.36-.86,3-.46,4.27l.05.1Z"/>
    <path class="cls-1" d="M302.02,116.92c.72.36,2.24.24,3.21.19,1.24-.09,2.66-.3,3.16-1.56.91-2.04.35-6.99,3.16-8.04,1.81.28-.09,6.48.33,8.14.04.61.35,1.08.9,1.29,1.3.4,3.16.29,4.52.77,2.62.76,2.5,2.45-.14,3.21-1.85.72-4.64.11-6.28.87-2.16,1.53-1.65,5.73-3.84,7.31-1.03.51-2.29-1.35-2.08-3.37.45-3.7,2.92-5.32-2.86-4.92-1.52.12-2.09.63-2.54,2.16-.76,2.46-2.22,7.59-2.91,9.73-.65,2.51-2.44-1.12-2.48-3.25,0-.91.34-1.75.7-2.59,2.47-5.38,3.68-12.83,5.53-18.7.79-1.95,1.54-5.87,3.96-6.03.37.04.67.27.81.69.27.77.04,1.8-.2,2.63-.89,2.94-2.69,8.36-3.22,10.34-.08.42-.14.82.19,1.07l.08.05Z"/>
    <path class="cls-1" d="M186.02,257.24c2.84,2.48,3.12,8.08-.16,9.88-.71.38-1.86.92-2.55.44-.75-.95.85-2.61,1.04-3.67.26-.95,0-1.92-.67-2.54-.92-.91-1.67-.06-2,.92-.78,2.03-2,5.07-2.58,6.86-.28.82.07,1.12.89,1,2.52-.22,8.98-1.59,11.99-1.62,2.56.38,2.5,7.16,1.59,8.93-.94,1.99-3.19,2.6-3.59.26-.41-1.34.15-3.32-.71-4.43-.38-.36-.92-.34-1.48-.32-1.62.16-4.28.39-6.09.74-1.97.29-1.94,2.3-2.25,3.91-.17,1.28-1.58,3.69-2.74,3.38-1.47-1.14.11-4.22-1.07-5.24-.74-.69-2.85.21-3.9-.32-.97-.44-.53-1.32.14-2.18.48-.62,1.11-1.19,1.69-1.74,2.71-2.42,2.39-6.66,4.3-10.44,1.31-2.83,4.9-6.24,8.01-3.91l.14.12Z"/>
    <path class="cls-1" d="M28.12,214.97c-.2.59-1.04.84-1.64,1.08-1.84.49-2.4,1.92-2.16,3.7.14,1.95.26,4.3,1.13,4.9,1.37.8,2.97-.55,3.86-1.64,2.29-2.99,3.16-9,6.55-10.16,5.1-1.09,3.37,5.28,1.59,7.97-.68,1.23-3.02,4.09-.94,4.67,2.04.64,3.9-2.39,5.81-1.52,2.66,2.57-2.26,5.61-4.85,5.45-2.86.3-4.99-2.07-7.27-1.78-3.34,1.26-6.28,5.97-10.28,4.59-1.19-.51-1.59-1.77-.58-2.62.9-.85,1.99-1.78,1.97-3.13-.5-4.07-2.63-9.15.03-12,.75-.85,1.8-1.55,2.93-1.75,1.8-.35,4.14,1.1,3.89,2.13l-.03.1Z"/>
    <path class="cls-1" d="M605.42,119.54c2.52,1.32,6.58-1.57,9.45-1.98.87-.18,1.78-.14,2.52.36,2.35,1.66,3.88,7.77,1.4,9.69-2,.78-2.61-2.27-2.87-3.72-.41-2.21-2.09-2.43-3.64-1.06-2.44,1.93-3.63,6.49-7.15,5.5-1.17-.4-1.54-2.68-2.43-1.81-.76.69-.98,3.33-2.09,3.21-.87-.25-1.55-1.1-2.54-1.06-1.35.02-2.2.87-3.38,1.33-3.26,1.38-5.63-1.41-6.17-5.57-.24-1.32.02-3.23,1.33-3.76,1.34-.47,2.19,1.26,2.5,2.5.39,1.05.37,2.72,1.22,3.37.3.04.52-.23.76-.47,1.53-1.73,4.66-6.17,6.56-8.17,1.62-1.68,2.95.37,4.43,1.57l.12.08Z"/>
    <path class="cls-1" d="M655.3,265.95c.67.61,4.66.62,6.94,1.05.83.16,2.67.34,2.02,1.53-1.07,2.07-10.22,3.59-13.39-.24-2.13-3.13-2.37-3.43-6.29-2.79-1.3.11-2.57.52-3.81.15-2.44-1.32-1.23-4.76-5.24-2.74-1.14.38-2.83,1.76-3.9,1.22-.5-.55-.38-1.91-.41-2.8.01-1-.05-2.08.3-2.99.39-1.24,2.43-.89,3.98-.95,1.67-.05,3.36-.15,4.95.44,2.43.84,5.46,3.04,7.91,3.33,2.94.52,4.83-2.96,8.06-2.7,2.15,0,5.07,2.75,3.43,4.82-1.11,1.24-3.95,1.86-4.55,2.64v.04Z"/>
    <path class="cls-1" d="M307.54,148.89c.39.1.39.48.37.88-.19,2.56-1.54,8.73-1.55,11.86.11.58.52.87.99,1.17,2.55,1.31.98,2.73-.27,4.36-1.18,1.36-1.51,3.4-2.67,4.38-1.23,1.16-2.29.15-2.43-1.27-.16-.68.04-1.82-.87-1.78-2.03.49-5.85,2.55-7.97,3.32-1.07.48-1.74.13-1.98-1.06-1.16-6.13-1.02-4.48-4.35.11-1.75,2.35-4.48.55-4.07-2.3.36-2.8,1.17-6.17,2.78-8.55.81-.91,1.96,1.34,3.53,1.62,3.05.41,3.74.47,4.79,3.62.35.82.65,1.86,1.59,2,1.77-.12,3.93-1.63,5.49-2.34,1.05-.51,1.64-1.41,1.71-2.57.26-2.33.73-7.6,1.01-10.07.01-1.93,2.14-3.24,3.81-3.4h.09Z"/>
    <path class="cls-1" d="M57.53,201.75c.61.49.65,1.49.66,2.31.03,7-3.72,13.52-1.74,20.16.21.88.75,2.42-.36,2.78-1.53.08-2.51-1.57-3.76-2.22-1.42-.8-3.45.63-5.37.36-1.73-.23-3.41-1.59-3.74-3.34-.15-.8,0-1.6.22-2.4,1.36-4.59,3.62-8.97,8.26-9.31.59-.18,1.04-.58,1.3-1.15,1.08-2.01.48-8.81,4.42-7.27l.11.08Z"/>
    <path class="cls-1" d="M557.93,217.37c.68.58,2.01.11,3.1-.84,3.71-3.06,5.63-9.94,10.01-9.22.82.14,1.6.63,2.05,1.33,1.63,2.91-1.49,5.59-3.56,7.34-.9.76-1.83,1.46-1.97,2.11-.3,1.31,2.12,1.83,2.43,3.14.31,1.12-.91,1.83-1.86,2-1.08.19-2.15-.42-2.98-1.05-1.08-.94-2.09-1.81-3.55-1.18-2.96.83-7.44,4.01-10.24,1.91-.77-.85-.33-1.97.09-3.05.59-1.44,1.34-3.05,1.99-4.52,1.51-2.62,1.85-6.83,4.68-7.73,1.46-.23,2.18,1.53,1.9,2.75-.21,2.13-3.71,4.55-2.18,6.93l.09.08Z"/>
    <path class="cls-1" d="M212.62,162.79c4.73.89,4.59-10.74,6.68-11.84.89-.72,1.73.31,1.84,1.22.53,2.2-1.04,6.62-1.07,8.48.01.6.25,1.03.77,1.38.76.52,2.21.85,3.05,1.18.52.2.75.4.54.59-1.36.86-4.02.81-5.01,2.41-.74,1.16.05,3.11-.18,4.72-.21,1.7-1.35,3.24-2.13,2.27-1.08-1.42-.96-3.91-1.88-5.34-1.08-1.64-4.37-1.56-4.83.62-.47,1.76-.41,5.32-1.27,6.37-1.27,1.43-2.8-.66-3.04-2.18-.26-1.44-.02-2.89.27-4.31.74-3.47,2.3-9.18,3.29-12.69.54-1.79,1.28-6.52,3.9-5.32,1.8,1.31-.07,7.06-1.06,10.32-.18.65-.37,1.65.05,2.06l.07.06Z"/>
    <path class="cls-1" d="M152.91,301.32c.55.3.26,1.1.18,1.65-.52,2.1-1.64,5.98-2.15,8.08-.31,1.12-.1,2.18,1.2,2.46,3.07.75,6.01,1.25,9.23.27,1.25-.33,2.56-.72,3.83-.94,1.71-.46,4.73.02,3.3,2.29-1.12,1.6-3.39,2.24-4.7,3.69-1.72,1.76-2.5,4.99-4.67,6.16-1.49.96-3.76-.03-3.91-1.77-.21-2.04,2.5-2.9,3.17-4.54.07-1.13-2.27-1.19-4.28-1.46-2.25-.42-3.96,1-5.12,2.78-.69.84-1.74,2.23-2.72,1.89-1.05-.42-.42-3.47-1.35-4.39-.73-.86-2.62-1.64-2.17-2.9.76-1.61,3.14-1.22,4.03-2.73,1.33-3.05,1.35-7.39,3.97-9.49.55-.48,1.39-1.13,2.08-1.07l.08.02Z"/>
    <path class="cls-1" d="M533.13,163.49c.31.79,1.43.37,3-.17,1.22-.41,2.69-.89,4.11-1.16,3.96-1.08,7.72,1.83,4.46,5.35-2.5,2.72-11.93,9.6-15.11,7.3-3.38-3.23-.57-11.44.48-15.37.62-1.85,1.03-3.45,2.14-3.71.69-.15,1.43.11,1.83.71,1.18,1.46-1.49,4.81-.96,6.94l.04.1Z"/>
    <path class="cls-1" d="M694.15,265.81c.98.43,1.79-1.47,3.09-2.72,7.92-8.3,18.17,6.73,8.26,11.36-2.51.72-.77-2.99-.46-4.87,1.65-4.58-3.93-6.21-6.62-3.1-1.06,1.53-2.63,2.34-4.36,2.86-1.4.52-2.47,1.93-4.05,2.21-4.18.97-7.11-2.95-6.1-6.89,1.07-5.14,7.23-5.58,8.97-1.2.32.71.7,1.93,1.17,2.29l.08.05Z"/>
    <path class="cls-1" d="M402.23,159.52c.67.21,1.48-.16,2.44-.58,1.53-.64,3.28-1.21,4.85-.66,3.57,1.7,1.39,4.96-1.12,7.65-1.46,1.57-2.89,3.25-4.66,4.43-2.71,1.48-4.12,2.43-4.41,5.84-.56,2.44-.61,7.1-3.31,8.06-3.73-.35-.56-10.66-.31-13.5.63-3.13,1.24-6.97,2.07-9.77.41-1.02.76-2.42,1.83-2.91.84-.24,1.54,1.03,2.48,1.39l.13.04Z"/>
    <path class="cls-1" d="M66.75,317.4c1.77-.52,4.6-2.46,6.87-3.33,1.49-.61,3.2-.21,4.4.8,4.74,4.47-10.13,11.19-13.79,10.31-1.7-.14-2.54-1.24-2.35-2.82.41-5.31,6.91-19.31,9.95-21.01,1.83-.96.34,1.71-.28,3.41-1.08,2.68-2.54,6.29-3.6,8.92-.83,2.18-1.61,3.64-1.24,3.7h.05Z"/>
    <path class="cls-1" d="M675.35,105.51c2.12,3.59-1.13,11.18-3.15,14.53-.68,1.13-1.91,3.22.47,2.57,3.46-.79,9.48-4.68,12.18-2.03,1.14,1.07.93,2.39-.71,2.65-3.21.69-11.02,2.23-13.54,2.79-1,.21-1.32.86-1.51,1.9-.27,1.47-.4,3.9-1.5,4.99-5.68,5.12,2.53-23.23,3.49-24.89.49-1.63,2.51-3.83,4.17-2.61l.1.09Z"/>
    <path class="cls-1" d="M221.47,229.62c.5-.71,1.41-.91,2.24-.78,1.25.17,2.09.59,2.55-.34.7-2.13.94-5.09,1.17-7.26-.02-1.52-1.92.53-2.61.79-4.05,2.78-7.72-2.39-7.25-6.74,1.29-3.65,4.02-.66,5.09,1.46.48.76,1.23,1.74,1.91.73,2.5-4.03,6.23-13.38,7.23-3.72.11,5.21-1.61,19.39-6.2,21.45-2.33.85-5.78-2.92-4.22-5.45l.09-.13Z"/>
    <path class="cls-1" d="M261.48,164.41c.77-.05,1.32-.96,1.78-1.56,1.39-1.98,2.48-3.6,4.61-3.59,1.46,0,3.21.41,3.68,1.94.38,1.46.14,3.12.16,4.67-.19,3.3.57,8.76-2.68,5.86-.74-.71-1.43-1.84-2.6-1.57-1.6.2-5.05,3.31-5.51.29-.24-.88.27-2.8-.45-3.32-1.04.05-2.5,1.94-3.52,2.72-1.38,1.08-2.98,2.99-4.84,2.22-1.32-.71-1.6-2.98-2.4-3.82-.82-.41-1.36.72-1.89,1.29-1.43,1.9-3.23,4.46-4.63,6.26-1.17,1.53-2.21,1.77-3.06.37-1.49-2.29-.96-8.78-.32-12.23.22-1.7,2.54-3.21,3.21-1.24.38,1.31-.23,4.09-.29,5.57-.1,1.07-.09,1.65.2,1.59,1.46-1,4.69-5.27,6.46-7,.29-.27.6-.54.95-.56,1.59.34,1.75,3.86,3.69,3.52,1.43-.36,3.22-3.6,5.25-2.83.77.33,1.24,1.28,2.09,1.41h.1Z"/>
    <path class="cls-1" d="M197.28,127.88c-.61-.72-.66-1.85-.22-2.68.66-1.43,2.15-1.5,2.68-2.98.39-1.27.35-3.05,0-4.26-.31-.73-1.2-.06-2.67.94-2.58,1.48-7.84,6.84-9.92,5.68-1.26-.83-1.25-2.58-1.05-3.99.38-1.81,1.12-4.83,3.26-4.82.95.09,1.92.62,2.91.72,2.62.35,6.34-2.56,9.04-4.11,2.21-1.53,4.34-2.4,4.65.29-.12,2.57-2.73,4.93-2.31,7.71.11,2.15,1.72,3.84.94,5.54-.79,1.88-5.47,3.36-7.22,2.05l-.1-.1Z"/>
    <path class="cls-1" d="M729.09,172.73c-1.03.24-2.65-.39-4.04.15-2.6,1.12-5.5,5.04-8.49,2.47-3.59-3.28,6.16-12.7,9.96-15.07.62-.37,1.25-.59,1.99-.59,4.78.05,4.28,6.3,3.03,9.54-.65,1.73-1.31,3.17-2.32,3.48l-.13.03Z"/>
    <path class="cls-1" d="M331.03,301.35c.27.36.2.98.1,1.48-.67,2.97-2.76,9.61-3.25,12.41-.05.79.55.85,1.97.84,1.14-.02,2.76-.07,4.35-.02,2.15-.09,7.68.87,4.37,3.29-3.3,1.75-8.56-.73-11.32-.62-.74.26-.78.95-.96,1.77-.14.77-.26,1.77-.46,2.79-.43,1.92-1.08,5.84-3.1,5.91-2.41-1.07-.25-6.72,0-8.82.06-.41.11-.85-.08-1.18-1.21-1.26-3.85-.1-5.3-.95-1.63-.87-.99-2.65.77-2.95,1.88-.56,5.39.48,6.29-1.78.92-2.05,2.94-13.51,6.58-12.24l.05.06Z"/>
    <path class="cls-1" d="M720.58,269.33c2.2.78,8.94,1.75,11.24,2.35,2.54.52-.39,1.98-1.45,2.44-6.08,2.68-12.16-1.1-18.38-2.22-.65-.15-1.65-.23-1.97-.67-.22-.35.31-.98,1.27-1.9.95-.91,2.13-2.05,3.05-2.94,1.85-1.87,3.7-3.1,6.15-3.75,6.34-1.81,10.79,3.23,6.03,5.46-1.71.86-4.11,1.05-5.88,1.22h-.04Z"/>
    <path class="cls-1" d="M661.09,166.85c1.34.98,7.44-1.99,6.1,1.39-1.12,2.37-5.44,5.78-8.51,6.02-1.78-.19-1.65-3.01-2.02-4.42-.36-2.2-.77-1.43-1.32-.16-1.36,2.8-4.36,10.15-7.42,9.45-.62-.46-.48-1.46-.47-2.21.2-2.99.63-9.38.83-12.21.04-.56.15-1.21.54-1.55,2.05-1.39,3.27,1.17,3.3,3.02.16.93.23,1.63.82,1.35.79-.46,2.9-3.55,4.03-4.67.35-.34.8-.66,1.23-.28,1.12,1.08,1.46,3.34,2.76,4.21l.13.07Z"/>
    <path class="cls-1" d="M598.78,265.66c.36-.41,1.01-.42,1.55-.42,2.15.08,6.5.88,7.25.45.55-.39-.33-.87-1.11-1.71-.72-.69-1.48-1.51-1.99-2.4-4.48-7.22,4.65-14.1,11.33-11.35,2.24.88,3.45,2.78,3.47,4.1,0,1.05-.67,1.65-1.47,1.22-.7-.33-1.68-1.38-3.08-1.95-1.79-.8-4.05-.53-5.66.5-6.31,4.47,3.96,9.36,4.13,13.55-.11,1.26-1.41,1.61-2.52,1.89-3.3.78-12.55,1.05-11.97-3.8l.06-.08Z"/>
    <path class="cls-1" d="M438.43,312.43c.67.4.3,1.19-.28,2.54-1.2,2.7-3.46,6.97-5.05,8.82-.38.43-.83.81-1.34,1-1.3.56-2.23-.58-2.47-1.74-.25-.78-.62-.83-1.39-.53-1.08.45-2.34,1.04-3.52,1.21-6.97.65,1.6-12.67,7.85-12.88,2.27-.21,4.09.83,6.11,1.52l.1.06Z"/>
    <path class="cls-1" d="M145.65,162.31c5.55,5.52-8.45,21.88-12.26,13.72-1.5-2.81-1.78-6.63,1.9-7.63,3.73-1.42,5.19-9.27,10.22-6.2l.15.11Z"/>
    <path class="cls-1" d="M8.74,211.4c.26.37.28.91.28,1.41-.12,2.31-.65,8.22-.84,11.11-.22,2.06.77,2.49,2.55.37,1.89-2.32,2.54-6.23,4.26-8.66.75-1.17,2.38-1.38,2.88.05.86,2.07-.74,5.33.03,7.67,1.38,3.84,1.54,5.91-3.36,4.32-2.57-.52-4.08,3.24-6.74,2.53-4.36-1.09-4.35-11.51-2.36-16.46.53-1.78,2.4-3.4,3.25-2.41l.05.07Z"/>
    <path class="cls-1" d="M395.27,220.3c-.66.62-1.67.4-2.29-.18-1.48-1.36-1.14-4.22-2.98-2.32-1.16,1.15-3.07,3.31-4.18,4.42-.35.32-.73.7-1.21.64-.77-.22-1.12-1.18-1.73-1.66-1.26-1.31-2.45.48-3.87,1.08-4.25.97-1.42-7.03.5-9.06,1.63-1.93,4.83-2.04,6.92-.94,2.15,1.35,3.96-1.38,6.08-1.58,2.85-.34,4.49,7.64,2.87,9.5l-.1.1Z"/>
    <path class="cls-1" d="M144.13,277.17c-.17.25-.19.54-.16.86.13,1.22,1.04,3.83.41,5.69-.52,2.06-3.19,2.84-4.16.75-1.5-3.56-1.43-8.88.86-12.22,3.71-5.43,13.11-5.36,14.5-1.93,1.05,4.17-9.38,5.24-11.38,6.78l-.06.08Z"/>
    <path class="cls-1" d="M631.61,106.41c.43.34.35.93.28,1.44-.32,2.51-1.62,6.65-1.52,8.9.19.54,1.04.5,2.57.51,2.34.02,5.94-.03,7.67.04.68.03,1.31.33,1.51,1,.58,2.06-1.23,2.59-3.09,2.62-1.57.14-3.4.3-5,.44-2.13.18-3.26.35-3.82,1.53-1.06,2.12-.97,6.5-3.57,7.24-.44.01-.63-.43-.69-.83-.26-1.49.68-5.22.39-6.4-.1-.43-.38-.63-.81-.67-.7-.06-1.76.25-2.43-.13-.78-.37-.57-1.22-.12-1.78.78-1.19,2.45-1.66,3.31-2.98,1.59-2.42,1.46-5.59,1.54-8.38-.21-2.33,1.92-3.42,3.69-2.62l.09.06Z"/>
    <path class="cls-1" d="M538.07,216.71c.17.32.72-.06,1.61-.88,1.95-1.59,4.44-4.57,6.62-5.67.98-.35,1.87.33,2.39,1.14,1.81,2.73-.11,9.06-2.25,11.7-1,1.29-2.63,1.25-2.75-.57-.18-1.34.55-3.7.38-4.47-.26-1.46-3.55,3.21-4.45,3.48-6.37,5.01-6.8-5.76-4.75-10.5.84-1.94,3.16-.78,3.41.92.34,1.52-.49,4.13-.23,4.78l.03.06Z"/>
    <path class="cls-1" d="M586.23,119.88c2.92,3.28-3.06,12.69-7.48,11.02-4.8-1.23-6-9.36-2.87-13.29,2.21-1.76,8.21.62,10.25,2.16l.1.1Z"/>
    <path class="cls-1" d="M276.1,212.49c2.1,1.26,5.84-.97,8.1.23,1.02.66,2.5,3.44.57,3.77-2.27.31-6.46.41-8.54.64-1.16.1-1.76.49-2.19,1.82-.61,1.61-1.01,3.94-1.86,5.52-.97,1.72-2.52-.79-2.44-2.89-.01-1.76,1.18-3.75.17-5.39-.47-.78-1.5-1.34-2.3-1.82-2.5-1.49.71-2.29,2.42-2.92,3.21-1.22,1.08-5.66,2.64-7.92.69-.97,2.09-.73,2.73.16,1.7,1.69-.5,6.62.62,8.72l.08.09Z"/>
    <path class="cls-1" d="M163.27,162.12c1.45,1.87-.3,5.45-.11,7.87-.24,1.9,2.5,5.46.55,6.71-.77.21-1.37-.05-2.09-.22-2.48-1.06-5,.21-7.52-.26-4.47-.91-6.26-8.65-4.19-12.08,1.75-1.72,3.21.77,2.95,2.67-.11,1.55-.16,3.08.85,4.3.85,1.15,2.43,1.18,3.34.08,2.44-2.47,2.06-10.8,6.12-9.17l.1.09Z"/>
    <path class="cls-1" d="M41.96,311.75c1.31,2.11-1.08,3.17-2.96,2.8-9.98-.67-20.25-2.46-29.94.45-.97.29-2.16.53-2.59-.57-.73-2.26,1.06-3.81,3.3-3.88,9.72-1.39,19.69-1.03,29.44.09.96.1,2.06.25,2.66,1l.09.12Z"/>
    <path class="cls-1" d="M174.9,154.23c.97,1.49-.73,4.09.18,5.69.03.08.38.39.73.44,1.32.24,3.04.23,4.38.69,3.48.99,3.65,3.4.33,4.09-1.36.33-3.03.24-4.38.22-.55.03-.91.09-1.14.5-.9,2.24,2.31,8.29-2.13,8.74-.36-.06-.52-.36-.63-.73-.41-1.62-.57-5.38-1.09-7.36-.35-1.55-2.26-1.19-3.35-1.72-.84-.48-.36-1.3.05-2.05.78-1.29,1.78-2.63,2.4-4.05.74-1.6.75-3.33,1.6-4.13.72-.72,2.08-1.01,2.94-.42l.09.08Z"/>
    <path class="cls-1" d="M366.99,220.67c-.27.39-.08.8.35.91,1.33.39,3.26-.93,4.75-1.08,2.91-.34,2.07,3.09-.57,4.28-3.86,1.94-9.39-.59-9.51-5.21-.6-3.73.72-3.74,3.59-4.99,3.18-1.59,7.18-4.52,9.31-3.36,1.25.64,1.52,2.27.96,3.5-.89,1.9-2.92,3.14-4.85,4.05-1.66.82-3.19.86-3.96,1.81l-.06.09Z"/>
    <path class="cls-1" d="M104.01,305.72c.45.24.49.9.28,1.96-.31,1.54-.79,3.79-1.13,5.44-.16,1.08-.61,2.03-.16,2.99.42.7,1.98.54,3.68.5,2.16,0,4.63-.26,6.2,1.23,1.4,3.38-9.06,1.82-10.08,2.2-1.39.17-1.62,1.78-2.56,2.57-1.71,1.52-3.74-.73-5.68-.69-2.18.09-3.11-1.24-.98-2.8,1.71-1.12,4.23-1.05,5.49-2.88,1.59-2.02,1.56-5.47.94-7.97-.33-1.8,2.56-2.98,3.9-2.6l.09.05Z"/>
    <path class="cls-1" d="M126.52,269.62c.23.29.82-.05,1.75-.63,1.47-.9,3.77-2.32,5.28-3.24,1.25-.79,2.53-1.41,3.14.37,1.24,2.84,1.15,9.86-1.27,11.71-.67.57-1.69.78-2.12-.16-.57-1.16-.35-3.03-.47-4.35-.06-.48-.08-1.04-.57-1.19-.87-.21-3.44,1.66-5.07,2.1-2.63.93-4.25-2.12-4.17-4.39-.12-1.66.97-4.15,2.42-4.59.41-.12.71.15.83.53.41,1.02-.13,3.3.2,3.78l.04.06Z"/>
    <path class="cls-1" d="M424.28,308.96c.93.99.73,3.21-.65,3.65-.67.28-1.49.38-2.14.75-2.77,1.48-1.65,6.8-3.12,9.04-1.11,1.69-3.11,2.23-4.99,2.96-1.63.49-4.08,1.32-5.32.18-.5-.54-.37-1.41.3-2.04,1.15-1.19,3.34-.91,4.43-2.09,2.25-3.24,1.65-10.72,7.55-12.59,1.21-.32,2.79-.75,3.82.03l.11.1Z"/>
    <path class="cls-1" d="M577.69,159.19c.57.7,1.97.55,2.73,1.06,1.91,1.22.39,3.13-1.46,3.2-2.95.18-2.66,2.99-3.84,4.78-.2.15-.39-.1-.6-.62-.39-1.06-.72-2.5-1.58-3.35-2.26-2.54-7.38,2.62-9.03-.92-.33-3.22,4.28-3.93,6.72-3.84,2.05.19,2.76-.58,2.97-2.74.4-1.8.11-4.18,1.25-5.7.87-.85,2.71.64,2.97,2.54.51,1.76-.72,3.86-.19,5.49l.07.1Z"/>
    <path class="cls-1" d="M549.7,161.36c.73-.44,1.62.01,2.02.69.71,1.01.04,2.98.52,3.56.5.53,1.23-.03,2.1-.78,1.77-1.42,2.96-4.97,5.63-4.39,2.38.66.51,4.43.25,6.73-.36,1.72-.77,3.69-1.12,5.33-.22.76-.19,1.88-.98,1.4-1.07-.71-2.59-3.3-4.41-2.81-.85.12-1.82.29-2.68-.06-2.85-1.39-3.15-4.53-2.53-7.54.15-.75.45-1.62,1.07-2.06l.12-.08Z"/>
    <path class="cls-1" d="M92.77,208.83c.26.18.31.47.31.81-.07,1.34-.78,4.62-.96,6.23-.13.94.05,1.6,1.31,1.54,1.26,0,2.96-.23,4.27-.24.72,0,1.39.1,1.76.73.88,2.14.36,3.83-2.16,3.49-5.46-.63-4.94.63-7.56,4.76-1.42,2.35-4.1,1.58-3.7-.31.61-2.72,2.55-10.81,3.4-14.43.19-.73.26-1.42.81-1.93.62-.54,1.82-.95,2.44-.7l.08.05Z"/>
    <path class="cls-1" d="M617.54,153.62c.38.51.09,1.54-.16,2.21-2.64,6.93-4.21,14.09-5.45,21.39-.05,1.95-2.31,4.14-3.87,3.28-.27-.21-.27-.57-.26-.91.19-3.69,2.56-15.1,3.77-19.43.57-2.36,2.97-8.04,5.9-6.63l.07.08Z"/>
    <path class="cls-1" d="M377.19,153.1c.96,1.34-.9,3.63.47,4.89.97.85,3.76,1.11,5.21,1.97,1.5.74,2.68,2.46-.1,2.44-1.34.04-3.34.03-4.72.07-.94.06-2.03-.04-2.31.99-.63,2,1.21,7.1-2.32,6.63-2.68-.94.79-5.93-1.57-7.7-.69-.62-1.83-1.38-1.66-2.06.38-1.08,1.92-1.08,2.46-2.09.91-1.51-.32-4.03,1.22-5.23.87-.52,2.55-.54,3.23.02l.09.09Z"/>
    <path class="cls-1" d="M628.1,258.94c.46.61.8,1.47.97,2.27,1.02,4.37-2.5,8.07-3.66,5.03-.31-.77-.29-1.31-.54-2.15-.7-2.47-5.28,3.99-8.74.46-4.66-4.43,9.68-9.11,11.85-5.76l.12.16Z"/>
    <path class="cls-1" d="M663.81,126.65c-.34,7.17-10.93,6.71-10.59-.5.62-6.66,10.33-6.36,10.59.31v.19Z"/>
    <path class="cls-1" d="M18.95,252.86c.79.05-.11,2.57-.25,4.58-.63,4.33-1.78,12.31-2.32,16.01-.19,1.23-.08,1.69-1.13,1.99-1.27.26-2.9.94-2.43-.74.56-3.84,2.5-17.33,2.97-20.48.1-1.28,2.23-1.28,3.08-1.38h.09Z"/>
    <path class="cls-1" d="M492.21,157.37c-.41.46-1.91.4-2.45,1.25-.69,1.13-.12,2.86-.03,4.16.28,1.8.08,3.68-1.09,5.14-1.84,2.39-5.64,4.26-7.53,2.53-.64-.55-.98-1.39-.29-2.09,2.07-1.86,5.39-1.88,4.66-5.32-.24-3.17,0-6.57,2.85-7.91,1.15-.61,2.43-.5,3.31.52.54.58.83,1.26.63,1.63l-.06.09Z"/>
    <path class="cls-1" d="M473.82,205.07c.42.44.39,1.17.41,1.8-.06,4.78,1.36,15.49-2.57,18.41-.74.35-1.32.24-1.37-.5.05-2.97.49-16,.59-19.21-.16-1.29,2.07-1.16,2.85-.59l.1.09Z"/>
    <path class="cls-1" d="M85.19,325.17c-.32-.42-.6-.95-1.1-1.21-.89-.42-2.11-.21-3.09-.48-3.12-.63-2.8-3.07-.51-6.1,1.55-2.21,2.29-1.05,3.47.58,1.17,1.5,3.8-3.83,5.32-3.43,2.06,1.33,0,7.34-1.91,9.86-.78.98-1.64,1.44-2.1.87l-.08-.09Z"/>
    <path class="cls-1" d="M279.57,159.28c2.44,2.94.14,8.79-1.68,11.83-.83,1.18-2.17,3.25-3.61,2.29-2.19-2.69,1.89-16.17,5.2-14.2l.1.08Z"/>
    <path class="cls-1" d="M80.75,229.35c-.43-.26-.61-.8-.78-1.29-1.4-4.24-1.49-9.92,2.06-12.58.55-.4,1.32-.55,1.92-.23,2.66,1.96-1.18,5.06-1.04,7.54-.17,2.13,1.34,4.63,0,5.99-.58.49-1.2.91-2.02.64l-.13-.07Z"/>
    <path class="cls-1" d="M238.46,237.39c-.37.46-1.95.58-2.68.04-.48-.35-.66-.99-.79-1.58-.82-4.17,1.05-8.12.81-12.46.09-1.1,1.13-1.06,1.88-.6,4.03,2.21.37,8.58.83,13.02.03.49.22,1.1,0,1.49l-.06.09Z"/>
    <path class="cls-1" d="M233,263.7c.3.05.27.3.21.77-.44,3.67-1.05,9.75-1.54,13.23-.22.36-.6.02-1.15-.19-1.3-.47-1.71-1.78-1.8-3.04-.4-4-.35-10.35,4.19-10.78h.09Z"/>
    <path class="cls-1" d="M264.61,213.46c.55.41.16,1.44.06,3.02-.41,3.01-1.83,10.33-4.05,11.15-.88.17-1.81-.72-1.97-1.54-.12-.89.37-1.77.61-2.63.97-3.04,2.13-5.92,2.26-9.1.14-1.25,2.31-1.01,3-.92l.09.03Z"/>
    <path class="cls-1" d="M504.26,168.62c.6.1-.05,1.72-.25,2.54-.88,2.47-2.92,9.31-5.46,9.77-.58-.13-.6-.91-.61-1.46.12-4.27,1.26-11.24,6.22-10.89l.1.03Z"/>
    <path class="cls-1" d="M139.49,312.21c.26.35.05,1.39-.24,2.89-.54,2.66-1.56,6.11-2.1,8.51-.22,1.57-1.73,1.21-2.74.59-3.2-1.76,2.42-13.16,5.04-12.04l.05.06Z"/>
    <path class="cls-1" d="M161.2,303.66c.18,1.76.03,5.88-.05,7.8-.33.57-2.07,1.38-2.75,1.8-.26.12-.32.04-.36-.21-.16-1.33-.86-7.28-1.01-8.61-.06-.61.55-.43,1.1-.55.82-.06,2.33-.31,3.02-.26l.05.03Z"/>
    <g>
      <path class="cls-1" d="M35.12,25.7c.15.11.31.04.46-.07.74-.51,2.27-3.44,3.35-4.64.86-1.13,2.14-.61,3.33-.56.75.01,1.56-.42,2.11-1.02,2.4-2.48,3.6-6.72,6.89-7.53,2.52.05.07,6.36.77,7.57.21.47.87.23,1.89-.35,1.15-.64,2.54-1.63,3.62-1.99,2.1-.94,4.34,1.69,2.63,3.37-2.24,2.34-8,5.32-9.22,9.01-.36,2.29,4.86.14,6.34.14,1.84-.36,5.96-.65,4.96,1.86-.61,1.04-2.23,1.53-3.44,1.77-4.52.69-10.64,3.38-13.82-.26-1.11-1.81.16-4.72.34-6.69.11-.86.05-1.37-.26-1.32-1.64,1.08-2.79,3.65-4.09,5.23-1.58,2.38-3.37,2.91-4.93,1.28-.6-.5-1.11-1.49-1.72-1.75-.93-.19-1.32,1.24-2.01,1.63-1.63.81-1.94-5.74-3.69-3.55-2.93,4.84-6.79,1.9-10.57,4.32-4.72,3.3-13.85,10.82-11.57-1.02.98-4.58,3.32-12.43,3.74-15.34.05-.56,0-1.05-.34-1.49-.72-.93-2.81-2.37-1.75-3.65.73-.52,1.8-.21,2.66.05,4.92,1.65,9.59,4.21,12.99,8.07,1.55,1.63,3.73,1.02,5.64.53,2.4-.51,4.09.98,4.82,3.57.28.81.39,2.2.8,2.79l.05.05ZM20.64,19.48c-1.11-1.03-4.46-2.74-5.6-3.44-.51-.24-.72-.36-.89.09-.47,2.11-2.81,12.56-3.39,15.62.29,2.42,6.18-2.29,6.99-3.42,2.07-2.16,4.9-6.15,2.98-8.74l-.09-.1Z"/>
      <path class="cls-1" d="M172.79,43.38c2.33,3.14-4.22,13.99-3.89,18.26-.38,2.29,1.98,5.11.77,7.09-.56.55-1.3.43-1.91.1-1.46-.72-1.74-3.16-3.45-3.48-1.14-.13-2.79,1.64-4.39,2.15-3.16,1.03-6.39-1.21-7.76-4.03-1.89-4.76-.9-7.33-4.82-1.4-1.66,2.28-5.22,5.21-8.01,3.98-1.52-.63-2.76-3.4-4.48-1.76-2.08,1.89-4.95,4.77-7.5,4.52-1.96-.09-3.34-2.02-3.09-3.91.48-4.83,8.04-11.66,13.65-11.92,3.76-.47,3.35,3.33,3.34,6.17.01.9.07,1.44.26,1.4,1.47-1.71,2.65-5.38,4.05-7.42.87-1.45,1.9-1.6,3.12-.99,1.6.76,3.62.81,5.06,1.96.59.56.76.93.97,1.6.36.83,0,3.08.25,3.45.12.13.38-.04.75-.44,1.05-1.04,1.92-3.24,3.7-3.07,1.68-.02,5.26,3.4,6.3,1.77,1.14-2.68,1.85-5.98,2.79-8.82.73-2.3,1.51-6.81,4.2-5.28l.09.08Z"/>
      <path class="cls-1" d="M596.73,9.9c.57.79.4,2.14.36,3.15-.4,4.39,1.18,9.28-.92,12.23-1.21,1.16-3.54,1.76-4.99.81-1.33-.87-1.67-3.19-3.26-3.74-1.26-.39-2.58.4-3.85.76-1.15.39-2.29.67-3.49.84-4.58.61-11.16.67-14.72,2.66-2.43,1.3-2.76,4.8-4.57,6.76-1.91,1.98-2.3-.56-2.29-2.29-.25-5.44-.89-15.3-1.02-20.62.06-.25.24-.03.34.1.77,1.04,2.23,4.7,4.37,3.26,6.19-4.68,8.43-2.78,8.66,4.68.07,1.3.4.93.94.03,1.55-2.84,6.91-9.84,9.84-5.15.84,1.5.33,3.59,1.04,5.1.68,1.19,4.23-1.43,6.04-2.81,2.27-1.13,5.19-7.31,7.46-5.84l.07.08Z"/>
      <path class="cls-1" d="M513.34,51.73c2.8,1.47-2.64,12.99-2.59,16.49.11.5.8.12,1.76-.64,1.61-1.39,4.03-2.59,5.25-.09,1.31,2.3.41,5.67-.57,8.9-.6,1.65-.73,3.54-2.03,4.65-.37.29-1.08.34-1.5-.07-2.03-1.94-.04-5.24.35-7.47.58-2.81-1.45-.9-2.2.11-2.14,2.63-4.12,6.31-5.99,5.41-.8-.35-1.24-.85-2.07-1.2-1.53-.68-2.98.55-4.45.96-5.82,1.2-5.3-6.99-3.52-10.33.35-.87.99-2.2-.33-2.28-1.34-.14-3.86.23-5.42.33-1.44.2-3.22-.03-3.76,1.54-.58,1.52-.15,4.7-1.32,6.04-.43.55-1.18.8-1.78.37-1.37-1.13-.95-2.99-1.06-5.21-.14-2.76.75-5.22,1.53-7.83.97-3.13.58-7.66,3.71-8,2.14,1.16-.45,6.84.57,8.96,2.07,3.3,11.96-2.79,15.15-2.28,4.84,1.32-4.32,9.06-4.25,11.86-.26,1,.14,2.14,1.37,1.61,6.43-4.06,7.08-11.95,9.86-18.49.57-1.34,1.65-3.5,3.2-3.36l.09.03Z"/>
      <path class="cls-1" d="M247.12,30.27c1.84,2.7-3.57,2.81-4.95,1.74-1.19-1.13-.94-2.97-1.26-4.55-.19-1.18-.25-3.24-1.05-3.8-.28-.13-.61.09-1.03.52-3.12,3.96-6.57,5.55-11.51,3.94-1.76-.46-3.24-.91-4.06-2.35-1.45-1.85-.94-8.21-4.34-7.1-4.51,1.85-6.07,7.63-8.77,10.66-2.08,1.58-4.33-.44-3.99-2.89.3-3.83,1.61-10.12,4.19-11.26,1.14-.59,1.83.39,1.96,1.52.18.66,0,2.14.88,1.98,1.69-.82,3.2-2.72,5.11-3.32,2.1-.87,4.46-.17,6.1-.59,1.55-.4,2.81-1.68,4.46-1.81,1.81-.28,3.59,1.19,2.74,3.16-.76,2.05-3.72,4.22-4.74,5.67-1.2,1.69,1.18,1.24,2.09.72,3.01-1.36,5.28-4.48,8.43-4.85,1-.15,2.17-.03,3.09-.3.84-.22,1.3-.99,1.59-1.81,1.33-4.37,5.14-12.57,7.71-15.03,1.73-1.6,2.82.76,2.41,2.75-.12.72-.38,1.42-.7,2.1-2.09,4.18-5.56,8.43-6.83,13.05-1.04,3.42-1.84,7.93.28,9.83.68.63,1.52,1.18,2.08,1.91l.09.11Z"/>
      <path class="cls-1" d="M292.16,72.19c2.81,3.89,8.21-19.35,14.33-15.14,3.26,2.5.74,9.97-.25,14.17-.88,2.18-2.18,1.21-3.82.75-1.03-.28-2.24.15-3.22.73-3.92,2.37-7.97,4.7-9.67,1.15-1.48-3.87-1.5-4.06-4.85-1.44-2,1.49-5.34,1.53-6.9-.45-3.52-4.75,1.83-15.81,6.2-15.66,1.73-.05,2.88,2.24,3.84,3.42.4.48.78.68,1.09.42,1.47-2.18,2.28-7.52,4.37-9.67.74-.87,1.87-1.1,2.33.02,1.04,2.31-1.5,8.52-2.71,12.08-.93,2.7-1.43,7.05-.78,9.53l.04.1Z"/>
      <path class="cls-1" d="M75.11,45.21c.47.34.49,1.01.48,1.59-.12,1.98-.71,5.83-.73,7.42,0,.33.03.64.23.86.38.31.79.12,1.33-.04,1.63-.57,3.7-1.89,5.45-1.39,1.05.28,1.94,1.18,2.84,1.87,3.52,3.08,8.5,2.71,11.69-.62,1.66-1.56,2.81-3.89,4.45-5.43,6.38-4.76-.49,9.76-.96,11.65-1.18,3.11-1.77,5.13-1.85,7.84-.28,2.94.57,8.49-2.15,10.24-2.37-.41-1.27-9.79-1.11-12.12-.06-1.33,1.28-5.19-.24-5.58-.86-.1-2.79,1.02-4.48.79-1.35-.09-2.71-.85-4.06-.57-1.48.27-3.13,2.09-4.24,1.3-1.21-.9-1.32-2.78-1.83-4.07-.22-.58-.48-.88-.84-.79-1.04.42-2.5,2.53-3.5,3.55-2.87,3.72-4.6,2.12-4.86-1.84-.2-2.49,1.37-5.87-1.01-7.03-6.05-1.94.01,10.5-5.56,10.9-3.27.48-3.46-2.67-2.43-5.5.93-3.29,2.22-7.95,5.06-8.69,1.3-.57,3.04.36,4.17-.45.93-1.16,2.15-4.49,4.05-3.94l.08.05Z"/>
      <path class="cls-1" d="M408.99,70.34c-.94.25-1.57,1.68-2.46,2.35-2.12,1.87-5,2.41-6.93.52-.62-.52-1.21-1.12-1.83-1.65-1.46-1.31-3.23-1.94-4.03-3.63-.32-.6-.55-1.31-.81-1.91-.64-1.36-1.25-.16-2.33,1.11-1.34,1.65-2.81,3.83-4.26,5.36-1.73,1.73-3.1-.29-2.65-3.16.1-.7.22-1.41.34-2.12.75-3.46,1.38-7.41,4.45-8.75,1.7-.3,3.49.78,5.26.16,1.92-.66,3.5-.6,3.55,1.82.14,1.74-.53,4.48-.06,5.8.1.3.26.59.56.64.29.05.64-.2.99-.67.89-1.23,1.4-2.91,2.38-4.13,2.09-2.77,6.12-3.98,7.54-.86.53.94,1.35,2.83,2.16,1.14,1.82-3.61,1.59-7.94,3.34-11.57,1.99-3,3.74.51,3.35,2.84-.38,4.18-3.1,8.22-3.41,12.42-.1,1.05.04,2.12.22,3.16.46,2.27-.31,4.39-2.22,3.3-1.08-.45-1.91-2.07-3.05-2.17h-.1Z"/>
      <path class="cls-1" d="M453.5,53.41c1.17,1.57-.33,4.68-.08,6.6.11,2.08,2.43.76,4.35,1.58.95.37,1.63,1.26,2.37,1.9,1.74,1.36,2.91-1.87,4.46-2.37,2.06-1.13,4.64-.25,7.14-.57,2.08-.19,4.08-1.58,5.99-1,1.82.52,3.02,2.65,2.18,4.38-.82,2.02-3.98,2.7-5.74,4.08-1.6,1.32-2.04,4.43.46,2.79,1.69-1,3.82-3.17,5.81-3.45,1.74.01.73,2.37-.03,3.32-2.23,2.71-5.56,6.57-8.92,6.8-3.59-.46-3.32-5.76-2.67-8.57.21-1.27.95-2.61.41-3.81-.53-.98-3.06-.3-4.76.99-2.98,1.97-3.53,5.8-5.32,8.61-1.23,1.83-3.78,2.14-4.3-.34-.21-.92-.1-2.13.04-3.37.11-1.87,1.02-4.36-.91-5.31-2.72-.21-2.07,3.37-2.75,5.7-.21.88-.49,1.75-.9,2.55-.47,1.32-3.99,4.82-3.97,1.69.12-1.68,1.1-5.11,1.39-7.03.14-.7,0-1.57-.37-2.01-.42-.56-1.07-1.04-.86-1.82.34-1.17,2.33-3.22,2.7-4.96.78-2.18.76-4.89,2.76-6.21.44-.31,1-.52,1.46-.24l.08.06Z"/>
      <path class="cls-1" d="M236.71,48.27c-1.86-.82-2.05-3.8-3.71-.63-1.56,3.08-3.66,6.16-4.25,9.6-.27,1.46-.46,3.76,1.8,3.17,2.73-.65,5.92-1.78,8.82-2.02,1.65-.17,3.44.28,3.85-1.01.92-2.59,1.42-5.89,2.15-8.49.29-1.05.63-1.65,1.06-1.68,1.65.45,2.1,3.13,2.03,4.66-.04,1.93-.98,4.23-.01,5.13,1.59,1.34,4.36.17,5.88,1.65.71.75.42,1.87-.31,2.53-1.21,1.25-4.13,1.03-5.78,1.14-1.18.02-1.91.78-2.27,1.89-.56,1.38-.81,3.93-2.41,4.37-.57.11-1.1-.42-1.42-1.32-.7-1.29.27-4.11-1.22-4.7-3.17,0-8.72,1.17-11.68,1.5-.91.15-1.74.42-1.62,1.51.13,1.46.84,4.21.42,5.7-.45,1.92-1.83,1.02-2.43-.21-4.21-9.64,1.28-20.72,7-28.93,2.83-3.71,7.22,1.11,6.14,4.5-.28.83-.94,1.85-1.91,1.68l-.12-.03Z"/>
      <path class="cls-1" d="M178.46,9.64c.38.21.42,1.05.21,2.3-.28,1.86-1.17,4.9-1.14,6.66-.04,2.13,2.09,1.8,3.27.84,3.13-2.19,3.96-9.22,6.16-9.69,1.15-.18,1.54.92,1.58,2.46,0,1.64-.71,3.74-1.3,5.36-.19.78-1.62,3.41-.35,3.46.94-.02,3.16-2.02,4.76-1.96,3.24.35,3.59,5.38,2.98,7.74-.19.47-.51.58-.93.31-.85-.58-1.55-1.93-2.42-2.59-2.3-1.74-4.04,2.84-6.15,4.53-1.11,1.18-3.4,2.09-4.05-.02-.57-1.95.32-5.09-2.39-4.61-.82.12-1.76.8-2.27,1.63-1.44,1.97-1.09,5.86-3.8,6.31-2.07-.99.1-4.73-.82-6.5-.56-1.34-2.89-1.94-3.79-1.22-.82.77-.37,2.15-.79,3.14-.6,1.9-2.98,2.74-3.5,1.04-.46-1.58-.24-3.69-.53-5.27-.22-1.52-.8-1.37-1.56-.51-1.72,1.85-3.74,5.85-5.98,6.89-2.53.77-1.6-4.34-2.04-5.68-.27-1.61-1.37-.58-2.03.08-2.07,1.96-4.25,5.3-6.75,5.22-1.63-.24-2.03-2.23-2.28-3.65-.53-3.58-.38-9.31,1.79-10.55.89-.58,1.96-.36,2.32.77.55,1.43-.09,4.21-.14,5.74-.18,2.73,1.47.64,2.23-.24,1.67-1.99,3.36-4.3,5.46-5.26,3.98-2.18,2.3,6.87,5.86,3.15,1.04-1.01,1.55-2.71,2.69-3.6.91-.56,1.22,1.13,2.38,1.95.9.74,2.2.43,3.1,1.11.85.67.61,2.32,1.72,2.75,1.59.53,3.52-.7,3.9-2.3.68-2.36,1.04-9.18,4.51-9.85l.07.03Z"/>
      <path class="cls-1" d="M453.56,21.07c-1.09-.07-2.29.74-3.33,1.24-5.99,3.22-6.56,6.43-8.74,12.4-.77,2-1.47,4.32-2.56,6.12-.49.76-1.06,1.26-1.63,1.34-2.89-.24-2.76-6.26-2.5-8.99.37-3.29,1.55-.93,2.95.11,1.26.75,1.44-1.13,1.53-2.02.36-4.1-1.84-7.58-.73-11.13,1.43-4.81,7.23-6.37,11.88-5.41,3.05.31,4.79,5,6.12-.23.76-1.87.8-6.76,3.43-6.34,1.22.39,1.7,1.6,1.68,2.8-.57,4.28-2.91,8.18-3.88,12.59-.26,1.02-.59,2.26-1.36,2.96-.94.84-1.97.05-2.24-1-.44-1.32.05-3.27-.19-4.01-.06-.19-.16-.33-.34-.4l-.09-.03Z"/>
      <path class="cls-1" d="M530.94,5.27c.22.13.34.38.43.65.68,1.69-.58,5.81.98,7.14,1.54.64,3.87-.44,5.87.07,1.41.21,2.42,1.18,3.3,2.04.61.64,1.32.44,1.96-.1,9.56-8.82,16.16-7.04,12.37,6.99-.62,1.7-1.52,2.97-2.71,3.2-2.73.33-3.43-2.26-2.18-4.43,1.01-1.82,2.99-7.37-.92-6.45-3.54,1.71-5.67,5.18-7.99,8.25-.47.61-.98,1.51-1.68,1.76-.42.11-.79-.3-1.14-1.16-.71-1.63-.97-3.86-1.96-5.37-1.27-1.6-5.55-.56-6.61.7-2.13,2.98-.72,7.7-3.26,10.46-.74.6-1.66.18-2.06-.61-1.19-2.11.17-5.28.77-7.03.66-1.51-.92-2.36-1.08-3.45.05-1.69,1.85-2.8,2.21-4.47,1.01-2.72.56-7.82,3.62-8.22l.08.04Z"/>
      <path class="cls-1" d="M209.98,57.37c1.76.98,3.86.92,5.75,1.69,3.82,1.14,6.35,6.63,2,8.57-2.86,1.15-5-.81-6.69-2.9-1.48-1.51-2.66-.43-3.71,1.12-1.31,1.83-2.5,3.56-4.41,4.66-2.17,1.15-5.46,1.57-7.62.07-2.47-1.9-.29-3.5,1.91-4.28,1.18-.6,3.41-1.2,3.63-2.4.24-1.35-2.76-4.23-2.29-6.8.21-1.5,1.5-2.68,2.95-2.98,2.94-.64,5.8,1.78,8.33,3.17l.16.08Z"/>
      <path class="cls-1" d="M389.83,15.02c.41.52.27,1.27.17,1.92-.38,2.15-1.45,5-1.35,6.14.11.16.27-.01.43-.13.91-.79,3.69-3.99,5.24-5.52,1.12-1.24,2.99-1.13,3.51.62.87,1.47-1.3,6.27,1.8,5.3,1.18-.45,2.24-1.34,3.06-2.31,1.58-1.63,2.33-4.75,4.68-3.76,1.2.84.92,2.75.81,4.01-.05.67.05,1.21.39,1.41,2.06.46,5.04-2.35,7.57-2.22,1.88-.06,2.05,1.37.64,2.61-2.64,2.18-5.67,4.67-9.18,5.17-2.57.38-5.02-1.08-7.98-.5-1.46.28-3,1.16-4.46.5-1.38-.57-2.2-2.41-3.44-2.18-1.46-.07-4.34,4.03-5.9,2.71-2.22-2.87-1.13-14.87,3.93-13.85l.07.07Z"/>
      <path class="cls-1" d="M110.41,26.32c.24.24.48-.16.74-.42,1.64-1.93,4.9-6.87,6.96-9.03,1.57-1.41,3.19.81,3.04,2.41-.48,5.19-6.67,9.89,1.66,6.02,1.47-.65,4.02-.79,3.51,1.29-.81,2.01-3.26,3.22-5.28,3.78-2.51.68-5.03-.41-7.27-.02-2.61.44-5.01,2.63-6.68-.72-1.56-3.33-4.01.86-6.1,1.33-.99.32-1.74-.38-2.19-1.22-1.44-2.47-1.33-7.32.84-9.34,3.75-3.29,2.35,4.32,2.75,5.75.08.23.2.12.34-.07.74-1.14,3.03-6.11,4.43-8.58.82-1.59,2.43-1.75,3.4-.2,1.56,2.1-.29,6.21-.17,8.97l.02.05Z"/>
      <path class="cls-1" d="M25.12,54.34c-.43.5-1.13.34-1.68.08-1.22-.61-2.45-1.68-4.03-1.76-2.33-.3-4.88,1.61-3.99,4.11.91,3.2,4.75,5.57,4.69,8.34.08,2.25-1.92,5.26-3.4,7-10.33,12.66-18.71-1.45-4.31-7.31,1.07-.47,2.19-.59,2.82-1.44.31-.5.05-1.21-.62-2.08-1.32-1.71-3.69-3.93-3.52-6.18.93-6.17,11.69-8.72,13.99-3.12.33.66.5,1.72.11,2.26l-.07.09Z"/>
      <path class="cls-1" d="M328.99,51.41c.68,1.27-.08,4.56.49,5.87.08.22.2.41.4.51,1.57.29,3.36-1.08,5.01-1.02,5.82-.46,1.07,9.79.76,16.87-.06,1.1-.24,2.69-1.45,2.9-3.35-.1-3.42-3.81-2.54-7.06.43-1.74,1.06-3.51,1.51-4.96.51-1.74.87-2.91-.27-3-1.3-.04-3.62.34-4.59,1.46-.71,1.05-.76,2.11-1.31,3.91-.74,2.67-1.49,5.69-2.27,8.33-.17.48-.4.95-.92,1.03-.88.11-2.26-.72-2.41-1.91-.08-.98.32-1.86.59-2.85.58-2.15,1.74-5.25,2.07-7.25.02-.45-.19-.6-.66-.58-.68.06-1.81.29-2.59.17-1.6-.14-1.54-1.08-.33-1.83,1.36-.91,3.94-1.55,4.66-2.9,1.22-1.98-1.22-2.54-2.71-2.58-1.06-.36,3.54-3.15,4.72-4.23.56-.35,1.17-1.04,1.79-.91l.06.04Z"/>
      <path class="cls-1" d="M288.33,23.13c.39.02.59-1,.8-1.45.83-1.74,4.05-13.1,6.1-11.19,1.24,1.75-.28,4.84-.09,6.7.21,2.07,2.97,1.59,3.89,3.14.9,1.2.63,3.18,1.4,4.4.4.37.84-.13,1.18-.42,1.24-1.23,3.52-3.9,4.76-5.08.74-.69,1.25-.89,1.63-.51,1.17,1.12,1.73,7.71.39,10.84-.54,1.53-2.4,2.65-3.29.76-.45-.71-.35-2.1-1.15-2.41-1.54-.3-3.31,1.93-4.81.86-1.1-.86-1.25-3.92-2.36-4.36-.31-.08-.69.16-1.17.64-1.26,1.26-2.64,3.02-3.95,4.29-1.63,1.58-3.63,1.44-4.17-.28-.28-.86.02-1.94.12-2.78.06-.56,0-.89-.32-.88-1.28.27-3.81,2.46-5.57,3.46-2.96,2.32-3.69-4.8-5.71-.69-4.98,10.92-8.94,4.69-5.07-3.57,1.73-3.96,3.79-4.43,7.58-3.67,1.33.3,2.64,1.02,3.96.91,1.38-.07,2.81-1.64,3.91-1.32,1.16.29,1.33,1.8,1.91,2.61l.04.02Z"/>
      <path class="cls-1" d="M378.75,59.76c1.35.26,2.9-1.05,4.32-.64,3.01,1.04.25,3.95-.71,6.02-1.04,1.85-1.48,4.03-1.94,6.04-.4,1.42-1.81,1.76-3.09,1.99-2.41.44-4.64,1.79-6.9,1.76-7.12-.36-3.37-8.39-.94-11.89,1.84-2.51,5.05-6.64,7.79-4.33.41.38.79.83,1.34,1l.13.04Z"/>
      <path class="cls-1" d="M320.5,17.78c1.51.71,9.06-5.38,10.65-3.15,1.08,2.99-3.7,5.24-4.14,7.67.07.37.62.52,1.52.49,1.7.06,6.77-1.56,5.67,1.73-.78,1.35-2.45,1.22-4.7,1.5-1.5.1-3.25.54-4.61-.19-1.58-1.14-2.06-4.46-4.65-3.71-.57.23-.97.59-1.34,1.12-.96,1.47-1.62,3.26-2.55,5.15-.67,1.49-1.28,2.64-1.85,2.82-.35.12-.6-.05-.81-.38-1.06-1.95.11-4.35-.21-6.41-.13-1.44-1.15-2.85-.85-4.3.22-.86,1.04-1.52,1.71-2.16,3.14-2.39,1.84-6.65,2.41-10.19.2-2.73,3.25-3.9,3.99-.88.21,2.63-.57,6.75-.65,9.29,0,.55-.1,1.21.33,1.56l.07.04Z"/>
      <path class="cls-1" d="M368.72,3.86c.46.15.43.8.36,1.27-.56,2.84-2.35,10.65-2.9,13.46-.07.51-.11,1.03.5.96,6.71-2.54,9.08,1.11,4.27,6.77-5.03,6.19-15.42,10.27-10.71-2.21,1.58-5.29,4.08-13.03,5.24-16.32.39-1.45,1.7-4,3.16-3.96l.08.02Z"/>
      <path class="cls-1" d="M92.1,24.49c.16.13.31-.02.46-.46.19-.59.33-1.39.4-2.08.32-3.77.65-8.56,3.18-10.56,2.46-1.83,2.47-.71,1.79,2.87-.83,5.29-2.3,14.74-2.82,17.95-.08.47-.2.89-.57,1.15-1.02.75-2.62-.3-2.8-1.63-.2-.91-.1-2.21-.13-3.22-.06-1.15.07-2.12-.78-1.3-2.14,2.4-8.68,9.13-12.04,6.77-3.65-4.92-1.36-13.07.07-18.69.33-1.54,2-4.94,2.75-1.48.47,2.1-.04,4.87.36,6.98.64,1.73,3.32-.19,5.39-.03,1.35-.05,2.85.3,3.59,1.52.41.59.74,1.73,1.11,2.17l.04.04Z"/>
      <path class="cls-1" d="M528.13,72.25c.66.37.7,1.33.66,2.11-.51,7.66-.3,21.96-5.4,26.78-6.01,4.19-12.06-4.86-7.58-9.88,3.89-3.81,1.68,3.1,1.98,5.01.16,1.64,1.38,2.46,2.84,1.92,1.14-.43,1.78-1.67,2.29-2.72,1.32-2.82,1.43-6.63,1.73-10.2-.03-2.86.85-6.27-.75-8.71-.92-1.18-4.68-3.51-2.42-5.1,1.03-.61,2.72-.04,4.28.18.76.13,1.6.2,2.27.54l.1.06Z"/>
      <path class="cls-1" d="M499.88,7.26c.48.47.39,1.39.27,2.09-.93,5.57-3.89,10.26-3.76,16.1-.04.94.22,2.9-.94,3.02-.81.05-2.02-1.81-2.55-2.97-.67-1.38-1.16-1.56-2.16-.26-6.3,8.37-9.83.14-4.81-5.47,1.83-1.71,4.99-.08,6.68-1.87,1.51-2.23,2.78-6.07,3.86-8.72.37-1.33,2.24-2.93,3.32-1.99l.09.08Z"/>
      <path class="cls-1" d="M34.2,53.5c.64,1.9-2.99,2.35-3.35,3.29-.21.52-.02,1.12.07,1.7.89,4.77-.35,15.89-1.98,19.02-1.07,1.99-3.03-1.54-3.03-3.02-.15-1.25.03-2.62.22-3.93.13-1.84,1.17-4.54-1.17-4.82-10.49-.11,2.14-12.47,7.36-12.81.64-.11,1.51-.03,1.83.48l.05.09Z"/>
      <path class="cls-1" d="M46.68,67.63c-.94-1.26-.88-5.02-1.46-5.71-.42-.33-.72.3-1.32,1.05-.67.94-1.5,2.23-2.24,3.15-1.12,1.43-2.36,1.75-3.79,1.02-3.47-1.62-4.9-8.23-1.05-10.27,1.47-.65,2.17.8,2.23,2.13.19.96-.17,2.25.41,3.02.46.29,2.27-2.74,3.24-3.78,8.39-9.77,8.5,11.84,4.05,9.49l-.08-.09Z"/>
      <path class="cls-1" d="M472.55,15.34c.65.2.22,1.18-.03,2.83-.35,1.89-.81,4.4-1.17,6.38-.56,3.17-.5,5.56-4.04,2.29-1.55-1.76-4.13-.86-6.07-1.71-2.65-1.2-.93-4.56.35-6.24,2.58-3.54,6.74-3.66,10.87-3.58l.1.03Z"/>
      <path class="cls-1" d="M523.88,14.85c.16.3-.08.69-.65,1.15-2.65,1.97-6.05,3.03-4.99,7.17.59,2.44.39,5.35-2.31,6.2-2.74.86-8.69.58-9.45-2.75-.15-2.27,1.93-2.27,3.46-1.45,1.4.61,3.37.94,4.16.19.71-.65.61-1.75.58-2.7-.41-4.69,2.02-9.09,6.83-8.62.74.05,2.03.29,2.33.73l.05.08Z"/>
      <path class="cls-1" d="M347.41,55.1c.03,2.2-3.01,3.29-3.72,5.32-.96,2.26-2.9,6.49.44,6.52,1.7,0,3.42-.92,4.79-1.83,1.31-.88,3.54-2.47,3.93-.32-.22,2.88-5.67,6.73-8.69,6.23-11.82-1.55-.47-20.38,3.23-16.02l.03.1Z"/>
      <path class="cls-1" d="M445.03,58.9c.13.3.07.29.05.46-.79,1.45-3.43.95-4.54,1.17-.65.08-.91.63-.92,1.24-.02,2.29.27,8.81.29,11.61.21,2.79-3.06,2.94-5.05,2.1-1.51-.68-5.39-1.44-3.98-3.66.81-.93,2.19-.89,3.28-.45,1.12.44,1.97,1,2.23.69.35-.55-.03-1.6-.1-2.3-.58-3.24-.57-6.53.71-9.56.88-2.72,3.43-2.59,6.11-2.15.89.14,1.59.41,1.86.76l.06.09Z"/>
      <path class="cls-1" d="M381.95,8.89c.46.5.42,1.32.37,2.02-.64,6.46-2.66,12.69-1.85,19.1-.06,1.25-1.11,1.82-2.21,1.53-5.2-1.21.37-13.96.86-20.75.05-.55.03-1.09.23-1.6.34-.9,1.74-1.15,2.5-.41l.1.1Z"/>
      <path class="cls-1" d="M320.23,57.46c-.06.52-2.86,1.28-3.56,2.17-.54.83-.15,1.54-.03,2.66.32,1.93.68,4.06.99,6,.24,1.44.07,1.74-1.33,2.47-1.96.92-4.25,2.51-6.26,3.05-1.72.27-2.48-2.07-1.38-3.21.54-.66,1.5-1.13,2.35-1.43,2.76-.78,2.21-2.18,1.69-4.84-1.07-5.65,2.02-9.36,7.52-6.94v.06Z"/>
      <path class="cls-1" d="M480.34,15.68c.56,3-1.92,6.12-1.93,9.12-.26,1.47,1.7,5.53-.23,6.04-6.17-1.23-2.89-8.86-1.47-13.38.16-.55.33-1.08.79-1.43.69-.52,2.3-.82,2.77-.42l.08.08Z"/>
      <path class="cls-1" d="M349.31,24.24c.96.87-7.13,19.02-8.23,13.13-.59-3.99,5.47-14.49,8.19-13.18l.04.05Z"/>
      <path class="cls-1" d="M58.57,52.63c1.33,2.5-3.71,3.94-3.05,6.47.35,1.31,1.03,3.2,1.41,4.47.16.54.16.81-.19.9-1.29.03-3.58.25-4.45-.93-2.63-3.78,3.01-13.69,6.2-11.01l.08.11Z"/>
      <path class="cls-1" d="M258.93,68.85c.15.34.04.84-.06,1.23-.96,3.74-1.53,9.06-5.21,10.36-.51.18-1.39.43-1.48-.26-.17-2.12,2.62-13.58,6.7-11.43l.06.1Z"/>
      <path class="cls-1" d="M259.69,30.52c.74,2.01-6.36,14.13-8.98,10.63-1.18-1.82,4.35-5.57,5.24-8.27.24-.72.31-1.53.96-2.04.84-.64,2.14-.64,2.73-.37l.07.05Z"/>
    </g>
  </g>
</svg>