<?xml version="1.0" encoding="UTF-8"?>
<svg id="Layer_2" data-name="Layer 2" xmlns="http://www.w3.org/2000/svg" viewBox="0 0 801.41 282.34">
  <defs>
    <style>
      .cls-1 {
        fill: #606060;
      }
    </style>
  </defs>
  <g id="Layer_1-2" data-name="Layer 1">
    <path class="cls-1" d="M46.75,15.81c.28,1.43,1.93,1.25,3.62,1.9,1.79.44,3.22,3.34,4.89,3.12,1.57-.31,2.03-2.39,2.37-3.8,1.23-5.77,2.36-11.87,5.87-16.46.39-.49.66-.69.75-.5-.04,2.29-2.97,11.59-3.7,15.1-1.06,4.27-2.14,6.93.84,2.3,1.08-1.63,1.89-3.51,2.42-5.45.61-2.02,1.15-4.42,1.91-4.82.22-.05.36.35.38,1.08.06,2-.66,4.4-1.51,6.28-1.59,3.98-5.18,7.29-6.08,11.06-.34,1.41-.57,3.05-.59,4.47.1,5.31,5.99-4.27,6.44-5.38.61-1.34,2.97-4.24,3.69-2.72.73,2.57-.82,5.94-.99,8.52-.18,1.32-.05,2.09.42,2.17,1.37.06,3.45-2.97,4.17-4.48,1.08-1.99,1.6-4.62,3.97-5.39,2.03-.65,5.86-.99,7.02,0,1.06.99.42,2.59,0,3.8-.53,1.47-1.79,3.04-2.34,4.37-1.31,3.85,4.89,1.88,6.62.98,2.19-.88,3.08-2.96,4.13-4.31.81-1.04,2.08-1.48,2.8-2.55.28-.46.41-1.04.49-1.63.35-3.8.95-12.49,1.35-17.46.39-4.08,2.5-2.21,1.92,1.3-.64,4.37-.95,8.86-.96,13.29.02,1.73-.07,4.11,1.96,4.57,2.71.71,6.25-2.22,9.16-1.26,1.96.73,3.96,2.7,6.17,1.62,1.05-.4,2.03-1.1,3.19-1.09,1.51.02,2.56.8,3.47,1.94,2.89,3.27.39,9.51-3.48,10-2.19.4-3.44-2.14-5.37-2.5-1.07-.19-2.2.38-3.18.86-3.18,1.72-6.42,1.73-7.23-1.43-.4-1.66.04-6.16-2.87-4.89-2.02,1.12-1.74,4.37-2.69,6-1.45,2.39-3.62-.81-5.46-.93-1.29-.19-2.45.61-3.53,1.27-2.69,1.85-5.82,2.81-8.78,1.49-.83-.25-1.79-.68-2.53-.34-1.22.46-1.56,3.76-2.61,3.88-1.69-.4-1.08-4.42-1.59-5.39-.23-.73-.89-.3-1.34.05-.69.53-1.6,1.32-2.45,1.64-1.86.87-3.57-.4-3.85-2.28-.24-.59-.13-1.96-.97-1.68-1.4.77-5.74,6.88-7.23,2-.69-2.81.85-6.29-.64-8.56-1.05-1.64-2.9-.3-3.82.91-3.16,3.87-10.57,12.66-13.87,8.22-2.7-5.29,3.73-9.28,5.58-13.61,1.39-3.3,1.25-7.09,1.46-10.65.01-1.44.24-9.39,2.08-5.64,1.05,3.46.26,7.47.49,10.89l.03.13ZM49.92,22.86c-2-.83-4.37.54-4.84,2.53-.19.55-.41,1.18-.91,1.5-.37.25-.88.3-1.34.32-2.5-.13-3.74,2.03-4.05,4.3-.21,1.19.46,1.97,1.69,1.58,4.23-1.19,7.41-5.01,9.38-8.88.19-.38.4-.94.15-1.26l-.08-.09ZM103.82,26.9c-1.09,1.18-1.49,4.65-.21,5.97,2.26,1.6,4.57-.79,6.11-2.51.16-.21.38-.47.39-.73-.41-1.86-4.44-3.81-6.17-2.8l-.11.07ZM115.24,28.64c-1.12,1.06-1.1,3.09-.2,4.34.45.66,1.05,1.32,1.75.82,1.38-1.19,2.68-2.54,2.43-4.57-.15-1.92-2.8-1.56-3.85-.7l-.12.11Z"/>
    <path class="cls-1" d="M317,38.07c-1.01-.14-2.02.11-2.94-.49-2.27-1.09-1.57-8.08-2.46-9.54-.35-.45-.91.05-1.76,1.04-1.33,1.64-3.28,3.68-5.46,4.14-8.85,1.31-3.98-13.98,2.31-12.42,1.65.46,3.51,2.03,4.59-.2,2.01-4.37.25-10.21,1.33-15.03.45-1.81,1.44-2.5,1.87.05.17.7.25,2.46.6,2.79.13.03.3-.28.51-.83.49-1.18.9-2.94,1.48-3.38.06-.03.11-.03.16.01.44.72.04,2.25-.06,3.19-1.25,6.95-3.47,13.37-3.34,20.34.44,12.39,4.81,3.45,7.01-3.89.85-2.49,1.25-4.82,1.21-7.48.02-3.02-.04-7.21,1.31-8.39.93-.91,1.86.21,2.56.9,1.27,1.35,2.76,2.58,3.93,4.04,2.24,3.36,1.34,9.19,7.02,4.72,4.28-2.87,2.92-9.1,5.73-12.85.22-.09.33.28.32,1.01,0,.98-.26,2.57-.3,3.63-.2,2.71,1.25,1.95,3.05-.49,1.17-1.7,2.33-3.69,2.84-3.6.17.03.2.19.21.37,0,1.09-.59,2.45-1.18,3.46-2.5,4.56-8.23,7.7-6.84,13.15,1.47,1.3,3.47-2.77,5.09-2.67,1.48.44,1.11,3.69,1.75,5.94.39,2.33,3.13,3.29,4.49,1.16,1.1-1.88,1.3-5.69,3.54-7.41,2.1-2,4.15-1.55,5.61.82.37.51.63.78.85.63.62-.9.84-2.87,1.8-3.78,1.49-1.84,4.36-1.01,5.03,1.28.37,1.06.4,2.46.52,3.51.24,2.67,2.22-1.06,3-1.88.68-.78,2.54-3.5,3.39-2.32.52.97-.62,4.42.28,7.07.08.69,1.73,3.66.44,3.29-.64-.18-2.07-1.46-2.86-2.24-.33-.3-.74-.66-1.2-.53-1.27.22-4.57,7.45-5.66,4.25-.33-3.04.89-6.41-.19-9.43-.19-.55-.53-1.24-1.11-1.13-.43.1-.88.79-1.26,1.83-1.12,2.97-1.3,6.64-3.71,8.85-2.05,1.9-4.51.8-7.31.46-2.49-.37-5.02.18-6.51-1.11-1.55-.97-1.71-5.35-4.08-3.03-.99.66-3.87,4.66-4.39,1.86-.54-1.4.94-8.37-1.06-7.93-2.87.93-4.27,3.43-5.08,6.38-.48,1.32-.87,2.19-1.7,3.24-1.41,1.86-3.56,2.73-4.98,4.43-2.88,4.61-2.53,12.3-4.41,18.02-.73,2.47-2.86,4.84-3.02,1.24-.1-3.22,0-10.04-.06-13.23-.06-.73-.07-1.62-.84-1.84l-.09-.02ZM328.71,12.07c-1.06-.27-1.36.7-1.42,1.59-.52,3.24-.86,6.49-1.99,9.55-.09.34-.38.8-.18,1.02.97-.14,2.96-1.41,4.06-1.87.72-.46,1.55-.48,1.6-1.22-.15-1.07-1.24-6.64-1.56-8.37-.06-.28-.15-.52-.41-.65l-.1-.04ZM358.99,20.33c-.66-.04-1.97.4-2.73.52-.43.12-.7.09-.94.31-.3,1.08-1.15,4.96-1.16,5.61,1.54-.55,5.93-5.03,4.9-6.4l-.07-.04ZM303.23,29.92c2.14,1,5.33-1.64,6.16-3.63-.21-1.9-2.49-4.16-4.34-2.91-1.41.82-2.85,4.11-1.94,6.42l.11.12ZM330.49,24.52c-2.58,0-5.38,2.07-6.2,4.59-.05.25-.11.58.08.78,1.45.85,3.68-.06,4.72-.89,1.07-.86,2.09-2.84,1.5-4.4l-.1-.08Z"/>
    <path class="cls-1" d="M437.37,7.27c.55.35.4,1.26.36,1.92-.23,2.99-1.54,7.06-1.11,9.48.43.69,1.37.29,2.09.18,4.39-1.19,12.06-3.39,15.81-5.64,1.71-1.08,1.88-3.99,3.43-5.07.57-.29,1.48-.17,2.17-.09.61.12,1.31.15,1.67.63.26.79-1.23,2.22-2.32,3.72-1.71,2.12-2.41,4.75-2.8,7.44-.31,2.04-.85,4.43-.19,5.17.94.81,1.98-.23,3.3-1.02,5.15-3.87,4.93.72,5.62,4.54.5,3.08,2.42.72,3.25-.68,1.26-1.91.87-4.22,2.22-5.19.72-.56,2.02-.83,2.69-.16,1,1.14.25,4.28.2,5.99-.46,3.5-.08,6.61-1.73,7.06-1.38-.12-2.41-2.03-3.84-1.99-1.07-.09-2.18.36-3.25.21-2.8-.39-2.76-4.27-3.46-6.45-.3-.61-.79-.44-1.49.08-1.19.93-2.61,2.23-4.05,2.8-3.87,1.67-3.35-4.25-1.81-10.39.39-1.94,1.82-5.04-1.54-3.87-2.26.68-6,1.82-8.27,2.54-.77.28-1.66.57-2.06,1.26-.29.59-.12,1.2,0,1.89.3,1.35.46,2.79.08,4.24-.83,3.1-3.2,7.19-5.54,8.1-.89.36-1.8.06-2.65-.25-1.57-.67-3.17-.86-3.97-1.88-.79-2.34.89-5.49,1.54-7.85,1.4-3.87,2.2-6.61,3-10.25.55-1.98.34-5.8,2.6-6.49l.07.02ZM439.79,22.87c-2.86.35-5.74,2.59-5.55,5.73.02.89.15,2.71,1.22,2.98,2.46.17,5.82-6.64,4.44-8.66l-.11-.05Z"/>
    <path class="cls-1" d="M259.53,24.62c.95.09,2.8-2.74,3.88-2.65,1.56.27,1.47,5.1,1.83,6.69.21,1.68.54,3.02,1.92,3.84.84.5,1.98.67,2.73-.02.85-.72.69-2.68,1.21-4.75.26-1.13.63-2.28,1.09-3.34.71-1.57,1.8-3.42,3.52-3.76,1.42-.2,2.15.92,2.16,2.39.03,2.58-1.72,6.27-2.69,8.61-1.25,2.77.29,2.76,2.34,2.18,2.87-.98,6.59-1.93,7.93-4.93,1.23-3.14,2-10.04,7.14-8.45,5.98,2.02,2.15,5.82,3.87,9.82.12.22.09.21.39.65,1.02,1.47,2.99,2.21,2.57,2.85-.24.36-1.78.2-2.53-.28-2.02-1-2.89-3.05-4.71-2.17-.98.44-1.96,1.03-3.05,1.24-1.68.37-3.45-.12-5.06.61-2.03.87-4.44,3.01-6.85,3.57-1.99.54-3.83-.43-5.73-.87-6.51-.43-7.17-1.41-9.12-7.62-.98-3.05-1.26-2.06-2.29,1.05-.76,1.93-3.04,9.17-5.06,8.97.7-6.66,6.36-30.26,7.37-36.02.26-.87.63-.65.75-.04.21.96.17,2.1.03,3.15-.83,5.48-2.61,11.07-3.65,16.61-.09.79-.52,2.06-.08,2.65l.05.02ZM292.5,21.84c-2.2-1.61-5.6,4.42-4.72,6.49,1.97-.05,6.94-4.78,4.84-6.4l-.11-.09Z"/>
    <path class="cls-1" d="M140.53,32.38c.24.13.64-.37,1.2-1.33.93-1.53,1.99-3.85,3.14-5.21,1.18-1.5,3.38-2.51,4.05-.09.5,2.62,1.84,6.67,1.37,9.61-.21,1.21-1.53,3-2.21.88-.3-.95-.47-1.93-.65-2.93-1.24-11.43-4.41,5.86-8.7,2.95-2.19-2.24-1.39-6.33-1.28-9.12.25-2.73-1.54-1.73-3.33-.87-1.7.91-3.65,1.65-5.02,2.94-2.4,2.78-1.27,7.99-1.84,11.49-.74,4.12-2.97-1.48-3.6-4.14-.44-1.67-.72-3.67-.53-5.28.15-2.16,1.43-3.07,2.86-4.29.52-.51.98-1.16,1.34-1.96,2.38-5.16.88-14.37,4-19.71.64-.87,1.57-1,1.8.09.27,1.23-.06,2.51-.29,3.8-.67,3.46-1.54,7.04-2.4,10.5-.52,2.65-2.02,5.92,0,5.86,2.88-.85,6.78-2.98,7.99-5.56,2.06-5.02,3.82-16.63,8.59-17.88,4.13-.65,3.31,4.93,2.28,7.43-1.14,3.36-2.61,5.54-4.75,7.95-2.52,2.66-4.74,5.48-4.55,9.23.05,1.63-.14,4.32.47,5.61l.04.03ZM148.3,4.78c-2.01-1.94-7.86,11.39-7.18,13.81,2.94-.76,8.9-11.68,7.24-13.74l-.06-.07Z"/>
    <path class="cls-1" d="M235.03,31.5c1.07.44,3.19-2.11,5.12-2.29,1.39-.32,2.3,1.02,1.39,2.17-2.45,2.72-7.1,2.98-7.03,7.49-.23,5.49,1.64,12.08.59,17.55-.73,2.98-3.15,2.2-4.5.05-3.56-5.03-5.46-13.76-2.81-18.68,1.19-2.27,4.08-3.12,5.01-5.59.85-2.33.79-4.98-.05-7.13-.23-.72-.07-1.47.07-2.2.1-1.06-5.24,2.18-5.57,3.17-.41,1.06.33,2.15.43,3.24.33,1.73-.15,3.81-1.62,5.02-2.1,1.92-5.94,1.75-7.38-.34-2.28-2.87-.85-7.36,2.25-9.06,2.35-1.43,5.08-.96,7.57-2.08,6.41-2.61,5.18-10.56,6.95-15.99.45-1.21,1.31-3.01,2.75-3.04,1.46.19,1.8,2.44,1.8,3.87.15,4.33-3.28,7.9-4.41,11.27-.99,3.36-.56,7.15-.87,10.59-.05.95-.05,1.69.24,1.94l.06.05ZM224.11,26.11c-.13-.15-.35-.2-.64-.17-3.38.31-4.47,6.71-.96,7.97,1.99.78,5-.83,4.32-3.18-.39-1.38-2.33-2.13-2.5-3.64-.03-.35-.02-.68-.14-.89l-.07-.1ZM232.14,37.29c-1.25-.4-2.19,1.57-2.54,2.62-1.72,4.96.58,9.96,2.03,14.63,1.07,2.01,1.53-3.25,1.49-3.93.09-3.55-.49-7.91-.53-11.76,0-.49-.06-1.21-.36-1.49l-.08-.07Z"/>
    <path class="cls-1" d="M203.14,2.92c.48.07.52.97.49,1.48-.22,3.74-1.28,12.25-1.29,15.62.15.72.68.66,1.42.65.69,0,2.57-.14,2.58.72-.35.98-1.44,1.37-2.25,2-1.34.79-2.11,2.15-2.02,3.71.01,2.66.63,6.13-.17,7.98-.57,1.44-1.66,1.28-2.27-.24-.67-1.49-1.36-4.03-1.91-5.6-.52-1.29-.64-2.08-1.41-1.59-1.25,1.05-4.41,6.03-8.61,6.25-4.16.44-8.31-4.06-6.6-8.09,1.82-4.6,8.1-6.71,6.18-.09-.4,1.73-1.94,3.95-.38,5.38,2.62,1.51,7.22-2.42,7.32-4.91.07-1.06-.87-2.15-.26-3.13,1.46-1.94,6-1.04,6.35-3.89.65-4.07-1.08-14.07,2.77-16.24h.07Z"/>
    <path class="cls-1" d="M576.67,19.99c-.9.96-2.43,1.38-3.04,2.67-1.09,1.72-2.18,9.29,1.04,6.85,2.29-2.1,1.95-6.29,4.56-8.19,2.04-1.54,5.39-.52,6.04,2,.31.94.29,2.07.29,2.93-.07,1.72.57,1.55,1.56.81,1.63-1.25,4.62-3.76,6.36-5.11.65-.51,2.28-1.48,2.53-.25,0,.94-1.01,1.96-1.77,2.61-2.73,1.87-9.71,12.88-12.75,9.16-.85-1.6.02-5.52.03-7.66.03-1.13-.14-1.84-.49-1.88-1.64.52-2.45,5.24-3.49,6.85-1.04,2.41-4.43,4.23-6.34,1.75-2.82-3.75-1.08-12.44,2.64-14.35,1.18-.83,3.82.13,2.9,1.72l-.07.09Z"/>
    <path class="cls-1" d="M396.63,11.31c-.46.42-2.51-.1-3.54.87-1.37,1.21-.72,3.35.28,4.61,1.79,3.31,13.24,6.39,11.23,10.45-.41.72-1.33,1.35-2.41,1.78-1.18.61-5.68,1.34-4.59-.94.58-.93,2.27-1.3,2.5-2.21.04-1.26-1.56-2.28-2.68-2.45-.87-.09-1.64.59-2.73,1.45-2.61,2.08-6.26,5.47-9.48,4.51-2.25-.9-4.47-2.65-5.74-4.72-.74-1.68-.12-3.55.47-5.89.75-2.5,1.98-5.9,4.33-6.95,3.48-1.21,4.03,3.49,3.05,6.11-.49,2.4-2.56,4.27-3.33,6.43-.27.97.17,1.93.98,2.48,2.07,1.5,5.38-.11,7.87-2.09,1.05-.82,1.72-2,.95-3.29-.38-.72-1.04-1.5-1.56-2.21-3.1-4.08-2.45-9.65,1.44-9.22.96.16,2.38.44,2.94,1.26v.04ZM381.86,21.92c3.39.5,5.91-7.86,3.95-8.77-2.22-1.1-4.3,7.36-4.03,8.71l.07.06Z"/>
    <path class="cls-1" d="M22.86,2.33c.52.16.73.73.73,1.72.04,2.44-.04,7.2.06,9.39.46,2.74,2.36,1.62.39,4.92-1.2,2.41.41,5.91.87,8.88.27,2.43-1.78,2.22-2.7.6-1.19-1.85-.97-5.21-1.17-7.37-.14-3.28-4.33-1.17-5.85-.04-2.24,1.88-2.22,6.31-4.62,7.68-2.78.7.02-4.59.06-5.85.23-1.35-.96-2.38-1.65-3.33-.86-1.24,1.16-1.23,1.95-1.53.69-.19,1.25-.49,1.74-1.02,2.04-2.3,4.52-8.37,6.41-11.61.72-1.31,2.69-2.73,3.69-2.46l.1.03ZM17.08,16.22c.64.17,2.18-.36,2.89-.45.45-.13.69-.1.82-.44.03-1.2.48-6.63.26-7.91-.12-.15-.38-.02-.57.33-.43.99-.21,2.35-.95,3.24-.82,1.28-3.37,3.57-2.53,5.17l.09.05Z"/>
    <path class="cls-1" d="M566.43,13.89c.94.25,2.88-1.84,3.44-1.84.49-.07.08.44-.25.94-4.84,5.42-5.6,8.78-4.37,16.07.34,2.05-.18,3.22-1.47.81-.87-1.61-1.28-3.85-1.8-5.63-.21-.62-.45-1.2-1.02-1.5-1.2-.63-3.63.99-4.93,2.67-1.92,2.41-2.74,5.52-5.09,7.28-2.09,1.68-4.93.8-5.18-2.06-.35-2.47.96-5.76,3.19-6.9,2.91-1.16,5.89-.67,8.77-2.44,2.65-1.16,4.3-3.01,5.13-5.61.51-1.45,1.28-4.12,2.4-4.8,1.19-.31.54,2.66,1.11,2.96l.07.05Z"/>
    <path class="cls-1" d="M481.66,30.3c-2.5,3.05,3.32,3.27,5.18,2.63,1.41.09,7.18-4.91,6.34-1.7-2.26,5.45-9.52,6.44-14.88,3.78-2.85-1.27-3.01-3.51-2.15-6.77.5-2.28,1.44-5.53,2.89-7.02,1.64-2.01,4.46.1,5.09,2.29.83,2.46-.81,4.93-2.36,6.66l-.11.13Z"/>
    <path class="cls-1" d="M172.71,19.95c1.06,1.07-1.26,2.09-1.93,2.69-.16.14-.29.31-.22.51.09.34.78.76,1.69,1.21,1.93.94,4.16,1.85,4.92,3.94,1.39,3.75-6.81,9.83-9.45,6.06-.47-.64-.91-1.95-.08-2.42.61-.25,1.91.64,3.17.72,1.55.2,4.08-1.4,3.85-2.86-.09-.53-.59-.91-1.07-1.19-2.77-1.59-8.97-4.41-7.2-6.76,1.22-1.46,4.47-2.75,6.24-1.96l.09.07Z"/>
    <path class="cls-1" d="M512.46,25.36c.63,1.23,1.15,1.32,2.35.55,5.76-3.31,3.7,2.67,4.2,6.1.09,1.22.81,2.36.97,3.52.13,1.11-1.05,1.34-1.88,1-1.65-.59-2.29-2.49-2.54-4.48-.36-3.78-2.13-1.18-3.58.39-.78.83-1.98,1.82-2.91.84-1.72-1.57,1.72-9.45,3.31-8.01l.06.08Z"/>
    <path class="cls-1" d="M543.54,19.06c.58,1.24-1.58,2.35-2.47,3.06-3.69,2.59-6.43,10.09-2.58,11.61,1.56.69,3.65.21,5.24.17.87-.02,1.3.19,1.04.56-.95,1.11-4.01,1.59-5.68,1.43-2.99-.09-5.99-2.11-5.59-5.23.31-3.97,3.81-10.11,7.95-11.69.62-.27,1.61-.46,2.02,0l.06.07Z"/>
    <path class="cls-1" d="M507.95,22.81c.22.11.12.45.04.98-.09.52-.23,1.21-.4,1.99-.75,3-1.67,7.13-3.5,9.67-.65.9-1.82.88-1.65-.17.35-1.9,1.89-10.07,2.22-11.71.08-.3.21-.4.56-.49.66-.14,2.29-.4,2.66-.3l.08.03Z"/>
    <path class="cls-1" d="M413.78,34.79c-.42.21-1.57.07-1.89-.25-.25-.28-.05-.69.05-1.04.97-2.84-.24-6.58,2.22-8.01.64-.38,1.47-.22,1.91.39,1.75,2.49-.56,5.39-1.68,8.01-.13.28-.26.66-.49.83l-.12.07Z"/>
    <path class="cls-1" d="M192.1,54.27c2.65,4.76-3.79,15.28-4.09,20.86-.07.91-.42,2.85.62,3.07,1.09-.12,2.4-2.01,4.23-2.4,1.48-.47,3.41.54,4.56.28.19,0,.8-.29,1.05-.42,2.45-1.67,3.75-1.04,6.18.12,1.49.51,3.29.16,4.87,1.37.99.76,1.58,2.11,2.6,2.79.79.58,2.09.48,3.02.84,1.19.46,1.9,2.17,3.01,2.38,1.34.3,2.7-1.1,3.42-2.24.86-1.32,1.19-2.93,2.36-4.02,1.06-1.08,2.57-1.3,2.96-2.88.52-3.07.23-6.65.52-9.7.08-2.85,2.03-4.88,2.97-2.2.77,2.96-.38,8.56-.37,11.78.17,2.32,3.4.89,4.88,1.64.51.18.91.64.46,1.13-1.69,1.63-5.91,1.56-5.02,4.92.24,1.28.84,2.6.75,3.92-.13,1.76-2.08,3.64-3.13,2.4-1.21-1.75-.81-4.52-1.28-6.47-.17-.83-.43-1.23-.83-1.14-.78.26-1.44,1.22-2.06,1.85-3.17,3.38-5.85,6.9-9.13,3.28-1.95-2.03-3.9,2.73-5.74.71-.74-.92-.46-3.43-.74-4.91-.14-1.02-.61-1.71-1.15-.41-.61,1.35-.67,4.1-1.78,5.69-2.51,3.54-6,.05-7.19-2.69-.83-1.35-1.38-.3-2.12.68-3,5.45-9.63,7.85-10.94.44-.39-1.55.22-3.76-.46-5.09-.88-.22-2.33,2.41-4.1,3.6-.88.65-1.97,1.07-3.05.91-.91-.11-1.75-.64-2.41-1.21-.67-.5-1.2-1.28-1.98-1.23-1.93.69-3.57,3.05-5.81,3.22-2.93.34-2.95-4.45.59-7.6.92-.83,2.66-2.01,3.8-1.76.55.15.62.81.23,1.6-.73,1.75-3.52,2.99-3.93,4.81.1.23.24.19.52.16,2.41-.45,4.1-4.72,6.42-4.62,2.16,1.26,2.17,5.78,5.7,2.82,3.65-3.52,5.71-8.04,6.04-13.16.62-4.28.47-9.86,3.84-12.94.62-.47,1.23-.55,1.67-.21l.08.07ZM201.08,85.47c.33-.16,1.92-1,2.18-1.39.15-1.28.15-4.31.16-4.97-.12-.24-.29-.06-.71.07-.7.32-1.89.64-2.53,1.07-.13.67.28,1.88.37,2.79.24,1.26.34,2.38.47,2.43h.06ZM187.37,87.07c3.05,1.16,6.18-1.52,6.99-4.54.06-.25.19-.74,0-.9-.79-.22-1.8.52-2.66.68-2.1.62-4.85,1.97-4.42,4.64l.09.12Z"/>
    <path class="cls-1" d="M262.86,70.17c.34.23.37.98.05,1.97-.67,2.26-2.47,4.7-3.12,7-.34,2.16,1.93.57,2.84-1.58.45-.97,2.29-5.86,3.34-4.05.57,1.91-1.42,4.73,1.87,3.17.52-.2,1.77-.65,1.76.22-.37,1.6-2.32,2.7-3.34,3.97-1.36,1.45-1.79,3.22-2.85,4.21-.78.83-1.82,1.33-2.61,2.14-.65.65-1.02,1.59-1.24,2.53-1.63,7.53-5.48,14.92-6.45,22.47-.43,3.66,1.14,4.25,3.57,1.52,1.73-1.86,4.66-6,5.69-2.84.41,1.03.21,2.63.82,3.49.26.3.68.36,1.2.37.93-.04,2.28.07,3.12.81.88.72,1.39,1.77,1.76,2.87,2.97,9.41-.16,21.88-5.69,22.36-2.01.41-4.99-2.16-6.42-4.28-.35-.35-3.93-5.77-2-4.37,4.17,3.82,10.64,9.02,12.21.18.46-2.44.48-5.56.24-8.82-.31-3.06-.09-6.43-3.36-5.81-4.04,1.12-3.97-3.28-6.35-2.18-1.35.82-2.86,3.71-4.72,3.9-1.53.11-2.14-1.81-2.74-2.92-1.35-2.91-2.94,1.61-5.14,3.02-.54.42-1.15.78-1.77.99-2.04.81-3.45-1.14-5.31-1.49-1.71-.42-4.1,1.44-5.91,1.28-3.66-.49-2.98-5.05-.37-6.93,1.97-1.93,4.87-2.12,7.38-2.56.98-.33,1.28-1.37,1.48-2.31.4-2.15.88-5.64,1.22-7.7.86-5.45,3.71-12.22,6.32-17.48.37-.68,1.05-1.49,1.66-1.69,3.99-.9.02,11.48-.27,13.57-.94,3.99-1.97,6.81-3.78,10.65-1.24,2.98-3.29,6.27-3.58,9.4.18,4.41,4.41-.33,5.57-1.85,3.3-3.78,4.71-7.91,6.19-12.82,1.34-4.77,3.54-10.12,4.08-14.88-.08-.74-.61-1.37-.99-2.03-1.64-2.45-.04-4.8,1.18-7.44.7-1.84,2.76-6.71,4.38-6.1l.06.04ZM243.63,108.09c.4-.28.69-1.09.86-1.65,1.87-6.56,4.83-13.43,5.08-20.17-1.31,2.63-2.93,6.85-4.14,9.68-.96,3.4-1.74,7.09-2.32,10.55-.04.49-.06,1.73.45,1.62l.07-.03ZM238.97,112.98c-3.18-.39-6.42,1.71-7.14,4.8.24.17.83-.07,1.2-.11,1.15-.26,2.06-.33,2.52-.57.92-.92,2.26-2.54,3.2-3.56.26-.29.42-.45.3-.52l-.08-.03Z"/>
    <path class="cls-1" d="M206.04,118.05c-.25,1.22,1.88,1.61,3.63.97.83-.32,1.51-.89,2.04-1.58,1.03-1.36,1.6-3.03,2.94-4.15,1.66-1.37,4.82-2.97,6.46-2.35.73.19,1.46,1.03.65,1.63-.94.71-2.73.6-3.84,1.27-3.33,1.56-3.56,7.82,1.14,5.88,2.9-1.19,5.96-4.62,7.75-6.31.49-.39,1.07-1.01,1.65-.75.77.39.43,3.15.04,5.54-.24.92-.19,6.01-1.84,4.81-1.56-2.2.41-6.66-3.55-3.57-2.41,1.86-5.27,3.68-7.7,3.04-1.18-.27-2.28-.68-3.51-.62-1.43.05-2.92.57-4.36.77-1.91.25-3.53-.15-4.71.21-1.12.3-1.95,1.1-2.91,1.76-1.51,1.29-3.63,1.18-5.32,1.92-.87.5-1.02,1.55-1.12,2.53-.18,2.67-.41,6.28-1.08,8.81-1.2,4.49-3.29,2.65-3.09-.67.23-5.15,1.97-9.84,2.42-14.76.06-.74.12-1.7-.28-2.24-.96-1.07-2.73-.05-3.52.85-1.25,1.29-.96,3.04-1.43,4.96-.71,3.82-6.06,4.56-5.2-.21.12-1.24,2.14-4.44.37-4.67-2.44.54-4.29,3.96-6.75,4.88-2.53,1.37-6.71.66-7.41-2.27-.48-2.17.72-4.3,2.01-6.02,1.46-2.33,7.36-6.34,6.99-1.2-.21,1.38-1.18,2.88-2.3,4.15-1.16,1.31-2.31,2.52-2.13,3.01.16.36.53.29,1.04.23,1-.19,2.11-.72,2.99-1.3,1.97-1.08,3.45-4.31,4.98-4.9.83-.29,1.62.23,2.31.7,2.76,2.59,6.06-1.6,8.55-2.17.99-.23,1.7.27,2.53.59,1.71.57,2.65-1.67,4.42-2.38,2.1-.91,3.73-2.44,5.28-4.03,2.6-2.54,6.09-.45,4.81,3.11-.41,1.63-2.3,3.1-2.94,4.44l-.03.1Z"/>
    <path class="cls-1" d="M100.07,71.82c1.03.45,2.53.02,3.59-.45,5.54-2.47,4.24-10.75,7.8-15.82,1.44-2.13,3.55-1.74,4.04.83,1.94,7.03-9.22,15.17-6.32,21.26.71.78,2.03.95,3,1.33,2.7,1.32,5.47,3.84,7.88.29,1.12-1.73,1.27-4.22,2.6-5.79,1.25-1.61,3.66-1.23,4.09.79.41,1.59-.79,3.27-1.22,4.74-.1.44-.18.93.22,1.2.99.7,3.66-1.57,4.35-3.07.97-1.25,1.89-5.35,3.89-4.51,1.12.79,1.01,2.51,1.29,3.71.09.31.2.53.46.67.65.36,2.4-.35,3.41.68.7.7.88,1.91,1.23,2.76.24.75.73.78,1.2.3.77-.77,2.4-2.59,3.43-2.21,1.6.76,2.1,3.79.94,5.08-.64.56-1.85.29-3.11.73-1.41.43-3.2,1.25-4.36-.12-.73-.79-1.08-1.99-1.64-2.36-.94-.57-1.97.47-2.98.41-1.48.08-2.55-1.12-4.08-.56-1.37.53-2.7,1.42-4.24,1.36-1.74,0-3.08-.53-4.35-.16-1.8.57-3.69,1.42-5.62.86-1.7-.35-3.31-1.92-5.03-1.62-1.27.21-2.85,1.61-3.79,1.39-2.25-.83-.14-6.45-.54-8.4-.26-3.12-3.73-.95-5.83-.36-1.68.62-2.4,1.7-2.9,3.62-.69,2.45-1.24,5.6-2.86,7.64-2.33,2.13-2.09-5.76-1.92-7.95.05-2.93,2.53-4.47,3.77-6.79,1.23-3.77,1.62-8.76,1.8-12.89.06-1.74-.43-4.34.86-5.49,2.62.2.31,13.77.08,16.6-.08.88-.02,1.87.74,2.29l.11.06Z"/>
    <path class="cls-1" d="M349.53,64.36c1.77,3.84-2.83,7.99-3.77,11.52-.65,1.86-1.04,4.01-1.34,5.92-.08.63-.07,1.13.11,1.43.35.59,1.21.31,1.85.24,3.8-1.09,3.68,3.96,6.12,5.41,1.25.63,2.58-.26,3.48-1.17,2.02-1.92,2.17-5.24,2.88-7.65,1.93-4.1,2.99,2.48,3.6,3.89,1.36,3.08,4.75,7.48.94,10.11-1.68,1.25-5.17.93-6.25-.4-.32-.36-.37-.84.04-1.15,1.44-.97,4.14-.59,4.38-2.88.24-1.3-.35-2.9-1.09-3.12-1.07-.46-2.63,2.56-4.63,3.88-1.9,1.45-4.53.84-5.94-.99-.78-.85-1.36-2.15-2.45-2.43-1.56-.33-3.23,1.35-4.64,1.86-.52.19-.95.3-1.33-.02-.89-.75-.3-4.45.09-7.17.07-.86.38-2.04-.29-2.64-1.36-.6-3.29.52-4.62,1.11-4.51,1.81-1.7,11-4.01,12.94-1.4.79-2.68-1.51-2.96-2.68-.38-1.47.29-2.78.75-4.13.57-1.63.8-4.28.18-4.71-.8-.45-1.97,1.34-2.65,2.15-2.41,3.04-3.98,6.91-7.76,6.58-1.03-.27-1.6-1.42-2.47-1.89-.85-.63-2.18-.13-2.96-.83-1.05-1.71-.08-4.79.12-7,.22-1.16.49-4.07,2.07-3.63.85.52,1.06,1.75,1.74,2.45.65.8,1.93,1.14,2.37,2.94.48,3.6,1.14,6.14,4.51,1.97,1.39-1.86,2.54-3.27,1.06-4.54-.29-.32-.87-.6-.66-1,.3-.31.59-.36,1.01-.53,5.11-.95,4.72-4.49,6.68-8.03.33-.47.83-.94,1.4-.74,2.78,1.83-1.89,7.87,1.22,8.57,1.56.1,2.91-.73,4.17-1.54,3.59-2.45,3.61-6.1,5.69-10.22.6-1.12,2.03-3.06,3.3-1.98l.08.09Z"/>
    <path class="cls-1" d="M53.25,96.89c.51.62.66,1.96.59,2.92-.29,8.01-1.66,16.25-.08,24.11.17,1.05.7,2.68-.5,3.07-3.67.1-2.47-6.08-2.92-8.84-.08-1.3-.19-1.85-.41-1.53-1.78,3.72-3.75,11.22-8.39,12.37-1.77.27-3.56-.34-5.33-.44-2.54-.18-5.44.39-7.19-1.37-1.18-.8-1.84-3.91-3.61-2.46-.92.73-1.59,2.13-2.68,2.67-1.06.45-1.51-1.56-2.53-1.44-1.42.22-2.67,1.96-4.21,1.29-1.14-.46-1.72-1.67-2.59-1.51-1.37.35-2.36,1.7-3.64,2.32-4.22,2.37-4.23-3.03-3.12-5.77.99-2.97,3.05-5.82,5.45-6.41,10.83-2.8,2,6.18,4.83,8.18.67.28,2.14-1.18,2.73-2.16,1.54-1.87,2.38-6.01,3.91-5.48.79.69.76,2.31,1.17,3.16.38.66,1.71-.35,2.39.07,1.28.67,1.6,2.68,2.32,3.88,1.2,2.31,4.77,3.4,7,1.96,2.61-1.82,2.68-7.05,6.1-7.71,2.01-.26,3.36,3.71,4.38.98,1.88-6.23,4.03-12.61,4.48-19.09.09-.97.49-3.72,1.75-2.83l.07.07ZM13.67,117.92c-2.57-.73-5.57,6.22-5.58,7.74.02.29.21.31.5.22,3.03-1.27,5.84-4.39,5.16-7.87l-.08-.1Z"/>
    <path class="cls-1" d="M310.28,116.68c.63.31,1.76-.31,2.97-.1,1.68.25,2.69,2.25,4.15,2.94.13.05.26.07.37.05.98-.06.94-2.97,1.91-5.03.24-.55.54-1.08.9-1.55,1.76-2.86,6.61-2.73,6.49,1.27-.04,2.64-2.61,4.94-2.84,7.52.03,1.68,3.22,2.14,5.57,1.7,1.85-.22,3.5-1.62,5.1-2.3.46-.14.66.05.51.55-1.25,3.09-5.51,4.84-8.76,4.97-2.56.08-4.67-1.58-7.14-2.64-1.07-.48-2.17-.87-3.21-1.39-1.44-.75-2.68-1.74-4.15-1.8-1.05-.1-2.2.18-3.22.02-3.46-1.13-1.21-8.2-.96-10.99.15-.94.33-2.67-.62-2.57-1.15.09-4.49,1.9-5.48,3.47-.86,1.52-.05,3.41.08,5.09.67,5.78-3.91,9.74-7.67,6.19-3.96-4.65-3.73-3.14-8.75-.85-2.75,1.17-2.95-2.72-2.3-4.49.27-.91,1.06-2.28,1.95-1.73.71.57.55,1.92,1.09,2.62.9.85,3.5-1.5,5.12-1.29,1.58.14,2.13,1.92,3.16,2.92.94,1.12,2.62,1.91,3.83.9,1.98-1.74.67-5.13.18-7.37-1.43-4.49,2.67-5.09,6.56-6.88,2.39-1.02,4.42-2.55,5.71-4.84,1.25-1.72,2.72-5.84,5.02-5.72,1.68,1.47-1.64,5.96-2.48,7.62-1.66,2.69-2.56,4.65-3.05,7.26-.32,1.69-.64,3.6-.59,5.3.04.57.2.95.49,1.12l.08.04Z"/>
    <path class="cls-1" d="M80.68,73.62c.7.22,1.81.04,2.56.23,1.65.3.97,1.6-.03,2.26-1.24.93-3.15,1.18-3.62,2.4-.76,2.16.24,4.94-.09,7.13-.28,2.29-2.02,1.23-2.54-.14-1.18-2.23.4-5.9-1.31-7.14-.94-.45-2.3-.21-3.25-.68-1.25-.57-.93-1.66.25-2.17,1.06-.58,2.65-.4,3.42-1.4.97-1.99.75-5.79,1.02-7.66.04-.79-.02-1.43-.77-.51-1.88,2.28-8.4,10.2-10.63,13-.4.57-.67,1.05-.31,1.66,2.11,2.32,3.74,4.53.24,6.7-1.82,1.09-5.18,1.52-6.11-.87-.48-1.35.6-3.12.61-4.52-.12-2.29-2.06-4.51-.34-6.71,1.16-1.71,3.24-3.18,5.27-2.55,1.78.66,3.05,1.2,4.24-.27,2.8-3.44,5.66-7.29,7.53-11.18.94-2.55,4.3-3.43,4.26.04-.16,2.48-.81,8.07-1.02,10.66-.02.62-.11,1.38.51,1.68l.1.04Z"/>
    <path class="cls-1" d="M77.53,129.03c7.16-1.59,2.72-6.76,6.92-10.23,3.7-2.86,8.5-1.36,5.84,4.22-2.5,5.15-9.23,7.69-13.63,10.51-1.96,1.11-3.08.68-2.53-1.97,1.98-6.64,4-13.27,5.61-20.03,1.91-7.53,2.6-15.59,8.81-21.12,3.27-3.15,5.71-1.02,5.87,2.94.42,7.09-3.14,13.15-9.42,16.4-1.75.94-3.54,1.48-4.07,3.63-.78,2.93-2.45,9.64-3.36,13.21-.37,1.49-.66,2.38-.11,2.43h.08ZM83.04,108.07c2.72-1.06,7.04-3.28,8.22-6.42,1.13-3.12,2.72-10.3.09-11.05-4.19.49-7.16,10.35-8.2,13.87-.18.9-1.03,3.65-.18,3.6h.09Z"/>
    <path class="cls-1" d="M291.23,81.13c1.99.1,5.83-8.71,7.38-3.73.63,1.73.52,4.85,1.45,6.06.97,1.35,2.36.34,3.1-.98,1.04-1.85,1.76-4.26,3.71-5.39,3.03-1.84,7.16.83,6.66,5.08-.36,3.08-2.73,7.05-6.19,6.7-1.43-.23-2.53-1.36-3.97-1.59-1.74-.3-4.33,0-5.55-1.85-.98-1.15-.88-3.12-2.08-4.02-.33-.13-.74.08-1.23.55-1.33,1.16-2.35,3.88-4.43,3.83-1.44-.29-1.73-2.99-2.57-3.8-1.83-1.46-4.24,4.3-5.79,2.6-.61-.82-1.83-8.6,1.22-8.08,1.16.37,1.93,2.59,3.22,1.24,1.36-1.38,2.99-2.68,4.04-.18.6,1.36.58,3.18.97,3.52l.05.04Z"/>
    <path class="cls-1" d="M47.24,58.7c.44.15.44.85.33,1.32-1,4.35-3.54,10.09-4.3,14.83-.56,3.04-1.03,7.22.58,8.35,1.61,1.1,3.6-.37,4.39-1.87,1.43-2.43,1.53-6.6,4.39-8.04,1.8-.94,4.07-.35,5.05,1.13,2.42,4.19-1.41,10-6.74,9.5-2.76-.22-5.57,2.32-8.21,1.38-1.65-.67-2.27-2.58-2.41-4.24-.46-5.71,2.32-13.29,4.11-19.08.3-1.26,1.47-3.42,2.75-3.3l.08.02Z"/>
    <path class="cls-1" d="M25.49,60.82c.23.54-.93,1.37-2.15,1.93-1.56.65-2.65,1.23-3.26,2.77-1.7,3.79-5.35,13.65-5.4,16.49.08,2.51,5.54-.88,6.95-1.07,3.27-.78.09,2.43-1.63,3.17-1.12.59-2.41,1.04-3.73,1.3-1.69.48-8.02.45-6.78-2.13.75-1.09,2.4-2.32,2.71-3.91,1.05-3.9,2.33-7.85,4.04-11.45.32-.8,1.08-1.95.51-2.68-.46-.83-4.8-.52-3.01-2.25,1.3-1.15,10.24-3.75,11.71-2.25l.03.07Z"/>
    <path class="cls-1" d="M376.32,115.24c1.34.54,2.8,1.69,4.32,1.96,2.34-.1,5.25-2.11,7.67-2.44.15,0,.27.02.35.06.63.32-1,1.96-2.81,2.79-1.62.8-3.27,1.74-4.2,3.34-.81,1.32-1.42,3.26-2.26,3.68-1.35.54-1.39-1.65-1.52-2.55-.3-4.81-3.68-.92-5.32.82-1.35,1.47-3.35,2.19-5.04.94-4.23-2.99-.82-11.19,3.83-11.58,2.12-.23,3.63,1.95,4.88,2.91l.11.07ZM374.96,116.23c-3.87-1.39-7.01-1-7.08,3.57-.14,1.76.93,1.71,2.47,1.11,1.22-.42,5.93-3.17,4.74-4.6l-.13-.08Z"/>
    <path class="cls-1" d="M382.15,88.76c.39.2.93-.12,1.34-.39,1.86-1.29,3.05-3.35,4.31-5.26.6-.96,2.01-2.45,2.8-.83.87,1.82,0,4.24.72,6.12.48,1.26,2.33,2.07,2.05,2.64-.63.88-2.08.66-2.91.13-1.06-.58-1.75-2.31-2.99-2.33-.57,0-1.13.45-1.79,1.01-1.05.91-2.45,1.88-3.88,2.06-6.69.68-.26-10.7,4.4-13.92,1.11-.83,2.29-.79,2.47-.22.21.88-1.04,1.84-1.72,2.4-2.26,1.69-3.86,4.29-4.82,6.96-.16.5-.36,1.25-.04,1.58l.06.05Z"/>
    <path class="cls-1" d="M127.47,113.21c1.37.72,2.35,3.23,3.31,4.7.85,1.32,1.34,3.01,3.06,2.54,2.28-.56,9.16-2.6,10.25-2.84.18-.04.28-.04.08.09-.24.15-.89.48-1.78.92-1.5.75-3.54,1.77-5.09,2.55-1.14.65-2.37.94-3.06,2.03-.78,1.23-.06,4.33-1.37,5.02-1.1.54-2.44.33-3.68.4-1.16,0-2.8.05-3.45-.8-1.11-2.4,2.61-3.74,3.55-5.5,1.14-2.79-3.76-5.77-2.56-8.8.19-.27.23-.39.64-.35l.09.03Z"/>
    <path class="cls-1" d="M111.64,123.07c2.34.54,5.02-2.95,6.32-4.78.47-.63.97-1.32,1.61-1.74.14-.1.52-.25.74-.09,1.45,1.85-1.33,5.81.87,7.5,1.36.72,2.68-.58,3.78-1.84.96-1.15,1.88-2,2.05-1.51-.23,3.38-4.99,7.88-7.44,5.38-3.05-3.26-3.39-1.49-6.44.38-6.24,3.02-5.06-5.1-3.49-9.05.86-1.54,2.15-.78,2.22.66.29,1.59-1.05,3.69-.27,5.01l.07.07Z"/>
    <path class="cls-1" d="M353.85,122.39c-.76-.07-1.38.68-1.93,1.18-4.75,4.88-5.84,1.75-5.09-3.17.17-.87.46-2.28,1.24-1.4.58.66.79,2.41,2,2.13,1.4-.29,3.55-3,5.2-2.82,1.04.49,1.23,2.06,2.04,2.83,1.9,1.88,2.17-1.24,1.76-2.68-.37-1.52-.39-3.82,1.49-2.58,3.31,2.47,1.27,8.92-1.74,9.54-1,.27-2.13-.34-3.03-1.4-.53-.56-1.13-1.42-1.84-1.6l-.12-.02Z"/>
    <path class="cls-1" d="M100.29,114.94c.95,2.61-2.93,2.69-4.16,4.31-1.28,1.26-1.87,3.66-.14,4.76,2.34,1.55,6.35-.38,9.38-2.11.55-.36,2.51-1.11,2.24-.3-.32.74-1.33,1.45-2.06,1.94-3.15,1.96-6.08,4.72-9.87,4.14-10.87-2.12,2.04-15.93,4.56-12.84l.06.1Z"/>
    <path class="cls-1" d="M239.8,88.62c.3.43-.11,1.24-.41,1.73-1.94,3.09-1.74,6.98-1.34,10.44.21,1.18-2.11,2.35-2.5,1.29-.32-2.4.06-7.74.87-10.53.49-1.45,1.75-4.05,3.3-3.03l.08.1Z"/>
    <path class="cls-1" d="M149.86,124.44c.65,1.32-.46,9.42-2.17,9.37-1.78-2.23.34-6.05-.04-9-.02-.91,1.65-.79,2.13-.47l.08.1Z"/>
    <path class="cls-1" d="M510.15,166.86c-.06-1.79-.33-4.22-2.35-3.91-1.73.48-3.22,2.54-5.22,2.48-2.21.02-3.12-3.12-5.07-2.56-1.93.45-3.37,3.11-5.39,3.04-1.51-.12-1.52-3.41-3.11-3.94-1.85-.68-3.63,1.41-5.35,1.31-1.29-.37-1.65-2.17-2.89-2.7-1.79-.93-4.15,1.49-5.93,2.31-1.37.45-1.89-1.84-2.89-.78-.25.27-.45.61-.63.98-.93,1.87-2.86,8.94.29,6.93,1.58-.61,6.8-9.05,7.85-5.56.47,1.08-.02,3.47,1.38,3.79,1.9.28,5.74-5.29,7.06-2.82,2,6.37,3.88,3.51,8.43,1.87,1.9-.49,3.22,1.25,5.12,1.55,1.97.37,3.77-1.28,5.48-1.76h.08c.38,0,.57.36.65,1.1.12,1.8.04,4.14.06,6.06.04,4.47.09,7.85-1.02,11.89-.84,3.14-2.01,8.45-4.7,9.27-5.58,1.67-13.86-4.8-14.49-10.66-.24-1.99-1.01-3.23-1.79-.61-1.3,5.21,5.02,10.74,9.89,13.77.34.21.6.41.83.61.27.07.53.13.8.18.42.05.84.05,1.27,0,.05,0,.1.01.15.02.07,0,.13-.02.2-.03.48-.12.97-.21,1.48-.28.06,0,.13-.01.2-.02,1.22-.28,2.42-.7,3.56-1.24.28-.44.62-.88,1.04-1.33,3.99-4.41,3.43-11.6,4.72-17.27.55-3.56.2-8.1.28-11.7Z"/>
    <path class="cls-1" d="M124.2,215.62c-.18-1.39.54-3.86-1.21-4.07-2.09.04-6.34,1.38-8.37,1.53-.47.02-1.12.03-1.16-.54-.05-.57.42-1.36.67-1.99,1.82-4.06,7.61-13.24,3.22-15.12-1.88.18-2.47,2.67-3.14,4.22-2.43,6.49-2.43,12.9-8.52,16.36-2.14,1.2-4.93,2.31-7.31,1.62-1.42-.42-2.48-1.88-3.73-2.45-1.57-.64-2.57-1.44-3.06-2.35-.08-.06-.15-.13-.18-.21-.03-.06-.07-.11-.1-.16-.21-.17-.42-.34-.65-.47-.62-.37-1.45-.29-2.14-.2-.36.07-.73.14-1.1.19-1.11.25-2.11.7-2.98,1.5-.13.2-.27.4-.44.62-1.43,2.47-4.24,4.56-6.36,1.56-1.53-1.86-.21-6.13-2.65-5.3-1.66.61-3.5,3.05-5.27,2.91-1.55-.72.05-5.33-2.6-4.43-1.6.64-3.58,3.61-5.66,3.87-1.55.1-1.82-1.8-1.78-3.06.3-6.69,5.76-12.02,8-18.29,1.74-5.66-2.71-3.1-4.25-.08-2.23,3.6-3.76,8.23-5.32,12.45-.46,1.33-1.18,2.75-2.68,2.95-.98.17-2.05,0-3.06.03-3.46-.06-5.48,4.14-8.69,5.65-2.22.92-2.69-2.02-3.85-3.23-1.04-1.23-2.88-1.25-4.91-1.37-2.39-.14-4.85-.11-7.05.4-1.76.54-3.38.31-4.53-1.3-2.96-4.13-5.12.98-7.73,1.65-1.17.09-2.02-1.21-2.93-1.84-2.88-2.25-8.77.27-9.91,2.97-.93,3.02,2.4,2.65,4.21,1.31,2.17-1.17,4.58-3.82,5.38-1.52.55,6.84-8.6,11.99-6.58,18.97,1.91,3.49,6.32-4.35,7.38-6.16,2.08-3.26,1.93-7.61,3.2-10.76.68-1.32,2.05-3.52,3.8-2.85,1.84,1.12.28,5.42,1.08,7.29.05.11.1.21.16.29.11.12.1.16.35.27,1.98-.11,1.75-3.46,2.87-4.7.92-1.4,4.34-2.34,5.1-1.63.9,1.28-.8,3.97,1.17,4.68,2.03.49,3.8-1.76,5.82-1.65,1.53.04,2.61,2.07,4.32,2.27,1.62.19,2.94-1.24,4.52-1.35,1.37-.2,2.86.89,4.65.34,2.22-.53,4.06-2.81,6.05-3.55.49-.06.71.25.92.73.4,1.04.6,3.07,1.41,3.91,2.02,2.21,4.47-1.07,6.67-1.12,1.5-.03,2.11,1.92,4.02,1.5,1.86-.37,4.22-2.44,5.73-.37,1.78,3.31,5.68,4.58,9.43,5.12,5.55.78,6.46-4.13,12.16-.96,4.05,1.71,8.57-.89,12.15-3,1.41-.45,1.89,1.37,2.98,1.77.96.34,2.19-2.03,3.82-3.07,1.1-.75,2.54-1.41,3.87-1.3,2.62.45.95,4.09,2.17,5.92,2.66,3.77,2.72-2.54,2.61-4.42ZM8.21,226.36h-.06c-.27-.45.13-1.55.13-2.19.11-.68.22-2.1.39-2.48,1.08-1.62,2.89-4.35,4.15-5.86.15,3.58-1.5,8.39-4.6,10.53ZM90.63,216.5c-.16.32-.87.59-1.26.85-.45.23-1.14.72-1.52.77-.45.04-1.02-1.04-1.52-1.06-.65-.04-1.57.67-1.2-.58,1.57-5.3,4.71-4.74,5.53-.08l-.03.1Z"/>
    <path class="cls-1" d="M640.97,220.88c.16,0,.32-.02.48-.03.29-.11.59-.22.88-.33.05-.02.08-.03.11-.04.07-.03.14-.07.21-.11.04-.02.3-.21.33-.21.25-.2.47-.44.68-.68.11-.14.12-.15.04-.05.06-.08.11-.16.16-.24.02-.03.03-.05.05-.08.02-.04.04-.08.07-.11.06-.1.12-.19.17-.29,0,0,0,0,0,0,.04-.07.07-.15.11-.22.02-.03.1-.17.02-.06-.08.12,0-.04.02-.08.09-.3.17-.58.28-.85.07-1.29.37-2.67-.26-4-1.2-2.61-5.04-3.25-6.82-.79-1.18,1.5-1.6,4.09-2.07,4.37-.79.27-1.37-2.89-2.23-4.15-1.02-1.88-3.4-.76-4.93-1.58l-.08-.06c-.72-.69-.36-2.08-.22-3.04.76-4.43,2.17-9.07,1.11-13.61-.21-.8-.74-1.76-1.28-1.55-.31.12-.56.6-.69,1.32-.36,2.35.09,4.99-.14,7.4-.3,4.55-1.92,8.83-2.97,13.16-.13.88-1.09,3.38.45,3.07,1.53-.15,5.46-4.58,6.62-2.67.77,1.92,1.06,5.47,4.18,5.58,1.31.35,4.31-.56,5.75-.09Z"/>
    <path class="cls-1" d="M309.44,239.47c-.05-.43-.1-.81-.36-1.14-.09-.11-.23-.22-.35-.28-.07-.04-.15-.08-.23-.11-.03-.01-.03-.01-.04-.02-.03-.01-.07-.02-.1-.03-.26-.07-.48-.11-.69-.14-.45.04-.91.09-1.36.13-.05.03-.09.06-.15.08-.05.02-.11.02-.16.04-.27.3-.54.6-.78.92,0,0,0,0,0,.01-.04.16-.09.31-.16.45-.05.12-.12.23-.19.34-.85,2.95-1.52,6.06-2.2,9.36-.54,2.46-1.15,5.15-1.89,7.48-.51,1.49-1.03,3.61-2.6,2.29-3.06-3.06-5.7-2.87-7.77,1.11-1.37,2.12-.52,6.55-3.03,6.83-2.43-.47-2.55-3.7-2.31-5.74.37-3.36,1.45-6.51,2.72-9.45.57-1.2.89-2.77.9-3.98-.02-1.76.66-3.18,1.38-4.79.72-1.81,1.12-4.86.63-5.52-2.51-1.04-5.49,11.18-6.26,13.39-1.29,3.6-1.21,7.98-3.49,10.93-2.04,2.63-8.54,5.55-11.14,2.79-.96-1.81,1.29-4.39,1.07-6.92-.06-1.25-.76-2.24-1.75-2.5-1.88-.49-3.39,1.38-3.72,3.16-.34,1.25-.15,2.76-.83,3.83-.9.69-1.85-1.84-3.55-2.51-.96-.44-2.09-.4-3.11-.32-.76.04-1.71.19-1.99-.58-.15-3.43,1.32-10.79,1.7-15.22.09-.81.21-1.62.15-2.39-.2-2.24-2.02-.85-2.52.49-1.93,5.95-1.3,12.54-2.64,18.65-.15,1.37-1.29,4.42,1.27,3.49,2.94-.87,5.77-4.22,7.87-.24,1.45,2.34,4.19,2.76,6.6,3.6,3.44,1.59,8.14.94,11.12-1.62,1.82-1.44,2.67-.85,3.87.71,2.57,3.62,8.96,3.63,12.45,1.41,1.79-.93,2.96-3.65,4.64-4.42.38,0,.5.47.59.79.33,1.06.58,3.52,1.75,3.5.12-.04.24-.15.33-.32.74-1.65.17-4.54.3-6.49-.21-6.9,3.95-13.11,6.04-19.67,0-.22.02-.45,0-.67,0-.07.02-.14.03-.21-.01-.16-.02-.32-.04-.47ZM292.93,266.14c-.26.08-.49.1-.65.03l-.11-.07c-.2-.16-.24-.55-.28-.81-.27-2.69-.11-5.4,2.13-7.08.62-.35,1.31.03,1.79.47,3.23,2.95.91,6.11-2.87,7.47Z"/>
    <path class="cls-1" d="M112.12,259.17c1.23-.17,2.7-1.51,4.08-1.17,1.38.28,1.76,2.56,2.19,4.35.33,1.24.84,4.18-1.38,3.34-1.18-.52-1.56-2.15-2.53-2.89-1.45-.77-2.88,1.99-4.31,2.29-.89.28-1.47-.53-2.21-1.01-.55-.36-1.15-.47-1.82-.29-.73.18-1.61.72-2.34,1.12-4.03,2.35-7.85,2.19-9.17-2.03-.44-1.23-1.13-5.95-2.71-2.84-.97,1.69-1.06,4.9-2.93,5.12-1.2-.45-1.93-2.01-3.45-1.56-1.24.28-2.61.98-3.89.45-1.5-.55-2.62-2.13-4.11-2.18-2.21-.01-4.13,1.96-5.99,2.88-3,1.8-1.49-3.12-2.29-4.56-.12-.21-.27-.21-.46-.05-.79.9-1.45,2.58-2.2,3.66-1.6,2.87-5.13,4.1-6.91,6.37-1.28,1.81-1.74,4.12-2.24,6.27-.54,1.88-.41,5.03-2.62,5.43-1.45-.18-1.88-1.99-2.06-3.25-.82-7.36,3.33-18.84,9.27-22.4,2.04-1.16,4.31-.15,6.48-.26,2.97-.28,4.15-.88,4.33,2.19.07.68.06,1.63.78,1.82,1.32.37,4.56-2.21,6.42-1.83,1.52.26,2.01,2.8,3.28,2.62,1.3-.3,2.06-1.91,3.22-2.56,1.5-.94,2.57-.73,3.77-1.33,2.27-1.44,4.74-2.68,7.64-3.16,1.59-.36,4.4.1,2.05,1.82-.91.7-2.16,1.45-2.6,2.77-1.47,4.05,1.84,6.2,5.38,4.36,7.27-3.36,6.27-13.11,10.37-19.02,1.65-2.31,4.99-2.14,4.59,1.21-.43,3.62-4.57,8.96-5.81,12.36-.15.57-.72,1.8.1,1.96h.08Z"/>
    <path class="cls-1" d="M202.87,214.04c-2.11.45-4.24,3.6-6.72,2.94-1.13-.3-2.18-1.12-3.63-.94-1.79.28-3.42,1.42-5.16,1.93-2.59.91-5.47,1.07-8.45,1.11-.94,0-1.89-.05-2.8-.21-2.21-.3-3.64-1.75-5.29-2.99-1.49-1.1-3.21-.38-4.52.7-3.03,2.49-7.61,6.63-8.89,1.45-.57-2.2.38-4.72.55-6.89-.34-1.04-2.17.11-4.39.35-6.32.2-5.21,2.3-6.49,7.76-2.38,9.64-6.87.49-7.06-4.25-.04-1.25.26-2.29.89-2.99.77-.88,2-1.12,3.07-1.52,4.2-1.44,3-6.31,4.85-10.44.65-2.02,3.41-4.2,2.27-.09-.68,2.02-1.88,4.1-2.08,6.27-.47,3.95,3.9,3.38,7.13,2.65,2.7-.52,4.4-2.6,5.79-4.86,1.13-1.69,2.45-3.9,4.23-4.77,2.13-1.09,4.39.65,4.11,2.88-.78,5.51-8.53,6.16-10.28,10.58-.4,1.19-1.09,3.46-.04,4.35.57.23,1.14-.1,2.06-.67,2.13-1.3,4.31-3.53,6.73-4.22,2.52-.44,3.95,2.61,6.41,3.79,1.46.79,2.52.11,2.86-1.36.26-.87.38-1.98.61-2.91.66-3.19,4.07-4.92,5.58-3.34,1.57,1.7.18,4.47.1,6.41-.38,3.26,8.38-.98,9.46-2.03,1.38-.96,3.6-4.79,4-2.84.27.97-.57,3.02.26,3.65,1.83-.05,4.08-3.01,6.07-2.04,1.82.99,1.75,3.51,1.84,5.39.04,5.01-.43,13.71-1.3,18.25-1.95,9.5-11.14,9.2-13.92.39-.3-1.48.22-1.98,1.52-.4,6.75,8.63,11.57.4,11.21-7.27,0-3.13.02-9.6-.01-12.4-.03-.9-.12-1.4-.49-1.46h-.07ZM144.82,220.66c.28.04.19-.65.34-1.64.15-2.26.75-5.72.56-6.46-.78.23-1.86.91-2.68,1.28-.62.35-1.07.4-1.11.96.53,2.02.82,4.8,2.81,5.84l.08.02Z"/>
    <path class="cls-1" d="M760.41,140.69c.75.66.83,1.87.74,2.86-.14,3.86-2.71,7.49-3.23,11.28.39,2.14,2.71.49,3.27-.78,1.32-2.04,2.48-11.17,5.2-11.02,1.68,1.28-2.01,10.67-2.76,12.72-.32.93-1.58,3.02.2,2.93,2.31-.25,5.53-1.23,8.08-1.73,2.78-.76,4.84.37,4.43,3.47-.12,1.54-1.47,3.33-1.98,4.62-.28.72-.2,1.17.28,1.22,4.43-.79,6.2-7.27,9.62-9.75,1.74-1.18,3.98,1.08,6.17.26,1.62-.44,2.79-2.25,4.37-2.64,1.4.34-2.56,4.35-3.09,5.01-2.68,2.76-4.86,6.37-5.95,5.03-.63-.7.05-4.97-1.21-4.51-1.18.74-2.15,3.09-3.08,4.37-2.73,4.07-6.92,6.5-11.05,4.22-1.8-.98-2.36-2.23-2.27-3.98.01-.96.17-2.11-.62-2.8-.61-.58-1.55-.41-2.21,0-2.2,1.2-2.87,3.48-3.62,5.8-.67,2.27-2.65,3.29-3.19,0-.53-2.72,2.3-9.37-3.01-6.66-5.08,3.07-5.76,12.36-9.25,17.84-.38.59-1.03,1.48-1.59,1.51-2.13-1.22,2.06-10.07,2.86-12.11.86-2.27-.8-1.45-3.18-1.29-1.42.06-2.79-.42-4.21-.08-1.01.19-1.97.79-2.95,1.06-1.99.57-2.27-1.79-1.27-4.41.83-2.16,2.37-4.48,4.09-6,1.28-1.18,2.78-1.7,3.3-1.48,1.12.77-2.78,3.09-3.28,3.97-1.45,1.67-2.64,4.32-1.82,4.27,1.1-.21,2.04-1.3,2.99-1.91,3.1-2.35,2.23,3.51,6.46.55,5.39-3.66,5.87-12.15,8.42-18.74.59-1.8,2.64-4.37,4.23-3.2l.1.08Z"/>
    <path class="cls-1" d="M357.33,258.01c3.13.43,8.74-2.03,9.29,2.35.28,1.4.08,3.03.08,4.42-.02,1.14.63.51,1.02.06,1.2-1.2,2.52-3.91,4.1-4.51,2.5.03,4.07,3.58,6.69,3.87,1.39.3,3.27-.65,4.84.19,1.41.6,3.25,2.78,4.5.9.61-.77.98-1.06,2.39-1.4.96-.18,2.08-.59,3-.59.15.07.11.11.13.21.03.36-.94,1.54-1.46,2.11-1.1,1.16-2.23,2.87-3.87,3.55-2.21.97-4.64-.3-6.93-.62-4.15-.09-8.16-1.99-12.14.25-2.35,1.24-5.28,1.82-5.69-1.61-.4-2.22.73-5.03-.16-6.14-1.37-1.57-5.28-.37-6.08,1.4-.91,2,.26,4.48.09,6.62-.05.49-.11,1.17-.6,1.35-2.46-.66-2.55-6.03-2.69-8.15-.06-1.14-.15-1.86-.4-1.78-.82.74-1.41,2.43-2.13,3.42-1.6,2.61-4.12,4.56-5.68,3.7-1.92-1.08-1.64-4.97-4.71-3.53-1.85,1.03-4.4,1.4-6.13,1-2.13-.14-4.58-.23-6.04-2.06-.89-.92-2.1-1.31-3.1-.51-2.15,1.56-1.97,5.05-4.37,6.41-1.33.86-3.4.86-4.29-.08-2.04-2.41,1.75-4.43,2.45-6.52.1-.37.09-.73,0-1.11-.5-2.05-4.11-5.1-1.99-7.38,1.08-.9,3.52-.52,3.11.99-.15.58-.58,1.17-.65,1.8-.26,2.41,3.45,5.1,5.92,3.43,3.19-1.52,2.16-8.75,6.83-7.28,1.04.44,1.74,1.24,1.77,2.34.04,1.41-1.4,2.57-2.23,3.63-.56.74-1.17,1.54-.66,2.26,2.99,1.39,5.09-4.63,6.69-5.78,1.97-1.74,1.76,1.4,1.33,2.8-.22.99-.56,2.04-.6,2.95.1,3.32,8.6-5.81,8.43-1.43,0,1.45-1.62,7.85,1.55,4.88,2.9-3.35,5.69-14.74,7.67-20.18.9-2.65,3.43-2.69,2.93.38-.63,3.07-2.14,8.08-2.86,11.13-.16.81-.39,1.89.51,2.24l.11.04Z"/>
    <path class="cls-1" d="M527.81,201.28c-1.58,2.23-4.82,2.89-5.66,5.54-.53,2.09-1,4.91-.56,6.97,1.18,2.31,6.27-5.88,7.35-5.46,2.09-.71,2,7.54.9,8.05-1.2.36-2.26-3.75-4.15-1.84-1.19,1.03-2.01,2.26-3.33,3.06-2.66,1.64-4.08-1.29-3.72-5.97.06-1.1.24-2.55-.2-3.44-.86-1.7-4.63-1.07-5.64.54-1.39,2.89-2.69,8.1-3.74,10.88-.16.46-.53,1.56-.86.7-1.65-7.72-2.76-1.5-7.31.14-2.94,1.17-4.39-.77-5.76-3.01-.85-1.12-1.58-.62-2.58.14-.78.61-1.73,1.33-2.7,1.67-5.17,1.74-6.14-3.14-4.49-7.22.76-2.67-2.91-1.92-4.97-1.99-1.27.04-2.52.44-2.89,1.72-.95,2.5-.38,8.09-2.92,10.08-1.62.38-1.42-4.04-1.74-5.39-.19-2.13-.65-4.27-.54-6.35.15-2.28,2.57-2.1,3.59-4,.44-.77.6-1.66.77-2.55.18-.97.36-2.17.74-3.01.66-1.53,1.71-1.37,1.99.35.37,1.81-.57,3.98-.05,5.79.89,3.08,7.61.86,10.89,1.42,2.48-.03,4.24,2.1,6.63,2.05,1.42-.08,3.14-1.31,5.03-1.36,2.37.14,4.17-.9,5.92-2.47,1.16-.97,2.73-1.48,3.86-2.45,1.69-1.46,2.44-3.95,3.61-5.91.51-.93,1.77-2.93,1.29-.54-.39,2.89-4.05,9.08,2.2,6.62,1.51-.66,2-1.92,2.58-3.52.89-2.35,1.67-5.03,3.11-7.13,1.65-2.41,4.24-3.28,5.42-.99,1.15,2.83-.26,6.43-1.99,8.73l-.12.15ZM528.83,193.86c-2.24-1.05-6.54,7.37-6.29,8.73.19.18.66-.07.93-.18,3.33-1.54,6.05-4.52,5.43-8.44l-.07-.1ZM492.35,209.99c-.19-.1-.42-.11-.67-.07-3.28.6-5.75,4.77-2.95,7.17.97.33,1.86-.75,2.56-1.27,1.55-1.35,2.46-3.8,1.19-5.75l-.13-.09ZM503.74,216.21c.57-.7.83-2.09,1.2-3.02.17-.48.37-1.1.15-1.52-.99-2.04-7.8-.72-7.82,3.64-.03.9.33,1.95,1.11,2.35,1.47.85,4.24-.21,5.26-1.33l.1-.12Z"/>
    <path class="cls-1" d="M628.03,162.55c-1.31-2.07-4.38.65-6.06-.43l-.08-.07c-1.77-3.9,4.98-12.89,5.34-17.36.52-4.47-2.57-4.44-3.8-.52-1.46,3.87-1.29,8.73-4.58,11.51-1.86,1.53-4.29,3.58-6.7,3.81-1.75-.08-1.21-2.2-.65-3.25,1.7-3.4,6.73-6.2,4.69-10.5-3.33-4.17-5.24,5.73-6.76,7-1.01,1.18-2.6,1.58-3.78,2.55-1.57,1.22-2.2,2.86-3.47,4-1.26,1.11-2.91,2.91-1.3,4.44,3.31,2.71,1.85,4.87,1.83,8.53-.13,1.49.27,4.76-.32,5.36,0,.1,0,.21,0,.31.12,1.68.07,3.34-.11,4.99.03.93.1,1.85.1,2.76.16,1.04.28,2.38.68,2.99.92,2.13,2.32,1.52,2.61-.45.21-1.34.37-2.58.57-4.01,1-6.45,1.83-14.25,2.66-18.05.41-1.04,1.42-1.61,2.31-2.3,1.74-1.22,4.55-3.37,6.07-4.29,2.19-1.35,1.67,1.56,1.12,2.76-.79,2.1-2.46,2.86-3.48,4.96-.45.89-.75,1.88-.92,2.87-.5,3.22.05,9.43,1.92,11.49.96.62,1.43-1.03,1.64-1.88.95-4.69.64-10.59,3.85-13.53,3.93-3.52,4.46,1.19,5.48,4.16.52,1.28,1.26,1.97,1.77.84.62-1.61.32-6.28-.63-8.66Z"/>
    <path class="cls-1" d="M539.47,54.66c.54-.03.51.93.46,1.43-.45,4.97-2.77,19.52-2.75,23.07.66.06,1.7-1.52,2.44-2.16,1.11-1.03,2.28-2.9,3.94-2.73,1.19.33,1.41,3.26,2.43,3.93,2.31,1.02,2.63-2.99,2.91-4.52.23-1.73,1.74-4.09,3.51-3.74,2.55,1.14-.44,6.22.01,7.83.38,1.84,3.49,1.38,4.28.16.43-.62.44-1.51.43-2.3-.2-4.1,1.14-15.51,5.29-17.24.82-.13,1.02,1.03.52,2.56-1.34,3.92-3.81,7.77-3.47,12.02.23,2.45,1.75,2.71,3,.61.86-1.43,1.79-2.95,3.51-3.4,2.47-.76,5.14-.79,6.1,1.72.39.69.87,1.79,1.66,1.85,1.54-.16,2.27-2.4,3.55-3.15,2.72-1.49,2.55,3.17,3.74,4.8.94,1.5,2.67,2.4,3.43,4.04,1.01,1.9.35,4.62-1.27,5.77-1.44,1.26-4.73.76-5.16-.92-.01-.12,0-.23.06-.34,1.22-1.53,5.76-.72,3.19-4.4-3.95-4.88-8.09-4.7-11.82.43-1.68,2.32-4.41,3.96-5.19,6.83-1.05,3.06.24,11.08-2.63,12.5-1.97-.26-.69-4.45-.46-6.28.54-3.38,1.97-8.43-1.83-10.36-2.66-1.08-5.83-.6-8.49-1.41-.74-.09-1.45-.05-2.16.13-1.41.33-2.88,1.35-3.94.78-1.03-.4-1.58-2.39-2.35-3.36-2.02-2.24-3.99,3.48-5.98,4.24-2.17.42-1.05-5.96-1.05-7.34.44-5.11,1.05-11.66,1.95-16.88.21-1.38.91-3.62,2.08-4.14h.06Z"/>
    <path class="cls-1" d="M452.12,254.38c.7.44,1.64.43,2.49.47,2.24.02,4.7.19,6.99-.12,2.35-.29,4.74-1.16,5.88.18,1.72,2.2,1.98,8.5,6.12,5.37,4.13-3.85,8.82-11.64,11.46-16.72,1.26-2.48,1.51-5.89,2.83-8.26.8-1.44,1.78-1.5,1.9.3.05,3.5-1.53,6.96-.96,10.3,1.09,5.7.85,11.57,1.11,17.36.05,1.43.35,3.51-.25,4.71-.92,1.06-1.82-1.34-2.08-2.12-1.5-5.76-.8-12.33-1.28-18.39-.27-2.84-3.08,3.41-3.7,4.14-2.15,3.65-3.91,6.98-6.67,9.46-2.23,2.15-4.88,3.96-6.77,2.83-.89-.51-1.46-1.45-2.29-2.02-1.28-.96-2.9.08-4.28.35-2.62.51-1.18-3.27-1.73-4.71-.44-.76-1.53-.6-2.32-.59-2.1.25-4.48.15-5.79,1.48-1.14,1.24-.73,4.66-1.72,5.3-.22.14-.47.11-.71-.02-1.32-.78-2.1-2.89-3.7-3.2-1.53-.17-2.7,1.34-3.99,1.97-2.1,1.4-4.48.12-5.43-2.25-1.5-3.7-3.08-2.73-5.86-1.03-2.37,1.34-4.36,1.48-6.32,2.72-1.96,1.47-4.66,2.33-6.73.47-3.68-3.14-1.71-8.65,1.17-12.2,1.02-1.55,4.06-2.69,4.19,0-.1,2.86-3.96,4.29-4.41,7.05-.6,2.68,1.73,4.48,4.16,3.08.8-.39,1.6-.98,2.27-1.66,1.93-1.92,2.57-4.25,5-3.97,1.17.12,2.39.26,3.58.09,1-.1,2.15-.37,3.01.3,1.33.9,1.53,4.17,2.79,5.19,2,1.44,3.91-1.58,5.34-2.87,1.11-1.17,2.48-1.85,3.3-3.2.97-1.68.26-4.11.27-6.6-.01-2,.03-4.26.85-6.06.86-1.73,1.22.61,1.25,1.48.13,2.46-.03,6.87.1,9.21.07.78.2,1.65.83,2.12l.1.07Z"/>
    <path class="cls-1" d="M353.61,144.23c1.51,2.81-.81,8.08-2.33,10.7-1.95,3.2-5.41,6.04-5.81,9.41-.35,4.8,4.75,2.45,7.04.36,2.3-1.92,3.86-2.98,4.79-.16.51,1.62,2.79,7.13,4.31,3.44.62-1.83.58-4.25,2.09-5.69,1.38-1.38,3.82-.86,4.2,1.12.4,1.62-.48,3.5-.48,5.05-.03,1.75,1.64,1.52,2.7.94,1.43-.67,2.54-2.04,3.31-3.59.61-1.27,2.5-4.23,2.95-2.91.69,1.42-.96,4.46.34,5.42.95.31,3.43-3.02,4.72-3.28,2.33-.06.17,5.71,1.7,6.85,1.33.89,3.2-2.23,4.73-1.69,1.57,1.09,1.69,3.75,2.02,5.44.12,1.12-.19,1.18-.86.61-.98-.96-2.71-1.67-4.16-1.06-4.13,1.83-4.88-.16-5.06-3.9-.13-1.04-.52-1.17-1.32-.66-.49.3-1.03.72-1.56,1.02-1.83,1.05-3.44.51-5.24.86-.81.11-1.64.32-2.45.45-1.85.33-3.61-.46-5.56-.45-1.39-.05-2.84.08-4.21-.19-.8-.16-1.51-.45-2.13-.94-1.64-1.09-1.63-3.78-3.61-3.82-.86.08-1.73.68-2.49,1.15-2.73,1.61-5.75,3.47-7.75,1.01-.73-1-.76-2.55-1.65-3.37-1.28-.89-4.31.59-5.83,1.74-1.7,1.5-1.42,4.39-2.96,5.96-2.39,2.44-4.3-4.87-3.76-6.4.53-1.44,2.69-1.32,3.62-2.46.78-.97.78-2.16,1.02-3.4.3-1.81.62-3.88.92-5.74.42-1.8.3-4.72,1.6-5.49,3.58-.13-1.84,11.96-.73,13.33.21.47.75.58,1.54.44,2.28-.51,5.13-1.88,6.15-4.17,1.79-3.62,5.34-18.53,10.11-16.02l.08.08ZM346.96,158.64c3.12-2.33,4.64-6.72,5.49-10.43.04-.24.14-.81-.04-.89-.1-.06-.27.02-.48.2-1.44,1.33-2.47,3.16-3.24,4.97-.67,1.81-1.72,4.32-1.77,6.13l.05.03Z"/>
    <path class="cls-1" d="M166.42,270.16c-.68-1.16-.48-3.74-1.13-4.5-.66-.77-1.8.36-2.54.83-3.09,2.29-6.52,3.36-10.4,2.45-3.64-.53-6.43-5.15-10.16-2.43-1.71,1.14-3.62,2.89-5.74,2.18-2.65-.92-5.04-3.72-7.09-5.14-1.59-1.06-4.13.89-5.96.44-3.81-1-1.71-6.44,1.79-8.23,1.65-.95,3.56-.2,5.28-.25.88-.01,1.6-.46,2.36-.73,1.33-.09.33,3.13.24,5.3-.38,2.33,1.05,5.27,3.4,5.16,3.62-.65-2.07-7.68,1.22-10.48,1.29-1.41,3.58-1.58,4.44-.44.7.84.52,2.14-.46,2.57-.9.45-1.84.36-1.84,1.39-.03,1.06.42,2.27.96,3.16,1.37,2.2,2.93-.09,4.14-2.2.94-1.69,2.41-3.68,4.53-3.37,1.6.23,2.9,1.7,2.23,3.26-.51,1.78-3.06,3.31-2.97,4.91.26,1.27,2.1,2.21,3.27,1.76.87-.48,1.11-1.75,1.6-2.62,1.43-2.92,4.98-5.15,7.69-4.49,1.55.31,3.25,1.57,4.52.02,2.89-3.89,3.51-12.79,5.65-15.15,1-1.06,1.9.06,1.97,1.35.12,4.17-2.59,8.43-3.24,12.42-.59,1.71-.79,14.89-3.7,12.91l-.06-.09ZM161.1,260.84c-2.31-.33-5.25,1.57-5.41,3.94,0,.29.01.64.24.84,2.65,1.1,5.53-2.13,5.25-4.68l-.08-.09Z"/>
    <path class="cls-1" d="M320.74,143.12c.59.09.76.81.78,1.4.09,4.05-4.08,13.83-5.81,19.04-.57,1.67-.88,3.27-.76,5.05.07,1.29.3,2.75-.02,3.22-.64.76-1.94.24-2.82.6-1.32.32-2.68,1.75-4.39,2.16-2.48.84-4.95-.18-6.98-1.57-1.61-.97-3.22-.05-4.73.69-3.47,1.64-7.62.13-9.34-3.4-.64-1.04-1.04-3.28-2.53-3-1.38.31-3.27,3.45-4.71,4.91-.56.47-1.31,1.45-2.02,1.01-.24-.38-.11-1,0-1.52,1.07-4.44,4.57-18.74,5.66-23.17.11-.51.39-1.11.85-1.19,1.36-.11,1.59,1.74,1.27,2.8-.82,4.02-3.4,12.34-3.73,15.84.09.12.23.08.38.03.86-.32,3.31-2.75,4.45-2.36.71.23.86,1,1.06,1.69.25,1.02.48,2.38.86,3.34,1.62,3.7,2.72-2.07,4.06-3.82,1.1-1.76,3.39-3.88,5.53-2.68.47.3.83.73,1.23,1.1.85.83,1.8.91,2.46,1.49.97,1.16.09,3.51.68,4.96.2.57.32,1.26.9,1.36,1-.45.73-3.28,1.84-5.07.76-1.44,2.09-2.7,3.76-2.88,2.97-.04,4.52.5,5.19-2.74,1.12-3.76,3.17-16.47,6.81-17.29h.08ZM297.29,163.45c-2.04-.5-5.46,5.6-4.67,7.24,2.45.89,5.78-6.02,4.75-7.2l-.09-.04Z"/>
    <path class="cls-1" d="M551.11,239.69c.52.68.53,1.81.36,2.73-1.14,5.98-5.18,11.14-5.42,17.4-.2,8,5.53-1.24,7.75-2.2,1.88-.4.74,3.94,2.19,4.21,1.46.1,3.61-3.98,4.96-2.33.41.64.64,1.47.89,2.24.69,2.67,2.24,5.88,1.74,6.97-.71.14-1.61-1.37-2.07-2.09-.66-.94-.91-2.59-2.12-2.82-1.09.13-2.31,1.79-3.76,1.91-1.67.34-2.5-2.06-4.05-1.77-1.31.53-2.4,2.18-3.82,2.68-1.83.82-3.7-.42-4.19-2.6-.52-1.17.26-4.91-1.81-3.17-2.61,1.84-7.24,7.39-11.67,6.31-1.38-.32-2.66-1.25-4.07-1.33-1.34-.14-3.05.88-4.68.71-1.56-.07-2.56-1.52-2.56-3.02-.14-1.26.62-2.85-.07-3.93-.98-1.19-4.37-.67-5.62.57-2.68,2.21-1.77,7.4-3.2,9.6-1.08,1.76-2.59,1.08-3.11-.76-.6-2.25-4.15-14.3-.59-8.22.47.66.98,2.45,1.69,2.38.7-.39,1.06-1.85,1.58-2.69,2.57-4.92,6.12-3.52,10.41-3,1.86-.05,3.31-1.75,5.2-1.64,3.68.58,3.84,6.23,6.06,8.41.6.36,1.19.21,1.89-.05,1.43-.59,2.9-1.58,4.25-2.57,2.95-2.31,5.92-4.33,6.89-7.95,1.09-2.46,2.64-17.29,6.88-14.07l.08.09ZM526.25,258.13c-2.72-.43-4.21,2.6-4.53,4.91-.04.34-.03.73.29.88.88.68,7.23-2.91,4.79-4.05-.45-.18-1.03-.12-1.49-.3-.16-.22,1.16-1.18.99-1.39l-.05-.05Z"/>
    <path class="cls-1" d="M609.83,220c3.11-.42,3.51-6.76,5.1-8.99.34-.5.87-.91,1.1-.13.28.93-.01,2.25.66,3.07.72.92,2.91.67,3.66,1.98,1.08,2.41-.47,5.91-2.37,7.38-1.03.76-2.34.74-3.49.83-1.48,0-1.99,1.27-2.23,2.62-.9,3.9-1.32,12.98-3.88,13.43-3.87-2.73.45-12.81-.51-16.34-.33-1.95-1.01-4.24-1.33-6.15-.15-.64-.32-1.07-.58-1.22-1.11-.29-2.54,2.17-4.37,3.34-2.23,1.84-5.66,1.7-7.43-.66-3.2-4.06,2.5-11.68,7.22-10.81,1.56.24,3.68,2.87,1.69,3.06-1.52-.01-3.28-.56-4.67.37-4.13,3.02-1.94,8.68,3.09,5.12,8.13-5.27,8.58-19.01,13.43-27.66,3.44-6.37,9.31-8.17,7.49,1.32-2.17,10.35-13.82,17.23-13.34,28.03.09.72.32,1.22.67,1.38l.08.03ZM621.35,186.13c-3.64-2.47-10.84,17.06-10.36,20.3.18.27.4.04.73-.24,3.82-3.95,12.21-17.55,9.7-19.99l-.07-.06ZM617.96,215.76c-2.09.04-4.4,2.9-3.76,4.94.31,1.26,1.46,1.74,2.6.08.89-1.34,1.65-3.38,1.23-4.95l-.08-.07Z"/>
    <path class="cls-1" d="M741.63,110.78c1.18,1.7.06,4.63,1.07,6.36.19.15.39.09.6-.04,1.24-.8,3.14-4.96,5.67-4.15,1.87,1.3-.77,3.72-.27,5.42.35,1.15,2.99.96,4.52-.12,2.17-1.41,3.15-4.31,4.54-6.3.93-.99,1.02,1.28,1.65,1.65.94.94,2.46-.73,4.02.42,1.49.76,4.94,7.99,1.64,7.42-1.08-.37-2.13-2.33-3.08-2.95-1.7-1.04-3.42,1.02-4.97,1.76-2.93,1.67-6.34,2.52-9.51,1.74-1.73-.56-3.62-1.15-5.2-.39-4.85,2.4-1.91-6.89-5.44-2.98-1.52,1.75-4.71,3.83-6.01,2.31-.83-.92-.86-2.47-1.21-3.57-.35-1.14-1.1-.8-1.89-.15-1.12.92-2.24,2.12-3.36,3.06-1.82,1.59-3.3,1.35-5.24,1.65-1.36.15-2.72.71-4.1.55-1.85-.27-4.35-1.8-5.58-3.51-.99-1.62,1.02-2.66,1.82-3.83,1.2-1.46,1.83-4.17,4.01-4.83,1.61-.54,2.62.92,2.01,2.51-.4,1.69-3.91,5.3-1.02,6.2,1.34.15,2.64-.78,3.56-1.72,1.67-1.19,3.2-6.9,5.09-5.48.74.53,1.17,2.18,2.29,1.81,1.16-.41,2.96-3.27,4.8-2.98,1.98.94.75,4.47,2.11,5.88,2.04.79,5-8.43,7.42-5.86l.08.11Z"/>
    <path class="cls-1" d="M403.88,85.59c-.91.45-1.96,2.85-3.06,3.69-1.52,1.54-4.28,2.87-5.93.87-1.53-1.82-1.41-5.35-.05-7.4.69-1.09,1.74-1.84,2.67-2.71.89-.8,1.58-1.53,2.51-1.82.81-.14.9.69,1.12,1.3.69,3.04,1.76.54,3.47-.28,2.24-.77,1.86,7.22,2.34,8.63.29,3.32,2.9-.18,4.27-1.73,2.72-3.83,1.39-11.8,8.56-10.28,7.47,1.74,5.75,15.36-1.47,14.1-1.89-.27-3.62-1.82-5.55-1.75-1.8.11-3.17,2.01-4.03,3.73-2.79,5.54-.49,15.2-6.59,19.4-1.1.44-2.27-.37-2.9-1.35-1.75-2.67-1.56-5.96-.43-8.83,1.07-3.48,4.29-5.65,5.47-8.93.38-1.48.26-3.77.04-5.52-.1-.65-.23-1.04-.4-1.1h-.05ZM421.2,86.98c.4-.39.39-1.08.4-1.97-.09-1.64-.34-3.71-1.27-5.08-.17-.16-.28-.05-.42.11-.73.97-3.28,4.41-4,5.4-.23.35-.07.67.16.99,1.12,1.71,3.38,1.77,5.01.65l.11-.1ZM404.91,94.35c-.24-.1-.73.37-.98.6-3.29,3.11-5.8,8.9-3.68,12.9.51,1.11,1.56,1.47,2.34.38,2.58-3.43,1.65-8.25,2.34-12.56.05-.38.2-1.06.03-1.28l-.05-.04Z"/>
    <path class="cls-1" d="M231.01,167.19c2.35.35,5-4.29,6-6.22,1.86-4.52,3.02-4.65,4.02-.56.84,4.56,1.96,4.94,5.95,2.79.94-.43,1.83-.97,2.69-.81.16.05.25.16.28.31-.54,2.56-4.13,3.34-5.54,5.15-.7,1.14-.11,2.46-.46,3.79-.43,2.73-3.74,4.59-6.3,3.54-3.13-1.74.97-5.71,2.09-8.19,1-2.4-.25-4.56-1.57-2.9-1.46,1.68-2.91,3.67-4.64,5.1-7.72,5.97-4.5-7.82-7.64-3.64-2.05,3.29-10.28,13.79-13.17,8.22-1.67-4.74-2.32-1.71-5.84-.45-2.62.93-3.22-1.11-2.08-3.2,1.7-3.04,4.29-6.64,7.74-7.76,1.15-.33,2.29.3,2.61,1.63.59,2.14-.5,4.75-.5,6.81.23,3.28,3.58.49,4.85-.76,3.39-3.11,5.69-7.23,7.43-10.67,1.23-2.27,2.61-4.52,3.58-6.93.83-1.94,1.34-4.17,2.55-5.85.44-.59.9-.91,1.24-.84.34.06.56.52.57,1.28-.25,5.82-4.93,11.67-4.63,17.32.02.91-.05,2.23.68,2.8l.08.05Z"/>
    <path class="cls-1" d="M215.52,241.75c.45.04.18,1.13.05,1.58-.95,3.01-3.28,9.86-4.28,12.99-.14.43-.41,1.35-.09,1.51,1.21-.09,4.04-3.31,5.84-2.87,1.58.49,1.38,2.76,2.27,3.87,2.19,2.25,3.59-3.27,4.18-4.74,1.25-3.35,4.06-4.92,4.89-2.38.27.82.3,1.79.54,2.6.13.37.25.61.58.63,2.24-.7,3.27-4.56,4.67-5.58.25-.19.54-.32.83-.25,1.15.49,1.01,2.34,1.22,3.36.12.61.22,1.03.7.87,1.07-.16,2.73-5.37,4.51-3.46.52.63.76,1.75.81,2.66.29,4.76-.64,13.82-1.51,18.8-.44,2.56-1.29,5.14-2.72,7.35-4.63,7.36-13.05,2.24-16.55-3.46-1.02-1.57-2.25-3.94-.55-2.41,13.37,13.94,19.43,4.35,19.65-15.16.02-.95-.04-2.85-.46-3.31-.31-.36-.85.26-1.7,1.09-1.48,1.78-3.52,1.45-5.53,1.67-1.3.25-2.77,1.55-4.59,2.48-3.25,1.2-9.77,5.02-11.8.85-.45-.72-.58-1.79-1.53-1.74-2.35.45-5.49,3.21-7.85,3.72-1.6-.1,4.44-13.75,5.42-16.43.48-1.43,2.09-4.26,2.94-4.23h.05Z"/>
    <path class="cls-1" d="M303.01,206.95c.85.62,2.15.2,3.18.24,2.44-.2,3.93,2.36,6.15,3.12,2.5.69,1.96-2.74,2.21-4.29.17-1.92,1.96-4.48,4-3.53.59.3.96.91,1.11,1.56.61,2.15-1.55,5.17.59,5.95,1.54.43,3.28-1.05,4.53-1.57,1.14-.28-.1,1.83-.48,2.21-1.63,2.21-4.94,2.3-7.16,2.21-2,.08-3.93.87-5.95-.09-1.29-.55-2.39-1.62-3.72-2.05-2.23-.84-5.14,1.9-6.8-.59-1.31-1.47-.29-4.99-1.46-5.77-1.03-.68-4.39-.39-5.55.94-1.63,2.39.58,7.68-2.25,9.94-2.45.85-2.5-6.07-2.66-7.65-.47-3.47,1.78-5.16,2.62-8.58.5-2.37.2-5.17.74-7.47.62-2.04,2.27-1.97,2.16.6-.1,2.5-.99,5.65-.83,8.19.34,2.36,4.34,1.42,6.09.85,1.3-.52,2.15-1.63,2.75-2.87,1.53-3.14,3.12-8.33,6.17-8.86,1.49-.26,2.72.98,3,2.4.99,5.78-6.41,8.19-8.41,12.46-.36.77-.7,1.91-.09,2.56l.08.07ZM303.79,199.65c.02.12.1.18.22.19,1.68.11,7.4-5.23,5.71-7.82-1.58-2.04-5.82,6.14-5.94,7.53v.1Z"/>
    <path class="cls-1" d="M559.44,192.17c.54.65.4,1.93.3,2.81-.67,5.02-2.51,9.97-3.81,14.85-.31,1.32.37,1.54,1.48,1.48,4.27-.64,3.62,4.88,5.81,6.84,1.77,1.33,3.07-.97,3.06-2.66.12-1.96.17-4.33,1.53-5.9,2.21-2.88,6.98-2.65,6.26,1.69-.27,2.39-3.33,4.94-2.45,6.05.26.33.31.31.59.49,1.7.66,4.33,1.39,6.02.58,1.28-.95,1.4-3.08,2.25-4.44,2.24-4.31,6.55-3.22,7.98,1.68.44,1.41.55,3.18,1.52,4.29.8.98,2.22,1.19,3.27,1.57.23.14.38.17.35.42-.79.85-2.59.66-3.69.31-1.54-.46-2.39-1.77-3.71-2.4-2.05-.5-3.79.92-6.66.98-1.31.09-2.64,0-3.95-.15-2.17-.19-4.52-.94-6.56-.93-2.8.29-6.28,4.25-8.41.67-.94-1.42-1.06-3.52-1.51-5.07-.22-.68-.53-1.07-.99-1.08-1.84-.13-4.54,5.36-6.17,3.76-.4-.61-.19-2.06.08-2.93,1.11-3.86,2.89-7.79,3.74-11.77.72-2.02,1.03-11.63,3.6-11.17l.06.05Z"/>
    <path class="cls-1" d="M433.34,214.23c1.28,1.32,6.28-5.22,8.38-4.55.66.4.66,1.41.97,2.05,1,1.88,3.56-.64,4.98-.91,1.57-.63,1.98,1.18,2.29,2.33.4,1.85,2.3,7.1-.06,5.36-1.11-.83-1.71-2.56-3.04-3.13-1.35-.49-2.92.92-4.51.58-1-.17-1.8-.89-2.72-1.22-1.35-.54-2.55.46-3.57,1.27-1.48,1.19-3.49,2.37-4.67,1.79-.68-.3-1.07-1.03-1.38-1.66-.32-.66-.59-1.16-1.41-.79-1.53.78-4.12,3.12-5.8,4.36-2.61,2.08-4.36,3.71-6.63,1.42-3.5-3.42.4-10.72,1.3-16.78.15-1.14.53-3.11,1.51-3.56.56-.2,1.02.74.81,2.43-.2,1.77-.54,4.25-.76,6.1-.13,1.37-.41,2.38.16,3.4.61.83,1.75,1,2.73,1.29,2.49.78,5.19.9,7.12-1.22,3.2-3.16,4.53-9.69,6.66-14.07.62-1.34,1.74-2.32,2.91-2.95,2.57-1.04.91,3.96.54,5.08-1.27,3.79-3.61,7.06-5.19,10.52-.33.82-.89,2-.67,2.8l.03.07Z"/>
    <path class="cls-1" d="M581.55,109.66c3.34,6.26,5.16-1.3,8.88-2.08.97-.25,1.96-.2,2.93-.46,1.13-.25,2.36-1.06,3.67-1.35,2.19-.5,3.12.56.98,2.05-1.14.81-2.37,1.61-3.3,2.69-1.64,1.32-3.9,7.91-6.02,4.73-.61-.97-.82-2.07-1.4-1.87-6.61,5.28-5.67,13.94-9.2,21.47-1.07,2.28-2.99,6.01-5.39,6.58-2.42-.22-1.72-5.12-1.49-6.94.62-5,3.79-8.85,6.77-13.11,1.14-1.85,3.14-4.04,3.3-6.07-.46-2.11-4.7,1.66-6.1,1.7-6.14,1.33-4.06-8.95.88-10.97,2.96-1.22,4.23,1.28,5.39,3.49l.09.15ZM580.04,108.77c-2.49-1.38-7.99,2.61-5.95,5.08,2.07,1.06,7.2-2.68,6.04-4.98l-.1-.1ZM573.84,137.12c.27.03.6-.41.81-.67,2.36-3.07,4.14-7.38,4.63-11.29.03-.32.1-.85-.13-.99-.26-.07-.61.34-.83.58-2.7,3.24-5.41,8.01-4.55,12.35l.07.03Z"/>
    <path class="cls-1" d="M772.21,85.59c-1.8,1.13-3.64,2.69-4.06-.61-.19-2.45.14-6.58-.21-8.12-.29-.39-.59.32-1.03.97-1.43,2.26-2.82,5.63-4.96,7.11-1.8,1.3-4.34,1.19-5-1.38-.43-.96-.52-2.83-1.78-2.71-1.09.1-3.36,2.02-5.35,2.74-1.17.49-3.03.72-3.45-.8-.61-3.11,4.45-9.5,7.85-9.03.67.1,1.3.42,1.94.64,2.34.82,4.99-1.43,7.52-1.36,4.44-.48,6.02-5.07,6.79-9.97.56-2.27.12-7.03,2.45-7.69.61.01.81.93.79,1.54-.17,2.77-.98,9.67-1.23,12.74-.06.79.09,1.54.57,2.15.43.62,1.31,1.34.95,2.15-.77,1.24-2.69,2.03-2.81,4.01-.08,1.19-.89,5.53.33,5.69,2.1-.91,2.45-3.38,3.55-5.63.59-1.43,1.7-3.03,2.77-4.09,3.8-4.22,7.71-2.3,5.02,3.73-.72,1.55-2.12,2.94-3.22,4.15-.3.35-.44.61-.34.77.59.56,2.9.18,4,.13,1.28,0,2.84-.45,3.78.45.75,1.32-3.83,3.88-5.96,3.82-2.99.56-5.94-2.65-8.77-1.47l-.12.06ZM749.5,82.2c1.18.29,6.68-4.44,5.41-5.95-2.19-2.21-5.88,3.71-5.45,5.88l.04.07ZM765.67,75.81c-1.09-.14-6.57.69-7.04.69-.19.05-.24.14-.24.34.15,1.54.46,3.6.64,5.19.08.96.29,1.3.96,1.3,1.48-.2,2.3-1.56,3.39-3.1.74-1.16,2.03-3.45,2.3-4.38v-.05Z"/>
    <path class="cls-1" d="M434.6,121c-.66.11-1.27.76-1.93,1.16-1.2.87-2.62,1.28-4.51,1.29-2.27,0-5.51.21-6.84-1.56-.73-.77-1.24-1.94-2.35-2.1-.98-.06-1.89.76-2.8.99-1.55.31-.85-1.88-.4-4.32.45-2.51,2.3-4.11,4.62-2,2.13,1.71,2.76,5.38,5.68,5.98,2.33-.12,1.9-3.56,3.37-5.75.81-1.54,2.57-3.06,4.34-2.07,7.78,5.34,3.88,35.23-6.53,32.49-1.87-.37-4.71-2.16-5.1-3.99-.02-.48.43-.62,1.15-.45,1.31.31,2.71,1.16,4.11,1.25,3.87.39,5.78-3.44,6.99-6.85,1.07-2.61.81-5.15.84-8.2-.01-1.48.04-3.24-.04-4.63-.06-.76-.22-1.18-.52-1.22h-.07Z"/>
    <path class="cls-1" d="M674.2,49.59c2.76,4.68-6.98,20.17-3.96,27.54.76,2.35,2.94,2.17,4.34.49,1.53-1.61,2.39-3.99,3.44-5.97.44-.72,1.05-1.66,1.93-1.68,1.9.59,1.06,3.98,1.33,5.57-.07,1.95,1.37,5.06.12,5.44-1.24-.18-1.88-1.89-2.52-2.8-.33-.51-.65-.78-1.04-.71-.97.26-1.83,1.62-2.58,2.39-2.18,2.49-4.76,2.95-6.24.51-.98-1.1-1.06-5.29-3.21-3.76-2.65,1.9-5.48,5.72-8.74,4.42-4.95-2.99,3.26-14.28,7.76-12.65,1.38,1.28-3.58,2.72-4.3,3.75-1.43,1.11-3.66,5-1.72,6.04,2.94.25,6.91-3.75,7.86-6.44,1.5-4.69.4-9.76,2.39-14.19.8-1.83,2.78-8.21,5.07-7.98l.07.03Z"/>
    <path class="cls-1" d="M61.11,165.42c.82.94,1.93,1.71,2.18,3.2.23,1.14.12,2.4-.12,3.55-.98,4.66-4.46,11.2-8.54,13.03-3.76,1.84-5.26-2.94-5.04-6.03,0-1.43.87-3.81,1.77-2.12.54,1.2.33,3.17,1.21,4.25,1.71,2.06,6.54-3.72,7.48-8.48.29-1.31.09-2.89-1.45-3.12-3.98-.18-9.2,2.23-10.87-2.02-.62-1.14-.5-2.9-1.58-3.7-1.67-.4-3.98,3.55-6.06,3.5-1.54-.11-1.58-2.27-1.12-3.38.66-1.62,2.32-1.46,4.16-2.13,1.41-.42,2.87-1.66,4.38-1.07,1.84.76,1.73,4.53,3.26,5.99,5.27,3.81,6.71-8.99,9.25-9.07,1.38-.11,2.07,1.68,2.01,2.93.03,1.99-1.65,3.27-.98,4.57l.06.09Z"/>
    <path class="cls-1" d="M670.84,167.41c-1.39-.34-2.91,1.87-4.14,2.49-2.09,1.51-2.51-1.22-4.4-2.3-1.39-.76-3.14-.38-4.61-.74-2.11-.37-1.91-2.56-1.29-4.12,1.49-4.2,5.24-6.49,8.18-3.37,1.18,1.24,1.62,3.96,1.83,5.96.27,2.26,1.54,1.13,2.53-.04,5.05-5.94,4.03-15.38,7.32-22.94,2.35-4.62,3.9-1.09,3.33,2.3-.94,7.57-4.77,12.59-4.86,19.61-.14,1.37.41,6.7-1.93,5.71-.81-.49-1.28-2.11-1.87-2.51l-.09-.05ZM664.72,162.35c-.31-.94-1.5-2.11-2.58-2.26-1.37-.35-2.53,1.34-3.15,2.62-.87,1.81.15,2.45,1.73,1.95.79-.33,2.05-1.07,2.92-1.5.62-.35,1.05-.48,1.08-.71v-.09Z"/>
    <path class="cls-1" d="M541.32,142.16c1.42,1.75,1.39,4.46.69,6.54-1.75,5.16-8.1,7.55-9.73,13-1.39,4.07,3.28.42,5.23-.34,1.92-.98,4.07-2.08,5.93-3.03,1.07-.46,2.2-1.38,3.22-.66.72.66.34,2.76-.13,4.68-.57,1.94-.25,4.1-.68,6.01-.53,1.69-2.03,1.14-2.63-.46-.7-1.81.45-4.23-.47-5.99-.77-1.12-3.23.4-5.83,1.76-2.35,1.29-5.01,2.65-6.47,4.61-.86.92-2.86,4-4.21,3.14-.46-.57.29-2.27,1.23-4.14.76-1.84,2.21-3.79,1.87-5.74-.34-1.03-2.31-1.28-1.85-2.55,1.05-1.81,4.09-2.22,4.9-4.34,1.56-3.2,3.48-17.13,8.82-12.62l.11.13ZM539.86,143.85c-.8-.62-1.5.11-1.7.87-1.02,2.67-2.09,5.56-2.91,8.37-.08.45.16.43.51.23,3.07-1.91,5.5-5.55,4.2-9.34l-.1-.12Z"/>
    <path class="cls-1" d="M94.79,151.89c1.7,2.94-4.54,7.47-5.13,10.17-.44,1.39-1.24,3.03-1.12,4.46.07.2.25.27.46.26,1.09.05,3.43-2.07,4.85-1.62.75.41.91,1.29,1.23,2.11.41,1.26.98,3.03,1.33,4.23.42,1.42.38,1.86-.8.85-1.4-1.05-2.79-3.18-4.77-2.96-1.57.18-4.14,2.22-5.02,1.86-.45-.18-.47-.7-.52-1.17-.13-2.95,1.21-7.52-3.43-4.71-1.79.96-2.87,1.8-3.42,3.72-.4,1.35-.54,3.02-1.31,4.19-1.17,1.72-2.54-.3-2.88-1.57-.66-2.25-1.77-4.83-.59-6.39,1-1.2,2.73-1.58,3.56-2.98,1.56-2.1,1.43-7.13,4.49-8.32,3,.11-1.33,7.04-.44,8.32.41.69,1.54.14,2.22-.17,3.53-1.66,5.27-4.62,6.97-8.15.64-1.56,2.63-3.67,4.24-2.23l.09.1Z"/>
    <path class="cls-1" d="M455.93,75.09c.79.19,2.3-1.05,3.68-2.44,1.45-1.44,2.82-2.93,4.38-4.63,5.19-5.64,9.85-10.92,6.4.47-1.34,6.87-2.56,14.55-1.93,21.59-.07,1.12-.87,1.88-1.66,1.13-.53-.53-.47-1.58-.36-3.18.28-5.01.86-15.21,1.05-18.92.23-2.57-1.3-.67-2.34.41-2.12,1.8-9.26,12.64-11.86,8.95-.72-.9-1.21-1.8-1.63-1.07-.4.68-.61,1.76-.77,2.6-.82,3.68-.94,7.64-2.77,10.84-.83,1.25-2.19.98-2.26-.77-.08-1.06.33-2.4.78-3.46,2.82-6.32,4.08-13.12,5.17-19.94.18-1.38,1.05-4.45,2.67-3.92.4.29.54.91.6,1.46.13,2.21-.02,6.76.08,9.11.07.64.1,1.45.68,1.74l.08.03Z"/>
    <path class="cls-1" d="M682.08,204.56c2.25,2.56.08,6.54,1.31,9.44.54,1.21,1.58,2.43,1.44,3.84-.13,1.76-2.51,3.02-4.33,2.72-1.35-.18-2.54-1.13-3.91-1.12-.87,0-1.73.37-2.54.71-2.14.97-4.66,1.37-6.74.4-3.08-1.46-4.75-5.35-3.77-8.54.89-3.32,5.07-7.36,7.7-4.12,1.65,2.46.33,5.85-1.99,7.44-.92.74-1.58,1.41-1.39,1.97,2.02,2.95,10.87-.3,11.26-3.42.15-1.95-1.51-3.56-1.82-5.41-.84-2.67,2.32-6.22,4.66-4.04l.12.12Z"/>
    <path class="cls-1" d="M601.58,119.16c-.07.18-.08.36.02.52,1.15,1.28,5.36.58,5.96-1.77,1-2.65,1.61-6.19,3.79-7.59,1.96-1.38,2.94.02,3.29,1.94.4,2.74,2.46-.91,3.63.47.97,1.38.41,3.6.78,5.16.13,1.32,1.55,2.03,1,3.31-.67,1.17-2.81,2.33-3.61.7-.54-.86-.7-2.15-1.57-2.65-.32-.15-.7-.06-1.14.22-1.11.73-2.23,1.97-3.61,2.37-1.26.41-2.79.48-4.17.59-4.28.45-8.05.41-8.53-3.86-.39-4.37,3.84-10.87,6.95-10.23,3.63,1.4,1.51,6.55-.79,8.61-.66.63-1.55,1.36-1.96,2.1l-.04.1Z"/>
    <path class="cls-1" d="M606.86,68.84c1.33,1.24.57,4.18,1.72,5.59.74.74,3.07-2.99,4.78-3.25,1.46-.44,2.39,1.03,2.97,2.18.49.86.91,2.42,1.98,2.29,1.89-.4,4.16-4.68,6.27-3.91,1.04.87,1.08,2.64,1.85,3.74.53.94,1.74,1.6,2.5.65,1.02-1.12.97-3.94,1.74-5.6.81-1.96,2.28-2.98,3.16-1.66.65,1.06.49,2.24.45,3.53-.3,2.73.41,5.4,3.64,4.31,1.66-.54,3.55-2.23,4.44-2.27.36-.06.59.2.52.57-.52,2.19-3.08,3.8-5.16,4.52-2.05.98-4.9.02-6.53-.05-1.38.02-2.55.99-3.92,1.17-4.17.64-3.17-6.87-5.83-5.26-1.75.94-4.49,4.58-6.14,4.62-.39-.06-.59-.52-.68-1.23-.13-1.03-.09-2.64-.32-3.69-.91-3.59-3.96.71-4.95,2.31-3.51,5.36-3.88.6-4.03-3.59-.19-1.99-.17-5.37,1.45-5l.08.05Z"/>
    <path class="cls-1" d="M727.45,213.57c-1.16.27-3.5,2.63-4.95,3.19-2.97,1.72-6.24.61-4.19-3.1,1.88-3.46,5.94-5.14,9.67-5.74,1.18-.32,1.89-.92,2.43-1.95,1.91-2.8,4.99-18.67,8.16-18.6,4.02,3.02-5.93,16.52-6.41,20.6-.47,1.8-.52,3.53-.58,5.45-.26,2.41.24,6.57-2.44,7.36-1.15.19-2.52-.45-2.67-1.7-.34-1.77,1.48-4.23,1.02-5.49l-.05-.02Z"/>
    <path class="cls-1" d="M694.8,69.93c-.48.55-1.74.74-2.49,1.07-4.75,2.4,2.9,6.32,4.24,8.74,1.04,1.24,2.04,2.87,3.49,3.54,1.28.54,3.08-.11,2.98-1.33-.6-1.81-3.26-2.87-3.19-5.19-.28-4.63,6.83-10.4,8.92-7.84,1.78,2.66-2.5,2.74-3.99,3.89-1.53.95-2.44,3.74-.5,4.64.86.44,2.15.47,2.95,1.03.49.33.78.85.83,1.45.36,3.19-6.12,8.79-9.25,6.61-.8-.52-1.26-1.45-1.76-2.21-1.31-1.96-3.15,1.13-4.79,1.17-1.71.35-2.69-1.65-2.38-3.58.2-1.4.62-2.83.19-4.22-.46-1.64-1.91-3.35-1.9-5.24-.14-2.75,3.55-4.59,5.78-3.76.5.17,1.25.61.93,1.18l-.05.07Z"/>
    <path class="cls-1" d="M610.24,257.45c2.55,1.44,4.82-2.82,6.78-2.82,2.6.02,4.52,2.85,4.87,5.24.76,5.15-6.54,9.7-8.99,6.13-.77-1.08-.92-2.66-1.32-3.87-.24-.74-.59-1.17-.97-1.15-2.21,1.05-.94,5.3-2.27,6.73-.49.64-1.08,1.16-1.97.92-1.16-.5-1.49-1.8-2.01-3.11-.47-1.48-1.52-3.7-1.57-5.02.03-1.24,1.51-1.48,2.49-1.92,1.24-.45,2.09-1.3,2.19-2.62.21-1.56.74-18.42,3.16-10.02.62,2.89-.15,6.23-.8,9.17-.14.77-.2,1.73.32,2.26l.09.08ZM615.03,264.67c2.29.59,4.14-4.73,3.98-6.24-.11-.27-.29-.26-.64-.14-.6.23-1.38.64-1.94.93-1.99.82-2.08,3.14-1.49,5.37l.09.08Z"/>
    <path class="cls-1" d="M115.13,164.74c.48.51.51,1.4,1.03,1.84,1.3.55,3.51-2.68,4.97-2.69,2.18-.16.3,5.22,2.6,3.79,1.03-.61,2.37-1.36,3.57-.73,1.44.63,2.68,2.9,2.52,3.93-.28,1.36-1.94-.16-2.67-.45-1.86-1.24-3.66.82-5.48,1.26-.52.12-1.09.07-1.39-.41-.41-.61-.42-1.72-.85-2.25-.61-.54-1.69.38-2.33.73-2.26,1.56-5.01,2.65-7.6,3.65-.97.36-1.95.71-2.99.63-1.5-.15-2.68-.94-4.11-1.8-1.19-.75-2.79-1.58-3.25-2.79-.31-.86-.01-1.78.26-2.64,1.04-2.95,2.26-8.35,6.31-6.95,3.02,1.72.49,5.35-.71,7.51-1.49,2.82,2.13,5.07,4.36,2.97,1.88-1.11,3.01-7.53,5.69-5.68l.08.09Z"/>
    <path class="cls-1" d="M392.21,100.33c.37.14.41,1.04.38,1.54-.25,3.34-1.04,12.15-1.31,15.65-.02.46-.06,1.11.27,1.33.21.11.54,0,.99-.26,1.09-.66,2.44-1.8,3.67-2.33,1.64-.78,3.05-.18,2.22,1.58-.46.99-1.49,1.88-2.16,2.74-.26.37-.55.75-.35,1.16.36.71,2.85.59,4.79.24,3.11-.55,5.98-1.93,7.58-4.49.64-.98,1.29-2.05,2.21-2.67.99-.7,1.92-.16,1.81,1.12-.06.95-.41,2.03-.55,3.02-.57,1.55.92,9.28-2.29,6.92-.95-.84-1.11-3.1-2.57-3.2-.81,0-1.76.58-2.55.92-3.99,1.9-8.08,1.52-12.4,1.73-2.22.15-3.24-.98-2.89-3.2.74-6.06.99-12.49,1.72-18.47.17-1.1.35-2.91,1.38-3.32h.05Z"/>
    <path class="cls-1" d="M673.64,122.74c-1.5.8-2.78,2.36-4.31,2.97-2.04.98-4.6-.3-5.35-2.41-1.55-4.27,1.34-11.78,6.2-12.18,2.79.69-1.69,3.59-2.45,4.88-1.68,1.78-2.31,6.31.67,6.73,1.87.17,4.18-1.18,5.49-2.66,2.16-2.44,2.84-6.92,5.01-9.39,1.59-2.05,4.83-2.25,6.68-.47,3.37,3.17-1.69,11.13-5.44,12.68-2.16.85-4.18-1.38-6.33-.22l-.16.08ZM682.01,118.45c.74-.87,1.69-3.06,2.03-4.41.31-1.21.4-2.7-1.03-2.69-4.88.66-8.76,13.5-1.1,7.2l.1-.1Z"/>
    <path class="cls-1" d="M8.35,253.97c.99,1.48.39,3.59-.57,4.96-.97,1.45-3.01,2-3.71,3.02-.57.74-.14,1.63.56,2.13,2.49,1.73,6.4.73,8.83-.78.73-.5,1.28-1.18,1.59-2.01.54-1.32.75-6.86,2.76-4.02.4.65.71,1.76,1.02,2.42.83,1.57,2.07-1.46,2.83-1.91,1.22-1.12,2.22-1.05,3.73-1.81,1.94-1.34,5.29-1.6,5.82,1.14.31,2.23-1.69,4.15-2.71,5.88-.47.82-.78,1.38-.18,1.54,1.07.25,4.2-1.62,5.46-1.54,1.04.57-2.1,3.5-4.04,4.09-1.79.71-4.15.42-5.28-1.15-1.42-1.77-1.56-5.23-2.47-5.16-1.8.54-2.06,5.05-4.22,4.55-.78-.27-1.7-1.02-2.82-.76-.75.14-1.54.68-2.24,1.1-4.43,3.01-11.29,2.21-12.53-3.46-.84-3.74,1.85-8.36,5.28-9.13,1-.25,2.17-.07,2.82.76l.09.12Z"/>
    <path class="cls-1" d="M194.26,144.69c.27.54.06,1.77-.17,2.52-2.84,9.57-9.02,19.06-6.12,28.89.33,1.4-.09,2.31-1.25,1.25-.97-.87-1.52-2.24-1.74-3.53-.55-2.17.32-6.14-1.74-4.39-2.46,2.45-7.44,8.4-9.53,3.61-.51-2.79,3.3-5.64,5.53-7.03,2.31-1.42,5.34-1.62,6.82-4.07,2.24-3.49,4.05-10.04,5.81-14.27.39-.9,1.33-3.65,2.34-3.05l.04.06Z"/>
    <path class="cls-1" d="M346.21,206.71c.19.16.66-.1,1.34-.67,1.22-.97,2.58-2.69,4.06-3.3,1.66-.52,2.23,1.69,2.44,4.24.13,2.81-.62,6.09-1.55,7.5-.75,1.16-1.43.67-1.58-.85-.52-1.41,1.57-7.15-1-6.58-.8.2-1.61.83-2.24,1.41-1.58.74-5.33,9.8-6.54,7.17-.22-2.13,1.16-4.56,1.78-6.63,2.26-6.55,2.58-13.31,6.36-19.39,3.04-5.43,6.06-.73,5.53,3.39-.55,5.44-8.29,8.2-8.63,13.67l.04.04ZM347.75,199.51c3.91-.52,5.06-5.44,4.83-8.86-.03-.26-.09-.71-.33-.79-.13-.06-.3-.03-.49.08-2.66,1.95-2.99,5.77-3.99,8.67-.07.23-.22.67-.08.84l.07.06Z"/>
    <path class="cls-1" d="M12.53,143.08c.48.07.61.59.53,1.04-.52,3.64-5.26,14.58-6.26,19.81-.91,3.51,2.27,4.21,4.96,2.5,2.88-1.86,1.95-5.79,4.68-8.12,2.01-1.75,3.65-1.12,4.21,1.4.3,1.32.88,2.58.32,4.02-.57,1.55-2.12,2.88-3.74,3.27-1.4.38-2.91.27-4.29.7-2.51.85-5.67,3.65-7.88.78-3.26-4.39,3.53-16.27,4.86-22.27.23-1.26,1.3-3.24,2.54-3.15h.08Z"/>
    <path class="cls-1" d="M709.8,161.25c.82.14,1.56-.17,2.55-.32,1.84-.36,3.98-.29,5.17.49,2.32,1.5,2.13,4.59.68,7.02-3.05,5.3-10.56,3.99-13.05-1.18-.36-.98-.14-2.02.15-3.03,2.13-6.46,1.91-13.83,4.33-19.89,1.49-2.31,3.02-.44,2.43,1.56-1.27,3.83-1.99,6.82-2.6,11.08-.23,2.15-.69,3.75.25,4.24l.09.03ZM714.02,162.65c-.56.1-1.14.38-2,.82-1.39.87-3.3,1.65-3.47,2.7.85,1.67,3.26,2.5,5,2.14,2.73-.13,4.89-6.13.63-5.69l-.16.03Z"/>
    <path class="cls-1" d="M466.78,105.25c.3,2.18-4.06,3.38-5.68,4.18-1.26.55-1.75,1.07-1.99,2.29-.7,3.22-2.78,12.52-3.44,15.74-.53,2.69,3.3.5,4.65.24.92-.38,5.27-1.22,4.95.07-1.77,1.53-6.13,3.4-8.46,4.79-5.74,3.63-4.38-.76-3.18-5.22,1.18-4.68,2.07-9.5,2.33-14.29.27-3.65-3.62-.8-5.28-2.04-.62-.62.55-1.72,1.33-2.01,2.99-1.35,10.26-3.61,13.29-4.21.53-.13,1.28-.11,1.45.37l.03.08Z"/>
    <path class="cls-1" d="M242.88,210.52c.35.38,1.26.22,1.88.19,1.03-.08,2.73-.4,3.05-1.21.29-.64.19-1.38.23-2.05.03-1.02.7-1.04,1.44-.74.66.23,1.43.46,2.16.37,1.22-.09,2.58-1.32,4.19-1.73.8-.27,4.44-.93,2.56.71-1.41,1.15-3.43,2.05-4.39,3.7-1.02,1.35-.97,5.7-3.22,4.82-.15-.09-.48-.35-.62-.49-1.13-1.23-2.02-1.31-3.84-.56-2.21.95-4.6.52-6.89.21-2.1-.05-3.63.64-3.56-1.48.27-2.45-.25-5.6,1.61-7.49,1.31-1.31,3.48-1.68,5.05-1.14,1.89.57,2.43,2.46,1.45,4.44-.3.81-1.14,1.63-1.13,2.4l.03.06Z"/>
    <path class="cls-1" d="M691.82,157.06c.62.18.67,1.1.67,1.74.41,8.62-4.46,42.95-15.46,23-1.21-2.83-3.14-9.16-.64-11.33.62-.26.82,1.09.72,2.64-.3,3.49,2.58,10.52,5.76,10.92,1.41.03,2.33-1.45,2.96-2.6,3.23-6.17,4.53-14.04,3.74-20.97-.3-1.49.82-3.78,2.16-3.43l.09.03Z"/>
    <path class="cls-1" d="M497.48,122.86c-.68.57-1.23,1.52-1.88,2.2-1.13,1.27-2.62,2.16-3.22,1.98-.45-.16-.46-.56-.46-1.21.09-1.16.39-2.61.6-3.94.61-2.47,1.01-9.35,2.25-9.31.85.87.59,2.37.55,3.73-.05,1.4-.81,3.98-.41,4.96-.02.03.18.15.19.11l.13-.03c1.26-.66,2.74-3.07,4.36-1.85,1.54,1.26,1.25,5.54,2.56,6.07,2.14.43,5.74-4.3,5.96-6.34.59-1.94-.8-5.05-.52-6.4.37-1.06,1.69-.34,2.28.21,3.62,3.22-.23,11.58-4.28,14.92-.98.77-2.22,1.3-3.42.89-1.14-.35-2.08-1.63-2.68-3.05-.5-.83-.98-3.36-1.93-2.97l-.08.05Z"/>
    <path class="cls-1" d="M801.39,114.57c-2.78,6.09-10.95,6.72-16.65,3.66-1.84-.84-2.37-2.79-1.66-4.6,1.34-4.09,3.65-8.76,6.65-7.13,4.4,2.4.99,5.48.1,9-.29,1.41,1.21,1.66,2.36,1.6,3.1-.04,6.74-2.03,8.42-2.74.3-.12.84-.3.8.14v.08Z"/>
    <path class="cls-1" d="M628.88,105.96c.82.28,2.86-.07,3.43.87.52.8.2,1.94-.57,2.48-1.62,1.2-4.3.45-4.35,2.87-.02,1.84-.02,4.21-.43,6.11-.81,4.19-2.79,3.85-3.08-.62-.15-1.77.05-3.89.2-5.58.16-1.41-.87-1.93-2.01-2.21-.98-.28-2.28-.64-2.47-1.74-.09-.78.46-1.47,1.33-1.77,1.93-.53,4.83.06,5.42-2.5,1.01-3.34,1.33-9.22,2.31-11.68,1.1-2.34,2.17.59,1.99,1.96-.07,2.63-1.35,6.05-2.03,8.53-.43,1.69-.8,2.81.14,3.24l.1.04Z"/>
    <path class="cls-1" d="M582.49,146.46c.33.3.42.75.41,1.23-.14,1.85-.95,6.16-1.16,8.13-.03.38-.05.74.11,1.05.32.52.89.47,1.55.47,1.02-.05,2.54-.29,3.52-.06,1.78.4.94,1.68-.34,2.42-1.57,1.11-4.46.76-5.35,2.63-.66,3.03.62,7.95-.13,10.91-.39.78-1.12.65-1.72.08-1.71-1.75-1.45-5.31-1.41-7.8.14-1.83.64-3.57-.47-4.15-2.01-.83-4.75-.19-6.8-.73-2.35-.46-1.72-1.83.35-2.2,1.98-.4,4.49.26,6.44-.3.91-.28,1.36-1.07,1.57-1.97.41-1.99.84-5.91,1.21-7.99.13-1,1.02-2.43,2.13-1.79l.07.06Z"/>
    <path class="cls-1" d="M589.8,265.1c-.13.36-.81.77-1.27,1.03-2.84,1.5-5.69,2.22-8.92,2.96-3.37.98-6.76.2-9.53-1.91-4.51-2.39-2.61-2.73-2.23-6.69.28-2.4,2.3-5.77,4.83-5.7,1.78.06,3.13,1.92,2.5,4.62-.31,1.7-1.65,3.45-2.06,5-.14.63-.01,1.15.39,1.57,2.13,2.25,10.66-.45,14.9-1.08.45-.04,1.27-.2,1.39.16v.05Z"/>
    <path class="cls-1" d="M476.05,103.23c.42.17.39.64.3,1.08-.68,2.76-2.87,11.01-3.56,13.77-.07.39-.22.86.13,1.06,1.2.52,6.92-2.15,6.75.27-.96,1.62-4.04,2-5.73,2.78-1.08.43-2.01.78-2.35,1.88-.5,1.91-.13,5.57-1.15,6.98-1.6,2.11-2.74-2.07-3.84-4.35-.43-1.01-.93-2.07-1.29-3.05-.19-.55-.31-1.08.07-1.52,1.46-1.49,4.94-1.22,5.59-3.5.56-2.4,2.12-10.3,2.8-13.42.15-1.07,1.13-2.21,2.22-2.01l.07.02Z"/>
    <path class="cls-1" d="M648.87,158c.53,1.38-1.22,6.48.53,8.47.46.64,1.34,1.15,1.21,2.01-.31,1.21-3.07,3.18-3.86,1.41-.81-.96.11-6.91-1.69-6.66-4.39,2.23-8.18,8.19-13.21,7.61-5.98-1.42,1.2-12.21,5.23-11.79,2.47.55-1.61,3.65-2.36,4.66-.5.51-1.17,1.48-1.37,2-1.01,2.19.69,2.93,2.57,1.91,3.6-2.29,8.89-7.31,11.85-9.5.35-.24.82-.58,1.07-.19l.04.07Z"/>
    <path class="cls-1" d="M209.29,242.35c-.5,2.51-5.03,2.36-6.19,4.62-2.34,4.06-4.05,11.06-5.46,15.68-.49,1.54-.65,3.21-.82,4.76-.16,1.24-1.27,2.45-2.08,1.03-.6-2.54.82-5.8,1.57-8.72,1.07-3.62,3.49-9.78,4.06-12.6.11-.72-.25-.88-1.55-.69-1.72.17-5.45,1.26-7.09,1.04-1.69-.24-2.68-2.78-.5-2.9,3.53-.58,13.44-2.19,16.78-2.72.49-.08,1.16-.08,1.27.42v.08Z"/>
    <path class="cls-1" d="M458.68,215.39c1.09,1.15,5.2.39,7.03.09,1.53-.29,4.45-1.24,4.95-.68.29.45-.23.79-.89,1.29-3.26,1.79-8.15,3.24-11.38,2.45-1.75-.37-3.69-.76-4.52-2.06-1.47-2.89-.42-9.47,3.17-10.26,4.09-.57,5.48,2.71,3.16,6.02-.83,1.32-1.84,2.47-1.56,3.06l.04.08Z"/>
    <path class="cls-1" d="M392.5,188.76c.46.07.42.83.36,1.29-.58,3.47-2.34,11.93-2.89,15.55-.03.53.16.72.73.72,1.23-.05,3.38-.37,4.74-.12,2.09.31,2.55,1.09.5,1.69-2,.69-4.79.64-6.51,2.02-2.16,2.23-.76,6.77-2.04,9.13-.27.54-1,1.79-1.6,1.18-.19-.32-.18-.87-.15-1.32.16-2.48,1.21-6.24,1.03-8.62-.64-1.46-3.18-.6-4.39-1.41-1.52-.73-.74-1.72.6-2.16,2.48-.57,5.03-.83,5.46-3.68,1.26-3.72.64-12.65,4.09-14.28h.07Z"/>
    <path class="cls-1" d="M266.37,212.56c.81.72,3.17.79,4.97.35,2.71-.61,5.3-2.25,7.9-3.42,1.95-.88,2.48-.27.57,1.29-3.66,2.64-8.64,5.97-12.93,4.91-2.4-.53-5.11-1.37-5.95-3.74-.76-2.43-.85-5.94.7-7.98,1.98-2.29,6.07.14,5.78,3.02.13,2.31-1.99,4.04-1.12,5.48l.08.08Z"/>
    <path class="cls-1" d="M166.9,151.5c.42.87-2.21.99-3.43,1.29-1.48.26-2.6,1.26-3.21,2.61-1.81,4-3.51,9.82-3.77,14.5-.07,2.13,2.6,1.93,4.54,1.8,4.07-.31,3.54.81-.31,1.86-1.87.22-4.44,1.95-5.55,1.97-1.32-.2-2.96-1.13-3.64-2.3-.12-.35.25-.68.54-.9,1.11-.76,2.41-1.57,2.39-3.14.08-1.11.08-2.29.25-3.41.33-3.55,2.37-7.01,2.56-10.54-.1-1.17-1.63-.87-2-1.43.07-3.09,5.77-3.02,8.8-2.95.88.03,2.13.11,2.77.59l.06.06Z"/>
    <path class="cls-1" d="M409.02,156c0,1.12-2.68,1.16-3.52,2.29-1.29,1.55.2,5.11,2.26,4.63,1.95-.48,3.74-2.87,5.95-2.71,5.68.12,2.6,16.36.54,9.13-.38-1.69.14-3.68.11-5.33-.06-.97-.32-1.96-1.42-1.9-3.96,1.35-3.28,8.2-6.28,10.74-1.14.84-2.56-.01-2.59-1.75-.13-1.9,1.33-3.81,1.21-5.66-.07-1.27-.94-2.33-1.47-3.47-1.27-2.51.32-5.72,3.04-6.4.67-.18,1.78-.23,2.15.35l.03.07Z"/>
    <path class="cls-1" d="M504.09,77.4c.62.76.36,3.35.52,4.74-.03,1.8.44,3.7-.1,5.39-.59,1.51-2.49,1.12-2.86-.63-.32-1.48.02-3.26-.17-4.71-.11-1.27-.91-1.36-1.69-.83-1.3.83-2.34,2.25-2.62,3.77-.25,1.48.14,3.3-.84,4.45-.96,1.19-3.16,1.73-4.22.4-.74-1.06.04-2.89.67-3.91.42-.77.91-1.36.62-2.19-.72-1.53-2.43-2.95-2.82-4.82-.31-.97.14-2.42,1.33-1.54,1.53.94,2.09,4.39,4.34,3.75,2.41-.76,5.85-3.71,7.78-3.9l.07.03Z"/>
    <path class="cls-1" d="M563.68,157.11c.15.27.1.25.08.46-.64,1.14-1.83,2.07-1.34,3.62.65,3.18,4.97,5.65,4.19,8.82-.65,2.65-5.62,3.35-6.57.77-.02-.39-.02-.46.38-.76.92-.6,2.64-.02,3.53-.74,1.16-1.1-3.15-5.17-4.2-8.37-1.08-3.58-3.67-1.65-5.31.5-1.3,1.67-1.84,3.97-3.06,4.05-2.56-.15-1.57-4.38-.39-5.78,1.11-1.34,2.93-1.64,4.38-2.53,2.39-1.34,5.95-1.8,8.25-.12l.06.07Z"/>
    <path class="cls-1" d="M710.09,195.68c.1,1.65-1.14,3.38-1.65,4.96-1.43,3.9-1.89,8.23-2.31,12.35.26,2.55,3.28.27,4.33-1.46.74-1.15.96-2.35,1.93-3.08.25-.12.43.04.49.45.02,2.73-2.54,5.06-4.41,6.83-1.59,1.45-2.66,2.81-4.92,3.14-1.41.21-3.06.3-4.41-.07-1.66-.51-1-1.83.38-2.67.91-.54,2.06-.8,2.8-1.19.92-.44,1.23-1.14,1.32-2.11.21-4.58,2.19-16.32,5.29-17.69.48-.24,1.01-.16,1.15.42l.02.1Z"/>
    <path class="cls-1" d="M524.9,111.64c.51.45.41,1.32.35,1.98-.22,2.13-.86,4.34-.33,6.3.39,1.46,3,3.73.57,4.65-1.28.33-2.75-1.54-3.43-3.33-.82-2.12-1.07-1.85-2.73-.17-.63.6-1.34,1.17-2.08,1.63-3.58,2.23-5.13-.91-2.54-5.24.81-1.36,1.81-2.65,3.05-3.61,1.24-.94,2.76-1.39,4.35-1.9,1.11-.37,2.15-.71,2.67-.38l.1.07Z"/>
    <path class="cls-1" d="M690.43,109.12c1.23,1.04-2.35,9.04.6,5.15.76-.93,1.59-2.17,2.48-3.02,2.99-2.55,3.56.52,3.37,3.01,0,2.72.09,6.5,0,8.12-.08,1.52-1.86.86-2.41-.03-1.04-1.63-.22-4.08-.22-6.04.09-1.18.12-1.88-.08-1.82-1.23,1.49-3.08,5.35-4.33,7.32-1,2.12-3.17,1.75-3.34-.59-.02-.58.05-1.12.12-1.75.31-2.69.76-7.01,1.04-9.04.03-1.35,1.63-2.26,2.7-1.39l.08.08Z"/>
    <path class="cls-1" d="M230.69,205.57c2.32,3.4,4.2,9.01,1.03,12.57-1.61,1.59-3.58-.11-4.55-1.56-1-1.34-1.51-3.24-2.17-3.66-.5-.29-.96.05-1.42.39-1.75,1.58-6.49,6.69-5.49.73.59-2.16,1.14-6.28,2.06-7.65.41-.64,1.32-.9,1.69-.06.61.93-.06,2.6.65,3.4.25.14.66.16.84.11,1.29-.37,2.77-.24,3.45,1.09.76,1.16,1.52,3.22,2.48,3.69,1.58.62,1.67-1.68,1.32-3.32-.3-1.84-1.46-3.9-.69-5.72.23-.27.35-.31.73-.07l.09.07Z"/>
    <path class="cls-1" d="M452.21,166.96c-1.47,3.17,13.5-1.2,7.4,2.75-2.38,1.56-4.92,1.77-7.57,1.1-1.91-.49-4.15-1.33-4.69-3.03-.44-1.3-.19-2.73.11-4.05,2.82-9.92,12.01-4.08,4.81,3.12l-.06.11Z"/>
    <path class="cls-1" d="M26.94,157.24c1.36,1.67-1.43,2.89-1.44,4.69-.2,6.14,6.84-1.17,9.47,1.09,1.38,1.29,1.34,6.25-.25,7.4-.63.5-1.41.3-1.82-.52-.71-1.08-.1-3.39-1.31-4.07-3.4.04-4.85,5.88-7.36,6.47-1.05.38-2.13-.24-1.95-1.54.21-2.06,2.65-3.68,2.18-5.85-.33-1.73-1.66-4.71-.47-6.52.55-.88,1.85-1.89,2.85-1.22l.1.08Z"/>
    <path class="cls-1" d="M651.77,111.23c.78.33,1.96.25,2.25,1.21.44,1.21-.57,3.56-.16,4.26.15.13.49-.12.94-.61,1.01-.93,1.96-2.79,3.47-2.87,1.5.22,1.64,4.68,2.06,6.64.27,1.61,1.55,6.4-1.53,5.29-1.69-1.04-1.05-4.72-1.75-5.8-.12-.2-.29-.32-.52-.26-1.51.59-3.58,5.86-5.67,4.18-1.18-1.34.76-6.94.11-9.46-.21-.16-.63.6-1.07,1.85-.81,2.23-1.28,5.07-2.13,7.29-.25.52-.47,1.12-1.02,1.25-1.12.2-.8-3.75-.34-5.19.73-2.24,1.19-7.58,3.21-8.28.69-.11,1.36.26,2.02.46l.12.04Z"/>
    <path class="cls-1" d="M558.11,110.78c3.55,2.35,1.49,6.46,1.11,10.16-.09.74-.18,1.86-.73,2.32-.67.58-1.48-1.03-1.39-2.17-.06-.94.53-3.25-1.07-1.74-12.33,11.42-7.21-9.55,1.9-8.64l.18.07ZM557.4,112.98c-2.52-.67-5.13,3.37-6.18,5.35-.32.71-.44,1.21.04,1.15,2.11-.49,7.59-4.66,6.24-6.44l-.1-.07Z"/>
    <path class="cls-1" d="M699.52,154.5c6.39-.67,3.88,12.22-2.7,12.16-7.67-.35-2.28-11.47,2.52-12.14l.17-.02ZM701.02,157.6c-3.14-.71-6.75,3.18-4.82,5.95.78,1.14,1.71.37,2.49-.62.82-1.04,1.63-2.6,2.12-3.78.3-.82.58-1.36.31-1.51l-.09-.04Z"/>
    <path class="cls-1" d="M650.64,214.01c.29.21.76.01,1.44-.43,1.33-.82,2.79-2.13,4.27-2.67,1.93-.39.94,3.58,1.14,5.35-.07,1.38,1.43,2.57.9,3.87-.5.68-1.21.64-1.93.43-1.57-.53-1.94-2.36-1.96-3.81-.02-2.13-1.06-.91-2.29,0-1.46,1.11-3.21,2.69-4.68,3.64-.47.26-.55-.2-.56-.58-.02-1.24.16-4.62.24-6.55-.06-1.17.88-2.64,2.08-1.59.72.54.79,1.58,1.28,2.26l.08.06Z"/>
    <path class="cls-1" d="M477.23,79.9c1.36,1.12-2.62,10.62.9,7.65,1.19-.93,2.49-4.42,4.31-2.81.92.9,1,3.22,1.91,3.88,2.23.98,3.89-3.27,5.4-4.19.91-.61,1.34.28,1.12.96-.38,1.38-1.63,2.4-2.65,3.37-1.62,1.43-3.43,3.08-4.86,2.44-1.32-.43-1.59-2.51-2.63-2.98-.91.11-1.86,1.93-2.77,2.52-.84.6-1.98,1.51-2.89.85-.42-.47-.38-1.28-.37-1.93.14-2.24.38-6.03.54-8.05,0-1.06.85-2.53,1.92-1.77l.07.07Z"/>
    <path class="cls-1" d="M774.27,111.54c-.34.84-1.5,1.39-1.93,2.62-.79,2.06,1.19,3.99,3.19,4.21,2.41.45,4.49-1.33,6.06-.98.34.2.27.83-.18,1.55-1.63,2.51-5.21,3.7-8.1,2.9-4.81-1.23-5.97-7.29-2.75-11.22.49-.6,1.23-1.2,1.93-1.35,1.28-.36,2.22,1.09,1.83,2.15l-.05.13Z"/>
    <path class="cls-1" d="M251.59,165.97c.97-1.02,2.35-1.8,3.76-1.89.91-.09,1.79.31,2.6.17,1.13-.22,2.24-1.04,2.99.1,2.64,3.66-2.76,9.78-6.91,10.68-5.48,1.01-5.35-6.1-2.57-8.92l.13-.14ZM258.52,167.08c-1.14.36-3.8-.35-4.76-.13-.52.17-1.24,1.97-1.7,2.66-.53.9-1.17,1.86-.02,2.46,3.21,2.14,6.85-1.56,7.36-5.22.19-1.42-.37-.33-.78.14l-.1.08Z"/>
    <path class="cls-1" d="M715.44,71.92c7.94,2.12,3.65,13.89-3.81,11.97-6.2-1.5-.75-11.82,3.63-11.99l.19.02ZM716.8,75.1c-3.59-.9-5.71,1.54-5.45,5.14.04.38.14.84.47,1.06,1.69.76,3.83-.21,4.67-1.29.86-1.04,1.43-3.35.45-4.8l-.14-.11Z"/>
    <path class="cls-1" d="M731.08,71.29c1.21,2.18-2.87,4.22-2.46,6.26.11,1.45,1.38,2.94,2.89,2.92,2.11-.05,4.04-2.92,5.45-3.62.42-.25,1.07-.33,1.04.33-.89,3.87-6.58,7.4-10.46,5.37-4.1-2.5-2.59-8.96,1.57-11.14.55-.31,1.46-.53,1.88-.2l.09.08Z"/>
    <path class="cls-1" d="M701.96,123.63c-1.22.58-2.07-.14-2.07-1.36-.17-2.47-.51-8.12-.64-10.43-.22-1.35,1.3-1.96,2.13-.9.76,1.19.6,3.81.86,5.31.12,1.12.25,1.73.47,1.62.95-1.22,1.62-4.55,2.54-6.15.89-1.91,2.47-2.9,2.5-.06,0,.89-.3,2.12-.64,3.01-.89,2.4-2.62,6.16-3.87,7.9-.31.42-.71.78-1.16,1l-.13.06Z"/>
    <path class="cls-1" d="M535.09,110.43c-.55.59-2.39-.02-3.07.61-.52.47-.35,1.18-.15,1.8,1.27,3.88,7.03,6.2,4.85,9.36-.97,1.28-3.58,3.8-5.01,2.25-1.09-1.26.21-2.29,1.23-2.99.65-.54.83-1.44.47-2.21-.79-1.76-3.1-2.51-4-4.38-.5-.94-.65-2.05-.48-3.09.33-2.19,2.66-5.33,5.06-4.07.79.59,1.57,1.75,1.17,2.63l-.07.08Z"/>
    <path class="cls-1" d="M510.77,85.2c1.03,1.37,2.85.88,4.61.14,1.6-.7,3.08-1.51,3.66-1.18.53.23.19,1.33-.93,2.46-7.93,6.92-15.26-2.06-7.9-9.72,1.12-1.24,3.55-1.32,2.95.92-.79,2.02-4.14,4.61-2.49,7.23l.1.15Z"/>
    <path class="cls-1" d="M426.23,162.89c.64.19,1.56-.68,2.29-.82,3.39-.97,3.1,3.27,3.18,5.58.05,1.34,1.11,2.35,1,3.67-.1.84-1.29,1.46-2.15.98-3.56-2.04,1.17-12.33-4.9-4.56-.78.79-1.51,1.83-2.6,2.03-1.58-.08-.99-5.95.05-7.45.28-.52,1.28-1.66,2.06-1.22.56.26.58,1.41,1,1.75l.07.04Z"/>
    <path class="cls-1" d="M375.5,202.68c.55.91-.77,1.22-1.47,1.53-2.15.56-2.82,2.55-1.29,4.14.79.99,2.48,1.04,3.38,1.64.57.4.7,1.09.97,1.71.48,1.18,1.43,1.9.65,2.9-.9,1.06-2.21,1.96-3.31,2.8-2.73,1.88-3.01-2.07-2.04-3.66.74-1.4.33-2.29-.8-3.29-3.6-2.75-3.46-7.8,1.65-8.43.74-.07,1.69.07,2.18.55l.08.09Z"/>
    <path class="cls-1" d="M629.25,260.13c-.41.23-.92.17-1.45.72-1.06.98-1.83,4.18.5,4.06,1.63-.07,2.14-1.9,2.56-3.27.49-1.56,1.01-2.99,2.37-3.79,1.15-.69,2.35,0,1.88,1.37-.43,1.27-1.62,2.14-2.3,3.28-1.11,1.72-1.67,4.52-3.59,5.36-1,.54-2.51.17-3.26-.54-1.76-1.52-1.88-4.24-1.03-6.26.69-1.59,2.03-3.68,3.91-3.42.95.22,1.27,1.93.49,2.44l-.08.05Z"/>
    <path class="cls-1" d="M440.36,162.09c-.44.87-1.55,1.36-1.99,2.26-.68,1.29-.92,3.61.23,4.35,1.91,1.04,4.53-.02,6.39-.47.45-.06.67.12.58.52-.5,1.74-3.07,2.79-4.91,3-10.35,1.35-4.87-12.62-.79-11,.44.24.73.73.53,1.22l-.05.12Z"/>
    <path class="cls-1" d="M48.22,257.46c-.1.25-.51.45-1.08.61-2.4.68-5.22,1.4-6.8,3.49-1.35,1.75-1.57,4.3-3.26,5.31-1.27.83-1.6.1-1.43-1.53.09-1.97.22-5.08.31-6.63.09-2.34,2.28-.2,3.5-.31,2.06-.24,4.75-2.22,7.15-1.99.94.09,1.71.57,1.62.97l-.02.08Z"/>
    <path class="cls-1" d="M408.56,263.72c-.19.3-.81.25-1.2.22-3.17-.22-7.32.4-10.1,1.73-.4.17-.82.43-1.2.22-.34-.18-.59-.86-.86-1.68-.33-1.14-.81-1.97.32-2.13,4.34-.12,11.71-3.64,13.09,1.55l-.04.09Z"/>
    <path class="cls-1" d="M362.47,205.3c.44.35,2.07-.85,2.93-.83,1.54.2-.17,1.72-.87,2.02-3.35,1.86-3.36,6.56-6.19,8.83-1.84,1.34-1.35-.47-.61-2.98.87-2.73,2.14-6.57,3.81-8.58.74-.61.49,1.26.85,1.47l.08.06Z"/>
    <path class="cls-1" d="M742.1,74.16c.13.05.2.13.25.25.48,1.52-1.04,7.6-1.88,10.19-.36.85-.45,2.58-1.62,2.55-2.19-.9.53-6.66.59-8.45.16-2.59-1.27-4.58,2.55-4.57l.1.03Z"/>
    <path class="cls-1" d="M720.73,200.97c-.65.03-2.45-.78-1.95-1.76,1.23-2.62,1.52-5.27,1.42-8.15.05-1.09,1.21-1.18,1.99-.98,3.2.67.57,4.63-.67,7.94-.52,1.12-.41,2.07-.72,2.91l-.07.04Z"/>
    <path class="cls-1" d="M712.82,193.19c-.21.39-.71,1.91-1.41,1.96-1.37-.04-8.26-.42-10.1-.51-.58,0-.59-.33-.62-.82.03-.48-.14-1.3.2-1.61,2.53,0,6.74.45,9.45.58,1.37.17,2.36-.02,2.49.32v.08Z"/>
    <path class="cls-1" d="M588.97,274.39c-.38-.61.36-3,.61-4.05.63-1.9.75-3.88,2.53-4.93,1.48-.78,2.25.97,1.89,2.32-.15.66-.4,1.21-.68,1.84-.77,1.48-2.55,5.68-4.3,4.88l-.06-.07Z"/>
    <path class="cls-1" d="M175.02,151.33c.52,1.81-.19,4.18-.68,6.06-.71,1.94-1.54,4.1-3.12,5.18-.07-.02-.09-.13-.09-.3.1-.82.27-1.92.36-2.85.36-2.49.68-7.82,3.45-8.15l.08.06Z"/>
  </g>
</svg>