<?xml version="1.0" encoding="UTF-8"?>
<svg id="Layer_2" data-name="Layer 2" xmlns="http://www.w3.org/2000/svg" viewBox="0 0 835.35 300.13">
  <defs>
    <style>
      .cls-1 {
        fill: #606060;
      }
    </style>
  </defs>
  <g id="Layer_1-2" data-name="Layer 1">
    <path class="cls-1" d="M433.08,182.54c1.22,1.65,6.33-.09,5.27,3.31.01.81-1.59,4.6-.06,4.26,2.11-.74,3.13-2.99,4.35-4.69.4-.48.96-.98,1.59-.95,1.84.25,1.09,3.69,1.61,4.56.33.59.92.48,1.58.27,3.08-1.27,6.07-3.32,7.31-6.45.69-1.34,1.38-3.77,2.72-4.39,1.69-.17.41,2.99.19,3.9-.11.68-.65,1.86.27,2.04,1,.15,3.21-2.1,4.8-2.45,2.15-.38.75,1.44-.27,2.11-2.76,1.9-5.1,5.2-6.59,8.46-.33.92-2.3,4.14-2.81,1.91-.17-1.75.75-5.36.59-6.59-.17-1.18-1.61.2-2.16.49-3.43,2.1-4.77,6.41-9.13,3.15-2.33-1.04-4.82,1.77-7.19,1.51-2.16-.6,2.34-7.51-.15-7.93-1.28-.18-2.92.56-3.81,1.54-1.88,1.88-.66,6.14-1.21,7.9-.74,1.1-1.79-.67-2-1.46-.52-1.64-.05-3.77-.09-5.41-.12-3.14-3.42-1.22-4.83-.18-2.62,1.85-4.6,3.6-2.2,6.15.37.58,1.15,1.42,1.04,1.96-.19.32-.69.18-1.01.07-1.33-.46-3.01-2.16-4.55-1.42-1.05.11-3.72,5.47-4.08,3-.12-2.1,4.02-6.29,2.31-7.82-1.32.52-2.47,2.89-3.87,3.92-2.67,2.6-8.18,5.91-10.73,3.11-1.98-2.01-3.61-3.38-1.6-5.71.66-1.19,2.67-3.35,2.2-4.59-.17-.27-.59-.31-.8-.33-1.94.08-4.32.27-5.61,1.83-1.85,2.28-2.67,8.18-2.37,11.95-.01.74.34,2.47-.76,2.22-4.29-2.66,2.18-13.21-1.68-14.38-2.1-.4-4.86.11-6.31-1.86-.07-.13-.1-.12-.15-.38-.01-.09,0-.17.03-.24.12-.3.61-.44,1.29-.42,2.19.05,4.73.95,6.87.1,1.19-.54,2.16-2.41,2.69-2.24.33.08.45.44.64.71.94,1.7,3.33.82,4.93,1.03,2.11.08,3.74,1.26,5.84,1.58,1.9.22,3.37,1.69,2.45,3.62-.66,1.4-2.28,2.04-3.97,2.73-1.09.49-2.36,1.27-1.78,2.45,2.59,3.09,10.5-3.19,10.95-6.14.75-1.72.49-4.57,1.85-5.82.74-.21,1.2,1.08,1.52,1.76,1.52,4.15,2.26,3.02,5.61.61,1.11-.7,2.33-1.22,3.6-1.54,1.59-.39,2.97-.47,3.99-1.72.57-.65.98-1.49,1.39-2.25,1.58-2.95,2.3-1,2.06,1.57-.02.49-.06,1.02.17,1.46l.07.11Z"/>
    <path class="cls-1" d="M621.34,201.94c.27.21.67.12,1.17-.24,1.37-.99,2.27-2.81,3.57-3.91,1.54-1.19,3.55-.95,3.33.87-.24,1.6-.49,4.24-1.55,5.37-1.31.87-1.9-2.15-2.43-2.32-.53-.13-.88.46-1.27.78-.9.93-2.14,2-3.49,1.57-1.3-.33-1.72-1.97-2.64-1.99-.81.17-1.38,1.14-2,1.72-2.08,2.37-4.71,3-6.18.46-.45-.57-.84-1.38-1.63-1.1-1.31.47-2.95,3.63-4.81,3.9-.46.02-.78-.32-.97-.96-.52-1.33.27-3.2-.44-4.44-.62-.62-2.39,1.44-3.96,1.98-.54.21-1.15.27-1.7.14-.74-.17-1.34-.63-1.89-.87-1.13-.53-2.23.48-3.31.84-1.65.76-4.03.52-6.14.33-1.91-.16-3.32-.52-4.03-1.77-1.69-3.45.58-7.81,3.03-10.27.65-.59,1.47-1.21,2.34-1.27.95-.05,1.66.82,1.4,1.36-.25.43-.47.52-.92.72-2.74.51-4.41,3.23-4.76,6.44-.39,3.44,3.32,4.01,5.04,1.45,1.83-2.43,2.73-7.71,6.7-6.99,2.2.6,2.73,3.09,2.98,5.47.11,1.6-.09,2.94.57,2.86,1.54-.44,2.71-2.14,3.79-3.21.7-.65,1.21-1.21,1.87-.68.79.87.89,2.07,1.52,3.04.89,1.41,2.1.19,3.65-.67,2.11-1.07,3.27-3.17,4.89-4.83,2.1-2.06,3.96,1,3,2.92-.9,1.45-3.39,1.52-3.83,3.38-.57,4.69,5.14-1.66,5.55-3.16,2.62-5.2,2.28-13.11,5.65-18.22.84-1.43,2.44-2.08,2.99-.02,1.45,5.57-3.21,11.21-4.97,15.37-.56,1.67-1.07,4.29-.22,5.88l.07.06Z"/>
    <path class="cls-1" d="M442.24,80.83c1.12.36,1.85-1.66,2.78-1.84,2.08.36.83,4.66.72,6.15-.18,2.76,1.43,2.56,3.23,1.03,1.47-1.01,3.47-1.81,4.51-3.18,1.38-1.46,2.72-3.1,4.49-4.38,2.97-1.49,5.96,1.33,6.8,4.47.4,1.67-.05,3.75.65,4.06,1.63.23,2.76-2.33,3.57-3.46.7-1.15,1.22-1.72,2.06-.53.64.84,1.1,2.21,1.93,2.92.68.55,1.24-.82,2.09-2.21.84-1.38,1.8-2.87,2.9-3.38,1.76-.74,1.03,1.44.5,2.28-1.59,2.77-2.55,6.32-5.1,7.66-1.78,1.11-2.7-.92-3.26-2.39-.66-1.63-1.21-.04-1.78.64-1.15,1.5-4.01,3.79-4.96,1.94-.46-.78-.46-2.59-1.39-2.98-.95-.29-2.37,2.46-4.21,3.87-.7.57-1.55,1.03-2.44,1.14-2.8.55-1.79-4.22-2.57-5.09-.77-.49-1.6.35-2.61.89-1.88,1.37-4.27,2.82-5.04,4.67-.23,1.17.25,2.32.05,3.54-.55,3.46.34,12.91-5.25,6.93-2.83-2.72-2.39-7.2.14-10.31,2.29-2.79,4.5-4.89,3.79-8.59-.27-1.55-1.43-.44-2.25.23-1.37,1.15-3.29,2.55-4.86,3.39-.77.38-1.35.7-2.07.5-2.24-.49-.91-12,4.02-11.3,1.64.27,2.29,2.49,3.44,3.26l.11.05ZM435.38,86.48c1.35-.67,6.37-3.47,6.55-3.62.02-.05,0-.1-.07-.2-.54-.67-1.27-1.92-1.89-2.46-.48-.14-1.15-.32-1.64-.21-.88.46-2.93,4.76-2.97,6.47l.02.02ZM461.61,81.8c-.22-.11-1.64-.52-2.17-.47-1.27.37-4.33,6.05-4.38,8.13,0,.19,0,.36.19.24.68-.61,3.27-3.04,4.43-4.17.43-.7,1.9-3.24,1.97-3.66l-.04-.05ZM443.78,93.72c-.45-.22-.54-.08-.9.02-.38.27-.48.95-.81,1.37-1.75,2.52-2.83,4.24-.56,6.49.39.4,1.36,1.09,1.74.38,0-2.69.69-5.51.6-8.16l-.08-.1Z"/>
    <path class="cls-1" d="M640.17,194.6c.64.2,1.67-.66,2.33-.14,1.12.78.22,4.65,1.85,4.65.83-.27,1.21-1.5,1.51-2.31,1.04-3.1,3.65-6.01,6.81-5.91,3.47.19,3.34,2.69,2.49,5.36-.35,1.56-.46,3.93,1.2,4.73,1.81.66,4.43-2.62,6.63-1.58,1,.36,1.89,1.14,2.99.63,3.46-1.58,6.62-6.87,8.47-.19.32.92,1.05,1.8.78,2.79-.42.84-1.72.54-2.26-.07-.89-.89-1.05-2.84-1.72-3.15-.43-.18-.76,0-1.29.27-2.01,1.06-5.63,4.56-7.27,3.36-1.49-1.31-2.23-1.28-3.98-.4-1.71.77-3.23.42-4.62-.93-.68-.64-1.46-1.15-2.4-1-1.24.29-2.54.72-3.86.53-2.56-.31-3.59-.72-5.15,1.63-2.55,3.41-4.86,13.76-9.66,14.18-1.07-.26-1.09-1.69-.95-2.63.82-5.18,5.19-8.68,7.39-13.06,1.24-2.72-.53-.79-2.06.82-1.23,1.42-4.05,2.52-4.88.26-.77-2.41,1.17-5.03.8-7.47-.16-1.42-1.04-2.87-2.37-3.43-1.1-.56-3.54.5-3.05-1.52.92-2.23,3.52-.14,4.53,1.08.8.91,1.52,2.53,2.52,2.58.51.07.99-.13,1.45-.34,1.76-1,2.22-.41,3.28.99.09.06.28.18.37.24l.1.03ZM653.1,193c-2.75.17-4.64,3.11-5.09,5.59-.01.17.03.31.13.39,2.1.7,5.83-4.77,5.06-5.95l-.1-.02ZM635.47,200.98c.07.11.34-.28.82-.71,1.04-1.03,2.78-2.66,2.93-2.87,0-.13-.09-.26-.16-.37-.26-.39-.79-1.22-1.09-1.67-.99-1.25-1.56,1.25-1.7,1.95-.16,1.31-1.14,2.24-.84,3.59l.03.08Z"/>
    <path class="cls-1" d="M194.02,179.94c.23.15.6.02,1.08-.25,6.39-4.22,6.51,2.91,7.05,8.16.09.59.36,1.43.95,1.47.38,0,.39-.05.61-.14,3.04-1.86,2.08-5.96,3.58-9.12.66-1.62,2.6-4.27,4.41-2.81.99.99.85,3.62.19,5.08-.75,1.85-2.94,3.81-1.11,5.36,1.86,1.61,4.82.95,6.86,1.89.79.76-1.86,1.08-2.45,1.12-1.18.11-2.36.15-3.51-.15-1.82-.41-3.27-1.8-4.66-.98-2.05,1.03-3.88,6.36-6.41,3.41-2.36-3.05.46-11.55-2.03-12.38-2.11-.45-3.43,2.04-4.21,3.75-.48,1.08-.72,2.28-.91,3.23-.21,1.01-.58,1.6-1.13,1.41-3-1.76-.81-7.6-1.19-10.22-.1-.19-.31-.27-.55-.26-1.45.06-2.15,2.54-2.18,4.12-.29,1.74-.5,3.28.13,4.71.45,1.06.49,2.38-1.04,1.6-2.38-1.61-1.89-6.07-1.41-9.25.23-1.22.07-2.23-1.22-2.74-1.34-.64-4.43-1.69-4.83-3.11.02-.07.09-.11.2-.12.88-.18,4.23,1.68,5.69,1.79.8-.09.77-.99.95-1.71.19-1.12.42-2.66.6-3.78.33-3.66,2.35-.49,4.11.14,1.24.44.48-1.55.83-2.9.1-.52.28-1.17.69-1.46.63-.33.98.6,1.16,1.12.95,3.36,0,7.74-.51,11.37-.06.53-.13,1.27.2,1.61l.07.05Z"/>
    <path class="cls-1" d="M567.44,267.88c-1.09-.09-1.56-2.26-2.51-2.76-3.52-1.47-4.38,4.51-4.31,7.12-.02.87.2,1.86,1.23,1.84,2.14.01,5.71-1.05,7.36-.85.34.11.42.36.43.73,0,.78-.24,1.72-.38,2.58-.08.88-.68,2.42.02,2.79,2.63-.66,5.94-3.64,8.53-4.15,1.95-.35,3.97.3,5.95.54,2.2.39,3.92.53,4.87,1.41.49.38.89,1,1.42,1.27.31.14.61.06.99-.25.87-.73,1.81-1.89,3-2.2,1.51-.61,2.55,1.54,3.49,1.56,2.33-.58,4.7-4.83,7.39-3.03,2.07,1.63,1.19,9.56-1.09,10.51-.57-.08-.19-2.69-.1-3.75.36-3.59.37-7.57-3.49-3.74-6.53,5.98-4.58-1.47-6.75.76-1.67,1.58-2.92,4.01-4.25,5.72-.62.65-1.61.66-1.97-.22-.55-1.36.15-3.1.26-4.57.35-1.82-1.87-2.02-3.2-.84-.57.5-.87,1.21-1.25,1.88-.83,1.58-2.4,2.76-4.26,2.88-1.19.14-2.79-.51-2.9-1.93-.29-.84.64-3.43-.68-3.19-1.8.84-3.44,2.35-4.83,3.8-.93,1.31-2.82,3.53-3.33,1.7-.35-2.09.44-4.73.57-6.84.08-1.14.33-1.79-.42-2.02-1.59,0-3.76.54-5.14.99-1.14.46-1.33,1.37-1.27,2.46.4,6.45,2.86,12.67-.63,18.71-.8,1.33-2.06,3.37-3.67,3.35-.48-.03-.65-.33-.45-.75.65-1.07,1.95-1.99,2.49-3.25,2.74-5.15,1.28-11.06.42-16.6-.15-.78-.29-1.73-1-2.07-1.38-.88-7.48,1.99-8.14.21.68-1.11,3.29-1.27,4.78-1.74,1.87-.55,3.75-.46,4.09-2.47.65-3.4.59-8.42,3.6-10.04,2.1-.96,4.67.37,5.3,2.57.3.88.22,1.71-.11,1.87l-.07.03ZM582.48,278.23c-1.41.12-5.54,1.3-5.14,3.13.3.78,1.2.59,1.92.35,1.28-.49,3.57-1.94,3.29-3.43l-.07-.05Z"/>
    <path class="cls-1" d="M359.89,187.76c3.49,2.47,2.74,4.35,4.83-.59,2.35-4.3,7.43-.97,7.39,4.95.05.97-.04,2.17.46,2.91.4.61,1.16.82,1.86.99,1.41.3,3.32.8,3.75,1.38.45.73-.6.83-1.5.82-2.21-.09-4.36-1.2-6.6-1.09-1.76.04-3.44,1.25-5.43,1.15-2.84-.02-4.75-2.65-5.32-5.17-.18-.55-.3-.88-.42-.79-.27.09-.48,2.89-1.6,4.03-.85,1.05-2.31.76-2.4-.79-.17-1.53.53-3.78-.2-4.97-.75-1.23-2.78-1.63-3.99-.96-.57.39-.6,1.13-.55,1.78.16,1.41.37,3.17,1.06,4.38.22.55.83,1.24.68,1.79-.64.86-2.83.73-3.26-.07-.68-1.68-.55-5.51-.92-7.4-.13-1.64-1.97-1.09-3.12-1.05-.97.11-2.34-.37-2.52-1.27-.06-2.21,4.56-.42,5.61-2.31.65-.97,1.04-2.86,2.28-3.18.42-.06.77.36.96,1.05.35,1.45-.16,3.43,1.58,3.97,1.53.47,3.45.74,3.41-1.4.26-2.87,1.38-8.42,2.9-9.58.42-.32.88-.15,1.09.3.57,1.21.03,3.09-.09,4.8-.09,2.45-.94,4.65-.02,6.22l.09.09ZM369.11,187.32c-.79.05-2.39.45-3.22.66-.08.07.38,1.05.81,2.23l1.1,2.85c.26.39,1.06.02,1.38-.24,1.25-1.36.21-3.8-.02-5.44l-.04-.06Z"/>
    <path class="cls-1" d="M307.01,127.56c.19,1.09-1.35,2.65-1.36,4.1.03,1.65,1.74-.66,2.4-1.01.69-.51,1.5-.77,2.31-.57,3.32.73,2,8.4,3.5,10.83,1.99,3.38,11.18-4.55,11.34-6.93-.45-1.25-4.27,1.94-5.44,1.12-1.07-.52-1.44-3.6.31-5.52.89-1,2.27-1.62,3.61-1.6,3.08.03,4.08,3.17,5.12,5.89.18.46.39.94.7,1.29.74.98,2.42.71,2.71,1.21.15.22-.04.63-.41,1.11-.86,1.1-2.03,1.98-2.15,3.42-.3,3.03-.11,10.86-1.79,13.44-.7,1.1-1.96.47-2.65-.38-3.19-3.64-2.5-11.05.67-14.87.38-.49.8-1,.95-1.58.37-1.33-.63-2.87-1.45-1.48-.61,1.07-1.19,2.38-1.96,3.38-1.18,1.6-2.81,2.07-4.13,3.02-1.26.91-2.67,1.76-4.27,1.86-3.18.37-3.94-2.33-4.13-5.71-.27-1.5.41-4.76-1.03-5.5-1.45-.12-2.71,2.79-3.44,4.12-1.53,3.38-3.55,5.14-4.18,1-.33-2.93.1-6.01,1.56-8.73.5-.95,2.11-2.87,3.18-1.99l.03.08ZM326.81,150.96c.44-2.25,2.27-8.68.73-10.38-.27-.25-.57-.15-.85.11-2.48,2.6-2.59,7.58.06,10.26h.06Z"/>
    <path class="cls-1" d="M725.86,28.16c1.64-.86,4.72-5.59,6.24-1.96.81,1.74.08,3.83-.27,5.93-.21.89-.04,1.92.89,2.16,1.12.35.51.68-.1,1.33-.7.76-1.84,1.92-2.86,1.1-1.75-1.66-.5-4.42-.46-6.52.03-.84-.11-1.44-.48-1.43-.96-.04-3.12,4.06-4.64,5.3-1.21,1.05-2.38-.34-3.6-.65-1.11-.46-2.36-.03-3.09.89-1.1,1.27-1.23,3.58-2.48,5.21-2.23,2.56-7.22,5.62-9.7,2.78-.76-.84-1.28-1.96-1.44-3.09-.52-3.27,3.02-5,5.9-5.95,1.74-.6,4.43-.71,5.01-2.78.17-.51-.15-.89-.6-.87-.6,0-1.47.38-2.11.45-4.77,0,4.13-9.47,5.01-10.38,2.62-2.3,3.08,1.54,3.01,4.09.02,1.74.34,3.63-.77,2.8-.7-.59-1.06-1.96-1.5-2.66-.24-.33-.6-.29-.98.03-1.69,1.48-.22,4.05.51,5.72.58,1.22,2.08,1.56,3.33,1.27,1.33-.27,2.1-1.31,2.51-2.57.52-1.51,1.05-2.95,1.87-4.65,1.13-1.93,2.65-7.01,4.35-7.2.73-.04,1.22.56,1.15,1.35-.56,2.98-3.49,7.3-4.71,10.29h.02ZM714.69,34.71c-1.96-.6-12.81,5.1-6.54,6.51,2.36.18,7.43-4.45,6.59-6.46l-.05-.05Z"/>
    <path class="cls-1" d="M162.89,164.54c.31-.08.49.1.55.51.19,3.83,2.13,20.4,1.92,23.91-.58.82-2.38-2.44-2.66-3.62-.64-1.15-.9-5.08-1.93-5.05-1.06.66-1.63,2.95-2.53,4-2.3,3.57-6.88,4.57-10.89,3.39-2.58-.78-4.19-2.71-6.35-4.49-1.77-1.43-5.42-2.89-4.02-5.72.78-1.26,2.29-1.82,3.1-3.09.98-1.2,1.93-3.9,2.81-4.23.48-.16.66.35.72.8.26,2.45-2.04,5.09-2.99,7-.74,1.26,2.59,3.63,3.02,1.51,2.35-10.43,8.82-4.57,6.68,3.18-.15.67-.41,1.44-.13,2.08.42,1.01,3.23,1.84,4.43,1.04.84-.68.85-2.26,1.03-3.33.32-2.55,1.31-4.9,2.5-7.02.91-1.63,2.74-2.11,2.88-3.99.18-2.15-.48-5.74,1.78-6.85l.08-.02ZM146.4,183.1c3.49.82,5.03-6.15,1.81-6.54-2.73-.21-2.91,4.9-1.93,6.47l.12.07Z"/>
    <path class="cls-1" d="M422.94,122.14c.55,1.14-.88,3.04-.28,4.32,1.39,3.02,7.17-2.22,8.78.33.44,1.57-1.15,3.13-1.58,4.61-.71,1.8.25,2.36,1.68,1.57,2.44-1.28,10.71-7.51,12.15-3.46.11.85-.27,1.8-.55,2.63-.86,2.15-.23,4.39-1.44,6.35-.91,1.51-2.34,1.65-2.53-.67-.07-.81.08-1.63.3-2.44.34-1.5,1.3-3.2.6-3.95-.45-.3-1.21.11-1.72.39-3.99,2.36-7.2,5.44-9.38,9.73-.67,1.36-1.67,2.15-2.43.36-1.41-3.21-.63-7.09.17-10.6.42-1.59-.37-2.02-1.99-1.76-1.24.24-2.71.15-3.46,1.21-.86,1.72-1.43,4.42-2.05,6.34-.18.67-.19,1.37.07,1.99.34.77.65,1.85-.6,1.87-4.13-.59-.9-6.96-1.12-9.49-.3-.84-1.46-.5-2.2-.49-2.3.23-5.47.52-7.26-.15-1.11-.35-2.2-1.8-.97-2.6.66-.39,1.58-.35,2.36-.34,2.41.1,5.03.04,7.59-.08,2.12,0,3-1.65,3.49-3.64.21-.9,1.53-2.54,2.31-2.09l.06.05Z"/>
    <path class="cls-1" d="M600.21,138.24c.33.2,1.54-.6,2.29-.31.87.38.61,1.9.8,2.67.13,1.05,1.27-.12,1.69-.67,1.63-2.02,3.96-5.28,4.67-4.73.84.65.05,5.59,1.48,5.29.94-.91,1.77-3.82,2.94-4.86,3.64-4.08,6.4-1.11,6.46,3.43-.16,3.11-.57,7.25-2.08,9.95-.8.83-1.09-.2-.83-1.63.92-2.26.98-14.21-3.53-9.19-2.13,3.34-3.18,8.51-4.65,12.33-.84,1.18-2.27.13-2.16-1.09.08-2.11.55-5.73.69-7.83,0-.5.09-1.45-.62-1.17-1.83,1.09-2.97,3.71-4.89,4.49-1.58.77-1.95-.97-2.09-2.11-.11-.48-.61-.17-.9.06-1.68,1.28-5.83,4.73-7.55,5.99-1.14.88-1.93-.37-2.28-1.42-2.16-5.45,1.76-11.75,6.59-14.72,2.6-1.72,4.12.98,3.86,3.72,0,.54-.23,1.36.07,1.77l.06.04ZM594.49,137.48c-.54.46-1.23,1.25-1.84,2.17-1.18,1.78-2.06,4.06-1.15,5.67.24.42.67.64,1.14.4,1.58-.93,3.5-1.91,4.81-3.13,1.22-1.18,1.76-2.66.72-4.84-.64-1.74-2.53-1.2-3.56-.37l-.12.1Z"/>
    <path class="cls-1" d="M535.08,197.1c1.12-.08,2.22-2.18,3.22-2.84,3.82-2.63.58,5.61,3.48,6.06.6.06,1.18-.53,1.63-1.44.99-1.82,1.53-5.06,3.82-5.81,1.09-.23,2.62.95,3.71,1.82.79.62,1.25,1.51,1.37,2.51.5,5.42,3.1.83,4.91-.65.5-.39.82-.37.8.09-.58,2.65-4.44,6.86-6.19,5.27-.96-.8-1.91-1.84-3.3-1.61-2.55.45-5.66,1.62-7.75,1.01-.98-.23-1.65-.93-2.06-1.82-.27-.48-.44-1.08-.94-1.33-1.07-.26-2.3,2.13-3.51,2.88-2.75,1.67-1.58-3.79-1.57-5.13.19-1.48-.53-1.68-1.77-1.5-1.14.16-2.46.21-3.25,1.09-1.21.6-3.63,8.98-.57,6.31,1.05-1,1.77-2.65,2.55-3.85.89-1.23.5.56.26,1.09-.84,2.44-3.39,5.7-4.89,5.58-2.06-.65-.66-5.3-.29-6.89.44-1.52,1.05-2.7.28-3.64-1.11-1.34-3.26-1.94-4.33-3.26-.56-.77.46-.58.92-.31,1.06.53,2.15,1.64,3.36,1.92,2.99.75,2.95-4.99,5.72-5.86.3.04.26.57-.1,1.37-.46,1.4-2.68,3.64-1.92,5.06.38.38,1.14.2,1.64-.04,3.8-1.81,4.4-8.78,7.34-12.07,1.66-1.25,1.31,1.25.83,2.19-1.5,3.82-3.57,8.1-3.71,12.19,0,.51-.06,1.26.24,1.56l.06.04Z"/>
    <path class="cls-1" d="M612.17,82.86c-.65.85-1.56,1.67-2.52,2.17-.99.58-1.74,1.26-.66,2.52,1.18,1.42,3.45,2.01,4.63,3.13.4.33.85.73,1.31.91.7.33,1.82.08,2.45.27.82.43-.24.98-.88,1.07-2.09.36-4.91-.57-6.9-1.72-3.92-2.97-3.65-2.95-7.8-.69-2.31.81-3.25-2.12-3.63-3.86-.39-2.01-.13-4.09-1.35-3.39-1.85,1.45-3.53,3.72-5.19,5.36-1.12,1.23-1.95,1.89-2.66.25-.52-1.08-.57-2.71-1.18-3.74-1.52-1.85-2.8,4.78-3.59,5.6-1.97,2.5-2.2-4.29-1.83-5.3.28-3.21,2.86-5.66,5.77-4.31,1.3.63,1.43,3.38,3.03,3.44,2.48-.32,5.64-8.31,8.1-3.58.69,2.03-.52,4.93,1.2,6.69,1.01.91,2.54.25,3.47-.46.97-.56,1.26-1.52,1.41-2.82-.13-3.28,1.02-9.86,5.37-9.76,2.85.68,2.94,6.05,1.55,8.11l-.1.13ZM611.43,77.96c-1.75-.43-3.33.44-3.9,2.28-.3.9-1.63,3.84-.33,4.23,1.07-.41,2.92-2.28,3.91-3.07.39-.32.37-.46.37-1.27-.06-.57.13-1.63.01-2.09l-.07-.08Z"/>
    <path class="cls-1" d="M217.06,213.08c1.53,3.41-4.14,8.27-4.61,11.45-.58,2.38-.6,5.27-1.17,7.65-.21,1.09-.86,1.97-1.17.82-.25-.83.02-2.75,0-3.71,0-1.89-2.52.73-3.26,1.09-2.54,1.79-3.74,3.01-6.07,3.27-1.57.17-3.12-.16-4.69.09-3.15.43-7.4,2.23-9.75-.07-.71-.63-1.2-1.65-2.23-1.69-1.14-.07-3.28,1.34-4.65,1.5-1.38.27-2.41-.95-2.3-2.38.24-1.78,1.62-3.29,2.82-4.58,2.62-2.92,7.16-3.99,9.57-.82.59,1.33-1.21,4.8-1.59,6.48-.22.76-.14,1.06.45,1.1,1.03.02,3-.21,4.28-.3,1.06-.11,2.1-.1,3.06-.35,1.1-.27.97-1.32,1.59-2.88,1.16-2.63,3.33-5.4,6.07-6.37,3.37-1.13,1.76,5.05,4.52,3.64,4.08-3.31,3.92-9.6,7.54-13.41.4-.41,1.02-.89,1.5-.6l.08.06ZM187.61,225.99c-3.27-1.53-8.26,2.25-8.44,5.64.61.59,2.25-.22,3.04-.42,2.29-.9,4.83-2.66,5.44-5.12l-.05-.11ZM198.9,231.94c.15.32.82.1,1.6-.26,1.9-.9,5.59-3.93,3.81-5.98-.76-.76-1.61.34-2.28.74-1.68,1.29-3.27,3.15-3.16,5.39l.03.1Z"/>
    <path class="cls-1" d="M393.43,80.15c.74-.25,1.69-1.86,2.51-2.4,1.49-1.39,3.93-2.09,5.65-.68,2.05,1.62,1.88,4.42,3.71,5.96.88.74,1.15-.54,1.25-1.3.36-3.21,2.79-8.55,4.83-9.28,1.16-.48,1.71.82,2.17,1.71.42.9,1.29,2.63,1.28,3.45-.1.81-1.35-.27-1.83-.34-.83-.37-1.67-.06-2.25.62-2.18,2.42-3.05,7.31.94,3.48.64-.59,2-2.51,2.29-1.05.21,1-1.08,2.78-1.99,3.83-.98,1.08-1.93,2.1-1.37,2.67,2.16,1.31,5.34.33,7.58,1.45.89.39,1.24.99.79,1.46-2.39,1.65-5.95.37-8.56-.28-2.13-.65-4.52-.69-5.84-2.5-1.37-1.86-1.75-4.45-2.95-6.37-2.63-3.98-6.01.64-7.59,3.24-1.04,1.5-3.13,4.27-4.03,1.95-.79-3.81,1.58-7.06,1.87-11.06.23-1.92-.39-3.89-.62-5.75-.05-.57.02-.97.21-1.06.61-.09,1.06,1.01,1.34,1.53,1.35,2.9,1.23,6.12.63,9.27-.07.45-.24,1.15-.07,1.43l.04.02Z"/>
    <path class="cls-1" d="M652.4,272.91c2.58,2.08,2.43,17.58.53,21.63-5.5,9.51-9.59-9.18-3.44-13.73.7-.56,1.42-1.01,1.77-1.85.47-1.03.4-2.85-.1-3.43-.89-.76-2.12.72-2.97,1.11-1.78,1.28-4.11.99-5.97,2.03-2.07,1.18-3.77,3.47-5.58,2.71-1.32-.43-1.85-2.25-3.19-2.51-1.19-.03-2.79,1.47-4.1,1.05-1.01-.31-1.41-1.5-1.8-2.35-1.04-2.44-3.98,7.07-5.76,4.5-.81-1.66.14-5.35-.4-7.56-.17-.83-.19-2.91.99-1.94.58.55.88,1.37,1.06,2.24.22.84.21,1.45.79,1.66.66.22,2.19-1.23,3.23-1.17,1.7-.04,1.49,2.34,2.75,2.82,1.38.13,2.71-1.49,4.18-1.17,1.22.17,1.6,2.14,2.33,2.71.99.65,2.25-.39,3.22-.94,1.64-1.09,3.01-2.11,3.27-3.36.44-1.58-.69-3.87.39-5.2.22-.11.51.11.81.62.85,1.24,1.08,3.61,2.31,4.56,1.16.32,3.64-3.71,5.61-2.5l.1.06ZM651.84,280.73c-1.55.12-2.47,1.95-2.85,3.29-.7,2.56-1.54,9.83.37,10.54.23.08.46.03.67-.12.78-.59,1.89-3.04,2.12-3.8.1-.34.09-.6.09-.98-.03-2.37-.07-7.25-.09-8.59-.02-.13-.05-.3-.2-.33h-.09Z"/>
    <path class="cls-1" d="M482.78,127.73c1.8.81,5.71.46,7.86.61,1.32.35,2.41,1.21,3.8.44,3.17-1.3,7.78-4.37,9.94-.49.63,1.36,1.46,2.58.96,4.29-.42,1.3-1.06,2.58-2.09,3.5-2.14,1.65-8.73,6.63-10.79,3.34-.43-1.06-.11-3.18,1.06-3.96,1.01-.73,2.42-1.04,2.47-.36,0,1.81-.2,2.25,1.97,1.04,1.94-1.22,4.93-2.34,5.77-4.63.24-1.38-2.54-1.86-4.51-1.43-1.28.19-2.34,1.02-3.32,1.77-.57.39-1.08.51-1.61.08-.53-.41-1.05-1.19-1.92-1.39-.55-.14-1.19-.14-1.79-.14-3.17.1-6.23-.05-7.84,2.1-.95,1.61-.69,4.44.63,5.74,1.23.91,3.7.09,5.08.22,3.01.29-2.82,3.51-3.76,3.4-2.74.42-4.08-3.6-4.84-6.85-.31-2.28-1.24-2.49-3.31-2.63-1.13-.06-1.84-1.26-.74-2.03.86-.68,1.87-.82,2.64-1.57.76-.77.93-2.41,1.57-2.85,1.09-.61,1.75,1.33,2.63,1.71l.14.08Z"/>
    <path class="cls-1" d="M274.11,136.31c1.36,1.56,4.39-3.84,5.3-6.98.29-1.05.86-3.71,1.85-1.47,1.1,2.66.12,5.81.94,8.45,1.48,2.16,4.99-4.36,5.36-5.67.45-1.27.76-2.8,1.44-3.27,1.37-.73,1.83,1.52,1.88,2.53.08,1.88.02,3.69,1.84,1.47,2-2.41,4.3-4.28,7.12-5.23,2.18-.71,2.52.2,1.93,2.19-.95,3.5.96,8.9-1.98,11.86-1.46.5,0-6.52-.11-7.61,1.3-8.1-6.13,1.21-7.09,3.64-.75,1.36-.74,4.01-2.15,4.75-2.41.07.08-8.41-1.6-9.1-1.08.35-1.3,2.13-1.87,3.04-1.56,3.05-5.77,9.26-6.68,2.15-.72-6.54-1.76,2.97-6.02,2.17-3.7.09-2.41-9.97-1.73-13.13.38-1.76,1.2-2.05,1.59-.14.77,3.08-1.04,7.05-.09,10.24l.06.1Z"/>
    <path class="cls-1" d="M205.51,31.48c-.26-.33-.47-.71-.61-1.11-.68-1.76.12-4.67-2.08-2.97-1.76,1.57-5.76,4.01-5.66-.3.15-2.73,1.05-6.14,1.86-8.53.52-1.97,2.28-3.55,4.25-4.07.75-.26,1.39-.25,1.84-.78,1.19-1.28-.54-10.49,3.21-11.88,4.35.48-.92,22-.46,26.67-.08,1.18.36,2.63-.07,3.65-.33.63-1.43.3-2.16-.55l-.12-.14ZM199.97,26.89c1.62,1.33,6.9-7.96,4.31-10.8-.77-.91-1.17.36-1.45,1.03-1.31,3.07-2.8,6.29-2.88,9.66l.03.11Z"/>
    <path class="cls-1" d="M539.86,130.82c.44.43.45,1.3.42,1.93-.17,2.84-1.46,5.74-.92,8.62.24,1.49,1.77,1.95,3,1.24,3.4-1.7,4.96-5.36,6.42-9.15,1.75-4.49,2.08-.58,1.7,2.78-.88,6.76,1.18,4.11,3.99.42.92-1.4,1.76-3.02,2.83-2.34.82.68.8,2.12,1.13,3.02.16.47.41.69.74.61,1.84-.92,3.14-4.4,5.42-4.88,2.38-.46,2.74,10.15,2.81,12.22.12,1.43-.87,3.78-1.5.91-.27-1.72-.29-4.25-.43-6.14-.1-3.62-1.05-5.74-3.07-3-.49.66-.95,1.5-1.47,2.14-1.02,1.24-2.15,1.47-2.68,2.76-.17.37-.32.77-.48,1.14-.37,1.06-1.3,1.6-1.69.03-.41-.65.73-5.55-.8-4.21-1.31,1.74-2.37,4.55-4.25,5.34-1.3.74-1.99-.77-2.6-1.65-1.37-1.82-3.47,2.1-4.88,2.72-5.09,3.62-7.54-3.38-5.91-10.74.16-1.23,1.29-4.45,2.16-3.83l.08.05Z"/>
    <path class="cls-1" d="M604.63,20.83c.66,1.05-2.11,8.26.32,7.71,2.24-.55,2.96-2.89,4.41-4.49,1.1-1.19,2.25-2.01,3.73-2.42,4.95-1.18,7.57,6.42,2.3,8.8-.68.32-1.51.6-2.23.66-2.04.39-2.32-2.6-4.21-2.52-1.84.23-3.51,2.32-5.24,2.89-1.02.35-2.02-.3-2.3-1.3-.55-1.59.77-3.64,1.04-5.4.12-.62-.02-1.1-.63-.53-1.48,1.44-5.76,6.04-7.5,7.79-.64.67-1.53.88-2.2.1-2.08-1.91,1.26-9.05-3.73-7.35-1.5.62-2.47,1.63-3.58,3.18-1.26,1.61-2.58,3.68-3.44,3.36-.78-1.49-.45-3.69-.74-5.37-.57-4.55,1.58.64,2.9.67.57.08,1.01-.51,1.37-.97,2.53-3.74,6.6-4.97,8.03.13.46,1.13.18,4.56,1.93,3.02,1.69-1.22,7.74-9.18,9.73-8.03l.04.07ZM616.03,24.19c-.84.19-2.37.5-3.13.77-.18.53-.67,2.99-.75,3.81.76-.05,3.32-.62,3.75-.7.11-.05.09-.16.1-.46,0-.91.08-2.5.06-3.39l-.03-.02Z"/>
    <path class="cls-1" d="M528.32,275.49c.62.99-1.39,6.17-.32,5.96,1.05-.21,3.81-4.07,5.45-2.55.53.43,1.04,1.27,1.81,1.09,1.08-.32,1.93-1.82,3.08-2.13,2.41-.38,2.64,4.58,1.91,6.21-.15.49-.82,1.56-.95.43.16-2.82-.82-4.79-3.33-1.81-2.23,2.61-2.78,1.76-4.02-.73-1.84-2.19-3.57,7.36-5.85,3.98-.63-1.21-.06-3.04-.17-4.31-.1-1.38-1.3-.53-1.94-.06-2.37,1.79-5.01,3.7-7.68,4.67-1.05.37-2.15.6-3.17.57-3.13-.03-3.49-2.72-4.38-5.74-.2-.86-.59-2.19.11-2.83.35-.22.83-.24,1.2-.47,1.61-1.03,2.57-4.25,4.85-3.39,2.06.89,2.22,5.34.48,6.88-.93,1.06-3.64,1.34-4.11,2.09-.12.19-.05.36.14.5,3.94,1.65,9.15-1.48,12.01-3.89,1.32-1.2,2.63-3.29,3.98-4.27.4-.3.7-.41.87-.27l.05.05Z"/>
    <path class="cls-1" d="M441.91,19.27c.27.25.36.61.37.99-.02,1.62-.37,5.27-.42,6.94.01.43-.07,1.08.45,1.05.91-.27,2.37-1.36,3.31-1.96,2.24-1.24,4.87-6.92,5.83-2.67.22.72.26,1.53.81,1.79,2.08.27,4.63-3.36,6.66-1.73,1.79,1.79-.14,4.8-.48,6.44-.35.69,1.02,3.31-.41,2.7-2.16-1.34-.6-4.45-1.18-6.47-.36-1.11-2.08-.16-3.37.86-1.22.85-2.22,2.58-3.69,2.91-1.55.03-.71-2.2-1.45-2.97-.41-.32-1.37.42-2.19,1.25-1.31,1.15-3.69,3.78-5.59,2.3-.77-.74-.75-2.84-2.27-2.31-1.56.54-3.53,2.89-5.15,2.14-2.09-2.58,3.1-8.62,4.9-10.57,1.05-1.19,2.96-1.44,3.78-.77l.09.08Z"/>
    <path class="cls-1" d="M355.4,122.7c.33.19.49.84.61,1.29.54,2.32,1.3,7.03,1.85,8.8.2.42.54.12.79-.1.81-.74,2.66-2.95,3.59-3.79,1.72-1.57,2.94,2.9,4.52,2.97.44,0,.81-.55,1.34-1.18,1.81-1.94,4.91-5.08,7.07-1.85,1.52,1.9,1.97,4.39,1.8,6.92-.01.57-.02,1.04.21,1.51.48.94,1.5.8,1.1,1.52-.46.69-1.75,2.16-2.72,1.61-1.67-1.59-.52-5.59-1.55-8.26-.87-2.68-2.65-1.62-3.88.22-1.95,2.47-6.69,11.84-6.56,3.06.04-.98.19-3.34-.57-3.66-.37-.12-.8.34-1.08.65-1.19,1.54-2.28,3.03-3.05,5.1-.77,1.43-1.45,6.01-3.67,5.16-.7-.49-.74-1.69-.69-2.53.14-3.16,1.12-6.27,1.15-9.36.34-1.97-2.49-7.21-.33-8.09l.07.03Z"/>
    <path class="cls-1" d="M781.7,142.43c-.79,1.17-1.71,3.5.7,2.52,2.79-1.13,8.06-2.73,10.86-4.44,1.97-1.65,2.42-6.37,6.24-7.26.96-.27,2.34-.12,2.88.73.97,2.26-.11,5.05-1.57,6.97-1.12,1.39-2.5,3.03-3.89,2.91-1.69-.15-3.1-1.58-4.88-1.12-3.69.78-8.32,4.53-12.52,4.52-1.92.08-2.57-1.27-1.67-2.9,1.52-3.1,4.29-5.37,6.24-8.08.39-.61.66-1.31.55-2.04-.14-1.22-1.52-2.52-2.79-2.57-.74-.03-1.31.23-1.73-.02-.74-.34-1.02-2.23.22-2.19,3.07.18,7.32,3.66,7.06,6-.71,2.81-4.18,4.5-5.63,6.82l-.09.14Z"/>
    <path class="cls-1" d="M506.43,181.08c-.76,1.36-1.89,4.21-.77,5.06.43.65,4.7.85,2.25,1.55-1.38.3-3.29.58-3.15,2.37-.09,2.93.38,8.22-1.21,9.74-.33.36-.88.42-1.07-.19-.35-2.05.35-4.22.31-6.32.06-1.37.09-2.79-.69-3.22-.7-.5-2.27-.17-2.69-.94.12-.9,1.63-1.08,2.28-1.58.58-.37.86-1.02.93-1.73.01-.82.2-1.97-.7-1.88-1.79.76-5.05,2.36-6.96,3.6-1.01.95-.04,2.41.02,3.62.7,5.39-7.49,8.43-8.98,3.67-.39-1.23-.36-2.64-.03-3.87.39-1.5,1.27-2.62,1.39-4.17.08-.61.17-1.17.41-1.51.37-.46.65-.43,1.16-.41.92.14,1.95.64,2.89.87,2.97.83,6.33-1.02,8.96-2.45,3.35-1.35,2.91-3.83,4.2-6.52.57-1.14,1.17-2.16,2.36-1.85.87.3,1.47,1.29,1.5,2.21.07,1.62-1.57,2.63-2.31,3.8l-.1.15ZM490.53,187.05c-.27-.05-.34.13-.53.41-.59.95-1.09,2.05-1.54,3.26-.94,2.54-1.34,5.41,1.44,4.84,5.32-1.07,5.19-6.87.75-8.47l-.12-.03Z"/>
    <path class="cls-1" d="M729.07,132.36c1.25.96.98,5.77-.33,5.79-.72-.19-1.18-1.08-1.87-1.38-.6-.33-1.35-.14-1.94.23-3.38,1.98-8.1,11.27-2.5,12.21,3.87.23,7.96-2.76,9.76-6.19.55-1.07.91-2.38,1.53-3.39,1.18-1.84,1.72-.73,1.41.76-1.1,5.63-1.55,11.11-1.07,16.83.02.52.12,1.41-.22,1.65-.13.06-.3-.03-.51-.26-1.99-2.54-1.77-6.16-1.99-9.32-.08-1.45-.82-1.69-1.94-.86-2.19,1.62-4.52,3.12-7.21,3.85-11.02,2.1-.57-22.53,6.76-20l.11.08Z"/>
    <path class="cls-1" d="M428.94,26.4c-.28.55-1.07.82-1.21,1.82-.19,2.22-.55,4.25-1.35,6.72-1.44,3.96-3.61,9.64-8.49,9.77-1.7-.05-3.79-1.41-4.35-3.13-1.03-3.59,2.13-6.94,5.27-8.22,2.6-1.23,6.03-1.37,6.9-4.5.28-.96.39-2.85-1.14-1.83-.76.47-2.01,1.34-2.96,1.97-1.69,1.01-2.72,2.19-3.57,1.81-2.07-4.45,4.26-12.38,8.69-11.14,1.91.46,2.25,2.38,2.19,4.15.05,1.08.33,2.03.06,2.5l-.04.09ZM427.38,22.71c0-.14-.27-.43-.6-.83-.52-.57-.79-1.15-1.4-.67-2.1,1.83-4.84,3.43-5.77,6.24-.07.24-.18.69,0,.84.39.29,1.26-.25,2.18-.96,1.72-1.35,3.82-3.58,5.59-4.55v-.07ZM424.75,32.14c-.1-.15-.8.5-1.89,1.23-2.49,1.92-4.83,3.08-6.15,4.65-1.4,1.7-1.8,4.72.8,5.15,3.05.07,7.51-7.79,7.27-10.98l-.02-.04Z"/>
    <path class="cls-1" d="M460.63,137.89c-1.59,1.83-5.17,3.57-7.8,3.65-1.15.02-2.56-.73-3.65-.36-.75.35-.73,1.66-.68,3.21.08,2.73.67,5.38.53,7.86-.06.46-.27,1.34-.81,1.18-.93-.27-1.48-2.39-1.43-3.54.22-5.92-1.21-17.53,1.6-21.95,1.86-1.7,5.63.13,8.03.95,4.01,1.24,6.21,5.21,4.3,8.86l-.09.14ZM451.89,131.39c-.47.09-.85.62-1.32,1.42-1.16,2.3-2.59,5.6.67,5.48,7.22.53,11.52-4.55,4.46-6.39-1.24-.31-2.5-.55-3.68-.53l-.13.02Z"/>
    <path class="cls-1" d="M20.05,260.28c4.98,2.26,1.35,6.19-1.51,9.32-1.04,1.17-1.54,2.59-2.33,3.9-1.21,2.02-3.62,2.87-4.53,5.31-1.69,4.95,5.05,1.19,6.88.29,2.14-1.22,3.68-2.96,3.67-5.42,0-1.34.36-1.91.99-.74.96,1.68.56,4.55-.6,6.15-.99,1.28-2.46,1.63-3.88,2.37-2.8,1.51-6.34,3.17-9.03,2.09-1.18-.43-1.28-1.19-.38-1.94.32-.3.47-.69.5-1.15.23-2.87.82-12.34,1.07-14.73.12-.6.47-.55.91.07.48.65.88,1.8,1.03,2.7.18.99.37,1.79.83,1.89.58.1,1.17-.48,1.63-.83,1.47-1.29,3.05-2.46,4.01-4.07,3.52-6.46-6.5-3.34-9.49-3.37-1.28.16-2.14-.41-1.96-1,.25-.73,1.43-.87,2.18-.87,3.35.04,7.05-.85,9.85-.01l.16.06Z"/>
    <path class="cls-1" d="M670.64,140.39c.3.2.76-.23,1.06-.47,1.88-1.69,5.36-5.14,7.17-6.07.84-.47,1.53.18,1.78,1.01.84,2.42.01,4.78-.44,7.33-.12.7-.26,1.72.43,2.11.64.38,2.23.64,1.4,1.67-.99,1.23-4.08,2.36-4.95,1.47-.37-.43-.33-1.24-.08-2.45.39-2.26.91-5.08,1.28-7.38,0-.32.18-.72-.11-.83-.76.36-3.69,2.84-4.81,3.84-1.71,1.73-2.77,6.91-4.77,7.35-1.25.06-1.4-1.64-1.39-2.62.13-4.02.58-10.8,1.17-15.32.39-2.64,1.26-8.31,2.22-10.31.14-.25.29-.42.46-.48.31-.12.65.1.93.57,1.11,2.01-.03,4.44-.3,6.6-.55,4.01-1.07,8.05-1.28,12.09-.02.57-.08,1.49.18,1.85l.05.05Z"/>
    <path class="cls-1" d="M301.96,193.26c1.2.2,1.8-1.93,1.98-3.06.18-.87.12-1.7.84-2.23,1.06-.49,1.84,1.49,2.88.81,1.03-.76,1.84-2.81,2.77-3.76,2.55-2.24,2.7,6.06,2.85,8.33,0,3.03-2.24.06-2.3-1.45-.25-.57-.19-4.03-.84-3.5-.62.57-1.84,4.11-2.79,5.37-.6.72-1.52.14-2.25.01-1.93-.23-1.3,2.83-2.45,3.64-.85.12-2.42-2.56-3.2-2.79-.61-.29-1.04,0-1.7.48-1.33,1.08-3.2,2.85-4.73,1.36-3.6-2.94,2.83-15.39,8.61-11.47,1.52,1.33.44,4.36.08,6.81-.06.47-.1,1.11.18,1.4l.07.05ZM299.98,186.49c-2.86-.32-6.51,6.72-6.48,8.35.03.26.24.31.48.27,2.44-.38,6.93-7.98,6.07-8.59l-.07-.03Z"/>
    <path class="cls-1" d="M196.94,269.34c-.54-1.05-.41-2.86-.66-4.1-.19-1.85-.88-3.29-1.49-3.18-.39.03-.65.85-1.05,2.04-.45,1.32-.94,2.76-1.4,4.1-.74,2.48-1.82,4.22-.08,5.99,3.01,1.76,7.17.82,6.31,5.42-.16.94-.48,2.08-1.29,2.62-.68.48-1.58.14-1.76-.7-.3-1.17,1.16-3.2.67-4.23-.65-1.16-2.43-.97-3.51-.63-3.58,1.49-1.8,6.76-3.28,9.9-.92,2.46-.1,7.77-1.99,8.95-.32.19-.99.18-1.01-.18-.08-.53.9-2.07.67-3.08-.3-4.14.29-8.42,1.05-12.49.07-.53.29-1.34-.15-1.64-1.08-.78-6.96,3.04-7.56.71-.04-1.43,2.37-1.89,3.59-2.12,1.56-.29,3.24-.6,4.44-1.69,1.32-1.17.81-2.95,1.16-4.5.63-2.89,1.98-7.05,3.02-9.53.48-1.2,1.78-2.04,3.05-1.55,2.49.87,2.54,7.14,1.29,9.9h-.03Z"/>
    <path class="cls-1" d="M277.16,24.1c-.42-.66-1.51-1.15-2.23-1.67-.91-.75-2.07-.69-2.55.46-.75,1.56-2.11,4.9-2.95,6.82-.36.69-.67,1.98-1.59,1.86-1.43-.84-.78-2.91-.94-4.66-.14-1.52.32-5.25-.3-6.13-.12-.05-.27.06-.44.29-1.39,2.06-1.43,4.7-2.04,7.05-.21.6-.41,1.61-1.15,1.63-.78-.02-1.66-2.36-2.35-2.6-.57-.19-.9.32-1.46,1.04-.62.87-1.41,1.86-2.34,2.46-1.82,1.38-3.97-.12-3.29-2.36.66-1.82,1.82-3.45,2.2-5.38,1.23-4.34,5.08-5.44,7.42-1.39.95,1.79,1.23.55,1.87-.41.74-1.38,2.71-3,3.63-.91.31.49.36.96.9,1.28.68.3,2-1.14,3.43-1.51.98-.28,2.11-.27,2.97.3.94.49,1.34,2.18,2.47,2.13,1.23-.43,1.97-1.94,3.06-2.67,1.31-1.11,3.29-.97,4.09.62.32.48.93,2.33.05,2.18-.49-.17-1.01-.5-1.6-.49-1.43.08-2.43,1.13-3.31,2.23-1.09,1.51-1.94,3.44-1.31,5.18.5,1.38,2.98.98,3.47,2.31-.03.64-.71.97-1.32,1.08-1.44.26-2.95-.48-3.56-1.84-1.25-2.2-.04-4.77-.76-6.79l-.06-.09ZM258.72,25.73c1.18-1.12,4.81-3.06,1.99-4.81-2.73-.78-4.09,5.4-5.4,7.18-.23.46.17.7.7.73,1.46-.01,1.8-2.17,2.6-2.99l.1-.12Z"/>
    <path class="cls-1" d="M269.71,113.42c.7.94-.09,1.9-.59,2.72-2.86,4.82-3.62,13.92-2.94,19.17.17,1.21.95,2.27,1.46,3.32.51,1.03-.17,1.39-1,.82-2.39-1.56-2.55-6.75-3.6-10.13-1.96-6.61-6.16-.04-7.12,3.14-.44,1.6-.77,3.57.39,3.06,1.64-.94,3.37-2.62,4.89-3.66.65-.45,1.08-.53,1.23-.22.43,2.23-2.9,4.61-4.45,6.03-.81.56-1.73.68-2.57.2-3.89-2.23-.82-10.39,2.87-13.29,1.27-.98,2.66-1.52,3.87-.53.72.63,1.32,1.75,1.64,1.63.22-.12.25-.31.34-.67.05-2.27,2.04-13.66,5.5-11.66l.09.09Z"/>
    <path class="cls-1" d="M492.61,15.69c.52.22.7.85.96,1.89.34,1.34.83,3.23,1.18,4.63.21.59.33,1.96.83,1.98,1.53-1.98,2.98-5.64,4.83-7.09,1.21-1.04,2.42-.61,2.66.98.24,1.52-.2,3.31-.14,4.86-.02,2.35,1.5,4.74,1.71,7.05-.07,2.26-2.32,1.34-2.85-.3-1.26-2.47-.9-7.45-1.61-9.69-.28-.2-.7.68-.86,1.01-1.19,2.43-2.46,6.92-4.25,8.5-.66.64-1.5.95-1.86-.25-.61-2-1.17-4.58-1.71-6.65-.37-1.2-.5-3.05-1.28-2.28-1.38,1.23-4,11.41-5.66,10.22-.14-4.55,3.08-8.67,4.84-12.76.46-1.14,1.93-2.5,3.1-2.15l.11.04Z"/>
    <path class="cls-1" d="M653.95,124.38c1.2.56,3.01,3.39,1.89,4.36-.53.29-1.56-.83-2.46-1.23-1.29-.53-2.3.37-3.15,1.42-6.64,8.6-5.24,23.19,7.91,22.18,2.5-.25,3.92,1.32.87,1.71-1.15.1-2.23.74-3.1.83-1.25.15-2.41-.46-3.7-.47-2.57.14-4.64-1.79-6.28-3.56-1.12-1.68-1.74-4.16-2.19-6.09-.06-3.64.18-7.66.98-11.19,1.07-3.05,4.89-9.19,9.08-8.03l.14.07Z"/>
    <path class="cls-1" d="M680.71,279.63c-.07.65.46,1.33,1,1.75,2.97,2.37,7.83-.47,9.75-4.05.74-1.32,1.07-2.93,1.6-4.3.44-1.31,1.17-1.43,1.99-.56,1.29,1.25,2.91,3.55,4.09,4.41.69.36,1.16-.26,1.7-.76.71-.71,1.62-1.86,2.43-2.38.9-.64,1.6-.23,1.58.68.09,1.43-2.26,3-2.42,4.79-.41.91,1.71,4.11-.31,3.36-.79-.27-1.7-1.32-2.48-.49-.65.63-1.69,2.16-2.7,3.46-.92,1.17-1.96,2.88-2.18,1.48.33-5.43,6.34-6.15,1.05-11.66-3.33-3.8-2.07,6.17-9.94,8.1-1.14.27-1.81.3-2.85.12-2.28-.4-3.25-2.44-5.18-2.61-1.25-.15-2.56.33-3.82.2-.84-.05-2.06-.43-.87-.99.87-.37,2.17-.45,3.08-.83,1.38-.5,1.21-1.56,1.25-3.24-.03-2.35,1.78-5.53,4.43-3.9,1.34.79,2.18,2.6,1.25,4.26-.5,1.13-2.1,1.9-2.42,3.02l-.02.13Z"/>
    <path class="cls-1" d="M187.45,123.51c-.77.53-2.36.35-3.2.97-2.05,1.36-1.51,4.32-.07,6.42,1.73,2.23,6.24,5.76,1.15,7.18-2.3.7-5.11,2.2-5.81.89-.8-1.82,1.94-2.21,3.02-3.06,1.66-1.2.33-3.12-.84-5.39-.71-1.31-1.46-2.1-2.2-.27-.73,2.21-5.08,5.32-6.97,4.31-1.92-1.62-1.49-4.73-1.8-7.02-.11-1.23-.2-2.29.34-2.94.34-.45.92-.71,1.5-.85,2.76-.73,5.05.21,7.09,1.88.83.56,1.24-.22,1.55-.91.73-1.72,2.34-3.62,4.18-3.32.84.09,2.68,1.08,2.14,2.04l-.08.07ZM177.96,130.01c1.39-1.76.52-4.25-1.88-4.33-3.82-.43-3,4.43-2.44,6.67.67.5,3.48-1.4,4.23-2.22l.09-.12Z"/>
    <path class="cls-1" d="M49.25,35.4c-3.09-1.57-.38-6.13-1.08-9.16-.23-1.25-1.25-2.14-2.07-3-.46-.49-.68-.89-.45-1.12.58-.42,1.5-.27,2.12-.64.59-.29.77-1.03.81-1.68.27-4.04-.56-8.63,2.37-11.2,1.14-.99,2.85-1.01,4.17-.28,5.2,2.97,1.53,8.72-1.17,13.34-.3.54-.64,1.23-.58,1.78.07.81.87,1.28,1.51,1.7,2.27,1.35,3.91,3.72,6.15,5.22,1.35.99,3.02,1.84,3.91,3.29,1.1,2.08-.72,1.67-1.77.64-3.5-2.96-6.71-6.37-10.97-8.4-.71-.28-1.82-.99-2.25-.17-.43,2.09,0,6.9-.21,8.9-.05.33-.11.68-.42.75h-.08ZM55.02,10.41c-.6-.54-1.89-.64-2.82-.32-.38.12-.79.28-.83.7-.2,1.7-1.13,10.1-1.32,11.79-.07.54.5.06.73-.11,2.96-2.25,6.66-9.63,4.35-11.96l-.11-.1Z"/>
    <path class="cls-1" d="M94.72,113.67c-.03.56-.47,1.09-.71,1.61-.72,1.34-.13,3.25-.44,4.75-.19,1.01-1.97,5.15.66,3.57,1.27-.93,2.44-3.26,3.54-4.24.39-.39,1.36-.53,1.42.06.03.44-.06.56-.18.93-.57,1.13-.94,2.47-1.72,3.58-.57.89-1.66,1.42-2.09,2.35-.41.97,2,1.79,4.1,2.51.9.39,4.48,1.06,3.57,2.09-1.93.7-4.24-.13-6.2-.49-2.66-1-3.33.51-3.17,2.68-.05,1.42,2.22,4.85.11,5.38-3.63-.98-4.41-10.87-4.04-13.83.21-1.14.94-1.89.99-3.05-.12-2.18-.06-4.54.89-6.68.3-.71.7-1.44,1.36-1.83.79-.47,1.94-.1,1.94.52v.11Z"/>
    <path class="cls-1" d="M403.57,9.57c.24.19.32.63.25,1.22-.33,2.2-1.62,5.02-2.21,7.29-.83,3.29-1.91,8.25-1.83,12-.03.99.42,2.06.78,2.8.12.39.24.54-.02.91-1.06.89-2.01-.44-2.04-1.52-.26-1.93-.59-5.43-.78-6.51-.05-.28-.16-.68-.47-.36-1.52,1.86-5.32,7.26-7.05,9.48-1.3,1.78-3.37.24-3.19-1.7.04-1.75,1.08-4.06,1.67-5.62.37-.97.43-1.52-.07-1.57-2.68.5-5.75,1.98-7.42,4.23-.86.74-1.7,6.43-3.02,4.04-.75-2.6.93-6.4-.58-8.7-1.52-1.21-3.38,6.36-4.82,7.28-.25.17-.5.09-.77-.22-.62-.61-.95-2.19-1.95-2.25-.39.03-.78.35-1.14.61-1.73,1.42-5.25,3.41-6.23,2.37-.63-.68-.35-1.87-.13-2.8,2.69-8.28,9.24-11.28,10.07-2.38.08.44.23.75.57.41.66-.61,2.43-3.6,3.49-4.98.56-.77,1.4-1.15,2.12-.22.98.9,1.01,3.37,1.94,3.53,1.42.08,2.83-1.07,4.2-1.41,1.77-.64,3.6-.12,5-.77,1.59-.72,2.95-3.11,4.78-3.2,1.24-.14,3.11,1.29,3.58-.56.92-2.72,1.67-11.68,5.19-11.46l.08.05ZM395.16,22.8c-1.43-1.18-7.33,7.04-6.52,9.86,2.17-1.09,8.69-7.91,6.6-9.8l-.08-.06ZM370.73,24.18c-2.49-1.36-7.58,6.03-7.14,7.79.47.13,1-.4,1.54-.62,2.64-1.41,6.58-3.51,5.68-7.06l-.08-.11Z"/>
    <path class="cls-1" d="M526.08,129.7c3.08-3.4,7.5-6.45,11.14-8.91,1.66-1.24,4.31-1.48,6.21-1.47.33.01.52.06.53.15-1.15,1.16-3.77,1.89-5.13,3.12-2.94,2.85-7.46,5.79-9.75,8.93-1.13,1.56-1.2,2.94-1.53,4.85-.36,3.31-1.47,7.56-1.09,10.67.09.28.23.53.42.73.71.75,2.13.93,1.85,1.51-.36.63-1.22.85-1.96.61-3.23-1.6-2.01-6.23-1.63-9.12.33-1.98.69-3.78.28-5.51-.46-1.87-1.3-3.64-1.71-5.52-.46-2.48-2.11-7.55-1.03-10.33.34-.52.6.16.71.52.48,1.8,1.56,7.05,2.07,9.02.1.32.23.77.56.76l.07-.02Z"/>
    <path class="cls-1" d="M178.62,72.8c.62,1.15.71,2.91.43,4.22-.33,1.41-1.81,2.25-3.42,2.7-1.29.33-2.32.46-2.73,1.58-.45,1.29-.96,3.84,1.31,3.29,1.66-.35,4.09-.9,5.43-1.98.58-.62.72-1.49,1.03-2.27,1.11-3.14,1.86-4.58,3.72-1.49.2.25.39.33.61.17.59-.37,1.69-2.9,2.47-3.98.34-.49,1-.91,1.51-.43.54.51.55,1.39.33,2.11-1.23,3.89-4.32,12.7-7.49,7.02-1-1.12-2.05.14-3.16.85-.63.45-1.25.86-1.87,1.16-10.93,5.42-4.99-19.62,1.74-13.08l.09.14ZM174.55,78.61c2.49-.66,3.62-3.59,2.46-5.92-.49.24-2.31,2.15-2.88,2.62-.4.4-.47.32-.35.79.2.56.35,1.97.68,2.5h.1Z"/>
    <path class="cls-1" d="M384.63,128.73c.14.43.11.47.05.82-.25.83-.75,1.89-.39,2.95.36,1.28,1.36,1.59,2.52.55,1.69-1.34,4.63-5.82,5.82-1.97.93,4.18-2.36,27.79-7.59,27.25-.76-.29-1.85-1.76-1.73-2.82.31-.38.76-.12,1.18-.12,2.25.67,3.6-6.93,4.41-9.61.81-3.39,1.42-6.61,1.82-10.21.06-.71.08-1.51-.17-2.14-.7-1.33-1.9,2.1-2.64,2.63-1.2,1.39-3.25,2.72-5.02,1.86-.62-.35-.73-1.03-.71-1.76.11-1.62.51-4.92.71-6.73.04-1.07.91-1.99,1.68-.83l.05.1Z"/>
    <path class="cls-1" d="M269.11,77.26c.8.42,1.83-1.12,3.21-1.87.85-.46,1.88-.83,2.83-.66,1.38.37,2.59,1.1,4.09.7,1.09-.17,2.27-.24,3.31.17,3.24,1.18,3.55,5.98.47,7.08-1.31.54-3.15-.43-4.54-.65-1.4.07-.67,1.74.31,2.32,1.3.82,3.04.96,4.62,1.22,1.15.17,2.47.44.95.86-4.28,1.17-9.09-.11-9.33-4.93-.08-.98.15-2.1.37-3.01.18-.76.19-1.23-.16-1.3-.53-.15-1.87.77-2.69,1.65-1.4,1.4-2.17,3.31-2.57,5.22-.2,1.42-2.16,2.61-2.7.88-.39-2.18-.84-6.54-1.16-8.88-.18-1.16.33-1.74,1.28-.76.52.5,1.05,1.55,1.6,1.89l.1.06ZM282.8,77.28c-.7-.07-1.97,0-2.69.28-1.92.76-2.64,2.75-.02,3.08.73.05,1.64-.03,2.2-.44.28-.64.38-1.72.56-2.41.05-.27.12-.42.03-.48l-.09-.03Z"/>
    <path class="cls-1" d="M28.03,19.34c.43,1.23.48,1.82.67,3.09.57,4.9,3.7,11.71.93,15.86-.46.45-.36-.34-.32-.53,1.02-3.14-.18-7-.88-10.55-.44-1.9-.96-4.26-1.7-5.91-.34-.7-.69-.87-1.57-.72-1.92.42-4.43,1.13-6.41,1.65-1.77.47-2.09.96-2.77,2.68-1.06,2.68-1.87,5.68-2.97,8.32-.74,1.99-2.66,3.55-2.22,1.66.66-2.1,2.79-7.9,3.67-10.47.59-1.22-.22-1.91-.18-3.03.12-1.03,1.87-2.4,2.35-3.7,1.2-2.47,1.59-5.91,2.04-8.71.13-.64.3-1.34.7-1.8.26-.3.63-.2.77.2.56,2.78-2.03,8.69-2.25,11.29-.13.78.05,1.28.81,1.37,1.41.12,3.49-.06,5.06-.3.73-.12,1.48-.52,1.61-1.21.16-.62.01-1.41-.12-2.09-.96-4.48-2.4-8.61-2.89-13.28-.34-1.35-.13-5.25,1.02-1.71,1.26,5.9,2.04,12.2,4.61,17.72l.06.16Z"/>
    <path class="cls-1" d="M34.86,174.18c1.68.41,3.18,7.81,4.73,6.04,1.08-1.16,2.4-2.52,4.06-2.85,1.69-.45,3.29.28,4.45-.41,1.07-.62,1.91-1.9,3.28-1.79,2.96.55,5.71,3.63,4.29,6.61-.36,1.01-.85,2.4-.11,3.29.89.93,1.83.33,1.98-1.07.31-3.5,1.32-8.2,5.12-9.46,1.76-.54,4.18.26,4.94,1.82,1.16,2.48-.19,5.49.82,8.03.46,1.34,1.98,2.1,2.01,2.88.02.7-.86,1.02-1.48,1.05-1.83.03-2.91-2.41-3.14-4.66-.2-1.44.05-2.75-1.73-1-1.42,1.29-3.02,2.76-4.45,4.06-1.2,1.1-1.47,1.22-2.76.73-2.31-.88-6.52-2.44-8.23-3.13-.66-.28-.95-.74-.99-1.48-.19-1.09.45-3.23-.65-3.93-.93-.27-2.38.47-3.36.88-1.34.65-2.72,1.45-3.44,2.78-.77,1.4-.16,3.41-1.2,4.78-.5.7-1.04.03-1.22-.62-.89-2.5-3.04-8.6-3.85-10.95-.3-.7-.09-1.77.82-1.61l.1.03ZM65.27,178.94c-.06-.2-.39-2.18-.67-2.38-1.17.01-2.81,1.03-3.72,1.74-.93.77-1.49,2.17-1.45,3.73,0,.81.3.35,1.05-.06,1.23-.79,3.74-2.21,4.78-2.96v-.06ZM54.79,181.07c.47-1.82-1.45-3.36-3.11-3.66-.51-.11-.7.19-1.13.54-.45.39-.74.59-.73,1.18-.05,3.08,2.7,3.19,4.87,2.06l.1-.12Z"/>
    <path class="cls-1" d="M226.01,15.96c-1.51.88-5.55.74-4.36,3.62,1.12,3.47,8.31,5.69,5.21,9.54-1.37,1.23-3.57,1.13-5.28.69-1.49-.35-2.58-1.38-3.53-1.46-1-.09-1.82.56-2.72.95-1.5.73-3.43.89-4.61-.42-3-3.21-2.63-11.98,2.55-11.83,2.73-.06,4.83,2.87,2.58,4.96-.87.89-2.41.32-2.83-.73-.4-.97.76-1.66,1.48-2.02.16-.09.22-.15.13-.16-.45,0-1.54.2-2.09.35-1.08.19-1.44,1-1.31,2.01.1,1.42.23,3.78.39,5.12.26,2.68,3.08,1.2,5.08.32,1.67-.98,2.67.32,4.24.73,1.22.32,4.14.03,3.47-1.67-1.61-1.96-3.54-3.59-4.59-6.1-.74-1.48-.74-3.41.58-4.58,1.47-1.62,6.4-1.09,5.67.62l-.07.07Z"/>
    <path class="cls-1" d="M407.92,282.34c-.25,2.36,3.95,2.73,5.75,3.37.65.17,1.76.89.72,1.31-2.96.8-5.79-1.13-8.25-2.51-1.34-.63-2.71.21-3.91.84-2.79,1.45-4.84-.75-5.2-4.25-.07-.59-.09-1.36-.17-1.87-.06-.4-.17-.58-.4-.49-1.78,1.41-5.1,5.43-6.46,6.69-.66.73-.87.08-1.03-.61-.48-1.99-1.75-7.04-1.93-8.03-.03-.28.05-.23.22,0,.74,1.05,1.67,2.7,2.43,3.78,1.09,1.61,1.75.84,2.86-.54,1.33-1.31,3.37-6.26,5.33-3.41,1.73,2.99-.76,8.15,3.88,6.95,1.65-.33,2.57-1.44,2.57-3.1.13-2.8,1.27-7.55,3.04-8.27.37-.16.76-.15,1.13.02,1.93.86,2.7,5.85.91,8.18-.44.62-1.15,1.16-1.45,1.82l-.05.12ZM406.49,281.3c2.23-1.02,2.95-4.35,2.32-6.58-2.34.76-3.3,4.32-2.42,6.54l.1.04Z"/>
    <path class="cls-1" d="M84.22,11.45c.39.62.64.94.71,1.88,0,.99.57,1.83.76,2.77.19.96-.02,1.99.14,3.12.22,1.11.83,2.26.94,3.46.33,2.65.02,5.42,1.59,7.72.2.36.56.88-.1.5-3.48-2.54-3.98-.78-5.66,2.28-1.23,1.85-4.28,3.77-6.34,2.35-1.36-.82-1.69-2.44-1.35-3.9.72-3.52.61-7,2.59-10.24.56-.95,1.71-1.47,2.62-1.79.86-.26,1.93-.2,2.35-1.06.18-.33.14-.89.06-1.32-.49-2.72-1.33-5.59-.84-8.35.13-.73.79-1.76,1.53-1.08.85.66.55,2.76.96,3.57l.04.09ZM82.01,20.95c-5.26-.46-4.69,8.15-4.4,12.41.05.27.15.47.33.54.18.08.44.04.74-.08,5-2.15,6.97-8.46,3.48-12.79l-.15-.08Z"/>
    <path class="cls-1" d="M94.04,178.32c-1.46.37-5.16,4.71-7.07,4.02-2.18-1.01-.51-5.35.28-6.61.92-1.21.95,2.39,1.21,2.82.54,2.07,2.51-.45,3.68-1.35,1.28-1.1,1.69-2.86,3.12-3.59.35-.18.98-.06,1,.49.06,3.28.11,22.26.13,25.83.06.75-.49,1.22-1.27,1.24-2.21.23-5.88-2.74-7.18-4.93-1.48-2.41-1.31-4.71.84-1.78,1.25,1.84,3.18,3.11,4.95,3.9.36.15.56.15.64-.02.18-3.3-.09-17.42-.1-19.71-.03-.18-.08-.28-.19-.3h-.05Z"/>
    <path class="cls-1" d="M95.43,72.15c.88,2.35-.88,4.69-.6,7.05-.06,1.62,1.2,3.82.18,5.2-1.59,1.18-2.78-6.78-2.24-7.67.04-.56,1.34-3.22,0-2.48-1.83,1.25-5.87,6-7.01,8.75-.7,1.25-2.87.94-3.16-.81-.17-1.01-.14-2.3-.23-3.25-.12-2.22-1.28.08-2.21.25-.97.34-1.54-.05-1.36.7.11.51.29,1.09.31,1.63.24,1.53-1.78,2.73-2.92,1.65-.69-.55-.21-3.26-.15-4.96.18-1.27-.18-4.16,1.58-3.12.55.29,1.11.74,1.76.8.77.06,1.9-.6,2.96-.19.95.37,1.52,1.31,2.06,2.1.69,1.07,1.51,1.11,2.34.35,2.23-1.79,6.66-8.98,8.63-6.14l.07.14Z"/>
    <path class="cls-1" d="M326.18,195.33c-.53-.32-1.58-2.42-1.82-3.75-.31-1.6-.72-2.61-2.33-.88-.87.89-1.52,2.03-2.4,2.87-2.48,2.29-5.73-1.95-4.43-6.21.44-1.54,1.39-3.17,2.98-3.59,1.24-.37,2.48.44,3.25.85.51.26.8.31.95-.12.37-1.7.4-5.71.63-7.2.02-1.25,2.06-1.25,2.15-.07.18,2.27.79,10.59,1.15,15.32.08,1.78.38,3.07-.06,2.8l-.06-.04ZM318.01,191.61c1.23-.35,1.66-1.98,2.24-3.03.28-.64.63-1.47.55-2.19-.09-.87-1.25-.88-1.73-.35-1.19,1.21-1.53,4.29-1.15,5.56l.09.02Z"/>
    <path class="cls-1" d="M236.93,179.29c.16.31.07.71-.23,1.09-.97,1.11-2.61,1.63-3.35,2.99-1.07,1.77-.96,4.1.07,5.49,1.61,2.55,5.6.73,7.19-1.25,1.39-1.49,2.58-3.92,3.56-5.76.71-1.5,2.49-1.59,3.79-.67,5.2,3.25,2.92,11.55-3.05,10.12-.74-.2-1.42-.94-1.76-1.46-1.16-2.17-3.1.31-4.39,1.21-2.53,2.5-4.84,1.52-6.86-.8-2.35-2.84-1.46-8.64,1.61-10.79.92-.72,2.84-1.08,3.36-.28l.06.1ZM248.6,184.46c-.59-.71-2.82-1.99-2.83-.32-.08.73-.14,1.87-.25,2.55-.03.11-.09.14-.21.12-.25.01-1.14-.81-1.1-.12.11.81-.14,2.19.27,2.84,2.92,1.8,6.42-2.24,4.21-4.96l-.1-.12Z"/>
    <path class="cls-1" d="M702.49,136.63c-.57,1.14-.93,2.9-1.54,4.17-.61.74-1.49.95-1.43,1.97.21,1.8.9,1.52,2.37-.11,1.84-1.62,3.64-4.36,5.9-5.02,8.62-3.07.87,10.99,5.76,13.16,2.07.91.31,1.58-1.04,1.75-4.81.94-2.03-5.92-2.43-9.2.11-3.06-2.36-3.59-4.26-1.99-1.3.87-1.76,2.88-2.79,3.82-.6.46-1.3.62-1.8,1.25-.63.74-.77,1.86-1.53,2.5-.83.78-2.09.68-2.7-.04-.39-.45-.41-1.17-.37-1.78.27-3.6,1.95-6.97,3.31-10.33.32-.75.86-1.82,1.69-1.9.7-.04,1.18.77.9,1.61l-.04.15Z"/>
    <path class="cls-1" d="M58.2,74.95c1.15.38,3.19-2.42,5.53-2.52,1.83-.25,2.69,1.61,2.83,3.14.15.86.43,1.15,1.17.65,5.15-4.72,7,7.2,3.86,5.26-1.13-.9-1.03-2.98-2.05-3.98-.72-.54-1.82,1.76-3.05,2.59-1.02.85-2.68.45-2.81-1-.19-1.1.44-2.58.44-3.63,0-.83-.41-1.26-1.05-1.05-.9.25-1.68,1.64-2.53,2.33-.67.59-1.54.93-2,1.73-.39.65-.54,1.82-1.04,2.55-.61,1.03-2.11,1.15-2.44-.15-.48-2.23.7-8.36.56-11.95-.03-.81-.01-2.23,1.03-2.15,2.8.96.58,6.53,1.49,8.14l.06.05Z"/>
    <path class="cls-1" d="M240.93,279.69c1.19.04,2.44-1.82,3.78-1.87,2.89-.47-.53,8.13,2.43,8.96,1.66.03,2.65-2.87,2.97-4.39.43-2.96-.32-5.33,3.28-5.12,3.59.26,6.38,1.1,7.06,4.57.22.91.34,2.53,1.09,3,1.16.39,2-1.37,2.82-2.04.51-.49,1.1-.95,1.79-1.11,1.34-.34,2.24.92,3.07.57,1.14-.87,1.68-2.88,2.88-3.68,1.15-.74.48,1.34.33,1.84-.63,2.01-1.55,4.12-3.07,5-.75.48-1.58.2-2.19-.36-.47-.36-.95-.99-1.56-.82-1,.39-1.86,2.07-2.82,2.8-1.12,1.1-3.2,1.7-3.88-.1-.84-1.73.03-4.65-.82-6.34-.58-1.11-2.4-1.43-2.36.31.22,2.27-.04,4.76-1.55,6.47-1.48,1.88-2.87,2.3-4.58.86-1.25-1.07-3.02-.37-4.43-.94-1.52-.67-1.11-3.38-.96-5.36.16-1.6-.56-2.22-1.79-1.12-1.29,1.12-2.35,2.77-3.16,4.32-.46.87-1.88,3.01-1.91.68.04-1.42.29-3,.42-4.46.37-2.46.16-5.93,1.67-4.94.88.66.76,2.54,1.43,3.23l.07.04ZM250.7,287.45c1.88,1.59,5.7-5.46,2.99-7.18-.76-.43-1.23.57-1.6,1.12-1.13,2.09-1.75,3.74-1.45,5.95l.05.12Z"/>
    <path class="cls-1" d="M161.39,18.39c.91-.15,1.3-2.72,2.53-2.88,1.05-.24,1.65.94,1.93,1.82.85,2.96,1.93,6.94,1.41,9.69-.12.66-.6,1.8-1.38,1.35-1.37-1.57-.63-4.51-.93-6.53-.05-1.06-.25-1.98-.68-2.15-1.87.04-2.03,3.78-2.11,5.3-.04.79-.05,1.92-.38,2.45-2.13,2.72-2.21-5.51-2.58-6.63-.31-3.84-1.35-1.75-2.49.06-1.59,2.4-1.19,5.51-2.36,8.09-1.19,2.07-1.93.77-1.62-.97.32-2.57.6-5.25.2-7.74-.06-.48-.13-1.01.05-1.41.35-.69,1.44-.53,2.11-.75,1.37-.34,2.21-2.51,3.88-2.05,1.12.24,1.49,1.84,2.34,2.33l.08.02Z"/>
    <path class="cls-1" d="M63.24,123.33c.5.33.84.88,1.06,1.44.68,1.42.43,3.47,1.08,3.75,1.44-.8,3.47-3.5,4.83-4.73.69-.62,1.39-1.6,2.2-.91,1.31,1.56.97,5.5.79,8.2-.05.49-.18,1.25-.52,1.44-.29.15-.69-.31-1.01-1.13-.47-1.14-.61-2.73-.86-3.98-.56-2.8-1.14-1.77-2.9.79-.76,1.02-1.67,2.06-2.48,2.87-1.23,1.23-2.8,2.32-2.93-.3-.07-1.21-.11-2.63-.21-3.83-.08-.88-.29-1.52-.7-1.47-1.39.47-2.54,4.07-3.29,5.1-.94,1.63-3.56,1.31-4.01-.47-.95-3.64-.18-11.49.59-15.77.32-1.02,1.12-.78,1.46-.01,1.28,2.73-.67,8.01.47,11.05.65.99,1.98-.4,2.65-1.03.94-.89,2.43-1.76,3.63-1.09l.14.08Z"/>
    <path class="cls-1" d="M575.76,138.13c.24.16.94-.69,1.56-1.7,1.32-2.18,2.64-5.07,5.44-5.44,4.26-.13.9,9.81,1.68,13.67.58,2.48-1.55,3.38-1.81.03-.23-2.16.05-4.79.28-7.03.14-1.56.38-2.48-.28-2.99-1.25-1-2.63.05-2.98,1.41-1.31,3.35-3.32,7.71-5.92,9.41-1.42.95-1.9-.51-1.79-1.75.17-4.08,1.91-7.98,2.77-11.89.15-.66.63-1.79,1.28-1,1.62,2.23-.42,4.99-.28,7.27l.04.03Z"/>
    <path class="cls-1" d="M319.42,76.85c.13.34.49.38.87.42,1.61.05,5.45.01,7.24.02,1.11.06,2.32-.53,3.26.22.1.19.05.19,0,.3-.3.34-.68.37-1.28.51-2.26.41-6.6,1.27-8.31,1.53-1.38.14-2.19-1.21-2.13,1.06.06,1.96.15,3.76,1.23,5.15.18.33.5.82.08.98-1.62,0-2.51-1.81-3.04-3.19-.4-1.11-.64-2.33-.84-3.42-.12-.6-.2-1.1-.67-1.45-.61-.44-1.8-.58-3.02-1.33-1.05-.68-2.07-1.34-2.54-2.53-.15-.69.4-.87,1.25-.63,1.03.3,2.66,1.36,3.58,1.65.99.38,1.16-.49,1.34-1.23.53-2.47,2.46-7.05,3.68-8.51,1.58-1.46,3.05,1.51,1.96,2.96-1.48,2.16-2.48,4.78-2.69,7.39l.03.09Z"/>
    <path class="cls-1" d="M17.79,116.52c-.44.78-2.6.95-3.19,2.03-.31.48-.34,1.09-.35,1.68-.02,3.85-.15,7.95.79,11.56.45,2.96,4.14,1.13,6.33,1.41.81.1,1.15.43,1.05.75-.48.82-1.85.71-2.96,1.07-3.82.81-9.28,2.23-11.52,2.54-.87-.05-1.33-1.92.44-2.16.68-.11,1.4-.13,2.1-.18,1.99-.06,2.67-.68,2.29-2.63-.57-4.47-.92-8.77-.3-13.25.07-.62.13-1.44-.26-1.87-.55-.74-2.35-.45-3.74-.72-1.2-.09-3.21-1.27-2.59-2.44,1.2-1.06,3.44.47,4.95.29,1.97.13,6.84-.62,7.02,1.82l-.05.1Z"/>
    <path class="cls-1" d="M522.1,75.96c1.11.93.14,4.34,2.05,4.61.58.05,1.39-.08,1.91.26,1.13.99-1.78,1.56-2.1,2.5-1.29,1.97-1.16,4.23-.29,6.29.14.4.25,1.22-.13,1.21-1.91-.46-2.34-4.46-2.99-5.99-.8-1.18-3.2-.79-4.5-.91-2.54-.06-3.22,2.85-3.33,4.95-.02,1.02.76,2.08.49,3.02-.17.65-1.27,1.32-1.95,1.06-2.43-1.35-.68-8.11-.37-10.54.11-.52.3-1.21.9-1.05.64.15,1.05.1,1.61-.44,1.76-1.4,5.45.69,7.08-.93.61-.78.42-2.78.89-3.65.12-.24.34-.59.64-.44l.07.05Z"/>
    <path class="cls-1" d="M149.86,30.88c-.23-.15-.26-.44-.31-.76-.12-1.48.03-5.4-.09-7.18-.1-1.55-1.18-1.09-1.93.33-.93,1.67-.81,4.05-1.76,5.73-2.18,2.98-1.67-2.84-1.76-4.1-.15-1.77-.22-3.7-1.31-4.51-1.22-.41-1.81,3.08-2.36,4.21-1.01,2.24-2.15,9.03-3.48,2.28-.29-2.19-.17-4.54-.49-6.75-.03-.43-.04-1.04.2-1.3.2-.2.55.02.91.61.73,1.14.86,2.96,1.23,4.25.42,1.03,1.01-2.23,1.98-3.49.19-.28.43-.6.66-.83,1.04-1.17,2.46-.59,3.12.74.53.68.81,2.54,1.91,2.23.87-.35,1.72-1.72,2.01-2.72.28-.71.46-1.61,1.23-1.88,1.3.05,1.47,1.55,1.79,2.96.39,2.65,1.15,8.98-1.49,10.21l-.06-.02Z"/>
    <path class="cls-1" d="M486.53,78.67c3.04,2.22,2.63,7,.07,9.67-.53.56-1.25.97-2.02.85-1.04-.08-1.83-1.31-2.34-2.13-.26-.4-.46-.62-.62-.52-.34.33-.25,1.16-.1,1.63.33,1.14,1.48,1.6,2.32,2.32.66.52,1.27,1.11,2.13,1.14.43.08,1.66-.44,2.08-.58.76-.13-.99,2.93-1.34,3.13-.98.6-1.84-.17-3.18-.64-1.6-.79-3.1-1.26-3.97-2.75-1.71-2.98.84-9.21,3.33-12.11.95-1.07,2.3-.98,3.48-.12l.15.11ZM484.04,81.22c-.18.23-.48,1.02-.68,1.42-.23.7-.74,1.09-.5,1.7.44.86,1.4,1.44,2.35,1.29.88-.1,1.94-.92,2.09-2-.04-.46-.61-.86-1.1-1.4-.47-.5-1.53-1.33-2.09-1.07l-.07.05Z"/>
    <path class="cls-1" d="M205.01,272.99c.46.52.49,1.63.92,1.97.47.39,1.28.07,1.91.1,1.05-.05,1.89.68,2.27,1.62.84,1.55-.1,4.37.87,5.4.49.56,1.31.41,1.61-.29.45-1.08.09-2.73.45-3.91.35-1.73,1.44-3.61,3.36-3.15,2.23.69-.29,1.77-.84,3.13-.31.68.06,1.31.72,1.56.33.19.9.29.98.65-.07.77-1.25,1.74-.85,2.58,1.19,2.01,4.48,1.55,6.33,2.14,1.65.65,0,1.44-1.26,1.32-3.27-.23-5.99-2.78-8.73-1.91-.97.23-2.11.64-3.04.21-1.96-1.09-1.26-4.21-1.07-6.52.06-.75-.12-1.27-.47-1.47-2.18-.38-2.7,3.81-4.22,4.85-2.39,1.08-1.43-9.93.96-8.35l.08.09Z"/>
    <path class="cls-1" d="M515.95,21.63c.74,4.6-.96,9.43-1.37,14.07-.18,2.4.29,4.8-.45,7.16-.36,1.38-.91,2.7-1.8,3.75-.32.34-.59.57-1,.48-.74-.14-1.76-2.5-1.92-3.09-.04-.22.04-.26.22-.18,1.7.98,2.44.34,2.78-1.56.76-4.82.02-10.54,1.31-15.42.11-.54.37-1.39-.42-.96-1.94,1.14-5.13,3.63-6.65,4.4-.69.12-.5-1-.63-1.64-.1-1.26-.26-3.12-.35-4.35-.19-1.5.72-2.56,1.82-1.41.84.98.78,3,1.92,3.78.46.25.98-.17,1.55-.9.57-.8,1.33-1.92,2.17-2.81.67-.61,1.89-2.19,2.77-1.41l.06.09Z"/>
    <path class="cls-1" d="M469.51,188.08c-5.31,2.29-3.85,3.96-.16,7.16.82.67,1.36,1.26,1.34,2.16,0,.45-.3.78-.71.92-1.21.08-1.76-1.1-2.43-1.88-1.13-1.43-3.58-.93-4.56-2.71-.76-1.23-1.02-2.78-1.17-4.22-.39-4.3,1.66-6.13,5.77-7.27,1.68-.72,4.04.23,3.92,2.14-.26.93-1.09,3.02-1.91,3.62l-.1.06Z"/>
    <path class="cls-1" d="M132.51,88.37c-3.99.48-.8-10.15-.15-12.47.12-.43.23-.86.03-1.25-.32-.64-1.47-.89-2.03-1.42-.75-.61-.8-1.36.19-1.59,1.58-.19,3.17.34,3.28-1.78.25-2.52.25-5.18.47-7.73.1-.7.27-2.04,1.12-2.04,2.45.55,1.41,7.37,1.52,9.44-.54,5.66-3.39,11.22-3.87,17.06-.05.56-.12,1.47-.48,1.73l-.08.06Z"/>
    <path class="cls-1" d="M9.14,68.41c-2.48-.08-4.87,1.21-7.48.63-.53-.12-1.68-.34-1.66-.9.27-.24.54-.2.92-.25,2.83.07,5.96-.31,8.59-1.49,1.42-.78,1.74-2.78,2.33-4.53.69-2.24,1.48-4.41,2.55-6.54.41-.79.96-1.73,1.89-1.87,1.44-.45,6.17,3.55,5.54,5.18-1.56.25-2.87-2.71-4.43-3.09-1.89-.5-1.74,1.47-2.62,3.9-.51,2.11-1.61,4.48-1.78,6.55.11.67,1.27.54,2.62.8.65.12,1.28.33,1.89.57,2.91,1.57,6.8,1.25,9.22,3.44,1.75,1.6.73,3.74-.7,5.28-2.19,2.9-6.65,4.15-7.89-.17-1.35-3.28-1.3-4.19,1.21-6.49.6-.86-.88-.72-1.78-.86-1.21-.07-2.83-.33-3.95-.22-.58.07-.93.3-1.13.82-.8,2.83.01,9.09-1.74,9.97-.32.19-.71-.03-.82-.25-.39-.71-.11-1.59-.12-2.39.02-1.58.01-4.74,0-6.52-.03-.55-.03-1.24-.56-1.49l-.1-.04ZM24.93,70.76c-3.31-3.11-6.28,2.47-5.21,5.99.11.33.33.55.68.56,2.49-.12,6.66-4.24,4.66-6.42l-.13-.13Z"/>
    <path class="cls-1" d="M112.65,224.13c2.4,2.82-.8,5.76-1.42,8.71-.28,1.14.37,2.25.7,3.29.08.37-.18.35-.65-.07-1.14-.8-1.61-3.27-3.02-3.64-.64-.09-1.32.58-2.23,1.06-1.95.93-5.41,1.39-6.54-.92-1.91-4.07,5.27-11.23,9.94-12.29,1.97-.15,2.35,2.33,3.14,3.73l.09.15ZM101.05,232.48c3.86.39,12.04-5.06,10.35-8.72-.3-.7-.88-1.1-1.65-1.03-3.03.29-9.5,6.62-8.77,9.69l.07.06Z"/>
    <path class="cls-1" d="M640.04,32.68c-2.6-.02.69-9.92-1.85-8.96-1.06.09-9.25,10.87-9.64,5.8-.18-2.42.59-6.27-2.89-2.91-1.24,1.21-2.11,2.88-3.13,4.27-.29.34-.54.66-.93.72-1.65-.62.93-6.52,1.99-7.31.45-.37.99-.53,1.53-.74,1.27-.38,2.83-1.78,3.83-.97,1.59.94-.05,6.56,2.82,4.57,2.72-2.09,6.68-7.29,8.47-6.27.53.33.69.92.82,1.6.35,2.36-.03,5.25-.26,7.61-.11,1.24-.27,2.28-.69,2.54l-.07.04Z"/>
    <path class="cls-1" d="M668.98,22.93c.21.14.21.09.33.1,1.04-.28,1.91-1.29,3.11-1.22,4.23.01,7.27,7.52,3.68,10.11-2.59,1.83-6.02,1.14-8.8.15-3.17-1.04-2.79-2.28.29-1.41,5.28,1.38,10-.99,7.33-5.1-5.02-7.49-5.77,6.21-8.69,1.55-1.15-2.44.41-5.76.08-8.74-.1-1.53-.78-3.03-1.02-4.52-.07-.53,0-.95.22-1.14.52-.39,1.25.24,1.62.66,1.73,1.94,1.42,5.21,1.42,8.01.01.49.09,1.14.37,1.46l.07.07Z"/>
    <path class="cls-1" d="M242.41,123.8c-.93,1.09-2.63.85-4.53,1.35-1.87.44-3.47.53-4.3,1.61-.37.52-.52,1.2-.67,1.87-.79,4.02-1.57,10.28,1.58,9.47.73-.15,1.33-.6,2.12-.6.31.07.25.11.34.23.17,1.46-1.81,2.71-3.23,2.45-4.63-.83-3.15-7.78-2.88-11.3.21-1.12-.33-1.71-1.46-1.65-.75-.02-1.64.09-2.24-.45-.72-.62-.61-1.68.16-2.02.89-.38,2.05-.17,2.95-.52,1.56-.52,2.35-2.01,2.9-3.45.49-1.09.9-3.7,2.08-3.13.85,1.06.16,2.85.38,4.07.22,2.65,5.99.87,6.81,2.04v.06Z"/>
    <path class="cls-1" d="M233.18,73.31c1.38,1.82.57,5.93,1.21,7.89.07.3.21.7.5.74.9-.14,1.68-1.9,2.37-2.62,2.02-2.65,4.42-2.21,6.36.42.55.6,1.39,2.24,2.17,1.03.84-1.29,2.29-4.44,3.33-5.95.34-.39.45-.58.99-.69,2.95.54-1.95,8.2-2.64,10.09-2.51,5.6-3.23-.73-4.55-2.79-2.04-3.52-4.15-.76-5.68,1.58-1.41,1.93-2.48,4.01-3.4,2.14-.63-1.39-3.12-12.34-.76-11.89l.08.06Z"/>
    <path class="cls-1" d="M251.03,16.66c-.4.07-.75-.37-.96-.73-.77-1.35-.71-3.15-1.86-3.81-.94-.57-2.23-.44-3.17.08-2.77,1.62-4.56,8.31-4.91,12.17-.23,1.75.35,4.29,2.43,4.38,1.21.34,4.83-1.8,5.09-.22-.05,1.53-2.65,3-4.24,2.99-8,.63-4.81-18.42,1.07-21.48,2.88-1.5,6.09.34,6.97,3.22.29.92.53,2.85-.35,3.38l-.09.03Z"/>
    <path class="cls-1" d="M121.5,75.04c-.82,1.09.13,4.11-.66,5.26-.54.57-1.52.27-1.99,1-.67.58-.56,4.31-1.9,3.2-1.67-2.76.77-6.39,1.26-9.26.61-2.78.39-6.15.92-9.16.13-.59.38-1.12.71-1.44,2.24-1.55,2.25,2.88,2.28,4.28-.04,2.53.24,3.93,3.25,3.09,1.04-.25,2.09-.55,2.81-.26.96.3,1.02,1.4.07,1.86-1.83,1.09-4.95.97-6.67,1.36l-.08.06Z"/>
    <path class="cls-1" d="M536.24,17.28c1.07.98,1.46,2.93.99,4.31-1.16,3.12-6.79,4.7-5.58,6.97,1.55,2.66,5.14,2.16,7.82,2.69,1.08.14,1.63.24,1.4.4-3.02,1.03-8.9,2.2-10.83-1.16-.78-1.7-1.34-3.92-1.52-5.75-.06-1.18,1-1.76,1.72-2.52,1.84-1.76,2.65-6.26,5.87-5.04l.13.09Z"/>
    <path class="cls-1" d="M763.02,136.61c.56.27,1.97-.35,2.67,0,3.27,1.47,1.12,7.49,1.78,10.14.03.59-.43.99-1.01.97-2.53-.28-1.88-4.29-1.96-6.18.15-2.12-.4-2.87-1.92-1.39-1.51,1.42-2.69,3.2-4.66,3.47-.75.14-1.26-.22-.86-.96,1.58-3.09,6.51-13.65,8.21-16.63.25-.2.31.99.17,2.39-.18,1.77-.77,3.43-1.47,5.07-.52,1.23-1.35,2.71-1,3.06l.05.05Z"/>
    <path class="cls-1" d="M813.93,142.17c3.12.7,7.1-.16,9.91-1.05.46-.14,3.8-1.29,2.55-.05-3.87,2.77-13.09,4.95-17.04,1.79-.77-.71-.65-1.62.18-2.15,1.66-1.31,7.89-3.62,7.75-6.66-.17-2.07-2.73-2.58-3.9-3.92-1.47-1.76.66-2.07,1.91-1.34,2.34,1.43,5.88,3.86,4.36,6.77-1.05,2.16-3.59,3.66-5.21,5.21-.62.61-.89,1.08-.58,1.35l.07.05Z"/>
    <path class="cls-1" d="M69.12,225.2c.43.09,1.05-.4,1.54-.59,2.51-1.31,3.42,1.36,4.29,2.85.43.59,1.03.1,1.44-.31,1.17-1.2,2.54-2.84,3.66-4.07.6-.67,1.07-1.07,1.47-1.04,2.55,1.39,2.99,8.68,2.36,11.4-1.07,2.05-1.55-4.29-1.6-4.94-.15-1.73-.34-3.26-1.05-3.11-2.31.76-6.64,8.74-8.48,3.8-.65-3.24-1.56-2.97-3.57-.72-1.94,2.91-2.62,2.17-2.57-.49.06-1.65.47-3.68.8-5.29.21-1.07.51-1.87.85-1.95.24-.06.38.17.48.39.3.76.27,1.72.17,2.6-.05.73-.16,1.15.15,1.45l.07.03Z"/>
    <path class="cls-1" d="M66.27,25.61c-.28.36-.16,1.11-.09,1.63.65,3.86.81,7.48,4.49,7.48.92.01,1.86-.23,2.77-.03.29.12.23.13.3.22.25.6-1.35,1.44-2.06,1.52-7.07,1.45-6.95-8.18-7.18-12.7.02-2.45,1.99-4.53,3.64-6.16,1.49-1.21,3.59-.82,5.32.22,1.81,1.06,3.66,4.06,2.02,5.83-1.44,1.75-5.11,2.35-7.8,1.8-.46-.06-1.02-.16-1.34.12l-.07.07ZM74.97,20.36c-1.18-.53-4.31-1.7-5.44-1.96-.33.2-1.33,1.72-1.78,2.27-.34.56-1.25,1.4-1.22,1.89,1.6,2.19,4.83,1.13,7.14.98.19-.06.32-.17.43-.37.23-.57.74-2.06.9-2.74l-.02-.06Z"/>
    <path class="cls-1" d="M176.28,15.5c2.7,2.61,2.71,6.85-1.74,7.07-1.47.09-2.87.42-1.64,2.07,2.44,3.45,4.64,3.44,8.27,2.23.29-.03.37.08.2.3-1.03,1.09-3.46,2.09-4.89,2.17-6.02.43-8.33-6.25-8.07-11.47-.05-2.3,5.93-3.85,7.74-2.48l.15.12ZM171.73,20.84c.82.04,3.63.11,4.09.08.04-.03.13-.1.17-.14.51-1.13.33-2.95-.54-3.88-.83-1.11-2.78-1.21-4.05-.06-.23.24-.07.56-.03,1.21.08.67.24,2.31.32,2.77l.03.03Z"/>
    <path class="cls-1" d="M53.95,219.75c-.27.36-.96.52-1.45.68-3.31.94-4.19,5.9-3.85,9.3.26,1.05,1.04,1.28,2.1,1.75,1.5.61,3.81,1.55,5.25,2.14.87.35,1.25.52,1.05.52-4.56-.91-12.91-.68-15.95-3.13-2.24-2.51,2.79-.97,3.85-1,.69,0,1.3-.23,1.69-.79,1.07-1.69.13-5,1.25-7.05,1.96-3.72.66-3.88-2.74-5.84-.8-.46-4.17-3.34-1.34-2.12,1.74.71,4.94,2.03,7.12,2.92,1.1.4,3.69,1.43,3.08,2.56l-.06.08Z"/>
    <path class="cls-1" d="M445.36,276.88c.37-.17,1.33.27,1.81-.54,1.14-2.57,3.24-5.21,6.16-5.73,2.51.02,3.69,3.78,2.51,5.7-.92,1.5-3.64,2.35-5.51,3.24-.89.43-1.57.86-1.71,1.37-.26.86,1.26,1.89,2.19,2.07.96.35,3.83-.03,4.24.48.09.35-.77.74-1.14.92-4.37,2.1-7.13-1.83-8.45-6.08-.12-.42-.38-1.09-.14-1.38l.06-.04ZM454.93,272.86c-1.38-.98-5.02,2.51-5.17,3.98,1.31.63,6.61-2.25,5.26-3.89l-.09-.08Z"/>
    <path class="cls-1" d="M748.45,23.14c.21.68,2.97,1.14,3.24,1.5-.07.29-1.18.31-1.61.44-5.2.85-5.6,6.25-6.29,10.48-.14.69-.63,1.94-1.29,1.74-.28-.17-.22-.91,0-1.95.45-2.65,1.09-5.97,1.51-8.65.04-.47-.01-.86-.48-.95-.95-.16-3.62.46-5.2.1-1.67-.03-3.96-3.02-.91-2.93,1.59.06,4.32.3,5.81.34.55,0,1.1-.03,1.5-.41.67-.71.98-1.88,1.51-2.75,1.3-2.41,2.78-2.99,2.74-1.07.11,1.31-.86,2.78-.58,4.01l.06.11Z"/>
    <path class="cls-1" d="M299.53,267.43c.4.93-2.05,1.38-2.9,2.23-.73.59-1.09,1.21-1.39,2.01-1.29,3.79-2.74,11.8-1.28,13.66,1.05.97,3.67.74,4.85,1.12-3.6.2-9.34,3.84-11.51,2.18-2.49-2.46,2.78-2.15,3.78-2.99.67-.47.68-1.32.69-2.1-.04-4.26.52-8.28,1.88-12.32.3-.91.72-2.15-.66-2.29-.53-.09-1.28-.06-1.94-.19-1.34-.22-2.72-1.29-1.9-1.81.32-.17.95-.15,1.39-.1,2.37.36,4.66.35,7.08.22.58-.02,1.43-.03,1.85.3l.06.06Z"/>
    <path class="cls-1" d="M561.01,82.29c.49.61-1.11,1.2-1.72,1.38-2.8.46-4.57,1.57-4.74,4.78-.05,1.09.26,2.31.15,3.38-.06.5-.26.79-.55.77-1.88-.83-1.92-3.99-1.66-6.08.05-.57.32-1.26-.1-1.71-1.04-.8-4.32-.37-5.46-1.1-.71-.37-2.07-3.4-.44-3.12,1.32.16,2.98.53,4.34.75,1.41.27,1.82.14,2.51-1.06.42-.71.87-1.49,1.29-2.22.53-.7,1.01-2.48,1.96-1.84.87.69.98,1.96.67,2.99-.18.7-.24,1.44.18,1.93.81.98,2.47.7,3.48,1.1l.08.05Z"/>
    <path class="cls-1" d="M327.14,274.98c.66.36,1,1.33,1.15,2.07.28,1.38-.37,3.54.32,3.44.97-.26,1.95-1.68,3.04-1,.73.46,1.23,1.66,1.48,2.53.27.69.3,2.08,1.31,1.65,1.39-.71,4.25-3.87,4.85-6.03.32-1.16.86-1.8,1.53-.45,1.7,2.95-3.79,10.14-6.8,9.58-1.33-.78-1.05-3.68-2.42-4.31-1.29.13-1.66,2.66-2.62,3.29-.34.26-.72.23-1.07.05-1.8-1.16-.97-3.63-1.2-5.74,0-1.33-.05-2.95-.03-4.19.02-.61.15-.92.38-.9l.07.02Z"/>
    <path class="cls-1" d="M197.56,124.85c.27.38.76.41,1.23.45,1.61.11,4.18-.18,4.82.12-.47.63-3.93,1.85-5.36,2.75-.62.34-.82.94-.74,1.62.1,1,.37,2.81.58,3.87.17,1.33,1.4,1.4,2.52,1.39,1.44-.02,2.53.74.9,1.84-1.75,1.11-4.45.19-5.23-1.72-.8-1.89-.84-5.25-1.21-6.74-.11-.46-.37-.8-.85-.89-1.28-.21-3.86-.28-4.45-1.65-.08-.24-.02-.47.17-.64.62-.66,2.86-.43,3.9-.6.45-.08.82-.31.99-.75.57-1.29.12-3.58,1.05-4.63.57-.44,1.62.94,1.73,2.23.19,1.06-.36,2.26-.1,3.27l.05.1Z"/>
    <path class="cls-1" d="M133.04,117.85c-.01.22-.07.22-.15.34-.62.64-1.6.96-1.92,1.88-.82,2.73.29,7.99.85,11.21.44,1.18,1.45,1.46,2.73,1.82,1.77.47,3.59,1.09,5.33,1.54.49.14.95.31,1.23.49.24.18.4.25.31.46-.49.32-1.12.15-1.72.07-3.06-.69-5.9-1.31-9.29-1.29-1.6-.08-4.18.13-4.92-1.53-.11-.35.08-.65.57-.77,1.94-.34,4.29.9,3.66-2.18-.35-2.56-.84-5.09-.59-7.65.1-1.37.67-2.7-.08-3.14-1.02-.53-2.36-.23-3.47-.39-1.13.07-3.36-1.61-1.45-1.78,1.67.05,5.93.29,7.79.41.4.04.95.15,1.09.45l.02.06Z"/>
    <path class="cls-1" d="M138.72,284.93c-.64-.33-1.61-3.15-1.65-4.55-.12-2.18-.52-2.49-1.83-.53-2.62,3.87-5.2,8.02-6.66,5.06-.83-1.51-.76-3.61-1.26-5.13-.36-.47-.72-.2-1.48.35-1.38,1.02-2.82,2.58-4.34,3.42-1.26.56-3.08-1.26-2.95-2.84.45-2.23,1.1-6.55,3.96-6.13,1.45.24,2.64,1.52,3.77,1.48,3.61-.66,2.86,3.95,3.2,6.21.8,5.03,5.36-4.3,6.32-5.51,2-3.08,2.22-6.87,3.34-10.39.42-1.03.51-2.67,1.57-2.77.49.04.97.66,1.07,1.48.03,2.28-1.63,4.43-2.19,6.64-1.16,3.66-.34,8.19-.51,12.1,0,.76-.08,1.18-.3,1.13l-.05-.02ZM125.58,278.72c-.17-.46-1.05-1.48-1.42-2.06-.38-.48-.54-.87-.88-1.11-.26-.42-4.17,6.4-2.63,6.72,1.84-.52,2.96-3.13,4.89-3.52l.04-.03Z"/>
    <path class="cls-1" d="M775.56,23.63c-1.12,1.83.62,2.64,2.37,2.82,1.16.22,2.43,0,3.09.9.05.12-.05.27-.21.37-2,.75-5-.87-6.46,1.3-1.16,1.47-2.16,4-1.39,5.44.27.66,1.01,1.2,1.07,1.91-.13.69-1.08.62-1.59.34-2-.94-1.28-4.86-2.58-6.22-1.88-1.76-4.6,1.98-4.34,3.68.48,2.11-1.33,1.77-1.66.16-.36-1.75.59-3.83,1.74-5.27.71-.72,1.43-.33,1.9-.57.38-.21.61-.51.88-.86.56-.81,1.56-1.13,2.44-1.48,2.25-.84,3.33-4.24,4.67-6.42.54-.97,1.87-.92,2.06.21.19,1.32-1.17,2.38-1.88,3.56l-.09.15Z"/>
    <path class="cls-1" d="M546.64,21.78c1.94.06,3.73-3.84,5.08-4.3.57-.32.93.23.81.79-.17,1.68-2.89,4.59-3.61,6.17-.65,1.61.59,3.42.96,5.01.16.69.36,1.2-.06,1.41-.45.12-1.6-1.09-2.19-2.15-.3-.38-.5-1.18-1.05-1.12-1.03.35-2.53,4.36-3.66,3.5-.87-1.95,1.65-4.16,1.64-6.17.21-2.16-2.77-4.31-2.76-6.74.21-1.02,1.53-1.16,2.19-.46,1.01.89,1.54,3.42,2.56,4.03l.11.05Z"/>
    <path class="cls-1" d="M15.55,187.79c.93.94,4.21.53,5.37,1.4.34.35-.43.46-.69.51-3.31-.09-7.04.89-10.05.62-3.26-.48,2.22-1.26,2.53-1.51.41-.17.51-.35.52-.72-.09-2.87-.68-18.3-.8-21.7-.07-.64.31-1.3.96-.77,1.3.81,2.14,6.43,2.47,9.65.46,3.55,0,6.87-.63,10.8-.08.56-.12,1.21.22,1.63l.09.1Z"/>
    <path class="cls-1" d="M165.61,72.72c1.15.95,2.98,1.25,3.56,2.83.93,2.26.48,4.89-.05,7.26-.14.52-.36,1.1-.7,1.45-.67.7-1.28-.15-1.39-.83-.49-1.68,1.25-6.75-.87-7.49-.26.07-.51.45-.73,1.05-.66,1.85-1.18,4.42-2.05,6.11-.92,1.83-1.85.5-1.95-.74-.37-3.06,1.9-5.87,1.67-8.9.07-1.63-1.05-3.83-.19-5.28.36-.38.84-.04,1.08.33.8,1.13.62,3.08,1.53,4.09l.11.12Z"/>
    <path class="cls-1" d="M565.73,185.02c-1.02,1.2-2.81,4.33-1.97,5.4.65.45,1.64.06,2.34.35.29.1.43.27.35.45-.4.67-1.79.82-2.57,1.02-1.78.36-2.07,1.4-2.28,3.01-.41,1.68-.21,3.41-.28,5.13-.17,1.56-1.04,1.16-1.25-.16-.41-2.33-.25-5.49-2.02-6.65-1.32-.95-3.16-.29-4.61-.66-.57-.15-.9-.48-.83-.83,1.03-1.68,4.24-.67,5.95-1.03,1.15-.14,1.43-.92,2.4-2.61.93-1.65,2-3.53,2.91-5.14.54-.9.76-1.52,1.49-1.64,1.23,0,1.31,2.21.46,3.2l-.1.15Z"/>
    <path class="cls-1" d="M138.4,77.09c-.54.67-.34,1.75-.13,2.55.99,3.72,5.6,1.85,9.64,1.23.55-.05,1.69-.31,1.91.26.14.54-1.96,1.56-3.19,1.87-5.98,1.82-11.7-.16-10.62-5.72.6-2.61,2.02-5.38,4.31-6.92,4.8-2.85,7.22,3.96,2.34,5.55-1.29.68-3.05.36-4.17,1.09l-.09.1ZM144.06,71.36c-2.15-.68-4.61,1.57-4.38,3.81.11.13.36.11.63.05,1.85-.32,4.34-1.47,3.85-3.75l-.1-.1Z"/>
    <path class="cls-1" d="M81.65,125.21c.44.05,1.03-.29,1.49-.49,3.06-1.43,4.41,2.98,4.51,6.25.13.99,1.06.82.95,1.43-.25.72-1.2,1.51-2,1.53-.53,0-.78-.63-.99-1.62-.33-1.19-.56-3.76-1.66-4.22-.32-.07-.53.4-.61,1.21-.2,1.23.09,2.63-.5,3.5-.49.48-2.36.72-3.02.76-.75-.1-.56-.74-.74-1.5-.26-1.81-.67-4.46-.89-6.11-.1-.81.13-1.39.75-1.73.32-.16.72-.23,1.07-.11.56.19.93.96,1.51,1.08l.13.02Z"/>
    <path class="cls-1" d="M45.44,118.02c.3.13.52.36.65.66.42,1.03,1.13,3.32,2.89,4.35.62.45,1.72.84,1.99,1.49,0,.18-.29.31-.77.35-1.41.04-2.98-.32-2.97,1.54-.11,2.24.35,5.17,2.15,5.97.48.24,1.23.36,1.54.77.42,1.06-2.07,1.09-2.73.65-2.92-1.2-3.17-4.15-3.52-7.2-.11-1.7-.94-2.12-2.82-2.16-1.3-.1-3.12-.21-4.33-.33-.81-.09-1.36-.3-1.43-.56.03-.63.78-.74,1.62-.88,1.59-.18,4.75.1,5.96-.13.35-.09.52-.3.57-.66.15-1.17-1.14-4.36,1.11-3.89l.11.04Z"/>
    <path class="cls-1" d="M699.29,20.65c.13.27.06.62-.05.92-.59,1.46-2.84,4.72-3.04,6.67-.15,3.09,4.21-1.27,4.77-2.31.66-1.31,1.82-2.47,2.81-.83.78,1.84-.45,3.91-.15,5.75.27,1.35,0,2.46-1.49,1.4-.57-.42-.88-1.16-1.06-1.85-.18-.68-.28-1.16-.6-1.09-.61.23-1.57,1.3-2.39,1.63-1.16.62-2.97.76-3.75-.41-1.35-2.04.23-7,2.14-9.24.7-1,2.29-1.54,2.76-.75l.05.08Z"/>
    <path class="cls-1" d="M569.99,81.4c1.53,1.29,3.08,4.34,2.77,6.25-.27,1.48-2.06,1.74-3.17,2.47-1.29.68-1.97,1.09-3.49.48-1.02-.42-2.3-.27-3.27-.8-3.55-3.92,2.34-11.98,7.02-8.5l.13.1ZM571.45,87.82c.14-.12-.1-.39-.34-.9-.68-1.17-1.36-2.98-1.93-3.53-2.19.37-4.65.97-5.49,3.4-.17.48-.2.77.38.97.7.32,1.64.75,2.36,1.08.58.3.76.32.97-.08.19-.35.49-.65.87-.72.96-.19,2.17.15,3.1-.16l.08-.05Z"/>
    <path class="cls-1" d="M507.64,271.73c.34.42,1.16.29,1.68.49,1.02.26,1.35,1.34.39,1.92-1.06.64-3.11.79-4,1.15-.43.14-.75.39-.83.84-.28,1.6-1.1,7.78-1.54,10.81-.14,1.01-.22,1.58-.35,1.37-.94-3.56-.88-7.57-.42-11.25.05-.5.12-1.05-.11-1.47-.53-.97-2.48-.62-3.28-1.31-.85-.6-1.09-1.73.02-2.03.77-.18,2.07-.12,2.91-.18,1.63.06,2.35-.93,3.24-2.29.71-1.24,2.08-1.78,2.33-.17.17.64-.27,1.51-.09,2.04l.05.09Z"/>
    <path class="cls-1" d="M79.21,266.78c.17.28.7.34,1.29.45,2.53.54-.01,1.35-1.06,1.5-5.74,1.06-6.5,7.69-2.87,11.66.95,1.39-.61.88-1.41.4-2.59-1.51-3.63-5.5-2.71-8.59.1-.55.59-1.34.2-1.79-.39-.35-2.46-.02-3.19-.48-1.4-.79.64-1.42,1.44-1.59,2.99-.56,4.77-2.23,6.65-4.41.84-.97,2.25-1.14,2.04.61-.04.68-.6,1.54-.41,2.14l.05.09Z"/>
    <path class="cls-1" d="M50.26,265.27c.34.35.37,1.25.86,1.62.67.57,2.14-.2,2.69.62.36.48.22,1.36-.48,1.39-.87-.07-2.06-.35-2.59.72-1.85,3.66-3.53,7.3-2.64,11.46,1.11,4.19-1.04,2.56-1.94-.05-.86-2.43.29-5.11.79-7.69.19-1.08.79-2.6-1.03-1.81-1.17.34-3.07,1.64-4.13.63-1.43-2.24,2.54-2.36,4.81-3.21,1.17-.39,1.92-1.37,2.36-2.47.26-.49.69-1.58,1.24-1.26l.07.06Z"/>
    <path class="cls-1" d="M273.28,185.5c.25.34.82.15,1.8-.18,1.51-.4,5.73-2.07,6.4-1.87.15.07.15.25.02.5-1.41,2.52-6,2.54-7.34,5.23-1.01,1.92-1.08,4.2-.4,6.22.42,1.77-1.5,1.91-2.32.65-1.18-2.05-.47-4.76-.41-7,.16-2.3-.65-5.09-.68-7.63,0-.98.56-1.27,1.16-.6,1.15,1.1,1.24,3.13,1.68,4.59l.06.08Z"/>
    <path class="cls-1" d="M360.22,81.62c-.3-.11-1.36,1.5-1.7,1.21-.11-1.07-.06-3.4.07-4.63.1-.28.28-.36.56-.53,1.18-.63,3.87-2.07,5.1-2.71,1.45-.79,2.65,1.25,3.41,2.27,3.18,4.28-6.35,12.81-7.24,6.6-.15-.72,0-1.48-.14-2.19l-.05-.02ZM366.17,80.93c.17-.24.53-.58.58-.98-.02-.55-.19-1.19-.47-1.65-1.99-2.67-5,1.88-4.64,4.25.06,1.77,4.15-.71,4.44-1.51l.08-.11Z"/>
    <path class="cls-1" d="M208.96,78.25c-1.71,1.66-3.26,7.15-4.26,9.04-.52,1-1.15-.13-1.27-.78-.65-1.8.37-5.23-.74-5.59-.96-.25-1.86.86-2.62,1.21-.31.15-.54.11-.61-.15-.13-.79.42-1.74,1.23-2.01,1.36-.4,1.86-.4,1.79-2.23.06-.92-.11-2.18.76-2.25.91.33,1.07,1.7,1.38,2.47.14.36.31.52.55.45.29-.09.64-.48.9-.75,1.61-1.79,4.5-3.47,6.67-3.06,3.47,1.14-2.87,2.84-3.66,3.56l-.12.1Z"/>
    <path class="cls-1" d="M567.45,19.18c-.09.39-.56.54-.97.63-2.03.42-8.62.89-6.77,4.13,1.22,1.31,4.74,1.96,4.75,3.81,0,1.37-1.17,2.39-2.27,3.08-1.75,1.08-4.51,1.59-5.6.48-.99-1.06.26-1.63,1.54-1.57,1.06.02,4.2-.34,3.4-1.94-.9-.95-2.59-1.29-3.55-2.25-1.32-1.16-1.21-3.01-.12-4.24,2.11-2.53,8.21-5.71,9.58-2.23v.09Z"/>
    <path class="cls-1" d="M687.4,32.63c-1.13.72-3.42.76-4.52-.03-1.34-1.76-2.12-4.73-1.39-6.88.79-1.65,3.06-3.16,4.51-3.99,1.83-.31,3.67,3.18,4.15,4.62.33,2.04-1.3,5.01-2.63,6.2l-.13.09ZM687.65,24.18c-1.89-1.25-4.05,6.51-3.9,7.05.65.58,2.29-.11,2.81-.51,1.84-1.46,1.9-4.26,1.16-6.43l-.07-.11Z"/>
    <path class="cls-1" d="M198.45,76.09c-.94,1.24-1.6,3.02-3.1,3.81-.73.44-1.73.74-2.2,1.48-.44.72.48,1.99,1.32,2.21.71.43,3.27-.93,3.85-.46.26.87-2.16,1.59-2.73,2.21-.9.99-1.61.12-2.35-.46-3.89-2.41-2.22-9.01.95-11.43,2.02-1.66,5.45-.32,4.35,2.48l-.08.15Z"/>
    <path class="cls-1" d="M176.44,220.5c-.33.12-1.15-2.31-1.95-2.71-2.12-.74-.32,6.08-.12,7.25,2.67,8.1-3.35,11.64-11.05,9.99-.55-.21-1.09-.3-1.29-.9-.03-.43.94-.67,2.01-.63,1.1.02,2.14.05,3.26-.12,10.94-2.16,3.07-9.05,4.81-15.79,1.24-3.17,3.49-1.67,4.24,1.13.28.9.3,1.65.13,1.74l-.04.02Z"/>
    <path class="cls-1" d="M133.03,215.93c1.08,1.32-.7,3.35-1.12,4.74-.83,2.85-3.04,8.88-2.69,11.08.09.11.27.09.55-.05,1.25-.71,3-2.05,4.22-2.84.72-.48,1.06-.62,1.21-.14.27,1.67.55,4.8.5,6-.25,1.16-1.29-.5-1.55-.95-.69-1.18-.75-3.21-2.46-1.6-.99.78-2.44,2.53-3.64,1.68-2.55-1.7,1.29-11.87,2.86-15.66.38-.83.88-2.91,2.03-2.33l.09.08Z"/>
    <path class="cls-1" d="M298.81,20.25c.64.58,1.09,1.63,1.97,1.99,1.34.52,3.06-.3,4.4.46,2.6.93,1.98,9.78-.98,8.77-.22-.21-.29-.67-.27-1.33.05-1.25.14-3.23.19-4.45.11-4.69-4.16,4.81-4.94,5.42-.8,1-1.44.51-1.36-.64.07-1.86,1.13-4,.97-5.63-.15-1.33-1.67-3.32-1.41-4.59.19-.62.91-.38,1.31-.09l.12.1Z"/>
    <path class="cls-1" d="M345.58,273.13c1.85,1.89-.36,9.94,3.97,2.67,2.89-4.01,5.46,9.6,3.29,12.18-1.67,1.86-1.28-2.55-1.17-3.75.06-1.7.72-5.67-.66-6.43-.47-.1-1.07.64-1.66,1.51-.82,1.2-1.69,2.38-2.22,3.74-.3.76-.61,1.46-1.02,1.7-2.39.49-1.31-4.54-1.13-6.2.36-.91-.85-5.94.51-5.48l.08.07Z"/>
    <path class="cls-1" d="M319.4,22.98c.2.43-.05.74-.47.91-.91.46-2.34.06-3.02-.32-.97-.53-1.56.47-1.23,1.34.13.38.41.77.72,1.16,2.08,2.36,7.1,5.6,1.72,7.7-1.56.42-3.47.01-4.6-.64-1.08-.66-1.44-1.47-.26-1.57.67-.26,5.05.39,4.48-.64-.96-1.7-3.6-3.77-4.44-5.49-.57-1.23-.86-2.78.17-3.71,1.56-1.27,5.54-.53,6.86,1.14l.07.13Z"/>
    <path class="cls-1" d="M356.16,76c-.23.33-1.91-.57-3-.36-.69.09-1.22.59-1.44,1.24-1.05,2.84,4.81,6.53,5.34,9.23.17,3.86-7.04,2.93-8.08.37-.19-1.54,1.56-.9,2.37-.4.78.49,2.76-.04,2.75-1.07-.04-.49-.54-.97-.9-1.36-2.59-2.65-4.94-7.52-2.22-10,1.09-1.03,2.8-1.15,3.82.09.68.76,1.5,1.91,1.39,2.21l-.03.05Z"/>
    <path class="cls-1" d="M97.06,264.74c-.11.37-.6.64-1.23.95-1.97.91-4.19,2.51-4.13,4.9,0,2.58,3.42,4.72,3.18,7.32-.56,4.05-6.25,3.71-9.36,4.41-1.34.17-2.7.47-2.73.27-.09-.18,1.41-1.18,2.63-1.83,1.81-1,3.96-.96,5.77-1.9,3.95-1.71-1.87-5.18-1.22-9.13.32-2.72,3.07-5.17,5.43-6.1.91-.16,1.8.4,1.67,1.01l-.03.11Z"/>
    <path class="cls-1" d="M255.52,86.38c-.61-.74-.56-1.69-.78-3.22-.15-2.4-.53-5.21.01-7.53,1.07-2.31,5.77-1.04,6.63,2.71.19.78.2,1.69.07,2.42-.39,2.48-2.54,7.94-5.83,5.71l-.1-.09ZM258.82,82.36c1.66-2.91,2.53-5.87-1.98-5.84-.56.03-.67.09-1.03.51-.1.32.02.77.28,1.07.33.44.96.55,1.1,1.09.12.99-.74,4.56-.65,5.18.09.15.17.11.38.05.71-.28,2.08-.77,2.72-1.09.34-.21-.71-.41-.81-.82v-.13Z"/>
    <path class="cls-1" d="M134.34,170.82c.19-1.55.6-3.11.71-4.68.09-.72.3-1.26.61-1.3,1.09.2,1.15,2.15,1.23,3.12.26,6.09-1.04,13.21-.63,19.55.09.73-.17,1.97-1.04,1.71-.85-.39-.72-1.66-.73-2.55.02-5.16-.53-10.55-.16-15.66l.02-.18Z"/>
    <path class="cls-1" d="M251.82,22.9c.39.86.09,2.34.04,3.6-.25,2.96-.79,6.87-1.04,8.7-.12.98-.05,3.56-1.63,2.68-2.32-1.91.46-8.75.5-12.11-.34-2.01-3.36-1.93-4.89-2.85-1.02-.6-1.97-2.05-1.05-2.03,2.4.51,5.84,1.23,8,1.96l.05.05Z"/>
    <path class="cls-1" d="M119.43,17.07c-.16.34-.79.63-1.18.87-4.99,2.79-.07,14.46,6,9.77,3.96-3.47.32-13.74,8.61-10.78,5.8,2.72.67,14.94-4.36,11.68-.75-.45-1.66-1.11-2.54-.89-.76.14-1.47.89-2.09,1.4-4.8,4.27-11.63-5.13-8.83-10.46.76-1.43,2.39-2.64,3.88-2.21.29.09.6.26.54.56l-.03.08ZM129.07,19.1c-.95,1.21-1.27,3.92-1.16,5.65.07,2.51,1.3,4.62,3.79,2.22,2.77-2.31,3.46-6.71.9-8.4-1.07-.8-2.57-.56-3.43.42l-.1.11Z"/>
    <path class="cls-1" d="M162.54,116.66c.21.07.38.27.46.54.6,2.88-3.37,14.37-1.14,17.55,1.49,1.6,4.33-1.46,5.59-2.62.59-.52,1.11-.94,1.29-.58-.01.75-2.03,2.4-2.77,3.22-2.01,2.19-3.58,3.4-5.64,1.27-2.11-3.62-.27-12.4.67-16.97.24-.9.34-2.39,1.47-2.44l.08.02Z"/>
    <path class="cls-1" d="M149.93,268.81c1.48,1.69.52,1.84-1.03,2.08-1.85.59-3.59,2.59-3.88,4.51-.12,1.62,2.6,3.92,2.38,6.63.14,2.74-2.53,6.07-5.36,5.71-1.96-.93,1.21-2.71,1.94-3.55,4.25-4.12-1.34-6.28-.54-10.5.3-1.45,1.42-2.48,2.4-3.52,1.05-1.31,2.28-2.92,3.96-1.49l.14.13Z"/>
    <path class="cls-1" d="M359.4,23.51c-.16.18-.42.11-.71-.17-.66-.58-1.3-2.18-2.3-2.18-1.26.16-2.37,1.73-3.66,2.92-1.09,1.1-1.98,2.38-2.51,3.78-2.22,5.07,3.16,7.03,7.32,6.59.92-.04,1.46.04,1.27.32-2.86,2.46-8.77,1.24-10.03-2.69-.7-1.82-.52-4.13.39-5.88,2.08-4.13,8.19-8.95,10.07-4.64.25.63.48,1.23.21,1.88l-.06.07Z"/>
    <path class="cls-1" d="M266.34,191.13c-5.19,6.8-7.9-4.82-6.56-7.77,1.43-1.43,3.84-.36,5.15.89,1.81,1.63,2.66,4.46,1.49,6.73l-.09.15ZM262.65,184.84c-.39,2.01-2.19,4.73-.05,6.41.51.26.95-.04,1.32-.45,1.94-1.83,1.17-4.68-1.18-6l-.09.03Z"/>
    <path class="cls-1" d="M292.89,29.83c-1.69,1.47-3.83,2.4-4.38-.61-.42-2-.3-5.05-.38-6.93.03-.29.15-.53.41-.73,2.93-1.54,6.8-.66,7.44,1.26,1.07,2.36-1.11,5.27-2.94,6.88l-.14.12ZM290.02,29.51c.99.61,6.88-3.94,3.54-6.65-.38-.35-.52-.91-.88-.37-.71.96-1.74,2.34-2.41,3.24-.15.21-.17.29-.19.6-.01.62-.15,2.95-.09,3.13l.03.05Z"/>
    <path class="cls-1" d="M834.86,125.76c.29.26.3.76.32,1.16.19,3.15.35,5.87-.32,8.78-.86,3.79-1.66,7.65-3.51,10.59-.48.64-.87.71-.75-.18,1.51-6.19,1.77-12.61,2.25-18.88,0-.95,1.12-2.03,1.91-1.54l.1.07Z"/>
    <path class="cls-1" d="M438.89,288.8c-5.38-6.82-.28-17.8-.38-26.22.11-.9.54-.97.91-.13,1.84,7.56-2.69,16.84-.71,24.94.07.41.32,1.17.21,1.4l-.03.02Z"/>
    <path class="cls-1" d="M33.28,73.03c2.35-.65,4.42-2.66,6.98-2.28.69.06,1.57.29,1.93.88.14.22.13.41-.01.52-.34.27-1.38-.08-2.33.05-2.68.29-5.47,1.91-5.64,4.85-.17,1.09-.25,2.41-1.51,2.38-2.1-.13-2.24-4.87-2.28-8.13-.06-1.55-.2-3.22,1.12-2.16,1.15.93.82,3.32,1.64,3.88l.1.02Z"/>
    <path class="cls-1" d="M317.98,286.39c-2.73.81-4-4.07-3.56-6.17.44-1.73,1.33-3.53,2.49-4.92.96-1.1,1.98-.99,1.9-.09-.05.59-.34,1.12-.62,1.68-.75,1.46-1.88,3.26-2.39,4.8-.71,1.88.03,2.86,1.43,1.85,2.55-1.76,3.12-5.49,3.39-8.57.16-.63.49-.46.79.04,1.89,3.79-.55,8.41-3.31,11.3l-.12.07Z"/>
    <path class="cls-1" d="M119.07,166.68c.89.81.58,2.22.57,4.36-.15,4.4-1.28,10.52,1.43,14.28-.35.61-2.02.8-2.46.41-2.22-1.96-1.94-13.94-1.12-17.45.17-.74.53-1.89,1.5-1.64l.09.05Z"/>
    <path class="cls-1" d="M81.43,165.85c.28.27.32.82.3,1.24-.11,4.03-2.48,8.26-.71,12.12.61,1.28,1.56,2.43,1.95,3.8.41,1.4-.6,1.3-1.37.67-4.44-3.22-3.92-10.35-2.29-15.38.33-.9.81-2.9,2.02-2.52l.09.07Z"/>
    <path class="cls-1" d="M470.61,276.23c-.9.73-3.33-.22-3.37,1.44-.4,1.43,6.46,9.01,1.22,9.02-1.51.04-3.6-.2-4.15-1.78-.41-1.63,3.52-.72,3.67-1.63.12-.49-.28-1.03-.5-1.48-.92-1.59-2.25-3.12-1.98-5.05.11-2.05,2.64-4.08,4.46-2.63.55.46.99,1.52.72,1.99l-.07.1Z"/>
    <path class="cls-1" d="M73.7,167.39c.3.28.44.77.49,1.21.61,4.29-1.8,9.21-.73,13.3.16,1.16,1.53,1.67,1.74,2.61.07,0-.2.38-.25.35-.11.07-.26.11-.43.13-1.71.14-3.5-1.31-3.47-3.07-.19-2.89.3-10.18.94-13.04.14-.77.62-2.08,1.6-1.57l.1.08Z"/>
    <path class="cls-1" d="M463.98,272.91c-.19.33-1.6-.19-2.1.32-.52.48-.59,1.22-.97,1.9-.67,1.28-1.48,2.77-1.02,4.19.79,2.29,3.14,5.09.07,6.8-1.7,1.2-5.85-1.42-2.37-2.41,2.51-.48,1.27-2.38.95-4.03-.36-1.6-.45-3.08.04-4.69.57-1.86,2.57-5.68,4.77-3.13.24.28.64.63.65.98l-.02.07Z"/>
    <path class="cls-1" d="M153.97,280.91c-3.77-3.71,2.19-12.82,6.45-7.07.47.67.86,1.4,1.07,2.19,1.18,3.95-4.41,7.48-7.41,5.01l-.12-.12ZM155.34,280.49c6.98.93,6.31-8.99.48-5.96-.41.22-.74.49-1.07.79-.17.23-.02.68.04,1.5.16.9.22,3.05.48,3.64l.07.03Z"/>
    <path class="cls-1" d="M256.58,193.61c-1.63,1.37-3.48-6.22-3.35-7.37-.15-3.5.57-7.04,1.25-10.49.32-1.11,1.63-.47,1.91.4.1.27.1.57.05.89-1.02,4.98-1.69,10-.14,14.93.15.47.38,1.14.31,1.54l-.03.11Z"/>
    <path class="cls-1" d="M381.77,275.02c3.95,1.77,5.11,11.03.21,11.16-4.14.14-2.57-9.8-.32-11.16h.12ZM383.24,278.18c-1.47-.69-2.02,3.35-2.2,4.03-.43,1.87.44,3.86,2.1,1.63,1.12-1.63.94-3.84.19-5.55l-.08-.1Z"/>
    <path class="cls-1" d="M691.57,149.54c-.41.5-1.89.62-2.32-.17-1.7-2.73.07-6-.64-8.93-.48-1.73-.61-3.67.97-4.9,2.91-2.56,1.27,8.13,1.38,9.26-.16,1.44.63,3.2.66,4.64l-.06.11Z"/>
    <path class="cls-1" d="M148.84,215.79c.17.22,0,.68-.29,1.46-1.18,3.04-3.73,8.09-4.56,10.65-.72,2.25.02,4.69.02,6.93-.01.82-.29,1.04-.68.4-1.59-3.12-1.53-7.49-.19-10.69.92-2.04,3.6-9.29,5.65-8.78l.04.04Z"/>
    <path class="cls-1" d="M38.05,277.22c.93.49,2.33-.75,3.3-.42.6.43-2.52,3.69-4.27,3-1.88-.48-.26-3.93-2.31-3.7-2.31.44-2.66,3.74-4.82,4.43-4.3,1.65-3.13-6.93-1.14-7.97,1.97-.49-.41,4.09-.19,5.06.28,2.74,2.58.06,4.15-1.24.67-.58,1.44-1.12,1.95-1.85.48-.64.64-1.62,1.04-2.25.68-1.1,1.74-.04,1.94.83.44,1.22-.26,3.48.26,4.04l.08.07Z"/>
    <path class="cls-1" d="M66.22,269.51c.21.17.23.59.31,1.19.07.83.27,1.55.2,2.26-.23.89-1.97,7.1-2.42,8.72-.05.11-.09.32-.25.28-.84-.36-1.06-2.28-.93-3.22.17-1.57,1.19-6.54,1.65-8.07.18-.65.49-1.53,1.35-1.22l.09.06Z"/>
    <path class="cls-1" d="M18.37,164.17c-4.35-.99-8.42.46-12.72,1.34-.78.2-2.02-.23-1.53-1.15,1.25-2.16,12.14-3.19,14.32-.22l-.06.02Z"/>
    <path class="cls-1" d="M126.57,174.1c.19-.11,1.14.82,1.55,1.16.23.23.3.31.32.58.05,1.47.34,9.41.4,11.14.01.3-.05.3-.26-.02-2.28-3.71-2.31-8.61-2.06-12.82l.06-.04Z"/>
    <path class="cls-1" d="M26.62,227.13c-.79.86-2.29,1.61-3.4,2.09-.19.06-.41.15-.41-.07.14-.62,2-3.48,2.33-4.5-.01-.56-.83-1.15-1.38-1.6-.88-.67-2.9.59-3.7-.27-.23-.29-.56-.72-.51-1.07-.08-.22.99.02,1.25-.11.52-.24.69-.89,1.35-.96,2.81-.72,6.07,3.62,4.56,6.37l-.08.12Z"/>
    <path class="cls-1" d="M308,84.37c.23.3,2.54-.52,2.91-.36.5.28-.05,1.2-.53,1.63-1.06.92-2.93.93-3.91-.08-.54-.58-.23-1.22-.31-1.95.1-1.92-.2-5.06.14-5.61,1.26.64,2.09,2.19,2.01,3.63.02.85-.29,1.84-.36,2.66l.03.09Z"/>
    <path class="cls-1" d="M491.01,286.41c-.32.01-.63-.5-.74-.83-1.05-3.6.49-7.37,2.13-10.55.19-.37.61-.71.91-.27,1.57,2.15-2.72,8.81-2.25,11.61l-.05.04Z"/>
    <path class="cls-1" d="M756.92,134.78c.23.12.15.4,0,.8-.44,1.04-1.28,2.24-1.78,3.28-.95,1.79.24,4.88-1.15,6.33-.29.29-.59.23-.78-.15-1.26-3.29-.64-6.61,1.58-9.47.46-.7,1.25-1.03,2.02-.83l.11.05Z"/>
    <path class="cls-1" d="M500.17,266.5c-1.49.5-4.36-.62-5.79-.43-.49.02-.68.43-.87.84-.23.43-.75.6-1.16.33-.16-.16-.21-.45-.28-.85-.14-.97-.51-2.52-.44-2.9.04-.14.15-.17.34-.15,2.61.66,6.62.59,8.22,3.09l-.02.08Z"/>
    <path class="cls-1" d="M222.9,137.06c-.06-1.73-.25-8.77-.07-9.86,2.7,1.75,1.63,5.71,1.83,8.34.05.7-1.31,1.19-1.72,1.51l-.05.02Z"/>
    <path class="cls-1" d="M637.25,135.62c-1.27,3.34-2.18,8.03-6.52,8.65-.75.09-.26-.28.11-.78,1.29-1.7,2.68-3.1,3.52-4.55.73-1.54.78-4.04,2.82-3.4l.07.09Z"/>
    <path class="cls-1" d="M12.74,228.82c.61.41.98.63.43,1.32-1.54,1.95-3.65,4.27-6.24,4.38-.39-.14-.72-1.33-.73-1.63-.03-.41,1.22.36,1.67.15.51-.32.58-1.13,1.09-1.55.95-1,2.45-1.53,2.67-3.03.32-.95.56-.35.99.25l.12.12Z"/>
    <path class="cls-1" d="M409.56,22.81c.12.07.02.2-.04.48-.31,1.07-.67,2.3-1.03,3.53-.5,1.7-.98,3.42-1.13,3.85-.14.1-.2,0-.36-.17-1.85-2.17.29-5.17,1.22-7.16.19-.55.73-.65,1.25-.57l.08.03Z"/>
    <path class="cls-1" d="M18.17,216.7c-.05.13-.2-.14-.48-.48-.64-.82-1.5-1.93-2.15-2.76-.56-.89-1.31-.24-2.05.17-.87.57-1.99,1.33-2.5.35-.05-.22.05-.49.27-.74,3.44-3.59,7.12-1.17,6.94,3.38l-.02.09Z"/>
    <path class="cls-1" d="M60.84,223.28c-.1-1.36.29-2.98.72-4.3.3-.85.8-2.32,1.58-2.83.2-.12.42-.14.63-.07,2.65,1.31-1.7,6.35-2.89,7.24l-.04-.04Z"/>
    <path class="cls-1" d="M19.53,229.25c.26.08,2.34-.74,2.58-.32.4,1.28-1.77,1.6-2.72,1.43-.51-.08-.92-.12-1.21-.43-.19-.61.15-1.51.2-2.32.12-1.25.41-2.04.25-2.64-.21-.39-.52-.7-.84-1.1-.36-.44-.46-.59.15-.34.52.25,2.07.7,1.98,1.03.02.92-.53,3.84-.44,4.69l.06.02Z"/>
    <path class="cls-1" d="M10.77,219.45c.12.43-.75,1.91-.29,2.37,1.55,1,1.9,3.29,2.27,4.94.07.89-1.14.55-1.34-.04-.42-.83-.25-1.97-.64-2.82-.66-1.16-2.11-2.09-2.04-3.76-.1-1.08,1.34-.77,1.98-.75l.05.05Z"/>
    <path class="cls-1" d="M302.3,120.52c.31,2.47-3.19.3-4.14,1.04-.44.26-.85.73-1.4.72-.43,0-1.22-.64-1.03-1.05.34-.62.83-1.43,1.2-2.01.11-.16.27-.04.76.05l1.8.42c.88.27,2.21.38,2.78.72l.03.11Z"/>
    <path class="cls-1" d="M408.87,10.49c.05.26-.05.81.03,1.24.15,1.03.86,1.63,1.63,2.24.63.53,1.72,1.3,1.63,2.18-.06.04-.2,0-.37-.08-2.44-1.46-5.16-1.48-4.98-4.72.04-.31.05-.78.32-.96.25-.19,1.46-.26,1.7,0l.05.12Z"/>
    <path class="cls-1" d="M693.7,129.69c-.29.02-2.73-1.92-3.12-1.75-.34.16-1.14,1.18-1.47,1.09-.41-1.7.18-4,2.39-2.65,1.34.81,2.68,2.43,2.24,3.28l-.05.02Z"/>
  </g>
</svg>