<?xml version="1.0" encoding="UTF-8"?>
<svg id="Layer_2" data-name="Layer 2" xmlns="http://www.w3.org/2000/svg" viewBox="0 0 468.89 168.85">
  <defs>
    <style>
      .cls-1 {
        fill: #606060;
      }
    </style>
  </defs>
  <g id="Layer_1-2" data-name="Layer 1">
    <path class="cls-1" d="M322.16,141.21c1.9,1.85.05,7.31,3.25,7.63.64.04,1.33-.02,1.99,0,1.9-.16,4.2,1.37,5.45-.1.37-.69.42-1.86,1.52-2.25,5.63-1.73,12.26,1.25,9.29,7.45-.4,1.01-1.19,2.08-1.14,3.08.2.76.92.79,1.53,1.16,1.15.5,1.17,1.55.06,2.1-1.11.67-2.62.45-3.54.85-1.41.69-2.93,1.91-4.62,1.42-2.95-.96-1.89-4.88-1.01-7.2.59-1.52.48-3.19-1.02-3.39-2.11-.08-3.53,2.2-5.28,3.12-1.86,1.23-3.51,1.2-3.93,2.63-.46,1.57.15,4.39-2.48,3.01-2.07-1.14-2.86-3.19-5.09-4.16-1.6-.68-4.26-.99-5.45-.42-1.31.68-1.62,2.85-3.32,3.25-5.27.81-4.89-5.91,0-8.62,1.46-.88,3.2-1.21,4.87-1.24,1.45-.05,3.27,0,4.21-1.18,1.45-1.79.29-4.96,1.48-6.78.66-1.01,2.23-1.27,3.13-.45l.09.09Z"/>
    <path class="cls-1" d="M364.15,146.3c.51.38.91,1.3,1.74,1.88.65.49,1.53.65,2.1,1.25.31.32.47.75.61,1.16.23.96.9,1.56,1.87,1.78,2.25.83,4.46-1.16,6.79-.77.97.12,1.93.4,2.91.4,1.28.03,2.78-.5,3.72.04,1.46.77.03,2.42-.81,3.07-1.43,1.12-2.95,1.25-4.34,2.57-.96.93-1.7,2.83-2.75,3.61-.85.7-1.98.72-3,.96-.9.17-1.65.52-2.2.34-1.05-.47-1.35-1.8-1.98-2.69-.7-1.14-1.74-.26-2.61.13-1.21.64-2.62.78-3.59,1.42-1.39.94-2.6,2.76-4.43,1.78-.92-.4-1.82-.99-2.78-1.28-1.14-.35-2.16-.29-2.82-.77-1.86-1.59-1.56-5.11-2.67-7.47-.51-1.14-1.78-1.77-2.26-2.89-.52-2.79,3.79-2.37,5.47-3.02.95-.29,1.7-.93,2.57-1.36,1.49-.81,3.22-.1,4.8-.02,1.52.11,2.69-.72,3.59-.19l.08.05ZM357.51,157.62c.19.25.54.26.86.25,2.59-.14,8.11-2.02,8.85-4.12.22-.5.02-2.34-.81-1.9-.31.23-.66.75-1.15,1.09-2.06,1.22-4.26,2.27-6.55,3.02-.89.13-1.62.61-1.24,1.58l.06.09Z"/>
    <path class="cls-1" d="M464.35,141.51c.57.55.72,1.51.77,2.35.26,6.66,2.91,13.3,3.77,20.02-.01.29-.05.53-.16.77-.3.69-1.51.65-1.77,1.06-.26.59.05,1.37-.16,2-.13.72-.99,1.28-1.81,1.1-.62-.09-1.5-.63-2.05-.71-.83-.2-1.68.11-2.53.1-2.46.02-8.72-4.82-7.88-7.79.47-1.99,1.83-5.82,3.37-6.31.45-.15,1.08-.05,1.19.47.12.45-.29,1.21-.33,1.59-.02.22.19.3.59.21.68-.16,1.44-.79,1.78-1.45,1.59-3.47-1.76-8.2-.49-11.98.61-2.76,3.79-2.97,5.62-1.52l.09.08Z"/>
    <path class="cls-1" d="M437.35,148.72c2.82-.1,6.84,1.72,7.53,4.51.16.69.23,1.48.48,2.13.28.84.9,1.48,1.24,2.29.4.86.26,2.21.45,3.27.1.76.31,1.51.16,2.27-.94,3.22-5.1,3.98-6.15.28-.75-2.67-.37-4.56-1.79-6.65-1.16-2.02-2.29-.7-3.72.18-1.09.7-3.59,1.24-2.9,1.7,2.06.85.66,1.89-.36,2.96-1.47,1.2-2.08,3.24-3.7,4.12-.84.35-1.42-.4-2.1-.76-.94-.6-2.48.16-3.14-1.09-1.29-3.66-.31-9.15,4.16-10.13,1.33-.3,2.21-1.31,3.44-1.69.9-.17,1.78.84,2.28.65.8-.47.99-1.72,1.54-2.47.89-1.37,1.59-1.46,2.48-1.58h.09Z"/>
    <path class="cls-1" d="M219.09,148.08c3.86,2.76,3.91-1.1,7.03-1.39,1.71.02,2.99,1.55,4.32,2.41,1.4.94,2.89,1.78,3.38,3.5.51,2.13,3.06,8.52.23,9.69-2.39.5-2.04-2.55-2.74-4.18-.59-1.66-1.65-3.76-3.19-4.24-1.62-.53-3.11.87-3.71,2.3-.75,1.97-1.71,4.31-3.49,1.64-.83-1.16-3.54-9-5.37-6.68-.96,2.03-1.44,4.45-2.93,6.21-1.93,2.47-4.06.49-5.06-2.03-.67-1.79-2.11-5.36-1.38-6.81,1.07-1.04,2.67,1.31,3.51,1.88,1.77,1.6,1.91-1.22,2.21-2.42.6-3.12,3.68-4.55,5.4-2.39.62.76,1.01,1.79,1.72,2.43l.07.06Z"/>
    <path class="cls-1" d="M285.55,147.32c.98.84.75,2.8,1.85,3.63.67.57,1.62.59,2.44.81,1.01.2,1.48,1.02,2.06,1.72.75.7,2.18.7,3.29.81,2.22.04,1.69-3.36,2.92-4.66.78-1.44,4.01-3.53,5.02-1.86.19.35.23.86.17,1.47-.62,4.02-2.42,10.35-4.64,12.9-2.86,2.21-6.32-6.2-9.54-1.97-1.1,1.82-3.24,3.83-5.49,2.55-3.71-2.07-1.95-8.78-1.76-13.44-.11-1.98,1.88-3.23,3.58-2.05l.1.09Z"/>
    <path class="cls-1" d="M182.64,144.49c-1.5-1.62-.68-5.66-2.72-7.16-3.47-1.45-8.03,1.79-9.39,5.25-1.38,2.71.86,2.96,3.15,3.05,2.88-.04,3.77,1.7,1.9,3.7-1.41,1.15-4.01,1.04-5.36,2.33-1.75,1.67-.72,4.63.11,6.53.47.98,1.25,1.77,1.13,2.71-.1.23-.14.2-.27.27-2.43.04-3.68-3.76-4.86-5.74-.8-1.72-2.3-2.52-3.9-3.73-.83-.71-2.07-1.87-1.42-3.02.58-.92,2.52-1.14,3.35-2.14.73-.79.86-1.92,1.04-2.98.41-3.18,1.97-6.04,4.36-7.93.89-.45,1.78-.53,2.63-1.13,1.15-1.14,2.9-1.91,4.65-1.58,3.36.28,5.3,2.82,6.01,6.24.45,1.24.59,5.07-.35,5.34h-.05Z"/>
    <path class="cls-1" d="M62.72,140.51c1.67.78-1.53,11.71-2.32,12.9-.61,1.07-1.28,1.78-1.88,2.82-.99,1.9-1.71,3.92-4.2,3.08-1.83-.48-3.62-2.18-4.62-3.71-.55-.75-1.25-2.13-1.84-2.15-2,.35-3.67,3.34-5.66,4.16-1.22.58-2.35.04-3.42-.98-2.01-1.92-2.62-4.77-2.43-7.66.04-1.2.93-2.98,2.04-1.47.92,1.18,1.05,3.67,1.88,5.2,1.07,2.08,2.45,1.28,3.03-.85.77-3.17,2.57-7.55,6.65-5.89,2.46,1.07,2.82,4.59,4.31,6.87.82,1.34,1.79,1.14,2.33-.25,1.42-2.75,2.52-11.43,6.05-12.1l.07.02Z"/>
    <path class="cls-1" d="M414.14,154.54c3.98,1.77,3.87,6.78,6.34,9.83.63.8,1.42,1.58,1.55,2.61-.16,2.13-2.69,1-4.33.13-3.14-1.68-3.32-4.16-6.27-.83-1.05.99-1.72.32-2.49-.53-1.66-1.5-1.79-.13-1.38,1.33.09.45-.27.66-.96.46-2.11-.63-6.25-4.52-5.55-8.02.36-2.03,2.34-4.02,4.42-3.94,1.18,0,2.28.84,3.1,1.25,1.31.63,1.35-.59.51-1.47-.34-.38-.84-.73-1.36-1.03-.88-.59-2.47-1.19-2.18-2.37,1.5-1.83,6.34,1.42,8.45,2.48l.15.09Z"/>
    <path class="cls-1" d="M270.95,136.63c1.49.48,3.04.56,4.4,1.37,2.24,1.65,1.87,4.77-1.05,3.83-1-.26-2.11-.97-3.1-.85-1.2.11-2.48,1.57-2.22,2.87.12.85.96,1.72,1.68,2.38,3.94,3.58,9.43,9.67,7.03,14.87-.92,1.3-3.31,1.51-5.46,1.9-1.3.17-2.71.35-3.93-.16-1.52-.84-2.91-1.65-4.44-2.46-.65-.39-1.27-.99-1.33-1.77-.2-2.46,7.64.3,9.57-.96,2.64-.96.78-4.86-.84-6.6-1.29-1.2-2.77-.93-4.14-2.1-1.41-1.4-3.05-3.23-2.94-5.3.12-1.82,1.99-3.62,3.49-5.04.82-.8,2.16-2.29,3.17-2.01l.1.02Z"/>
    <path class="cls-1" d="M92.19,142.77c3.33,3.07,5.06,10.84,3.13,15.09-.51,1.17-1.84,1.75-2.95,1.08-2.11-1.04-1.14-4.64-2.7-5.87-1.1-.59-1.74,1.06-2.27,1.86-.51.91-1.43,1.91-2.51,1.89-1.27-.1-1.77-1.27-2.12-2.33-1.12-3.58-2.45-7.98.41-11.05,1.14-1.29,2.55-.06,3.92-.34,1.49-.33,3.47-1.76,4.97-.42l.12.09Z"/>
    <path class="cls-1" d="M115.54,143.04c1.22,1.11,1.46,4.35,2.72,4.86,1.2.22,1.77-1.49,2.54-2.22,1.75-2.42,4.91-2.3,7.27-3.29,1.41-.44,3.69-.7,4.45.87.35.7.38,1.51.78,2.17.35.72,1.06,1.08.82,1.59-.73.61-1.87.28-2.77.41-1.63.09-2.83,1.28-4.88,1.34-.93.06-1.94.05-2.84.31-1.79.42-2.44,2.25-2.46,3.92-.09,2.51-.14,4.65-1.83,6.17-.79.77-2.34,1.64-2.96.26-.4-.81-.36-2.15-.79-3.06-.43-1.04-1.26-1.75-1.83-2.7-.64-.99-.87-2.37-1.23-3.64-.54-2.05-1.23-4.26-.83-6.45.28-1.8,2.49-1.99,3.73-.67l.11.11Z"/>
    <path class="cls-1" d="M392.59,141.48c1.02.23,1.31,1.11,1.4,2.15.72,6.54-.32,13.17.14,19.76.04.81-.01,1.93-.57,2.41-.8.65-2.01-.52-2.75-.85-.87-.52-1.81-.78-2.01-1.87-.97-4.7-1.68-16.11-.57-20.81.92-2.36,2.42-1.54,4.26-.82l.09.03Z"/>
    <path class="cls-1" d="M21.1,110.06c-.94,0-2.07-1.52-2.59-2.47-.82-1.35-1.71-4.2-3-1.46-1.07,2.05-2.25,5.79-3.31,7.21-.97.87-1.95-2.95-2.44-3.83-.63-1.32-1.02-3.01-2.24-3.79-1.46-.24-.8,5.22-.92,6.78.12,3.69-.9,4.41-2.03,1.24-1.09-3.24-1.71-6.6-1.99-10.05,0-.5-.17-1.23.12-1.54.36-.22,1.07,2.17,1.91,1.94,1.09-.38,1.45-3.77,2.86-3.2,1.22.58,3.25,5.28,4.24,3.95.67-1.7,2.1-3,2.54-4.44.38-1.05-.01-2.68.96-3.44,1.41-.68,3.7,5.24,4.55,7.19.44,1.36,2.35,5.38,1.41,5.9h-.06Z"/>
    <path class="cls-1" d="M38.92,116.12c-1.21-.24-2.09-1.52-2.42-2.67-.46-1.42-.17-3.44-.76-4.35-.47-.83-1.68-.84-2.67-.86-3.96.05-8.14-2.09-8.86-6.28-.41-2.78.92-1.8,2.78-.09,1.49,1.27,4.25,2.53,6.07,1.54,2.27-1.45,1.83-5.19,3.02-7.37.66-1.19,1.79-1.4,2.28-.45,1.31,4.11,1.49,14.89,1.42,19.27-.02.55-.17,1.3-.77,1.27h-.08Z"/>
    <path class="cls-1" d="M76.62,145.56c-.91,2.28-4.8,2.34-6.4,4.34-.8.91-.59,2.3.55,2.82,2.77,1.13,5.86.18,8.69-.02,3.15.06-.12,2.98-1.41,3.46-1.9.93-3.69.11-5.63.55-1.87.31-3.05-.34-4.65-.65-2.03-.24-2.83-2.12-2.67-3.98.04-1.65,1.12-2.86,1.64-4.36.53-1.27.26-2.76,1.24-3.81,1.23-1.1,5.74-4.52,7.32-3.21,1.06.85,1.87,3.23,1.37,4.73l-.05.14Z"/>
    <path class="cls-1" d="M18.3,151.42c.44-.64.8-1.97,1.09-2.9.68-1.73,2.35-3.15,4.03-3.74,7.11-2.13,11.4,5.98,5.38,10.62-2.78,2.11-8.02,3.35-9.5-.35-.47-.92-1.42-2.78-1.04-3.54l.04-.09ZM27.95,150.91c-.11-3.15-4.71-3.56-5.32-.44-.58,3.83,5.07,4.39,5.32.59v-.15Z"/>
    <path class="cls-1" d="M15.8,142.24c.87,1.56-1.67,1.75-2.73,1.77-2.75.17-5.38,1.47-7.02,3.73-.81,1.03-1.44,2.82.06,3.53,2.06.89,5.22,1.17,7.51,1.81.87.24,1.8.47,2.31,1.24,1.31,3.23-1.86,8.44-5.24,9.56-1.38.39-1.42-.83-.87-1.74.9-1.88,4.11-4.16,2.61-6.36-1.31-.97-3.29-.76-4.93-1.07-1.7-.29-3.84-.11-4.68-1.53-1.99-5.79,5.19-11.76,10.76-11.8.78-.04,1.71.21,2.16.77l.07.09Z"/>
    <path class="cls-1" d="M193.32,146.83c1.21,3.17-5.73,4.03-6.78,6.44-.53.93-.71,2.26-.77,3.62-.03,1.31.11,2.46-.53,2.95-.56.48-1.44.48-2.08.17-.74-.33-.91-1.14-1.37-2.5-.92-2.8-2.54-7.42-3.08-9.29-.26-1.02.27-1.07,1.1-.73.77.28,1.72.55,2.57.33,1.52-.34,2.5-1.88,3.99-2.28,1.31-.37,3.15.26,4.83.49.7.13,1.55.26,2.05.73l.07.08Z"/>
    <path class="cls-1" d="M200.63,148.15c3.33,3.23-.24,12.3-4.18,11.43-3.76-.36-3.91-8.74-.66-9.69.18-.01.3.12.41.24.41.89,0,2.17.27,3.12.31,1.65,1.62.38,1.91-2.27.08-1.3.12-3.95,2.13-2.9l.12.07Z"/>
    <path class="cls-1" d="M104.27,155.75c-.31-.73-.16-1.59-.47-2.36-.73-2.16-2.55-3.91-2.28-6.36.12-1.23.72-2.69,2.03-2.46,3.7,1.04,7.01,10.11,4.36,12.15-.72.25-1.48-.05-2.36-.24-.57-.15-1.01-.34-1.21-.63l-.06-.1Z"/>
    <path class="cls-1" d="M102.07,135.81c1.3.9,3.84,4.25,3.23,5.56-1.1,1.25-3.43.01-4.85.05-1.93-.17-4.33.96-5.89-.89-.58-.92.16-2.04.64-2.89,1.34-2.56,4.23-3.45,6.73-1.91l.14.09Z"/>
    <path class="cls-1" d="M304.94,121.25c1.45,1.02,2.4,2.99,2.69,4.76.28,1.1-.58,1.41-1.48,1.79-.61.24-.99.48-1.5.33-1.54-.69-3.23-6.49-2.67-7.77.69-.88,2.14.31,2.82.79l.13.1Z"/>
    <path class="cls-1" d="M295.95,120.39c.37,1.72.17,3.5.07,5.3-.55,5.93-3.09,3.99-3.31-2.3-.04-1.07-.01-2.41.08-3.36.06-.83.5-.74,1.36-.48.68.25,1.28.28,1.73.75l.06.1Z"/>
    <path class="cls-1" d="M284.06,128.25c-.33.07-.23-.45-.34-1.21-.09-.9-.18-1.79-.28-2.82-.09-1.85-.6-3.77-.25-4.13.46-.1,1.33,0,1.85,0,1.28,0,2.02,1.29,1.93,2.45.06,2.28-.4,4.7-2.82,5.68l-.09.02Z"/>
    <path class="cls-1" d="M127.73,96.87c1.38,1.58,1.08,5.04,1.31,7.42,0,1.84.56,4.42,2.68,2.06,1.78-2.27,3.24-4.29,6.46-3.65,1.85.19,3.53.93,4.14,2.83.51,1.64.77,3.67.32,5.3-.41,1.41-2.25,2.5-3.18,1.01-.8-1.23-.27-3.47-.73-4.88-.77-2.24-2.82-.24-3.74,1.09-1.32,1.9-1.8,4.39-3.23,6.23-1.4,1.82-4.02.66-5.29-.69-1.12-1.27-1.07-3.65-1.76-5.18-.28-.69-.73-.6-1.49-.34-5.47,1.32-1.58,4.43-3.15,7.6-.61.83-1.79.65-2.59.14-2.15-1.23-2.86-4.92-4.3-5.93-.97-.67-2.32-.65-3.26-1.4-.94-.65-1.18-2.02-.25-2.76,1.02-.73,2.59-.73,3.42-1.79,1.19-1.38.82-4.28,2.58-5.44,1.03-.85,2.45-.98,3.06.53.67,1.37.36,3.27,1.33,4.51,1.17,1.32,4.07.81,4.76-.93.69-1.26,1.03-5.96,2.82-5.77l.07.03Z"/>
    <path class="cls-1" d="M269.63,94.09c.94.96.31,2.73.75,4.29.26,1.26,1.22,2.15,2.24,2.84,2.27,1.39.75,2.49-.69,3.73-2.3,1.81-2.07,4.81-2.73,7.38-.53,2.52-2.44,5.38-2.74,7.53.01,1.16.52,2.46-.85,3.08-.63.36-1.4.3-1.98-.09-.95-.76-1.93-.97-2.85-1.47-.65-.83-.13-2.14-.05-3.22.46-2.63,1.09-6.02,1.95-7.99.26-.67.63-1.36.67-2.06.03-.97-.69-1.66-.94-2.57-.42-1.6-.2-3.63.81-4.91.99-1.17,2.14-2.33,2.8-3.75.59-1.44,1.65-4.24,3.51-2.9l.09.08Z"/>
    <path class="cls-1" d="M252.91,94.22c.44.51.35,1.35.85,1.93.61.82,3.53,1.03,2.96,2.2-.82.66-2.02.08-2.98.02-1.9-.33-3.5,2.58-3.43,3.85.08.48.51.66.97.78,1.16.24,2.48.23,3.69.36,1.3.16,4.22.33,4.14,1.65-1.28,1.67-5.7,2.33-7.97,2.54-1.03.14-2.25-.19-2.92.64-.37,1.01.76,2.57,1.93,4.02,1.29,1.56,2.5,2.41,2.08,3.77-.48,1.13-2.09,2.21-3.24,1.4-.94-.65-1.23-1.98-1.94-2.83-.73-.93-1.75-.43-2.96-1.31-.51-.38-.97-1-1.31-1.57-.64-1.05-.85-2.04-.6-2.88.17-.82.79-1.53.48-2.36-.45-.88-1.33-1.19-2.05-1.86-1.25-1.02-1.72-2.56-.07-3.08,1.95-.32,4.61,0,5.58-2.42.25-.49.5-1.08.83-1.46.44-.54,1.03-.58,1.62-.82,1.4-.38,2.35-4.06,4.27-2.63l.07.07Z"/>
    <path class="cls-1" d="M220.96,99.37c-.83.51-1.93.67-2.2,1.8-.44,1.72-1.05,4.92-1.05,6,.02.59.48.66,1.02.57.92-.15,2.05-.36,3.04-.43.9-.13,2.48-.25,2.28-1.06-.24-.44-1.02-.73-1.23-1.21-.11-.55.4-1.1.65-1.58.71-1.06,1.51-2.22,2.73-1.8,2.44,1.17,2.26,5.41,2.24,7.77-.15,3.86,2.09,7.5-.3,10.16-1.32,1.56-3.17,2.04-5.26,1.94-1.53-.16-4.24.13-5.13-1.11-.51-.7-.22-1.65.44-2.15,1.08-.95,3.76-.71,4.8-1.45.62-.4.82-1.06.97-1.79.01-.86,1.37-5.85.1-5.59-.75.17-1.53.74-2.35.7-1.25-.05-2.05-.58-3.37-.47-3.1.51-5.84-2.92-4.56-5.82.5-1.31,2.23-2.25,2.68-3.26.43-.8.06-1.87.88-2.47.67-.48,1.64-.7,2.47-.73,1.45-.07,2.12,1.25,1.24,1.91l-.08.06Z"/>
    <path class="cls-1" d="M195.95,99.25c.48.46.48,1.26.5,1.94-.07,5.22-.03,15.29-4.02,18.65-1.54,1.09-5.4.64-4.99-1.87.31-1.94,2.4-6.06,2.39-7.62-.12-.53-.77-.51-1.23-.61-1.56-.24-3.02-1.1-4.42-1.78-.64-.41-.91-.69-1.35-1.29-.48-.55-2.26-4.15-.29-3.11,1.25.87,2.75,1.5,4.18,2.07.8.39,1.51.61,2.36.07.99-.66,1.95-1.66,2.32-2.82.45-1.35-.82-3-.2-3.76.52-.53,1.37-.43,2.08-.47.84,0,1.99.05,2.58.52l.08.07Z"/>
    <path class="cls-1" d="M12.45,56.22c1.8,2.77.31,6.31-2.26,8.17-1.42.95-2.13,2.32-1.38,3.95.55,1.4.86,2.91.98,4.45.14,1.66.35,2.88-.89,3.45-.45.25-1.04.43-1.51.52-.42.09-.68.13-.99-.19-2.83-4.65-3.64-17.78-3.09-21.51.4-.59.94-.35,1.86-.33,1.84.39,5.71.09,7.19,1.39l.09.1Z"/>
    <path class="cls-1" d="M73.38,102.52c2.02,1.07,5.73.57,8.14,1.69,2.56,1.85,1.48,6.7-1.19,8-1.05.8-3.05.1-3.52.46-.37.28-.43.77-.71,1.14-.69,1.02-2.01.67-2.96-.1-.8-.61-1.16-1.53-1.39-2.5-1.2-5.37-2.45-10.62-2.17-16.22.08-1.68,1.15-2.74,2.18-.92,1.17,1.99,1.09,5.91,1.22,7.47.04.34.1.68.32.92l.06.06Z"/>
    <path class="cls-1" d="M135.39,54.47c1.26,1.39-.07,5.24,1.94,6.69.71.64,1.61,1.15,2.36,1.77,1.81,1.49,3.65,4.87,2.42,7.2-.94,1.31-3.22,1.12-4.73,1-1.52-.26-2.36.97-3.62,1.6-1.82.91-4.27,1-6.02.06-.99-.53-2.15-1.71-2.49-2.5-.33-.74.25-1.02,1.54-1.11,1.17-.08,2.59-.29,3.96-.63,1.8-.43,9.05-2.31,5.52-4.75-1.09-.58-2.34-.9-3.4-1.55-2.83-1.56-4.05-4.43-1.2-6.61.95-.79,2.64-2.01,3.66-1.25l.08.07Z"/>
    <path class="cls-1" d="M155.64,95.4c.96,1.31,1.77,3.02,2.15,4.64.41,1.79.09,3.6.53,4.98.32,1.1,1.12,1.97,1.43,3.08.64,1.86-.48,4.04-2.61,3-1.32-.58-2.31-2.09-3.08-3.52-.43-.73-.84-1.18-1.1-1.05-.34.14-.39,1.19-.22,2.33.06,1.91,1.9,4.46,1.43,6.07-.25.57-.63.72-1.18.75-2.24-.17-3.3-2.87-5.07-4.03-1.37-1.18-1.59-3.7-.96-5.43.71-1.44,2.78-2.74,4.29-2.75.75.02,1.04.29,1.12-.44.09-1.78-.42-4.03-.33-5.87.11-2.09,2.36-3.12,3.5-1.85l.09.1Z"/>
    <path class="cls-1" d="M90.78,57.61c1.45.91,2.9.94,4.46,2.03,1.58,1.23,2.42,3.72,1.98,5.61-.36,1.55-2.3,1.98-3.93,2.35-1.46.49-3.07.29-4.14-.44-.44-.25-.78.03-.99.35-.56.94-1.37,1.5-2.46.88-1.21-.58-2.26-1.41-2.87-2.52-.68-1.29-.98-2.62.2-3.06,1.4-.47,1.14-2.18,2.03-3.16,1.32-1.57,3.5-3.1,5.58-2.1l.13.06Z"/>
    <path class="cls-1" d="M118.2,56.88c.85.33,2.26,1.29,3.39,1.85.47.26.86.61.88,1.18,0,1.29-.99,3.57-1.4,5.05-.56,1.83-1.08,3-2.22,3.55-3.86,1.64-8.32-.28-11.99-1.86-.68-.47-1.06-1.31-1.33-2.1-.34-1.12-.95-2.56-.97-3.43.16-2,2.34-.17,3.47,1.09.81.86,1.52,1.89,2.61,2.38,1.26.42,3.16,1.02,4.13.41,1.14-1.37,1.05-4.18,1.64-6.17.23-.82.59-2.35,1.7-1.98l.1.03Z"/>
    <path class="cls-1" d="M24.4,60.92c-.5,1.19.23,3.4.1,4.97.05,1.97-.61,4.48-2.85,4.53-3.25,0-4.91-7.17-4.69-11.13.04-1.07.89-1.96,1.94-1.49,1.68.84,3.03,2.17,4.81.63.87-.74,1.08-2.03,2.16-2.8.83-.66,2.22-.76,3.04-.1,1.7,1.69-1.1,3.38-2.77,4.24-.81.42-1.4.69-1.66,1.07l-.05.08Z"/>
    <path class="cls-1" d="M43.4,55.99c1.37.87,4.02,1.8,3.02,3.85-.77,2.02-8.06,1.55-6.1,5.2,1.42,1.55-.38,4.44-2.31,3.46-2.96-1.86-5.1-6.05-2.07-8.84,1.82-2.02,2.48-3.98,5.06-4.16.78-.09,1.57.08,2.26.41l.14.07Z"/>
    <path class="cls-1" d="M96.27,106.47c.75.39,1.61-.47,2.75-1.06,2.46-1.3,6.94-1.59,6.82,1-.29,1.93-2.74,1.92-4.23,2.46-2.93.64-2.73,4.22-4.88,5.8-3.44,2.72-4.48-2.36-3.83-6.44.31-1.49.44-2.73,1.38-3.37.56-.19,1.11,1.07,1.88,1.53l.11.06Z"/>
    <path class="cls-1" d="M58.03,65.19c.14.36.44.5.85.58,1.34.18,4.02-.13,5.57.6.85.36,1.71,1.1.41,1.57-.78.27-1.43.71-2.2,1.02-.64.22-1.63.12-2.75-.06-2.02-.41-5.02-.34-5.54-2.68-.87-3.87,1.58-7.69,4.53-10.27.44-.38.98-.79,1.52-.77,1.27.04,1.9,2.29,1.27,3.41-.46.98-1.56,1.77-2.2,2.73-.76,1.06-1.7,2.9-1.5,3.8l.03.1Z"/>
    <path class="cls-1" d="M77.14,60.94c-.04.95-.37,2.62,0,3.8.21,1.01.55,2.02.79,3.02.14.59.15,1-.28,1.11-.95.15-2.1-.1-3.07-.13-1.11-.03-1.67-.37-2.02-1.33-.9-2.16-2.29-3.85-1.36-6.3.51-1.56,1.53-1.27,3.28-.98.7.17,2.45.18,2.62.71l.03.09Z"/>
    <path class="cls-1" d="M174.67,103.15c.59,1.82,1.39,3.87,2.82,5.31.58.88,3.21,2.19,1.37,2.95-5.05,1.7-7.34-2.69-8.95-6.97-.26-.95.48-.9,1.45-1.09.96-.06,2.5-.64,3.25-.26l.06.06Z"/>
    <path class="cls-1" d="M166.22,103.6c.36,1.04-1.44,2.97-.11,4.67,1.81,2.3,4.29.65,4.42.83.07.9-.87,2.36-1.17,3.3-.39.82-.78,1.49-1.43,1.05-.42-.3-.76-.79-1.24-1-.94-.31-2.28-.19-2.97-1.1-.36-.37-.54-1.23-.45-1.81.06-1.13,1.4-7.24,2.92-6.03l.03.09Z"/>
    <path class="cls-1" d="M234.29,105.57c1.22,1.6,2.05,3.5,2.38,5.52.17,1.25,1.15,4-1.09,3.46-3.7-.78-5.42-6.52-2.88-9.37.53-.64,1.07-.64,1.51.25l.08.14Z"/>
    <path class="cls-1" d="M89.22,107.08c.28.32.15.86.13,1.8-.07,1.3-.12,2.97-.18,3.55-.04.3-.24.44-.54.51-.72.15-2.15.48-2.88.56-.21,0-.32-.12-.35-.34-.18-1.37-.41-3.49-.59-4.99-.02-.66-.38-1.68.09-2.03,1.26-.85,3.09,0,4.24.86l.07.08Z"/>
    <path class="cls-1" d="M232.5,95.78c2.43,2.36,5.07,2.07,5.89,2.2.78.15.35.98.21,1.51-.51,1.21-.92,4.04-1.85,3.46-.51-.45-.91-1.19-1.49-1.61-1.67-1.16-3.58-1.44-4.89-3.2-.67-.76-.81-1.68.36-2.13.61-.24,1.17-.51,1.69-.29l.09.05Z"/>
    <path class="cls-1" d="M78.96,54.48c.76,2.29-3,.65-4.1.98-1.39.09-2.48,1.37-3.18.9-.37-.31-.62-.77-1.06-1.03-1.12-.55-1.91-.73-1.09-2.06,1.76-3.14,4.92-.58,8.19.46.42.13.9.32,1.16.63l.08.11Z"/>
    <path class="cls-1" d="M88.6,97.42c2.77,2.23-2.52,6.94-4.33,2.69-.45-1.1-.67-2.48-.48-3.59.04-.09.11-.14.2-.16.86.1,3.7.68,4.51.99l.09.06Z"/>
    <path class="cls-1" d="M104.26,4.63c.92.68,2.74.49,4.19.58,3.63.16,4.59.89,5.25,4.21.1.28.21.34.39.2.36-.28.99-1.21,2.1-1.54.7-.23,1.62-.31,2.62-.35,5.21-.2,7.58.59,8.11,6.46.42,2.88.65,5.84.95,8.77.45,4.49-2.15,2.22-4.05.42-3.23-2.4-3.63.41-5.33,2.42-3.5,2.69-8.51.94-9.37-3.63-.88-3.57,1.8-6.72,2.56-10.02.43-2.46-2.92-3.38-4.49-2.33-3.42,3.23-1.91,8.93-1.68,13.06.07,1.66-.67,2.74-2.01,2.15-.96-.46-1.77-1.29-2.83-1.56-1.11-.36-2.57,0-3.44-1.02-.79-.87-1.13-1.94-1.55-3.07-.81-2.19-1.77-4.97-2.59-7.06-.97-2.56-2.94-.98-3.11.99-.02,2.52-.77,5.03-2.12,7.06-.74,1.36-1.51,2.92-2.58,2.69-1.34-.35-1.8-2.15-2.44-3.15-.32-.52-.64-.76-1.08-.67-2,.93-4.3,3.75-6.6,4.62-2.37.92-5.23-.9-6.51-2.97-1.4-3.02-2.43-7.88-2.43-11.61.17-2.68,2.52-4.61,4.66-5.96,3.39-1.63,6.4,1.1,6.91,4.37.78,4.34-2.17,4.45-5.46,5.07-2.11.19-1.78,2.48-1.29,4.02.55,2.19,2.81,3.24,4.6,1.8,1.48-1.08,2.64-2.67,3.73-4.1.97-1.36,1.4-3.18,1.81-5.2.18-1.68,1.18-4.75,3.23-2.88.25.25.47.56.66.88,1.03,1.52.97,4.97,2.19,3.48,1.94-3.25,4.87-7.62,9.19-6.57.98.11,1.94.04,2.67-.65,1.25-1.07,1.8-2.42,2.84-1.6.82.75,1.27,1.99,2.19,2.63l.1.07ZM120.59,12.84c-1.39-1.06-5.27,3.35-6.17,4.3-.96,1.02-3.75,5.86-.55,5.42,2.4-.71,3.23-3.51,5-4.95.53-.47,1.18-.78,1.6-1.35.59-.8.6-2.54.18-3.34l-.06-.08Z"/>
    <path class="cls-1" d="M158.36,5.23c3.04,7.7-2.55,20.45-3.62,28.78-.38,2.3-2.09,2.7-3.42.81-2.05-2.85-.06-8.07.27-11.51.04-.95.05-2.51-1.09-2.58-.99.06-1.31,1.99-2.28,1.95-.29-.09-.39-.23-.57-.43-.7-.84-1.43-2.65-2.08-4.04-1.46-2.6-2.11-7.11-5.35-7.81-2.97-.69-2.34,1.64-2.78,3.58-.4,1.39-1.95,1.96-2.67,3.31-.72,1.24-.96,3.09-2.1,3.95-.62.51-1.54.97-2.31.61-.61-.34-.65-1.14-.65-1.83.1-2.56.42-7.91.57-10.47.2-3.09,2.59-1.85,4.13-.5,1.73,1.42,3.21-1.29,4.59-2.19,1.5-1.48,2.99-1.43,4.55-.26,1.76,1.25,3.68,2.4,4.48,4.47.53,1.07,1.04,3.34,2.44,3.33.96-.43,1-1.86,1.54-2.68.55-1.22,1.5-2,1.64-3.44.1-1.37-.28-2.89.32-4.21,1.5-3.08,3.63-1.3,4.34,1.02l.05.14Z"/>
    <path class="cls-1" d="M179.52,20.46c.17-.02.17-.12.24-.29.15-.52.16-1.18.26-1.8.34-3.3,3.72-6.11,6.73-7.76,1.65-.79,3.09-.29,4.63-.23,1.35-.03,3.02.74,4.26.52.95-.23.99-1.68,1.29-2.5.35-1.26.81-1.84,1.69-2,2.75-.55,2.74,2.31,2.67,4.52.21,4.01-1.34,9.02,4.78,6.71,1.07-.53,2.21-.62,3.36-.44,1.77.17,2.69-.27,3.27,2.12.47,1.33.89,7.62-1.7,5.91-.81-.81-1.36-2.42-2.22-3.16-.77-.75-1.86-.58-2.62.07-2.18,2.49-5.44,4.67-8.9,3.68-4.1-1.17-1.25-4.37-1.03-6.92-.02-1-.31-1.35-.31-2.1.16-1,.18-2.45-.84-2.73-5.04,1.05-12.71,4.18-11.63,10.37.56,2.64,3.97,2.77,6.04,2.05,1.05-.32,2.21-.85,3.05-.84.79,0,1.03.65.81,1.31-.34,1.06-1.48,1.79-2.45,2.36-3.48,2.2-9.99,2.36-10.88-2.49-.22-.87-.02-2.43-.67-2.98-.2-.14-.46-.09-.77.12-.64.4-1.48,1.54-2.53,1.91-3.43,1.07-8.3,1.49-10.7-1.96-.69-2.32,7.09-1.95,8.39-4.17,1.02-1.23.48-2.82-.53-3.7-.76-.79-1.02-1.86-1.14-3-.06-1.04.07-2.24.52-3.19.64-1.36,2.2-1.5,3.74-2.26,1.06-.47,2.63-1.76,3.44-1.56.61.1.79.74.77,1.34-.03,2.27-2.35,3.73-3.11,5.77-.59,1.51-.09,3.11.52,4.55.37.87.89,2.39,1.52,2.74h.04Z"/>
    <path class="cls-1" d="M310.09,2.44c.74.97.71,2.13.37,3.25-.83,2.68-1.78,5.77-4.1,7.7-1.29,1.19-3.12,1.77-4.15,3.22-2.43,3.82,2.86,3.3,5.48,2.82,1.4-.29,2.26-1.2,3.19-2.2,2.87-3.11,7.65-6.76,9.54-4.03.6.85.55,2.04.03,2.92-1.01,1.71-3.31,2.69-5,3.8-3.24,1.9-6.57,3.49-10.24,4.35-4.54,1.27-3.73-.75-6.45-2.97-.9-.61-1.57-1.41-1.8-2.5-.59-2.6-.59-7.62-.26-10.97.26-1.98.44-3.95,2.28-4.63,1.07-.31,1.96.33,3.03-.46,3.18-2.93,4.51-4.16,7.99-.41l.08.11Z"/>
    <path class="cls-1" d="M291.14,35.94c-1.15.76-2.63.59-3.86,1.08-1.3.53-2.7,2.26-4.46,1.95-1.96.08-5.43-4.37-2.03-4.66,1.58-.06,3.67.61,4.73-.93,2.29-2.96,5.03-10.95,5.04-14.79,0-.69-.06-1.55-.85-1.65-1.01-.12-3.62.81-5.38.24-1.68-.34-3.44-1.73-3.28-3.42.12-1.37.93-2.43,1.24-3.91.19-.81.38-1.71.95-2.34.88-1,2.36-1.05,3.63-.83,2.59.33,4.76,1.64,5.79,4.21.78,1.78,1.17,3.75,1.83,6.28.38,1.77,1.12,3.81,1.09,5.54-.21,1.81-1.53,3.32-1.73,5.17-.45,2.61-.21,6.21-2.58,7.97l-.14.09Z"/>
    <path class="cls-1" d="M274.26,9.55c1.25,1.77,1.71,3.94,3.15,5.58,1.18,1.51,3.31,3,3.29,4.05-.25,1.36-2.24.92-3.25.64-.98-.2-2.35-1.31-3.14-.94-.56.32-.59,1.97-1.27,3.35-1.86,4-8.37,5.6-11.09,1.7-1.83-2.59-.74-5.87-.09-8.68.33-2.85,2.42-4.96,4.27-6.99,2.78-3.79,5.53-2.15,8.02,1.15l.1.14ZM271.09,9.16c0-.12-.16.03-.49.39-1.08,1.19-2.39,2.63-3.51,3.85-1.02,1.1-.97,1.05-1.11,2.54-.19,1.91-.41,4.15-.6,6.01-.07.64-.02,1.05.29,1.15.89.19,1.77-.99,2.07-1.8,1.53-3.8,1.77-8.21,3.35-12.1v-.05Z"/>
    <path class="cls-1" d="M62.15,22.44c-.62-.54-.82-1.56-.97-2.39-.37-2.32-.59-4.75-1.47-6.86-.31-.72-1.14-2.66-1.91-1.32-1.02,2.64-1.9,7.52-3.52,8.83-2.4,1.47-2.15-5.24-3.06-6.4-.9-1.9-2.9-1.9-3.93-.03-1.15,1.81-1.62,4.49-3.54,5.68-.56.35-1.19.52-1.67.04-.34-.36-.5-.97-.59-1.52-.32-2.35-.85-6.8-1.12-9.17-.15-1.04.05-3.26,1.47-2.12.81.72,1.08,2.27,1.58,3.23,1.14,2.12,2.67-1.09,3.7-2.35,1.23-1.8,2.86.39,3.97,1.29,1.82,1.61,2.71,2.91,4.17.07,1.58-2.33,2.89-7.21,6.12-3.36.39.46.68.97.92,1.53,1.23,2.94,2.87,9.02,2.2,12.59-.32,1.68-1.3,2.95-2.26,2.33l-.08-.06Z"/>
    <path class="cls-1" d="M9.74,3.24c6.84,4.18,3.72,12.12-4.15,11.75-.66,0-1.17.02-1.64.37-1.12.93-.36,2.48,1.22,2.07,1.78-.22,4.26-1.02,5.91-.98,2.55.39,1.61,3.52-.48,4.24C2.28,24.73-2.19,16.67,1.07,9.1,2.57,5.96,5.88,1.68,9.61,3.17l.14.07ZM10.74,9.34c-1.06-6.2-7.27,2.13-6.48,2.65,1.55-.53,3.57-1.35,5.12-1.92.8-.34,1.31-.4,1.35-.65v-.08Z"/>
    <path class="cls-1" d="M240.97,13.62c2.84,4.73,1.26,7.51-4.05,9.11-.86.37-2.03.36-2.86.34-.75.04-1.35.09-2.07-.08-.76-.13-1.85-.92-2.96-.94-.86-.1-2.8.81-2.39-.81.33-1.03,1.8-1.3,2.01-2.15.19-.55.04-1.53,0-2.22-.75-6.39,8.99-8.03,12.25-3.37l.08.12Z"/>
    <path class="cls-1" d="M245.8,5.24c1.5.85,1.42,4.37,1.48,6.52.13,1.35,1.08,1.67,1.81,2.66,2.37,3.45.87,7.8,1.02,11.69,0,.53-.03,1.16-.17,1.6-1.02,3.42-4.53-.47-4.88-2.51-.68-3.08-1.77-10.54-2.13-14.01-.24-1.94-.09-6.92,2.77-6.01l.1.06Z"/>
    <path class="cls-1" d="M33.69,5.02c2.39,1.91,2.09,5.67-.86,6.81-1.55.9-4.85-.06-4.43,2.06,1.5,3.45,6.18,2.61,8.88,4.07,1.86,2-4.3,2.3-5.38,2.01-5.4-.73-9.36-7.99-6.34-12.38,1.63-2.41,5.29-4.79,7.99-2.69l.13.11Z"/>
    <path class="cls-1" d="M222.89,22.24c-.51.25-1.39.05-1.76.41-.22.17-.38.39-.67.48-.73.14-1.66.06-2.17.71-.24.25-.46.51-.72.59-2.67-.07-3.4-8.51-1.21-11.16,1.13-1.59,3.39-1.56,5-.75,3.23,1.54,2.92,5.12,2.26,8.44-.1.46-.24.98-.62,1.23l-.1.06Z"/>
    <path class="cls-1" d="M20.88,18.84c-3.49.05-3.61-4.38-3.36-6.96.23-3.56.32-7.89.76-10.11.84-2.63,3.15.54,3.13,2.01.02,1.66,0,7.55,0,11.42-.11,1.05.33,3.49-.46,3.61l-.09.02Z"/>
  </g>
</svg>