<?xml version="1.0" encoding="UTF-8"?>
<svg id="Layer_2" data-name="Layer 2" xmlns="http://www.w3.org/2000/svg" viewBox="0 0 807.34 249.12">
  <defs>
    <style>
      .cls-1 {
        fill: #606060;
      }
    </style>
  </defs>
  <g id="Layer_1-2" data-name="Layer 1">
    <path class="cls-1" d="M380.19,72.9l-3.06,10.08c2.95-1.27,3.54-3.29,7.28-2.18l.05,1.99-3.33.42,3.38,1.57c-2.6-.6-6.23-1.61-6.61,2.18,4.32.68,6.79-3.16,10.57-3.6.39,1.8-.48,7.21-2.13,8.05-2.18,1.11-.22-4.37-.45-4.65-2.31,2.29-5.86,2.07-8.55,3.25-.69.3-1.29,1.58-1.66,1.68-1.97.52-1.88-3.47-1.78-4.62-2.56,1.4-8.45,5.85-11.18,4.64-.6-.27-1.09-1.38-1.82-1.51-1.91-.33-6.82,3.6-5.69-3.97l-6.86,2.81c-1.89-.5-.96-5.66-1.27-7.27-2.06.83-1.7,3.15-2.82,4.79-2.52,3.71-7.02,4.16-10.31,1.14.15-2.52,1.51-4.89,1.74-7.39.13-1.44-1.45-3.53.26-4.24,3.43-1.43,1.39,6.13,1.84,6.61,1.46.09,2.23-1.25,3.68-1.43,1.15-.14,2.27.52,3.21.4,1.15-.15,2.24-1.7,3.96-1.2s1.06,3.83,1.23,5.25c2.01-1.35,4.42-2.08,6.52-3.22.84-.45,2.65-3.4,3.99-1.7s-2.44,3.9-2.86,6.03c-.97,5.02,7.27-3.01,8.6-3.22.57-.09,3.24.31,3.73.58l1.02,2.32c4.53-2.99,5.66-8.38,6.74-13.43l2.59-.14Z"/>
    <path class="cls-1" d="M436.49,58.08l-2.07-.33-1.32-2.24c-.94,3.85-9.01,10.02-9.93,3.59-1.45.13-2.01,1.31-3.61,1.49-2.41.28-3.53-1.18-4.59-1.14-2.27.1-5.99,2.88-9.09,1.44,1.39.61,3.82,4.04.42,3.33-4.31-.9-2.52-11.38-2.05-14.63-2.89,2.79-3.13,15.12-9.01,9.79l1.13-4.91-2.56.17c-1.7,7.06-7.07,1.27-3.82-3.3,2.4-3.39,4.59.65,6.15,1.03,5.05,1.21,8.14-5.56,9.25-9.69l1.99-.51-1.62,14.05c2.5-1.77,6.18-7.1,9.48-6.93,1.72,3.38-2.11,3.29-4.44,4.91-.71.5-3.65,3.79-2.96,4.63,2.08-1.15,5.29-.68,7.25-1.89,2.22-1.37,2.83-6.91,6.53-6.47.97,3.58-2.38,5.08-3.11,8.08,2.92.38,10.29-7.85,11.45-7.64,4.34.79-4.52,6.38-4.11,8.1,1.19.85,6.41-4.47,6.85-5.52.75-1.8.35-13.47,3.66-13.41,2.96,3.79-1.17,8.09-.98,12.61.08,1.87,1.36,3.42,1.11,5.37Z"/>
    <path class="cls-1" d="M93.33,224.45c1.42-.77,4.53-7.81,6.6-5.11,1.12,2.22.58,4.03.1,6.27l5.17-.93c-.23-3.2,7.53-6.77,7.3-3.16-.85,2.23-2.66,4.24-5.13,4.58,2.75,4.86,8.52-6.87,10.54-4.95l-.23,4c2.09-2.34,2.84-6.72,6.84-6.18l.09,3.33,4.62-1.45.14,4.66c1.25-.53,1.69-1.08,2.65.26l-3.47,3.72c-2.49-1.3-1.76-3-1.22-5.26l-4.87,2.17-1.8-2.66-4.27,6.69-1.94-.51-.41-3.34c-2.33.85-4.5,4.62-7.26,3.22-1.5-.76-.89-3.91-5.51-1.53-.84.44-.79,1.41-1.13,1.66-3.69,2.61-2.35-5.7-2.22-7.6-1.59,1.31-2.08,3.73-3.82,5.13-4.58,3.7-3.15-3.59-3.2-6.28-2.07,1.51-8.94,10.85-11.05,10.29-2.34-.63-.21-11.03.99-12.69,3.11-.76.59,7.25.56,8.65l10.74-9.65c3.07-.12.95,5.05,1.18,6.66Z"/>
    <path class="cls-1" d="M262.44,215.41c1.37,2.66-.32,5.11-1.76,7.33.71.72,4.3-4.4,5.25-5.09,3.37-2.46,6.49-2.11,4.01,2.18l3.08-1.32,1.62.81.74,4.37c9.16-10.91,16.63-8.28,11.45,6.33l-1.94.09c-.58-2.76,1.41-5.81,1.17-8.38-.12-1.21-.26-2.28-1.75-2.29-3.14.04-7.69,8.18-9.91,8.84-3.69,1.1-1.39-4.74-1.73-6.52-.49-.53-5.26,3.74-6.4,4.04-1.92.51-3.34-.68-5.01-.31-2.25.49-6.74,5.82-8.1,2.12l-3.14,8.1c-.25.87-2.23.11-2.31.02-.79-.96,3.83-14.1,5.25-15.46.91-.87,2.33-.65,3.33-1.39,1.86-1.38,2.89-4.21,6.16-3.48ZM253.44,226.26c2.39.53,7.13-6.78,6.47-7.5-1.62.01-6.89,7.13-6.47,7.5Z"/>
    <path class="cls-1" d="M470.62,221.87l-1.15,6.7,6.85-6.01c2.6,1.38,3.11,3.82,1.83,6.45,1.05.77,5.03-4.17,7.25-1.12,1.1,1.51.22,3.69,3.16,3.6s4.05-6,7.82-6.3c2.65-.21-.54,4.32-.84,5.38.91.85,4.95-4.8,6.89-4.86,2.6-.08,1.72,3.81,2.39,4.29,2.08,1.47,8.47-.57,9.8-2.12,1.66-1.94,2.35-7.48,6.68-6.64,1.51,3.51-6.44,7.64-2.68,10.02,1.39.88,3.77-.11,3.65,1.62-2.29,2.48-6.48.31-7.69-2.09-3.49,2.08-14.74,5.2-12.75-1.71-2.78,1.37-6.37,6.43-9.71,5.49-.89-.25-1.43-1.49-2.15-1.57-2.79-.32-5.41,2.1-6.47-3.43l-6.22,4.15c-1.63-.05-1-6.51-1.21-7.96-4.42,1.2-4.45,8.05-9.13,7.58-.25-3-.18-5.8.81-8.67.61-1.77.64-3.22,2.89-2.76Z"/>
    <path class="cls-1" d="M724.69,137.93l-1.69,11.38c1.08-.15.88-1.53,1.93-2.38.86-.69,1.86-1.05,2.97-1.11,5.68-.28,3.36,7.63.07,2.04l-2.29,1.72c-.19.43,4.11,1.16,4.65,2.66,1.41,3.88-4.44,8.91-5.09,6.01l2.53-5.05c-2.1-.32-4.44-.78-4.76-3.21-1.02-.16-.51.32-.66.97-.39,1.62-.57,3.38-.51,5.05-1.99.4-1.64-1.64-2.4-2.6-1.33,1.2-2.89,3.66-4.73,4.04-1.94.39-2.6-.93-3.2-.92-.42,0-.95.86-1.42.93-3.82.58-3.57-6.63-4.46-9.02l-6.12,8.16-1.67-1.01,2.31-11.39c1.5-1.19,2.99.88,4.05,1.2.93.28,1.98-.76,3.04.29,1.66,1.64,1.62,9.35,2.9,9.29,1.6-3.81,3.01-8.76,8.12-8.21l.76,3.98c1.82-2.46,2.14-10.3,3.37-12.08.67-.96,1.28-.75,2.3-.74Z"/>
    <path class="cls-1" d="M287.3,14.62c3.56.45,2.75-4.65,6.17-4.82,1.89.3-.27,7.02,4.76,5.12,1.33-.9,1.17-2.6,2.01-3.95,1.34-2.16,4.07-4.47,4.37-.47.16,2.19-1.47,2.72-.96,4.35,1.72-1.84,4.15-2.54,6.2-3.87,1.89-1.23,1.84-3.25,4.96-3.16,2.09.06,8.36,6.01,7.19,7.22-5.05.55-4.98-7.53-10.24-3.07-.86.73-1.13,2.11-2.07,2.77-.32.23-6.38,3.3-6.76,3.36-.83.14-7.34-.28-8.22-.66-1.72-.73-1.97-1.65-3.07-2.92-1.14,1.96-2.67,3.53-5.17,3.51l-1.91-6.67c-1.71,5.32-8.27,14.78-12.2,5.64-.31,0-2.51,5.04-4.42,4.05-4.29-.98-2.67-10.44-.42-10.57,1.99-.12-.12,6.86.55,7.98l4.2-5.44c2.03-.5,1.95,4.22,3.09,4.96,3.38,2.19,7.45-7.35,10.12-8.64.8-1.57-.61-4.4,1.89-4.72,2.91,1.47-1.02,9.1-.06,10Z"/>
    <path class="cls-1" d="M560.58,136.22c-.96,6.18-2,12.43-1.5,18.71,1.54-1.29,2.41-3.67,4.29-4.69,1.47-.8,2.8-1.01,4.45-.9,1.27,2.1,3.22,3.76,2,6.28l1.53.92c2.33-.25,4.42-5.83,4.99-7.96l5.9-.25c.71-.79-.85-9.89,3.14-7.74l-1.14,7.69c6.81-1.49,7.59,2.01.02,2.3l-1.83,7.05-1.94.09,1.16-6.69-3.55.06c-1.02,3.07-5.76,10.99-9.61,7.29-1.3-1.25,0-4.28-1.74-3.64-.51.19-.69,1.67-1.56,2.42-2.4,2.06-5.62,2.87-8.6,2.47.48-6.36.08-13.18.95-19.47.27-2,.4-4.4,3.05-3.92Z"/>
    <path class="cls-1" d="M760.08,238.24c-.19,1.48-1.2,2.04-2.62,1.74l.34-11.33c-2.15.13-6.3-1.24-8.09-.8-1.56.38-3.65,3.57-5.72,3.89l.26,1.95c1.11,1.4,4.82.04,6.2-.66,1.18-.6.27-2,2.11-1.59,2.29,2.71-11.47,10.42-11.32.96-2.62,1.84-7.82,4.4-10.42,1.41-3.29-3.77,2.81-8.92,5.86-10.62,4.48,4.04-3.91,6.69-4.14,7.77-.67,3.14,7.92.67,9.3-.28,1.11-.76,1.34-2.19,2.28-3.03,5.01-4.5,8.28-1.73,14.29-1.71l-.2-7.99,1.99-.06.24,7.97c2.17.24,6.17.06,6.72,2.85.43,2.15-2.73.08-3.83-.07-1.18-.17-2.34-.14-3.52-.06-.24,3.02.62,6.76.25,9.67Z"/>
    <path class="cls-1" d="M187.98,42.57l-1.82,6.71c3.34-.66,3.98-3.46,5.84-5.83.42-.64,1.18.36,1.28.72.79,2.67-1.66,9.09-1.61,12.3,1.81,1.16,3.2-5.39,4.19-5.43l2.74,2.58c1.32.53,1.39-1.91,1.6-2.7,3.36-2.55,3.07,11.61,3.03,12.95-.13,3.69-1.25,12.36-2.8,15.55-.58,1.2-1.43,1.53-2.44,2.22-.98,0-.81-.92-.48-1.73,3.02-7.46,4.19-15.73,2.82-23.67-1.55,1.13-3.37-.66-4.26-.47-1.13.24-2.25,4.66-5.01,3.1-2.17-1.23-1.31-5.48-.97-7.47s-4.61.91-4.86,1.25c-1.37,1.95-.15,7.62-3.09,9.4-1.57-.98-.57-1.26-.43-2.33s1.46-6.77,1.19-7.01l-5.35-.54,1.01-2.64c1.5-.07,3.68,1.21,4.97.21s.73-8.07,4.43-7.16Z"/>
    <path class="cls-1" d="M456.59,11.56c1.1,1.47-2.1,4.12-2.37,5.17-.33,1.28.18,7.41-2.27,7.58-1.92.13.23-6.3-.53-7.31-2.65,1.63-4.34,2.45-5.55,5.48-3.42-3-9.49,2.38-9.73-3.08-2.41.07-1.6,3.45-4.9,3.53-3.04.08-3.79-4.4-5.07-3.27-2,8.16-11.12,8.36-9.09-1.15.47-2.19,3.07-5.48,3-1.71-.04,1.69-1.06,3.46-.43,5.25l1.59,1.06,6.49-7.49,2.81,4.6c1.94-.06,7.27-7.76,12.77-5.97,3.36,1.1,2.13,4.96,7.69,2.12.68-.4-.1-5.13,3.26-5.42.33-.03,2.28.5,2.35.6Z"/>
    <path class="cls-1" d="M412.4,80.73l-.58,3.34,2.39.56c.78,6.53.28,22.62-5.03,27.17-2.46,2.11-11.42,4.53-11.32-.67,13.36,4.66,13.93-10.29,14.15-19.72-3.42,1.65-3.3-1.3-5.08-3.19l-4.59,3.31c-2.35-1.51-2.64-3.32-1.82-5.82-2.57,1.43-5.24,4.24-8.31,2.24l-.38-2.66-2.66-.61c3,.66,2.76-.85,4.29-1.45l1.17,1.84c3.48,1.08,5.47-4.25,8.72-3.39l1.02,1.45c-.42,1.33-.98,2.66-1.28,4.03-.14.63-1.2,1.59.52,1.14,1.06-.28,2.83-1.61,3.59-2.45,2.05-2.25,1.72-5.96,5.2-5.13Z"/>
    <path class="cls-1" d="M711.35,60.9c2.4-2.78,7.31-1.26,9.09-2,.32-.13,4.71-6.18,4.05-.83-.13,1.03-3.98,6.45-1.39,5.87,2.37-.55,4.75-4.86,6.66-5.44,2.49-.76,2.33,2.78,3.89,2.51,2.08-.53,10.01-7.87,11.57-4.65l-11.61,7.82c-3.12.88-2.72-.06-3.91-2.42-3.29,4.47-10.57,9.55-10.34.27-2.91,2.63-6.92,6.1-11.13,4.2-.81-1.2,2.94-16.61,3.81-16.67,3.36,1.91-1.36,10.55-.7,11.34Z"/>
    <path class="cls-1" d="M79.54,52.74c5.33-3.71,6.63-1.58,4.1,3.89,3.5.65,3.87-3.7,6.25-4.13,3.94-.71,7.75.33,7.11,5.12,1.89-1.08,6.43-6.71,7.93-2.55l-10.78,8.62-1.51-1.61c.46-1.5,1.62-3.21,1.65-4.79.09-4.42-3.55-.37-5.15.36-4.11,1.87-9.16,3.04-13.02,5.71l-1.47-1.47c.98-3.37,2.09-6.79,2.67-10.26.39-2.34-.76-4.95,1.33-6.54,2.74-1.26.61,7.33.87,7.65Z"/>
    <path class="cls-1" d="M642.48,232.79c2.04.07,2.34-2.47,4.3-2.8,2.35-.39,4.66,1.83,7.01,1.84-.02-1.44,1.85-6.4,3.51-6.09,1.39,1.02,1.43,4.13,1.17,5.66s-3.32,2.2-1.86,5.69c.12.15,3.65-1.28,3.35.9-.75,1.64-3.56,1.13-4.87.52-1.35-.83-.82-3.35-1.33-3.9-.22-.24-5.3-1.22-6.28-1.92l-5.88,4.12c-1.64-.31-.97-5.37-1.24-6.92-.77-4.4-3.61-2.21-6.71-3.54-.03,1.93-.55,3.69-.55,5.65,0,1.8,1.69,8.87-.74,8.39-3.51-.69-.6-12.55-1.39-13.27-.98.11-3.72-.01-3.34-1.6l4.24-3.79,1.02.28c1.34,3.26,2.32,1.37,4.85,1.68,4.14.51,6.3,5.47,4.75,9.09Z"/>
    <path class="cls-1" d="M15.75,143.88c-1.27,2.29,2.91,7.08,2.12,9.82-5.33.79-3.17-4.5-4.21-7.89l-6.24.79c-.66.19-1.64,7.51-2.29,8.99-1.18,2.66-2.11-.5-1.9-2.43.13-1.25,1.08-2.72,1.07-3.55-.02-1.01-1.28-1.51-1.18-3.01.08-1.2,4.44-13.79,5.17-15.32.35-.74.65-1.49,1.25-2.07l1.28-.63c2.37.34,3.54,10.45,3.71,12.57l4.35.2c-.33,1.1-2.93,2.2-3.12,2.55ZM11.38,135.2c-1.52-.24-1.06.1-1.46.89-1.27,2.48-2.92,8.23,1.5,4.67l-.04-5.56Z"/>
    <path class="cls-1" d="M12.95,82.49l7.27-2.19c2.13,4.39-1.19,8.21-.98,12.7,1.7-1.45,5.05-2.53,6.52-3.88,1.08-.99,4.18-8.04,5.88-6.44,1.24,4.68-3.11,5.57-3.08,9.41l6.62-1.5c-.71,7.43-8.87,2.06-10.77,2.37-2.38.39-4.91,4.02-7.7,3.4-1.55-1.03,1.5-10.29,1.65-12.34-8.04-1.33-6.74,6.59-8.35,12.1l-2,.49,1.73-10.04c-3.44,1.71-5.84-.99-2.22-2.44,3.02-1.21,4-.45,4.71-4.96,3.58-.19.51,3.13.74,3.31Z"/>
    <path class="cls-1" d="M7.13,218.03c6.77-2.87,6.98,3.32,6.9,8.5l4.52-3.83c.9-.2,3.97,2.12,6.27,1.45,1.28-.38,6.51-8.95,6.37-3.13-.06,2.65-1.75,5.71-4.47,6.18l5.42,3.52c-1.99.83-5.54.35-7.02-1.16-.69-.7-.72-2.2-1.52-2.67-.53-.31-4.65-1.09-5.18-.98-2.01.44-3.49,5.62-5.91,5.99-2.34-.42.31-10.41-2.31-11.92-6.89,1.54-4.1,6.55-7.06,10.82-2.46-1.05.36-6.25.1-6.59-.15-.2-1.32-.25-1.63-.67-1.84-2.5,1.27-1.98,2.11-2.9s.49-2.89.89-4.04c1.1-3.14,3.57-1.25,2.53,1.42Z"/>
    <path class="cls-1" d="M796.84,100.45c-.68.85-3.24,1.74-2.95,3.22,1.1,1.74,2.58,2.65,4.68,2.31l.05,1.99c-4.25,1.62-5.69-3.03-6.84-3.76-.14-.09-1.63.87-3.28.43-1.5-.4-2.52-2.16-3.81-2.93l-4.52,2.73c-2.07.01-1.85-1.85-2.4-2.79-1.2-2.07-3.07,4.84-5.89,3.69l-1.5-8.21,2.95-.52.43,4.01,4.88-3.46c1.37,1.1,1.94,2.35,1.13,3.97l4.89-2.82c2.13.15,3.19,3.96,5.78,3.22-1.69-10.5,14.68-11.39,6.41-1.08Z"/>
    <path class="cls-1" d="M533.76,185.03l.2,3.91c4.88-4.79,7.76-8.42,7.38,1.8,1.24-1.08,3.09-3.18,4.59-3.77,4.2-1.67,3.16,2.3,4.13,3.5.05.06.87-.4,1.3-.25,1.94.65,3.79,2.11,5.97.44,1.23-.94,1.6-6.82,6.17-6.53s-1.85,6.31-1.99,7.17c-.16.96,1.26,2.72.27,3.59-1.35.54-2.56-1.94-2.81-1.96-1.24-.1-3.04,1.08-4.54,1.15s-3.41-1.01-5.24-.28l-2.24-3.86-6.51,4.17c-1.88-1.48-1.89-3.75-1.85-5.96l-6.2,5.36c-3.55-2.07,0-5.92-1.89-9.14l3.26.67Z"/>
    <path class="cls-1" d="M142.67,223.83c3.91-6.17,10.75,2.16,11.89-4.97,1.33-.25,1.85-.04,2.61.98,1.4,1.89,1.37,13.74,1.16,16.58-.24,3.2-.03,7.11-3.45,8.42-2.09-1.47.44-3.58.81-5.72.87-4.94.02-10.64.3-15.64-1.53.06-1.88,1.3-3.62,1.49-2.21.24-4.34-1.1-6.58-.46l-4.64,5.35c-2.77-1.59-.64-3.99-1.18-6.62-1.51,1.19-2.34,3.87-4.47,4.47s-2.58-1.34-2.01-3.15c1.25-3.97,10.9-8.83,9.18-.72Z"/>
    <path class="cls-1" d="M465.67,153.39l.36,1.32,3.7.21c1.45,2.93-2.06,2.77-4.01,2.16-1.68-.52-2.18-2.33-4.33-2.31-4.31.06-9.11,6.75-9.08-1.71l-2.9,1.39c-1.82-.26-1.3-3.87-2.81-3.24-2.01.85-4.38,6.66-7.51,6.19-.5-.33-2.11-11.36,1.71-10.71l.18,6.66c.82.89,4.08-4.52,5.21-5.12,2.52-1.34,2.97-.06,3.4,2.22l3.95-.47c1.24.97,2.12,2.12,1.45,3.67.32.02.65,0,.97-.04.6-.08,5.96-1.39,6.22-1.58.35-.25,1.93-6.44,4.94-6.68,1.66.04,1.9,8.22-1.46,8.04Z"/>
    <path class="cls-1" d="M77.28,130.14l-.59,2.67c9.21-3.02,8.26,1.83,8.25,9.13l5.88-.92c.77-2.68,2.72-5.79,5.96-5.39.12,1.55.21,3.02-.38,4.51-.7,1.77-3.17,2.07-2.74,3.23.56,1.51,3.06-.05,4,.24l-.24,2.04c-3.7,3.21-6.37-1.77-6.89-1.88-2.16-.47-5.8,1.77-7.56.6l-.88-9.69c-8.66.2-7.78,3.96-7.23,10.73.4,4.87-2.69,1.95-3.04-.94-.05-.46.24-8.66.36-9.11.21-.78,1.37-.89,1.66-1.36.83-1.38,1.02-3.92,3.46-3.87Z"/>
    <path class="cls-1" d="M301.98,220.33l5.94-2.15.13,4.67c5.67-4.46,7.32,1.44,7.5,6.47l-2.35-.6-1.13-4.64-6.24,2.83c-2.09-1.43-.62-3.41-.5-5.32-.47-.55-9.11,8.82-12.38,6.89-.43-.25-1.44-3.06-1.26-3.87.65-3.06,6.2-9.92,9.73-8.84,2.36.57.2,4.23.56,4.57Z"/>
    <path class="cls-1" d="M112.45,87.23l.11,4c2.17-1.38,3.48-4.47,6.51-4.13.73,3.45,3.46,5.13,4.17.62l2.56-.16-1.19,5.36c3.92.75,1.27-5.62,5.6-3.5,1.04,6.47,5.72,26.17-6.42,21.84l-1.44-2.59c1.85-1.22,1.07,1.74,3.6,1.39,5.96-.82,3.16-11.07,2.71-15.24-1.61.3-3.12,1.18-4.85.69-1.38-.4-1.39-1.84-2.05-2.31-1.11-.79-3.84-.72-4.88-2.72-.87.02-4.53,6.42-6.85,5.49-1.25-.82-.59-8.99,2.43-8.73Z"/>
    <path class="cls-1" d="M574.85,127.65c-.5.44-3.55,1.66-4.04,1.56l-1.12-1.9c3.92.35,5.23-3.33,5.65-6.66.85-6.59.61-13.61-.36-20.16l-3.62,2.76c-1.99,0-2.49-3.12-2.43-4.6-.32-.4-6.38,4.25-7.73,3.11-2.27-.84-1.51-5.64-1.71-7.52,2.34-.12,2.81,2.78,2.79,4.6,3.84.18,6.15-4.9,9.89-3.58l-.53,4.66,2.15-6.07,1.69-.38c2.46,1.48,2.61,16.64,2.5,19.96-.08,2.35-.28,6.33-.6,8.54-.18,1.24-1.7,4.96-2.55,5.7Z"/>
    <path class="cls-1" d="M659.85,55.58l-1.8,7.38c1.57-.68,4.46-7.77,6.49-6.17l.78,3.98,3.62-1.93,2.07,3.13c.49-2.16,2.26-1.43,3.41-2.3,1.52-1.14,2.57-5.59,6.07-4.63.74,4.11-2.44,6.15-5.11,8.47l2.65-.4c.43,2.43-1.81,4.21-3.93,3.13l-2.04-2.31c-.63,5.44-4.95,4.08-4.04-1.23l-4.26,2.11-1.11-3.3-5.44,5.44c-3.36-.46-1.95-12.18,2.62-11.37Z"/>
    <path class="cls-1" d="M652.81,95.87c.35,4.6,3.43,2.12,5.24,5.77l3.98-4.63c2.17-.02,2.45,1.1,2.79,2.96.99,5.36.25,21.93-2.55,26.5-1.21,1.98-3.9,2.42-3.87.86,0-.4,1.68-.85,2.15-1.9,2.58-5.7,2.78-18.33,1.81-24.56-2.2,2.7-5.49,6.88-7.3,1.53l-1.26.11-.44,1.31c-3.62-1.3-6.64,1.55-8.97-2.16l1.05-1.6,5.58.13c1.94-2.25-2.44-1.71-1.46-4.3h3.25Z"/>
    <path class="cls-1" d="M244.46,85.11c.76-.25,2.59-2.85,2.65-.41-1.64.36-3.03,3.46-3.34,3.69-.58.43-1.89-.49-2.79-.32-1.02.19-1.93,1.72-3.98,1.28-3.04-4.05,1-5.69,4.79-4.17,1.02-5.24-5.99-3.08-8.38-1.13-1.93,1.57-3.45,6.97-6.57,4.91-1.16-.77-1.19-2.44-2.35-2.65-.22,1.59-3.18,6.11-4.73,6.02-3.47-.19-6.34-9.37-1.38-9.87.43.46-.84,7.35,1.84,6.62,1.12-1.11,4.88-8.39,6.82-6.85l1.11,3.97c2.2-1.14,2.86-3.77,4.93-5.08,4.9-3.1,11.59-3.34,11.4,3.99Z"/>
    <path class="cls-1" d="M705.65,97.74l-.77-2.23c2.61-1.31,3.8-4.82,1.51-7.12-2.34-.65-4.19,4.71-4.19,6.47,0,3.37,2.32,2.98,3.9,5.5,8.16-5.14,16.52-4.21,8.46,6.16l-1.98-.34.46-5.96-7.48,3.35-1.61-.63-1.56-2.44.74,4.27c-2.55,2.96-2.43-4.5-2.81-5.75-.18-.58-1.31-.44-1.37-.8-.05-.32,1.33-5.88,1.51-6.37,1.05-2.96,4.02-7.65,7.54-5.15,5.18,3.67-.77,12.2-2.35,11.05Z"/>
    <path class="cls-1" d="M620.39,101.97l8.28-6.12c3.59-1.07,1.06,4.63,1.74,6.53l4.27-4.74c2.31-.79,2.49,3.13,4.62,3.14,1.37-.33,3.05-6.57,4.94-4.76.96.92-2.75,6.73-4.29,7.31-3.01,1.13-2.79-.77-4.58-2.4-1.36.03-6.71,11.27-8.03-1.13-2.45,2.77-6.96,3.2-6.82,7.51l-.98.02c-1.38-3.25-6.05.52-6.46-2.83-.44-3.61,3.35-1.94,5.32-1.8.5-.53-2.78-8.21.09-9.32,2.26,2.27,1.77,5.71,1.9,8.61Z"/>
    <path class="cls-1" d="M31.48,51.33l-.57,3.35c6.46-7.04,5.05,1.85,5.71,1.86,3.5-7.68,7.52-7.12,7.06,1.81,2.25-2.82,2.94-7.21,7.4-7.5,3.39.86-2.31,7.64-4.05,8.42l2.69,1.25c-.69.77-1.93,1.75-2.97,1.74-.3,0-4.96-2.74-5.13-2.98-.79-1.15.09-3.46-.73-4.86-1.5.77-2.93,5.6-4.23,6.05-2.47.86-2.59-3.07-3.07-4.53-.58-.42-8.27,10.52-4.7-4.47l2.59-.14Z"/>
    <path class="cls-1" d="M659.81,181.64l.08,2.67c.36.38,6.16-3.01,7.69-.91l1.19,8.68c2.73-.06,4.47-5.95,7.22-4.56.89.45,3.72,7.09,3.53,7.92l-1.62,1.07c-1.93-1.31-2.16-3.79-2.5-5.93-1.07-.9-4.2,3.96-5.22,4.47-4.57,2.29-4.29-5.79-4.9-8.54-.19-.86.47-1.18-.98-.97-9.07,1.34-2.63,8.88-7.35,12.85l-.26-9.33-3.31.75-.1-2.28,3.94-1.22-.05-4.6,2.66-.07Z"/>
    <path class="cls-1" d="M283.48,47.41l4.88-.72,1.15,1.89-6.56,1.57c0,1.48.53,7.19-1.54,7.3-1.48.08-.76-5.39-.68-6.45.13-1.67-2.24-.88-3.16-.43-1.37.67-3.92,4.54-5.53,5.8-8.9,6.96-10.83-3.32-1.77-3.96l-1.47-5.29c2.21-.6,4.27,5.19,5.13,5.19.57-.69,1.55-1.29,1.93-2.08,1.35-2.81-1.07-3.01,4.94-2.76l-.35-1.18-1.01.21,1.18-6.36,2.04.25.81,7.02Z"/>
    <path class="cls-1" d="M537.94,60.76c3.02-2.47,4.57-5.7,9.2-4.91-.88,3.44,1.13,3.05,1.75,3.95.76,1.11-.2,4.01,1.43,3.31,1.91-1.44,2.56-3.63,3.81-5.51.54-.81-.02-1.63,1.69-1.29.33,5.31-6.7,14.85-9.2,5.57-2.51.59-4.13,5.34-6.59,2.5l4.17-5.77c-3.42-.14-5.62,8.32-8.45,7.56-.87-.23-1.08-1.38-1.06-2.23.09-3.89,4.45-10,3.61-14.51,6.97.12-.57,7.36-.37,11.35Z"/>
    <path class="cls-1" d="M102.87,26.78c.64-2.71.62-3.63-1.81-5.25-2.77,2.49-8.12,7.8-12.18,5.95-4.87-2.23,2.73-5.23,5.14-5.19.33-3.16-1.11-4.21-4.03-3.18,2.86-9.83,7.08,3.14,7.75,3.12,2.79-1.65,1.76-4.47,3.17-6.74.6-.97,4.64-4.42,5.86-4.15l1.08,1.62-5.16,6.82c3.92,2.44,6.61,6.36.17,7Z"/>
    <path class="cls-1" d="M217.19,11.78l4.68.55c-.35-3.63,3.66-6.43,6.57-3.82.76,2.33-4.45,5.02-4.55,5.53-.48,2.51,3.55,3.51,2.16,4.85-.42.41-2.34-.09-3.06-.54-1.99-1.23-1.33-5-5.7-3.88l-1.17,7.35-2.67-.92,1.15-6.38-3.24.18c-.7.46.05,3.29-2.02,2.62-.39-1.34.78-3.09.46-4.21-.27-.95-1.89-1.4-1.97-2.73s2.35-4.65,3.23-3.77l-.26,4.72,3.67.46c.47-1.95.51-4,.91-5.96.15-.71.03-2.59,1.26-2.02,2.53,1.16-.05,7.41.55,7.98Z"/>
    <path class="cls-1" d="M94.21,78.37c.54,3.2-1.63,5.78-2.44,8.72,3.18-.31,3.05,2.31,3.79,4.58,6.69-10.35,12.78-4.74,9.11,5.74l-1.95.08c-1.36-2.86,2.13-6.31-.58-8.66-2.4-.36-6.58,9.24-9.21,5.61-1.09-1.5.84-5.26-1.75-4.65l-2.41,9.62-2,.5c-.98-.9,1.89-6.41,1.83-7.67-.01-.26-2.61-.78-1.64-2.83.82-1.72,2.15-1.23,2.65-1.75.38-.39,2.47-11.62,4.59-9.29Z"/>
    <path class="cls-1" d="M455.38,91.61c5.44-4.96,3.27,4.65,5.11,4.52,6.66-8.02,9.86-5.27,9.78,4.43l-1.98.05-1.53-6.63c-5.39,2.59-6.07,10.57-10.31.93-1.95,2.95-1.6,5.46-5.89,5.4-4.73-.07-4.02-6.57,1.59-3.94,2.14-2.21-1.31-10.25-.93-10.65,1.69-1.77,4.83,4.25,4.16,5.89Z"/>
    <path class="cls-1" d="M607.75,180.34l.86,8.22,2.06.72c.29,1.38-1.81,1.55-2.26,2.36-.19.34.32,3.71-.25,4.7l-1.98.06-.15-5.34-5.63,1.47c-.94,1.59-1.81,8.12-4.46,7.46-1.63-1-.45-3.66,0-5.19.67-2.3,3.94-12.12,5.17-13.29.46-.44.74-.41,1.33-.35l.73,2.64c.42-2.34,2.16-3.78,4.58-3.45ZM605.99,189.06l-.47-5.32-3.53,5.42,4-.09Z"/>
    <path class="cls-1" d="M748.88,144.64c.7,2.76-1.7,2.29-2.91,3.41-1.39,1.27-5.43,4.88-1.69,4.27s4.55-4.31,5.35-7.61c1.02-.12,2.93-.79,2.62.85-3.01,8.56-4.17,18.37-7.46,26.74-.39.98-2.15,4.79-3.4,4.56-2.38-.43.87-3.9,1.38-5.18,2.07-5.27,2.93-11.17,4.39-16.64-3.27.65-6.52.27-7.14-3.55,2.54-2.9,4.44-7.93,8.86-6.84Z"/>
    <path class="cls-1" d="M738.61,189.03c1.02,3.35-1.1,6.67-3.23,9.09-.95,1.08-4.51,3.29-5.03,4.17-1.15,1.96-1.2,11.5-4,10.98-2.31-.44-.03-5.04.11-6.39.34-3.33-.16-12.84.67-14.96.16-.4.66-.7.96-1.04l1.35.66c.45,1.45-1.71,4.83.15,5.64.11-4.6,3.93-10.61,9.03-8.14ZM730.97,199.13c1.67-.59,6.12-6.92,5.11-8.14-3.53,1.2-4.17,4.94-5.11,8.14Z"/>
    <path class="cls-1" d="M567.14,228.12c6.11-4.6,9.86,2.98,5.87,7.84-3.38-1.78.31-4.67-2.17-6.58l-5.66,1.85c-2.02-1.41.27-10.56-.25-11.05l-3.91.2c-1.78,4.57-2.18,9.08-1.73,13.96l-1.99.05.34-12.02-.96,1.35-1.04-1.6c-.2-3.78,7.4-5.68,10.29-4.03,2.64,2.84.53,6.54,1.21,10.04Z"/>
    <path class="cls-1" d="M485.83,184.86c2.82.86,12.36-2.23,13.7.32s-2.09,9.01-5.09,8.83l-1.79-.93c-2.07-2.48,1.19-5.86.56-6.41l-6.93.28-.94,1.02-.27,5.59-2.33.71.54-6.27-2.76-1.99,3.27-2.1-2.01-.6,2.87-5.08c3.43.15.67,6.19,1.17,6.63Z"/>
    <path class="cls-1" d="M680.02,10.69c.03-.23.8-.49.64-1.01-.42-.3-8.73,2.38-9.99-.08-.04-2.48,9.44-.21,10.31-3.97,1.67,1.55,8.54-.98,8.93.81.46,2.11-5.99,2.4-7.26,2.52l-.27,15.35c1.84-.02,3.68-.28,5.52.04,1.22.21,2.21.26,1.87,1.76l-6.3.12-1.3,2.74c-1.69-3.69-4.43-1.51-7.73-2.46,1.4-2.86,3.08-3.16,5.95-2.15.3-4.3-.82-9.5-.36-13.67Z"/>
    <path class="cls-1" d="M644.3,21.96c-3.17.53-3.55-2.88-3.47-5.24l-6.36,4.72c-10.36-.28,1.42-10.69,5.83-12.05l2.11-9.38,2.04.24c2.71,3.74-1.45,6.9-1.81,10.06-.45,4,.49,7.92,1.67,11.66ZM640.05,12.74c-1.66-.58-8.29,5.25-7.17,6.18,2.01,1.01,8.03-5.39,7.17-6.18Z"/>
    <path class="cls-1" d="M70.21,181.06c1.45.91-.12,6.94.24,8.66.58.64,4.18-2.83,5.22-3.16,2.15-.7,4.48-.31,6.69-.48l.08,3.33c-2.38-.79-5.55-.32-7.81.71-1.69.77-2.17,3.06-5.01,2.2-2.48-.75-1.42-4.14-1.6-5.87-1.79,1.98-3.24,6.86-6.86,5.2-4.28-1.96,2.74-10.76,4.42-9.15l.4,2.66c1.05-.89,2.14-5.42,4.22-4.11Z"/>
    <path class="cls-1" d="M326.6,218.36c2.15,2.21-5.68,5.71-6.45,7.84,5.21,3.25,4.67-.85,6.56-3.51.91-1.28,3.32-3.93,4.87-3.82l2.11,1.32c1.26,2.36-4.9,6.41-6.16,8.15,2.62.2,3.65-1.55,4.91-3.44,2.92,2.18-1.84,5.69-3.92,6.07-3.15.57-2.33-1.58-3.25-1.71-1.22-.18-3.18,1.28-5.71.28-6.73-2.66,5.91-12.32,7.03-11.17Z"/>
    <path class="cls-1" d="M764.7,191.67c.78.45,1.95,5.32,1.59,6.54l3.88-4.1c.26,1.98-2.53,8.06-4.87,6.18l-1.77-5.33c-2.79-.05-3.4,6.05-6.54,4.53-2.94-1.42,2-7.64-3.02-6.86s-2.03,10.75-2.87,11.32l-1.98.05c-1.68-6.06-.19-12.03,3.89-16.77,2.6.08.83,2.42,1.37,3.29.47.75,4.3,2.56,4.83,4.54.52,0,3.14-4.74,5.5-3.37Z"/>
    <path class="cls-1" d="M727.82,27.78l-1.99.06-.11-4c-3.31,4.7-8.35,9.1-11.27,1.29.02-3.07,8.68-11.54,9.19-4.57-8-1.72-7.7,10.86-1.85,5.07,4.34-4.29,2.95-13.01,5.17-18.49,1.22-3.03,2.79-2.88,2.71.59-.1,4.17-2.03,7.48-2.36,11.31-.11,1.28.83,8.44.52,8.76Z"/>
    <path class="cls-1" d="M542.72,13.94l5.97-.82,1.5-6.7c2.94.34.56,3.37,1.12,5.3l2.67-.07c.28,2.55-3.1,2.68-4.19,4.14-1.19,1.61-1.56,6.29-3.92,7.33-1.19.52-1.92.23-1.61-1.2,1.76.43,3.44-5.86,3.16-6.09l-5.22.89.79,8.55c-4.99.98-2.35-7.99-2.89-8.59-1.75.39-4.16,1.83-4.69-.87l5.01-1.78.1-7.36c3.58-.38,1.45,6.45,2.19,7.28Z"/>
    <path class="cls-1" d="M59.3,172c1.76,1.03-1.35,7.24-1.62,8.53-.25,1.21,0,2.48-.21,3.7-.49,2.73-1.83,5.21-.95,8.52l2.62-1.4c-.79,5.47-4.97,3.38-5.37-1.19-11.44,12.29-7.88-10.3,1.68-9.46l1.87-8.64c.57.08,1.71-.21,1.98-.05ZM54.94,183.46c-2.43-1.7-7.39,5.63-6.45,8.17,3.4-1.48,5.37-4.79,6.45-8.17Z"/>
    <path class="cls-1" d="M735.5,16.97l.12,1.93c3-1.01,4.52,1.76,4.1,4.58,4.61-5.08,3.76,1.29,8.01.46.36,1.87-.99,2.93-2.29,4.03l-3.36-3.16-3.22,1.98c-2-1.31-1.91-3.8-1.9-5.91-2.25,2.22-2.48,7.89-6.91,5.58-3.26-2.52,1-11.17,5.45-9.49Z"/>
    <path class="cls-1" d="M485.03,103.5c-1.39,1.83-2.56-4.42-2.79-4.59l-5.57,4.13c-5.77-2.15-2.37-7.37,1.09-10.02,3.93-3.01,6.93-.91,6.8-7.76,5.25-1.9.62,8.1.32,10.61s.3,5.16.15,7.62ZM479.87,94.36c-1.59,1.14-5.81,4.11-3.25,6.03,2.73-.44,3.46-3.14,4.84-5.13l-1.59-.89Z"/>
    <path class="cls-1" d="M18.34,9.69l.11,2.62-4.67-.54-.34,12.68c2.95-1.79,6.29-.45,2.16,1.77-1.42.76-2.61-.42-2.74,2.91l-1.97.06-.08-1.95-4.63.43-.08-2.7,4.67-.44,1-12.69-6.85,2.21-.85-2.03c1.06-2.53,11.59-3.33,14.27-2.31Z"/>
    <path class="cls-1" d="M176.16,49.55c1.06,3.9-5.91,6.5-5.75,9.85.19,4,5.51-1.03,5.99-.52.46,1.25-.79,2.75-1.8,3.3-4.27,2.35-7.59.62-6.24-4.42-1.85-.16-2.24,2.09-3.74,2.61-1.24.43-5.96.96-6.9-.1-.62-.71-.79-1.79.4-2.16l5.57-.24c.02-3.65-2.09-3.01-4.73-2.54-.17-5.03,6.98-2.85,7.68,1.12,2.39.19,7.93-8.45,9.5-6.89Z"/>
    <path class="cls-1" d="M367.69,3.18c-.1,4.57,7.74,1.4,5.51,7.18l-1.97.06-.39-2.02-3.35.74-.73,8.74c1.28.1,8-.8,8.01.79-2.76,2.85-6.47-.3-9.58,2.59l-1.13-1.91-3.91.7.59-2.35,3.7-1.04.76-7.73-5.97,1.15.22-2.71,6.33-.82c-.03-1.53-.16-3.5,1.93-3.36Z"/>
    <path class="cls-1" d="M645.32,60.63c-.96,3.94,2.97,2.34,3.46,5.24l-4.67-.9c-1.97-.86-.53-5.02-2.5-4.94-3.92.17-3.38,6.56-7.49,6.22l1.09-9.37,1.99-.05.4,2.66c2.09-3.7,4.89-1.25,7.28-1.53,1.72-.2,6.03-4.9,7.73-.52.35,3.29-5,4.12-7.29,3.18Z"/>
    <path class="cls-1" d="M688.56,56.83l-.5,6.02c2.72-1.69,4.13-5.67,7.83-5.52l.13,3.98,4.62-1.83c.75.36,3.14,5.22,2.83,6.31-3.27.72-2.88-1.24-4.43-3.21-1.61-.37-2.32,5.17-5.51,2.72l.14-4.59c-6.29,8.93-10.54,8.19-7.15-3.42l2.04-.45Z"/>
    <path class="cls-1" d="M499.23,59.76c1.03.13,2.33.53,2.04,1.96-1.98,1.42-3.57-.54-4.9-.4-.68.07-1.46.96-2.23,1.11-3.12.6-6.24.05-7.51-3.21,1.22-3.06,4.07-5.43,7.33-6.01l.49,3.36c-2.49-.95-3.74.72-5.25,2.47.02,1.42,5.23,1.06,6.27.25.72-.56.22-2.43.61-3.44,3.66-9.6,10.32-4.16,3.12,2.96v.96Z"/>
    <path class="cls-1" d="M557.62,16.75l2.87,1.41c1.25-2.44,2.11-4.02,4.62-5.4,3.81,1.5.83,6.35-1.38,8.3l1.25,2.98c-3.18.28-4.72-4.05-7.78-4.47-2.11-.29-.07,4.65-2.9,4.09.05-2.42,1.05-17.03,2.55-17.4,3.64-.89-.67,8.96.75,10.51Z"/>
    <path class="cls-1" d="M13.36,47.13l.55,4.69c1.98.25,4.21,1.27,5.98-.15,1.08-.86.41-2.9,3.54-2.14,1.36,5.13-1.99,4.34-3.49,6.12-1.94,2.31.39,5.3,3.12,5.24l-.7,1.92c-4.33.61-6.73-4.04-4.79-7.79-1.24.1-2.92-.27-4,.42-1.66,1.06-.85,5.32-3.87,4.45l1.68-12.72,1.98-.06Z"/>
    <path class="cls-1" d="M196.4,213.09c.27,1.86-1.73,1.73-2.43,3.21-.44.93-1.93,7.69-1.9,8.68.04,1.43,1.02,2.06,1.32,3.27.85,3.31.96,7.46-2.13,3.15l-5.72-.02c-.55-2.22,1.57-1.07,2.96-1.4,3.92-.94-.38-3.75-.43-5.65-.05-1.69,2.72-4.9,2.49-5.07-2.09-.61-3.84,2.8-5.6,1.47-3.24-2.44,5.76-4.26,6.17-4.52,1.22-.76,1.93-4.05,5.27-3.11Z"/>
    <path class="cls-1" d="M531.52,95.62l1.85-3.62-3.36-2.68-1.74,9.73c1.31-.34,2.79-.26,4.05-.51.66-.13,3.02-2.21,2.59-.01-.9,2.97-4.02,2.44-6.59,2.52-.44.45,1.35,7.89-1.46,7.38-1.79-.33.18-5.51-.51-6.66-3.94.81-4.52-3.05-.1-2.69.09-3.64.22-15.49,6.06-11.47,4.65,3.2,4.96,6.09-.78,8.01Z"/>
    <path class="cls-1" d="M14.13,178.52c-1.3.49-3.58-2.87-4.38-1.24-.13,3.33-1.62,6.82.04,9.93l5.23-.04c-1.17,4.35-7.78,1.99-11.27,2.65l-.08-2.71,3.35.26-.99-10.59c-1.28.46-8.15-.96-5.37-2.93,1.71-1.21,3.45.69,5.07.84,3.69.36,8.75-1.87,8.4,3.82Z"/>
    <path class="cls-1" d="M547.05,103.22c-3.43,1.38-6.36.77-6.15-3.52.09-1.97.61-2.61,2.66-2.39.42.39-.77,4.8,1.1,3.97l3.26-2.75c3.31.7,1.33,16.86.35,19.82-1.58,4.79-6.36,6.55-6.81.36,2.09-.66,1.69,3.55,3.68,1.22.59-.68,2.18-6.28,2.16-7.05l-.25-9.67Z"/>
    <path class="cls-1" d="M76.17,25.48c2.19,1.56,3.49-8.35,5.44-8.81,2.91,0,1.26,5.34,1.82,5.95l5.9-3.48c.59.58-3.31,6.1-3.83,6.44-3.19,2.12-4.07-3.54-5.39-2.21-2.61,11.88-11.32-1.34-5.86-7.17,2.46,2.71-.45,6.15,1.92,9.27Z"/>
    <path class="cls-1" d="M203.16,10.82c.09,1.08.28,1.55-.63,2.32-.47.4-10.33,4.73-8.47,6.58,2.67.71,4.64.3,7.18-.66,3.26-1.24,3.28-3.18,6.03-4.35-.71,2,1.73,7.25.24,8.34-2.31,1.7-3.17-1.8-2.78-3.61-2.55,2.34-13.76,5.4-13.36.05.54-2.41,9.69-10.65,11.81-8.68Z"/>
    <path class="cls-1" d="M723.12,102.62l5.52-5.47c2.77,3.69,5.34,1.16,8.6-.18,1.13.73,4.72,6.33,3.92,7.18-2.57,1-3.48-3.6-5.09-3.67-.72-.03-3.15,1.86-4.71,1.93s-2.43-1.33-3.19-1.19c-1.55.29-3.92,6.04-6.92,4.73l-2.92-7.52,1.63-1.06,3.16,5.25Z"/>
    <path class="cls-1" d="M709.21,231.23c1.72-3.51,13.64-5.27,9.33.08-2.09,2.6-4.06,1.52-6.09,1.96-1.7.37-3.87,2.62-5.18,1.71-1.73-2.61-.2-5.84-.25-8.63-.04-1.79-1.61-4.97-1.39-5.95.41-1.82,3.26-1.44,3.31.5l.27,10.33Z"/>
    <path class="cls-1" d="M56.32,57.35c2.29-1.39,2.46-4.92,5.88-4.16l.08,2.67,2.86-.69c2.01.56,2.36,5.49,1.66,7.26-3.18,2.41-2.14-3.58-2.46-3.96l-3.97.76-.06-1.99c-.94-.16-.85-.11-1.37.46-1.53,1.68-2.9,5.85-5.79,4.35.6-3.27-.78-6.83,1.42-9.29,1.88-2.1,1.87,3.75,1.75,4.59Z"/>
    <path class="cls-1" d="M678.34,150.48l5.92-3.86c2.9,2.5,3.14,6.03,3.56,9.62-4.01.69-2.24-4.6-4.5-6.54-.56.03-4.07,6.77-6.58,4.18l-.47-7.65-2.07-.65,1.23-4.6c3.63-2.14,3.57,7.13,2.91,9.5Z"/>
    <path class="cls-1" d="M561.61,48.14l-.54,4.68c1.24.4,10.65-.88,10.67.73-2.94,2.37-7.11,1.74-10.6,1.95.27,1.22-1.08,11.13-2.06,10.72l-1.43-2,.8-9.32-3.67.1c-2.03-3.63,3.95-2.45,4.26-2.78l.23-3.36,2.33-.71Z"/>
    <path class="cls-1" d="M138.53,63.87l4.6-2.12c1.04.93-5.09,7.08-6.9,3.48-1.16-2.3.81-2.47-3.48-3.18l.31-3.38c.99-.98,1.69,2.57,3.93,1.12.25-.16,1.64-4.33,2.61-5.46s2.51-1.63,3.62-2.57c5.89,3.97-6.52,9.85-4.69,12.1Z"/>
    <path class="cls-1" d="M777.38,188.58c.12.16,3.36-3.1,3.31-.43-.61,1.19-2.79,1.73-3.15,2.87-.48,1.53.91,11.84-3.42,10.94-2.99-.63.11-2.24.21-2.39,1.38-2.15-.29-5.84,1.1-8.25-1.4.05-7.37,1.26-7.29-1.36.1-3.14,4.34-.95,6.56-.63-1.6-7.08,3.15-10.24,2.66-.74Z"/>
    <path class="cls-1" d="M757.06,151.09l4.16-1.35,4.28,5.13c1.53.32,2.29-2.89,3.25-3.41,2.43-1.34-.84,4.41-1.52,5.06-3.33,3.15-4.43-1.45-6.54-3.57-2.39.14-3.75,2.77-6.14,1.48.05-1.77.07-13.13,2.6-12.67s-.68,8.75-.08,9.33Z"/>
    <path class="cls-1" d="M755.37,10.39l2.14,6.31c2.62.81,5.57-.93,7.41,1.78-2.06,1.79-4.31.71-6.65.51.28,3.01.29,5.33-1.14,8.03-.75.68-1.31.28-1.29-.93.04-2.16.52-4.05-.26-6.33l-5.3.1-.07-2.66,3.33-.1c.27-1.12-1.28-.27-1.41-1.02-.2-1.13,1.72-6.76,3.24-5.69Z"/>
    <path class="cls-1" d="M779.56,142.45l3.97.95c-.78,2.79-1.88.74-3.8,1.92-.88,2.09-.44,4.44-.95,6.57-.15.64-1.59,4.39-2.58,4.04-1.78-.62-.53-1.73-.41-2.32.54-2.77,1.5-5.46,1.12-8.37l-5.63.15c-1.66-3.42,3.52-3.21,5.58-2.15,1.31-1.98-2.68-6.81-.51-7.32,2.85.6,3.04,4.18,3.22,6.53Z"/>
    <path class="cls-1" d="M700.84,222.89c2.28-.51,3.77,2.63,3.49,4.62-.48,3.45-7.03,8.69-10.37,7.12-5.05-2.36,3.62-11.02,6.88-11.75ZM701.75,226.76c-1.68-2.18-7.91,4.23-6.52,5.5,1.9.9,7.89-3.72,6.52-5.5Z"/>
    <path class="cls-1" d="M745.13,189.46c5.05-1.2.05,15.56-4.96,14.05-4.01-1.2,3.28-13.66,4.96-14.05Z"/>
    <path class="cls-1" d="M242.05,223.9c.49.38,4.62-1.12,4.7,1.54-.23,1.57-4.69-.29-6.64.86-1.14.67-3.12,6.11-4.85,5.78-3.99-.76,4.06-6.43,2.79-7.4l-3.26.02-.48-1.93,1.85-1.27,2.48.89c1.63-.86,4.1-6.13,5.52-5.86,3.67.71-2.86,6.81-2.13,7.39Z"/>
    <path class="cls-1" d="M588.38,232.12c-4.42,4.18-14.8,4.23-9.61-3.6l6.29,1.78-.44-2-2.94.08-.07-2.66c4.94-.65,6.34,1.97,6.78,6.39Z"/>
    <path class="cls-1" d="M236.82,48.63c1.24,1.17-3.73,3.84-1.84,6.04l3.73-2.69,4.02,2.42c1.71.25,4.41-4.87,6.82-3.12-.12,1.45-4.74,6.14-5.63,6.4-2.15.62-3.84-2.27-4.58-2.3s-4.33,3.89-6.37.9c-2.75-4.04,2.79-8.66,3.85-7.66Z"/>
    <path class="cls-1" d="M229.48,228.23l-.33,2.07c-2.53,1.41-5.67.68-6.25-2.39-.24-1.28.68-2.73.19-3.51-.82-1.29-6.83-2.94-.11-4.07l1.33,1.37,5.85-6.14c4.35,4.83-4.6,7.61-4.71,11.17-.09,2.83,2.12,2.57,4.04,1.5Z"/>
    <path class="cls-1" d="M628.96,149.77l-.53,4.68c.23.27,4.84-3.81,5.72-4.05,3.38-.93,3.92,5.86,4.88,7.62s4.64,2.15,1.29,4.78c-3.7-2.25-3.59-5.9-5.62-9.17l-6.5,3.53c-2.2-.44-2.76-1.98-2.32-4.12.21-1,1.67-4.62,3.08-3.27Z"/>
    <path class="cls-1" d="M83.72,85.31c-1.24-.06-2.33-.78-3.62-.58-1.59.25-5.23,3.18-1.65,3.37-.19-1.62,1.97-1.92,3.29-2.07l-2.6,2.74c5.5,2.54.12,11.88-2.42,9.38-1.74-1.71,2.86-3.9,2.43-5.64-.41-1.83-6.35-2.45-4.42-6.96,1.18-2.75,10.22-6.14,8.99-.25Z"/>
    <path class="cls-1" d="M337.31,43.43c.2,2.33,2.65,2.84,1.56,5.19l8-.19.06,1.98-7.34.2c-.58.61,2.56,6.6-.8,8.02-1.41.59-.92-.92-1.01-1.64-.14-1.07-.5-5.83-.93-6.22-.4-.36-2.64.33-3.27-1.01l3.29-1.75c.16-2.54-4.26-1.15-3.46-4.57h3.9Z"/>
    <path class="cls-1" d="M25.43,136.82l5.64-.81.36,1.32-6.32,2.13c-.69,3.12.74,6.79-1.71,9.42-2.66-1.52.06-8.36-.62-9.26-5.85-.76-4.93-4.52.64-2.74l-.17-5.55,1.67-1.14c1.46,0,1.42,5.44.51,6.64Z"/>
    <path class="cls-1" d="M236.66,129.31l-.47,7.35c.44.42,5.05-1.03,6.01.84-3.47,3.69-6.67-1.34-6.82,6.52l-2.31.72.51-6.01c-6.72,1.29-6.17-5.37-.06-2-.09-2.81-.88-7.66,3.14-7.42Z"/>
    <path class="cls-1" d="M27.27,18.08c1.54-.13,3.53-.16,3.39,1.91-.87.46-3.44.53-3.85.9-1.54,1.38.84,8.11-2.23,8.6-1.65-.31-.34-7.47.1-8.66l-4.93.71c-3.45-3.58,2.08-3.71,4.88-3.01,1.29-.98-.24-5.79,2.13-7.09,2.67,1.55.64,4.24.5,6.64Z"/>
    <path class="cls-1" d="M90.85,179.18l4.97-.8c2.08,3.85-4.51,2.37-4.93,2.8-.46,2.37.72,4.79.79,6.92.02.58-.29,3.66-1.51,3.1-2.3-1.04-.36-8.29-1.38-9.85-.67-1.03-6.33-.73-5.32-3.97l5.36,1.18c-1.54-7.02,3.77-7.41,2.02.62Z"/>
    <path class="cls-1" d="M254.65,41.49l-.36,11.34c2.16-1.67.68-5.01,4.55-4.12l.16,2.56c5.49.62.7,5.04-1.7,2.18-5.58,9.82-5.86-6.33-5.26-10.23.25-1.66,1.02-1.88,2.62-1.73Z"/>
    <path class="cls-1" d="M187.94,15.55c.13-1.8,2.46-14.01,3.29-14.42.62-.31,2.06-.34,1.7.95-1.56,7.33-3.08,14.86-2.69,22.38.93.25,2.15-.67,1.94.97-.37,2.9-3.94,1.68-3.96.79-.09-3.36-.52-7.42-.28-10.67Z"/>
    <path class="cls-1" d="M233.52,177.46l-1.82,6.71,5.34-.13.05,1.99-6,.16.18,7.33-1.98.06-.19-7.34-4.35.61c-3.12-3.02,1.73-4.09,4.29-2.6.27-2.64.97-7.02,4.49-6.79Z"/>
    <path class="cls-1" d="M720.89,248.81c-1.89,1.16-4.07-1.13-3.97-3.1l2.69,1.26c3-6.38,4.02-13.38,2.23-20.35,1.65-2.2,2.96-1.22,3.31,1.16.56,3.79-.61,12.77-1.94,16.42-.24.65-2.1,4.47-2.32,4.61Z"/>
    <path class="cls-1" d="M593.72,230.07c2.7-1.34,6.85-7.49,9.83-3.85.3.37,2.86,4.9,2.86,5.19-.03,2.88-4.52-1.25-4.4-2.9l-1.23-.56c-2.25.76-6.38,6.05-8.57,5.46s-1.14-8.33,1.04-8l.47,4.65Z"/>
    <path class="cls-1" d="M597.73,51.87l-.44,8.69,5.63.46.45,2.05-6.68-.49c.55,1.63.55,2.84-.9,4.01-1.53-.84-.72-3.08-1.4-3.99s-4.16-.28-3.76-2.19c.42-2.02,2.81-1.44,3.98-.45l.48-8.01,2.64-.08Z"/>
    <path class="cls-1" d="M169.64,81.07l-1.23,4.02,3.99.24c-.68,1.79-3.73,1.56-4.3,2.4-.34.5-.42,8.14-.89,10.21-.74,3.27-2.09,2.54-2.04-.6.04-3.18.51-6.33.64-9.5l-2.67-.26-.72-2.32,3.92-.18c.29-2.09.61-4.41,3.3-4.01Z"/>
    <path class="cls-1" d="M691.81,189.72c4.49,4.09.98,11.13-2.48,10.5-2.5-.45,1.81-3.57,2.07-4.53,1.43-5.18-3.63-4.48-5.44-7.02-3.16-4.43,7.23-7.75,6.61-4.22-7.89,3.16-4.19,2.14-.76,5.27Z"/>
    <path class="cls-1" d="M302.9,76.25l.17,6c1.81-1.14,4.41-4.86,6.8-4.13l3.29,7.87-2.57-.03-1.57-5.19c-1.01-.91-5.54,5.56-7.23,4.55-2.54-1.51-.67-6.66-.88-9.01l1.99-.04Z"/>
    <path class="cls-1" d="M501.99,149.5c.78-.78,1.02-2.93,2.54-1.12,4.68,5.61-3.71,15.85-6.39,10.81-.78-3.59,1.42-7.27,3.85-9.69ZM500.46,157.8c3.07-.32,3.3-4.39,3.15-6.75-1.36.45-3.72,6.13-3.15,6.75Z"/>
    <path class="cls-1" d="M618.45,181.39l.14,5.33c.84.4,6.15-1.99,5.33.19-.67,1.8-3.78,1.85-4.44,2.62-1.74,2.03,2.12,7.56-1.95,7.89l-.89-7.29c-1.02.1-3.65.05-3.35-1.59l3.27-1.12-.13-5.98,1.99-.05Z"/>
    <path class="cls-1" d="M484.5,24.6c-.5-.38-.96-1.65-1.5-2.19l.89-1.59,5.02,1.21-.08-4.97c-.22-.78-4.64.7.19-3.69,3.46,2.48,1.33,7.39,3.8,10.24.04,2.19-6.6,2.31-8.31,1Z"/>
    <path class="cls-1" d="M521.65,24.5l3.6-2.75c1.04.55-2.88,5.33-3.21,5.41-4.32,1.06-1.2-14.26-1-16.43.16-1.72-1.46-3.3,1.13-4.9,2.75-.17-.42,13.72-.54,15.13-.1,1.2.58,2.35.03,3.54Z"/>
    <path class="cls-1" d="M292.72,75.95c.76-.17,1.48-.31,2.19.15,2.98,1.73-.8,11.58-5.26,10.39s-.36-9.75,3.08-10.53ZM293.63,78.5c-.87-.92-5.26,4.04-3.85,5.43,1.62,1.6,4.49-4.12,3.85-5.43Z"/>
    <path class="cls-1" d="M149.89,14.21c-.68,2.73,1.75,8.1-.06,10.03-1.56,1.66-9.44-.15-8.44-3.8,2.46-1.29,4.19.56,6.68.48-1.09-2.44-1.93-7.2,1.82-6.71Z"/>
    <path class="cls-1" d="M306.66,128.16c-.44,3.43-1.78,7.6-1.73,11.02.03,2.37,2.33-1.16,2.07,1.3-.18,1.69-2.64,5.16-3.97,3.37l-.47-6.93c-3.13,3.48-5.72,9.25-11.39,8.24l-.08-3.21,4.3-.79-.82-4.01c-2.45,3.36-6.43,9.43-11.24,5.67-1.81-1.41-.23-5.43-2.06-4.66-2.69,1.13-5.57,5.92-6.13,8.82-5.05.12-1.82-14.36-.7-14.65,2.93-.76.66,5.97,1.19,7.3,3.09-3.83,6.42-4.1,10.82-5.62,2.09,1.84,1.56,4.92-1.49,4.74l.04,1.94c6.55,3.27,9.49-15.06,12.62-1.64,4.74-1.27,6.72-6.9,6.37-11.5l2.68.62Z"/>
    <path class="cls-1" d="M312.6,125.98l-1.66,12.72,1.93-4.02,1.91-.05,1.14,3.28c1.9-.08,3.04-4.19,5.56-3.49.13,1.47,1.19,3.08,1.3,4.47.34,4.16-1.03,19.62-2.25,23.56-2.02,6.54-7.22-.23-6.34-1.15l4.02,1.23,2.06-23.4c-1.34-.19-1.73,1.21-3,1.43-1.46.26-2.88-.59-3.87-.39-1.1.22-1.62,2.1-3.48.63-2.89-2.28.17-11.46.68-14.75l1.98-.06Z"/>
    <path class="cls-1" d="M274.29,165.68l-1.76,8.71,8.13-7.54c2.15,1.91.82,4.97.53,7.31,2.8-5.11,8.94-8,9.36.11.14,2.63-.66,6.35-3.21,3.35l-.22-5.61c-3.41.39-3.33,5.22-6.27,6.08-2.35.14-1.95-4.98-1.75-6.54-8.96,10.87-10.43,5.53-7.41-5.73l2.59-.14Z"/>
    <path class="cls-1" d="M308.31,170.01c.27-.25.11-1.34.42-1.85.87-1.82,3.22.67,3.55,1.66,1.79,5.38-7.31,10.8-10.1,5.11-2.01-4.09,5.76-4.6,6.12-4.93Z"/>
    <path class="cls-1" d="M297.88,175.06c4.58-.55,4.97,4,.03,2.38-.55-.18-6.56-4.12-6.6-4.51l.47-1.7,2.61.54c4.48-9.5,10.79-2.68,3.49,3.3Z"/>
    <path class="cls-1" d="M319.7,167.82l.1,3.34c7.03-6.33,4.99-1.39,6.36,3.24.19.63,3.79,3,.81,3.9-2.77.84-3.86-4.74-3.17-6.58-.89-.79-3.46,3.18-5.03,3.36-4.13.48-1.43-9.42.92-7.27Z"/>
    <path class="cls-1" d="M336.81,165.53c.36.32.54,1.02.67,1.5-1.33,1.47-1.46,3.62-3.71,3.09l1.26-2.69c-7.07.73,3.5,10.65-5.03,11.46-.48-1.38.96-2.67.97-3.69.02-2.17-2.25-3.77-.76-7.49.86-2.15,4.97-3.67,6.6-2.19Z"/>
    <path class="cls-1" d="M156.2,51.4c.59,2.97-1.22,5.1-3.14,7.09,1.66.45,1.95.17,2.7,1.93-1.09,1.94-2.66.16-3.95.75-.92.41-1.97,2.74-2.93,2.9l-2.38-2.08,3.27-1.43c.61-1.51-2.67-.77-2.07-3.26s3.35.7,3.99.22l2.48-5.65,2.04-.46Z"/>
    <path class="cls-1" d="M605.02,24.32c-1.15-2.6-.28-5.31.09-8.03s1.19-7.87,1.97-10.48c.25-.83.35-2.51,1.71-2.26,1.47.9.83,1.48.78,2.64-.15,3.91-1.91,8.02-2.56,11.91-.37,2.25,1.02,6.12-2,6.22Z"/>
    <path class="cls-1" d="M617.34,11.33c.87.79-.49,2-1.03,2.58-1.69,1.83-4.83,1.68-4.12,4.21,2.45.61,4.88-.27,7.29-.56.89-.11,1.56-1.01,1.38.67-3.33,4.26-14.65,3.32-10.31-3.22.76-1.15,5.75-4.64,6.8-3.68Z"/>
    <path class="cls-1" d="M474.8,43.74c-.94,3.45-2.5,5.86-3.3,9.54s-.84,5.39-.52,9.23-2.13,2.67-2.36,1.08c-.64-4.42.76-13.54,2.78-17.57.75-1.5,1.49-2.53,3.41-2.29Z"/>
    <path class="cls-1" d="M253.51,77.62c1.38,2.07-1.43,4.16-1.53,4.93-.28,2.18,1.74,5.62-.84,8.26l-2.1.09-1.16-1.86c2.91-.31,1.81-3.22,1.85-5.4l-1.97.72-.02-1.32c2.51.2.48-3.57,2.01-5.24.64-.84,3.35-.79,3.76-.18Z"/>
    <path class="cls-1" d="M511.38,142.18l1.8,16.96c-3.44,5.78-2.77-6.93-2.94-9.25-.2-2.63-2.96-6.98,1.14-7.71Z"/>
    <path class="cls-1" d="M385.38,42.08c-.1,3.29-1.76,6.41-1.79,9.71-.02,2.68,1.22,4.94,1.31,6.93.04.98-.42,1.46-1.37,1.41-2.84-.56-2.26-14.98-.44-17.31.73-.94,1.22-.78,2.29-.74Z"/>
    <path class="cls-1" d="M492.4,142.67c2.81.37,1.12,2.66,1.11,4.31-.02,3.3.24,6.52.47,9.8.05.64.95,2.2-.49,2.53-3.62.83-2.11-10.61-1.96-12.33s-1.41-2.94.88-4.31Z"/>
    <path class="cls-1" d="M485.33,64.14c-2.79.46-2.84-1.29-2.77-3.57.07-2.1,1.73-14.25,4.64-13.82,1.59.24.47,1.57.28,2.19-1.64,5.36-3.17,9.23-2.15,15.2Z"/>
    <path class="cls-1" d="M220.25,179.8l-.27,15.01c-1.85,1.17-2.5-.09-2.76-1.9-.19-1.32.61-12.14.98-12.67l2.05-.45Z"/>
    <path class="cls-1" d="M589.03,50.75l1.03-2.64c2.61.74,15.15-.4,14.34,3.9-.26,1.38-.96.68-1.66.41-4.64-1.8-8.79-1.76-13.71-1.67Z"/>
    <path class="cls-1" d="M540.7,90.05c-.5,5.6-3.8,10.26-1.58,16.04l-2.66.08c.04-2.29-.34-4.64-.11-6.93.11-1.14,1.99-11.49,4.35-9.19Z"/>
    <path class="cls-1" d="M653.59,26.23l-5.15.96c-.36-2.53-.04-4.45,1.25-6.62,3.29-.03,6.07,2.39,3.9,5.65Z"/>
    <path class="cls-1" d="M224.1,133.64c-.39,3.67-.77,7.33-1.06,11.02-.06.72.51,2.22-.93,1.69-2.63-.95-1.45-6.47-1.05-8.78.35-2.06.29-4.38,3.04-3.93Z"/>
    <polygon class="cls-1" points="629.32 10.35 625.69 22.05 623.64 22.5 626.6 10.82 629.32 10.35"/>
    <path class="cls-1" d="M155.42,98.12l-1.99.05c-.39-.36.52-9.3.94-10.45.8-2.18,3.07-2.09,2.69,1.19-.32,2.72-1.94,6.17-1.63,9.21Z"/>
    <path class="cls-1" d="M509.56,72.84c-1.27.1-1.34.35-1.37-.97-.04-1.68,2.19-11.67,3.38-11.74,2.76,3.44-1.45,8.93-2.01,12.71Z"/>
    <path class="cls-1" d="M618.95,149.37c.05-1.24-.93-3.46-.5-4.02l3.71-1.1.72,2.35-1.94.09v2.64c-.64.08-1.35-.05-1.99.05-.15,3.88-.89,8.32-2.02,12.06-2.78-1.13-.77-11.4.45-11.93.49-.21,1.07-.05,1.57-.13Z"/>
    <path class="cls-1" d="M735.59,146.31c-.08,2.48.4,5.15.14,7.61-.09.81-.2,2.75-1.53,2.43-1.84-.84-1.27-7.75-.65-9.59l2.04-.45Z"/>
    <path class="cls-1" d="M479.06,53.64c-.86,1.72-.12,9.99-2.07,10.04-2.97-1.4-.56-12.4,2.07-10.04Z"/>
    <path class="cls-1" d="M329.08,56.89l-2.07-.34c-1.08-2.85-1.24-6.5.83-8.97,2.87-.76.39,7.91,1.23,9.31Z"/>
    <path class="cls-1" d="M690.53,157.5c.18-3.09-.06-5.27-1.54-7.96l2.25-.68c1.49.27,3.79,9.91-.7,8.63Z"/>
    <path class="cls-1" d="M530.98,24.26l-2.66.07c-1.39-11.47,3.44-11.63,2.66-.07Z"/>
    <path class="cls-1" d="M522.2,159.91c3.73-.95,2.7,7.51.86,7.97l-1.57-1.45c1.36-1.35-.83-6.13.71-6.52Z"/>
    <path class="cls-1" d="M684.71,190.34c.19.16-1.21,4.18-1.43,4.83s-.17,2.46-1.38,1.9c-2.37-1.08-.61-8.23,2.81-6.73Z"/>
    <path class="cls-1" d="M722.45,214.21c1.29-.32,3.99,5.51,2.14,5.94-2,.47-4.51-5.35-2.14-5.94Z"/>
    <path class="cls-1" d="M288.61,207.35c4.36-1.39,2.43,6.53,1.17,6.62l-1.17-6.62Z"/>
    <path class="cls-1" d="M553.88,96.37c1.81-.44,3.04,5.61,1.47,5.96-1.9.42-3.42-5.48-1.47-5.96Z"/>
    <path class="cls-1" d="M378.72,144.31c.56,3.59-2.53,8.07-5.02,10.51-.95.93-2.54.98-3.27,2.1-2.28,3.5-2.65,12.8-3.62,17.06l-1.97.04c-1.44-.88,1.86-19.13,2.71-22.05l-4-1.26c-.29,8.71-12.44,4.08-8.78-1.99.68-1.13,3.22-1.72,4.03-.22l-2.57,2.74c4.18,4.04,3.81.31,5.56-1.86,2.62-3.24,5.73,1.41,8.13,3.15,2.12-3.08,4.47-8.34,8.79-8.22Z"/>
    <path class="cls-1" d="M386.09,145.45c-3.38.63-2.62,2.46-1.11,4.62,4.57.14,4.4-5.45,8.04-6.81,3.08,2.91-.71,5.26-1.44,8.04,3.2.97,4.55-1.39,6.29-2.15,2.32-1.02-.13,2.9-1.62,3.67-5.14,2.67-7.13-1.52-9.81-.27-1.7,1.1-1.48,3.82-2.99,5.03-4.17,3.35-2.93-5.44-.58-7.36-1.12.27-2.59-1.75-2.44-2.66,1.26-2.43,6.3-7.19,7.67-2.49l-2.28,3.05.26-2.66Z"/>
    <path class="cls-1" d="M404.4,156.98l-2,.06c-.25-3.45-1.09-6.56-.26-10-.93.15-5.16.07-5.37-.88-.84-3.88,3.88-1.03,5.19-1.89,1.81-1.19,1.14-10.42,3.5-9.99,2.97.55-1.09,8.87-.06,10l2.97-.75.4,1.67-4.62,2.12.25,9.67Z"/>
    <path class="cls-1" d="M365.31,229c1.15.92,6.88-6.78,8.1-7.58,4.77-3.1,2.5,2.75,2.51,5.3l6.8-5.5c1.94,1.37,1.92,3.84,1.88,5.94,1.45-1.31,3.17-.06,4.25-.26,1.18-.22,3.45-6.75,7.24-6.04,2.78.52-2.05,6.75-3.46,7.1,2.7,4.21,5.93-1.3,7.58-1.59,1.24-.21,7.74.85,8.37.17l-1.16-2.58-5.53,1.42c-.45-1.18,1.93-2.62,2.63-3.01,5.73-3.15,8.53,4.07,5.41,6.43-.5.38-8.37,3.83-8.85,3.87-3.05.24-2.24-2.36-2.41-2.53-.35-.35-3.56,1.5-4.92,1.45-2.13-.09-2.99-2.1-4.19-2.35-4.3-.88-8.35,5.65-7.71-4.66-3.52,2.94-8.25,10.37-8.97.9-2.73,2.9-9.99,12.13-9.61,2.6.43-10.56,6.61-8.12,2.03.93Z"/>
    <path class="cls-1" d="M386.25,177.46l-.45,8.02c2.35-1.36,3.28-4.96,6.21-5.51,1.73-.33,1.03,2.66,2.83,3.19,2.93.87,3.07-4.38,5.49-1.01,1.77,2.48.29,17.26-.37,20.98-.86,4.86-2.39,11.85-8.94,9.37-4.82-1.82-4.08-9.09-2.72-7.76.21,3.54,2.37,7.05,6.36,5.71,4.43-1.49,3.92-20.25,3.82-24.66-2.6.91-6.37-.1-8.05-2.46.07,1.9-4.97,6.49-6.51,5.49-.84-2.39-1.36-4.92-.22-7.31-.46-.36-4.33,2.91-3.32.42.46-1.12,4.5-5.77,5.88-4.5Z"/>
    <path class="cls-1" d="M440.4,182.05l.1,3.33c4.39-3.17,7.18-3.42,9.72,1.74,1.82.81,1.25-5.84,4.26-3.8l.69,1.34c-2.74,8.78-1.97,28.52-8.17,35.17-1.66,1.78-5.64,3.99-6.26.24,3.86.66,5.98-2.9,7.03-6.01,1.11-3.29,4.39-20.66,3.58-23.21-.16-.52-1.89-.57-2.79-1.28-1.09-.86-1.85-3.27-3.17-3.57l-6.8,2.77-.71-5.54,2.53-1.17Z"/>
    <path class="cls-1" d="M415.57,176.03l6.62-2.56c1.88,1.31-.16,6.96.22,9.04,2.21.56,5.4-5.63,7.23-4.55s1.95,9.34,1.61,11.65c-2.39,1.91-2.6-7.56-2.88-7.92-3.16,1.69-8.76,8.02-8.7.55,0-1.12,1.63-6.27-.41-5.63-5.79,1.82-4.96,8.74-6.22,13.61-.19.73-.18,2.39-1.39,1.9-2.44-.99,1.46-10.3.69-11.35-.81.72-3.37.88-3.32-.25s3.63-2.27,3.8-2.56c.41-.67.06-3.43.68-4.56,1.71-.32,2.07,1.4,2.07,2.61Z"/>
    <path class="cls-1" d="M417.82,222.3l-.5,6.01c6.36-7.29,11.19-5.74,12.76,3.67l-2.06-.36c-.47-1.13-2.43-5.76-3.73-5.52-2.99.57-7.75,8.08-9.52,7.31-3.5-1.51,1.7-7.27.57-9.97l2.48-1.15Z"/>
    <path class="cls-1" d="M375.52,175.08c1.42,3.2.48,6.06.26,9.33l3.31-.42-3.9,4.78-7.31.87-.38-1.7,6.27-2.17-.17-7.31-1.99-.28,3.9-3.1Z"/>
    <path class="cls-1" d="M435.76,183.51l.72,3.55-2.58,1.16c.78-1.77-1.77-1.9-1.41-2.95.3-.89,2.46-2.3,3.27-1.76Z"/>
    <path class="cls-1" d="M804.77,104.91c1.51,1.2,3.99,1.88,1.55,4.19-1.59-.9-3.86-2.96-3.78-4.9.1-2.44,2.06.57,2.23.71Z"/>
    <path class="cls-1" d="M771.4,237.61l-.87,4.67c-3.92-1.56-2.67-4.17.87-4.67Z"/>
    <path class="cls-1" d="M176.7,138.69c-.84.72-2.07.85-3.13.95.54,2.77,2.43,1.36,4.08,2.9-2.01,4.28-7.4.18-6.76-3.5l-7.99,1.26c-1.6-1.07.26-4.12-.13-5.71-2.15.66-5.73,7.1-6.91,7.45-3.15.94-3.51-5.18-2.41-7.21,2.84-.24.9,2.26,2.41,3.26l7.16-6.88c2.32-.06,2.16,3.86,1.8,5.32l6.86-.16c2.13-2.68,3.26-7.04,7.24-7.53,3.13.79-.77,8.62-2.22,9.87Z"/>
    <path class="cls-1" d="M138.91,178.88l5.57-3.98c2.35,1.4,3.49,3.87,2.47,6.43l-1.96.06c-.26-.2-.16-4.03-1.76-3.28-6.6,8.52-6.92,2.59-6.78-4.5.02-.93.57-1.17-.73-1.96-6.56,2.91-5.72,6.21-5.34,12.8l-1.99.05c-.77-2.09.22-4.16-.19-6.3-.19-.97-1.21-1.63-1.25-2.57-.06-1.39,1.49-1.64,1.76-2.33.62-1.62.14-5.31,2.24-6.2,2.25-.96.17,4.31.45,4.65l5.67-3.41,1.6.89.25,9.67Z"/>
    <path class="cls-1" d="M140.74,133.81l6.51.68c4.75,7.97.41,16.24-1.72,2.16l-5.39-.15c.56,2.22-.36,4.44-.44,6.42-.06,1.7,1.99,4.09-1.27,4.3-2.11-3.65,1.12-8.69-2.28-10.94,3.19-1.9,2.05-2.49,2.82-5.1,1.28-4.33,4.69-.75,1.77,2.64Z"/>
    <path class="cls-1" d="M173.32,168.65l.25,9.67c0,.27-1.69,1.21.35.99l5.24-4.12c3.02,3.21-.39,2.29-2.24,3.72-.93.72-1.49,1.97-1.93,3.04,1.22.08,7.32-.72,7.34.82-.84,1.05-2.41,1.52-3.68,1.7-3.27.47-4.81-1.56-5.9,1.55-.9.54-1.7-1.41-1.7-1.62l-.28-10.67.59-4.98,1.95-.08Z"/>
    <path class="cls-1" d="M166.02,185.96c.12.3,1.9-.02.81,2.2-3.01,6.14-4.06-7.55-4.55-7.89-2.48-.33-2.79,3.75-3.85,4.46-3.55,2.41-4.45-7.03-.22-7.03l.38,1.99c6.3-7.36,5.81,2.31,7.42,6.26Z"/>
    <path class="cls-1" d="M151.53,177.22c.91,2.26.55,5.15.11,7.58-.14.79-.18,2.9-1.5,2.45-1.41-.48.03-6.81-.56-8.31l1.95-1.72Z"/>
  </g>
</svg>