<?xml version="1.0" encoding="UTF-8"?>
<svg id="Layer_2" data-name="Layer 2" xmlns="http://www.w3.org/2000/svg" viewBox="0 0 826.21 561.46">
  <defs>
    <style>
      .cls-1 {
        fill: #606060;
      }
    </style>
  </defs>
  <g id="Layer_1-2" data-name="Layer 1">
    <g>
      <path class="cls-1" d="M122.88,505.29c2.73,2.67-.03,9.47.21,12.96,2.85-.38,3.49-3.89,6.77-3.52,4.08.46,4.6,4.02,4.19,7.54,6.16,1.47,4.93-9.7,9.92-9.82,3.23-.08,5.3,1.45,5.49,4.73.34,5.79-2.05,18.92-3.91,24.64-3.23,9.93-12.96,23.06-24.99,18.82-5.89-2.08,4.49-4.84,6.42-5.94,8.57-4.89,12.29-16.13,12.92-25.47-5.19,4.69-9.79-1.52-12.89-1.99-1.02-.16-2.39.65-4.09.4-4.33-.63-7.24-4.98-7.81-9.08-.29-2.09-.43-9.73.09-11.49.95-3.26,5.4-4.02,7.69-1.78Z"/>
      <path class="cls-1" d="M94.57,521.18c2.25-2.27,9.76-8.37,12.1-3.65s-5.6,3.52-5.52,7.3c.97.89,12.38-4.83,10.81,1.65-1.48,6.13-14.02,8.04-18.12,2.74.12,2.41-.47,4.61-2.89,5.54-2.64-.52-4.06-2.84-5.53-4.8-8.03,9.7-22.11.38-12.46-9.55,1.8-1.85,7.05-5.16,7.73-1.06s-4.88,2.45-3.68,7.67c.33.43,8.44-5.05,9.1-5.89,2.4-3.05,1.85-19.37,9.19-14.97,2.83,1.7-1.18,11.8-.73,15Z"/>
      <path class="cls-1" d="M22.74,554.68c-10.5,2.77-.96-20.76-2.78-22.52-16.19,1.55-4.18-24.58,4.7-16.05.48.46,3.26,4.65,3.5,5.28,1.04,2.73.08,11.95-.36,15.32-.38,2.83-3.19,16.89-5.06,17.97Z"/>
      <path class="cls-1" d="M38.25,526.3c3.41-2.6,3.62-8.58,9.04-5.75,3.78,1.97,1.72,3.21,1.95,5.35.25,2.31,3.78,4.71,1.38,8.03s-6.5-.31-8.23-.15c-1.17.11-2.18,1.4-4.48,1.35-4.36-.09-7.21-2.7-7.73-6.97s-.42-15.15,6.6-11.72c3.53,1.73.97,6.87,1.47,9.87Z"/>
      <path class="cls-1" d="M58.5,516.93c3.2-1,6.48.41,6.8,3.95.11,1.23-1.17,9.56-1.65,10.72-1.48,3.58-7.14,2.41-7.84-1.29-.48-2.53-.29-12.45,2.68-13.37Z"/>
      <path class="cls-1" d="M60.37,508.93c2.38-2.34,7.06-.42,7.07,3.11.02,7.03-11.17.93-7.07-3.11Z"/>
    </g>
    <path class="cls-1" d="M151.33,272.39c3.65-2.89,5.35-7.39,10.89-6.92,1.94.16,1.99,1.86,2.57,1.95,2.92.45,5.83-1.16,6.97,3.37,6.3-4.76,11.46.91,6.13,6.7-.25.92,6.13-1.93,6.8-2.89,2.06-2.99,2.13-15.05,5.34-16.19,5.53-1.96,6.34,5.34,5.01,9.18,2.17-.96,7.59-1.67,8,1.66.43,3.53-4.1,3.79-5.46,6.28l10.2-1.16c1.15,5.78-7.72,9.28-12.3,8.42-1.74-.33-2.51-2-4.25-1.85.83,7.33-6.78,6.68-7.32.31-4.13,5.27-11.54,7.93-13.92-.14-3.93,3.79-5.46-.09-7.06-.38-.79-.14-10.87,9.48-12.73-.23-3.47,3.4-5.42,5.84-10.86,4.54-2.22-.53-.51-3.34-4.73-.21-12.55-.2.23-14.23,2.75-19.98,1.77-4.02,2.66-8.35,3.94-12.53,13.01-3.95,3.88,10.98,4.66,13.24.28.82,5.9,3.75,5.37,6.84Z"/>
    <path class="cls-1" d="M182.55,423.59c.14.22,2.3.73,3.2,1.55,1.66,1.5,1.6,4.06,3.26,5.14.06-6.34,6.48-11.09,12.44-10.63,1.8,1.43,2.47,3.63,2.26,5.88-.24,2.64-2.83,4.47-3.34,6.95,2.6-.63,5.32-3.25,7.67-4.08.84-.29,2.03.43,2.13.35,1.2-.89,1.65-7.61,5.09-8.34,4.1-.87,4.56,4.05,9.34,3.96,2.64-.05,4.26-2.12,7.92-1.4,3.8.74,7.73,10.3,4.79,12.07-4.13,2.48-7.54-5.01-8.78-4.03-.12,1.69-1.85,4.53-3.46,4.99-2.61.75-4.11-1.2-4.97-1.14-1.11.08-3.1,4.41-6.52,4.19-2.69-.18-4.5-3.84-5.81-3.6-2.97,3.06-5.21,4.5-9.62,4.39-2.03-.05-10.37-1.76-12.19-2.47-2.97-1.15-3.3-3.64-5.7-4.16-2,6.55-6.77,5.93-10.98,1.46-.42,5.03-4.55,5.39-8.02,2.53-3.82-3.15-1.27-6.3-2.34-9.39-.34-1-1.92-.94-2.11-1.68-1.11-4.25,2.95-4,5.12-5.74,2.68-2.15,2.99-6.22,8.46-3.29,1.45,2.19.15,4.57,3.26,5.14.19-4.06,1.65-8.41,6.58-6.2,3.6,1.62,1.46,6.18,2.32,7.55Z"/>
    <path class="cls-1" d="M489.8,263.45c5.86-4.6,10.36-3.14,10.86,4.52,5.08-3.97,8.4-10.07,14.66-12.53,4.45,3.89-4.58,8,2.19,10.04,1.39.13,1.65-2.37,3.15-3.21.8-.44,7.1-2.37,8.13-2.5,4.13-.49,10.56,2.89,9.44,7.77-.55,2.41-3.76,2.77-4.75,4.45l5.62-1.21,1.98-6.91c2.76-1.6,4.33.91,5.41.7,1.79-.36,2.32-3.34,7-2.15,3.29.84,5.3,7.17,2.54,7.29-1.83.08-2.37-1.01-4.74.53-3.35,2.17-6.29,19.1-13.44,7.44-4.07,2.45-9.45,2.46-13.81.62-2.66-1.12-3.42-2.6-5.44-4-1.73-1.2-4.62-1.1-5-4.11l-7.3,6.35c-3.84.02-8.01,3.3-11.6,1.23-1.05-.61-1.59-2.44-2.48-2.6-.65-.12-3.36.95-5.58.76-3.57-.31-7.25-1.98-7.11-6.12.03-.88,1.4-6.93,1.74-8.06,2.33-7.75,9.33-6.19,8.53,1.72Z"/>
    <path class="cls-1" d="M78.69,378.24l3.54.85c0-2.37.69-5.09,2.18-6.97,4.77-6,12.97.29,10.58,6.93-.69,1.93-2.4,2.28-3.24,3.69,2.95,1.3,5.92-.19,8.78-1.08,2.67-4.05-1.86-15.39,1.76-17.98,4.56-3.27,7.75,2.56,7.74,6.64,4.89.41,6.35-6.33,10.74-4.6,3.64,1.44,1.7,4.37,2.57,5.91.31.55,2.59.53,2.81,2.74.23,2.33-1.79,2.93-3.69,3.28-.61.81,7.01,12.85-2.24,9.89-4.26-1.36-4.01-6.37-5.82-8.09-1.09-1.03-3.71-.95-4.76-2.56-1.1,2.78,1.13,10.38-2.95,11.01-2.84.44-3.8-2.11-4.36-2.12-.32,0-3.55,2.78-5.44,3.23-8.27,1.94-10.12-3.47-17.21-5.53-.74.47-.98.98-1.12,1.82-.59,3.48-.3,19.06-4.74,19.46l-3.2-1.27-.1-17.82c-4.28.49-5.94.01-9.53-1.69-.53-.25-1.36.26-1.39.2-.12-.2-.5-3.26-.4-3.72.96-4.57,8.09-3.92,11.32-2.1,1.03-4.76-3.89-16.62,4.18-16.68,5.74-.05,3.38,12.92,3.98,16.57Z"/>
    <path class="cls-1" d="M83.55,260.58c.14.09,2.02-.88,3.17-.88,3.44,0,7.1,1.93,5.74,5.68,2.23.67,2.02-3.54,3.27-3.84,3.25.14,5.66.38,7.32,3.38,2.64-4.41,8.62-4.54,9.77.88,1.84,8.64-6.88,32.32-17.82,31.69-1.93-.11-9.11-5.29-8.05-6.97,2.23-1.11,4.64.4,6.71.05,4.32-.74,9.39-10.39,9.5-14.66-3.53,2.32-5.81-1.64-7.13-1.82-.99-.13-2.26,1.8-3.63,2.16-4.35,1.13-7.89-3.67-7.85-7.6-4.43,3.8-8.17,11.34-13.39,3.5-1.99,6.33-9.74,4.3-8.33-2.03.27-1.2,2.04-3.62,2.66-5.29.56-1.52,1.76-7.09,2.44-7.59,2.69-1.99,5.04,1.47,5.57,1.45.73-.01,2.56-2.12,6.39-1.4,3.06.57,3.03,2.85,3.67,3.28Z"/>
    <path class="cls-1" d="M422.45,264.28c4.65.16,4.47,4.32,5.57,7.75,2.28.06,2.28-2.76,3.42-4.22,4.46-5.69,11.48-9.11,10.33,1.26.38.46,7.24-5.37,8.88-5.61,4.83-.71,3.18,3.31,3.44,3.45,1.44.77,1.87-3.11,5.33-3.27,6.47-.3,1.35,10.29,0,13.25-3.11,6.87-14.74,25.19-18.91,9.1,6.19,2.16,8.09-5.27,11.21-9.06-3.18-.36-4.78-.89-4.65-4.5-4.58.99-6.91,6.75-11.69,7.3-1.34.15-9.52-1.34-10.77-1.96-2.52-1.25-2.44-2.68-4.23-4.56-2.21,2.83-3.73,4.6-7.71,4.11-1.08-.2-1.58-3.59-1.48-4.65.22-2.25,3.45-4.76,2.9-7.17-1.08,2.52-5.41,1.97-6.42,3.28-1.88,2.44-1.13,10.58-5.28,10.52-5.96-.09-.58-11.11-1-11.61-10.59-1.44-7.87-13,2.19-6.74,1.31-.17.76-6.09,4.63-5.98,3.94.11,2.78,5.29,3.05,5.51.62.52,3.69.06,4.2,3.48,2.86-2.49,3.35-13.07,7.96-12.06,5.7,1.25-1.85,11.36-.98,12.4Z"/>
    <path class="cls-1" d="M337.62,143.78c-.35-4.34,5.16-3.78,6.89-.67,1.61,2.89.26,5.66.42,8.72,2.05-.16,5.18.1,6.8,1.42,1.4,1.14,1.31,5.08,4.18,3.33-1.4-11.6,15.24-8.32,11.69,1.83,7.99-.09,7.48,4.91.3,5.8-2.68.33-4.49-.72-6.46-.63-1.8.08-3.53,1.49-5.91,1.48-3.55-.01-4.49-2.4-7.66-2.99-1.4,8.05-9.99,5.46-10.93-1.15-.67-4.68.38-9.38.7-13.85.18-2.57-2.03.07-3.32.35s-2.72-.09-4.01.01c-.37,6.27-.7,12.51,1.38,18.6-9.87,5.85-8.99-11.97-8.69-17.86-6.69,1.51-10.71-8.26-2.56-8.11,3.06.06,11.96.76,14.44,1.72,1.22.47,1.65,1.59,2.74,2Z"/>
    <path class="cls-1" d="M43.51,151.48c.69.47,1.11,2.13,2.21,2.52,4.37-4.94,9.18-7.47,12.46.03l3.37-6.1c8.23,1.55,7.43,4.82,6.08,11.71-1.2,6.11-5.55,13.73-9.85,18.23-2.36,2.47-9.91,3.48-9.49.58,4.88-3.54,8.87-7.82,9.41-14.12-2.56.96-6.1-2.96-7.26-3.12-2.39-.33-3.88,5.65-9.64,1.51-.89-.64-1.91-2.93-2.78-2.95-4.23,3.56-8.35,6.37-11.39-.18l-6.56,4.63c-5.47-.19-6.32-10.99-4.85-14.77,3.64-4.13,7.91,2.89,8.41,2.9.31,0,1.43-1.17,2.29-1.38,4.88-1.18,5.86,2.03,7.27,2.11,2.86.15,4.49-5.54,10.32-1.6Z"/>
    <path class="cls-1" d="M713.94,15.22c3.86-1.68,7.67.12,4.4,4.03,13.78,5.63,3.39,9.82-5.86,6.94-1.46,7.71-7.62,1.74-6.6-3.65-1.43,1.13-1.63,2.28-3.54,3.4-4.97,2.91-9.37,1.41-12.18-3.4-2.26,5.57-12.06,6.14-13.97.01-.67-2.14.68-2.03.8-3.68l-5.47.75-.74,10.24c-4.78.81-6.32-2.89-6.51-7.04-.05-1.08,1-3.55.65-3.92-.2-.21-4.12-.27-4.12-3.31,0-2.31,6.32-5.13,8.15-5.16,3.01-.05,2.97,2.31,4.05,2.95,1.8,1.06,5.44,0,5.85,4.04l1.06-.02c3.52-4.62,9.23-3.27,11.72,1.48,4.15-3.55,6.46-7.41,12.35-3.56,1.56,1.02,1.36,2.38,2.64,2.83.22-2.94-.39-12.75,4.05-12.39,4.14.33,3.33,6.63,3.28,9.47Z"/>
    <path class="cls-1" d="M241.49,157.11c6.06,1.58,5.89-3.13,9.85-5.16,1.51-.77,4.17-1.62,5.82-1.42,1.02.12,5.06,3.23,5.35,3.82,3.05,6.29-6.98,11.13-12.23,8.6-.91,7.82-6.53,22.98-13.5,27.11-5.08,3.01-12.33-9.03-11.37-10.28,11.65,9.55,14.06-7.42,17.55-15.35-3.82.87-7.72-2.03-8.05-5.86-1.95-.53-1.37,1.21-2.52,2.2-7.31,6.31-15.12,1.84-13.36-7.52.89-4.73,5.48-.73,7.47,1.49,2.54-.77,6.93-5.52,9.22-5.34,3.73.3,6.81,3.91,5.78,7.71Z"/>
    <path class="cls-1" d="M39.44,256.12l7.32.39c.89,5.38-4.41,5.43-8.09,6.92.43,4.33-5.56,21.86-8.84,23.45-4.2,2.03-7.53-2.1-8.17-6.03.78-1.91,2.69-.29,3.61-.9,2.14-1.42,4.82-13.85,5.74-16.81l-4.3-.44c-4.84,14.98-21.34,6.39-12.13-5.71,3.7-4.86,11.21-.61,16.66-2.02l.87-5.83c5.79-3.7,7.84,1.6,7.34,6.98Z"/>
    <path class="cls-1" d="M274.59,420.77c4.48,1.9,9.88-1.04,12.06,4.39l1.1-5.12c6.04-1.06,8.63,5.53,6.4,10.44-3.08,6.81-10.48,9.02-15.55,2.75-5.47,7.49-16.03,1.85-15-6.6-3.54,2.23-9.49-.82-8.48-5.16.85-3.65,7.61-1.4,10.19-2.28,1.49-.51,2.37-4.03,3.74-5.03,5.17-3.77,9.3,1.8,5.52,6.61Z"/>
    <path class="cls-1" d="M596.15,415.15c1.95,2.86.79,5.35-1.47,7.56-1.05,1.03-3.07,1.12-3.4,2.44l8.74,2.98c2.32,3.52-8.47,4.66-10.96,4.01-3.08-.81-9.64-5.89-10.23-9.16h-.71c-2.43,4.86-9.37,10-12.81,2.92-8.04,11.42-11.57-3.02-7.95-10.3l6.1,2.24c1.19-5.13,7.03-3.7,8.08.74,3.02-2.21,6.79-3.74,6.94,1.47,3.23-.11,2.63-2.81,4.01-4.77,3.28-4.68,10.46-4.82,13.65-.13Z"/>
    <path class="cls-1" d="M513.9,160.62c-1.86.64-3.33-1.99-4.13-2.13s-1.76,1.26-2.88,1.41c-1.23.17-2.42-.67-3.49-.53-1.88.24-4.27,3.28-7.08,2.42-7.34-2.25-4.37-14.17,4.03-14.41,2.93-.09,7.68,2,8.79,1.99.6,0,1.07-1.3,2.57-.92,1.41.36,3.72,3.39,4.01,3.38.46,0,1.29-2.66,4.21-2.08,7.93,1.58,2.04,14.32-1.05,18.42-5,6.63-14.36,9.49-21.34,4.04-4.05-3.16,5.44-3.29,7.58-3.9,4.65-1.33,6.81-3.25,8.77-7.68Z"/>
    <path class="cls-1" d="M162.09,213.52c2.61-1.42,4.96-.76,7.3.73-1.46-4.86,3.44-5.97,7.29-4.39,1-5.83,7.59-5.48,7.38.69l4.04.73c.74,2.63.1,4.56-2.63,4.8,6.62,1.94-.38,7.7-5.43,6.92-4.38-.68-4.15-6.79-9.19-6.55.03,3.69-1.13,7.08-5.37,7.07-1.21,0-2.97-.41-2.69-1.94h-.71c-1.67,3.61-6.01,7.03-9.21,2.97-3.49-4.42,3.58-13.41,1.74-19.3-.41-1.31-2.8-2.13-1.94-4.07,9.77-5.41,11.78,4.62,9.41,12.34Z"/>
    <path class="cls-1" d="M562.05,210.54c8.63-1.26,7.66,5.9,7.2,12.09,6.2-.59,3.64-3.12,4.37-6.09,1.13-4.6,7.69-6.49,10.06-1.77,1.88,3.74-.83,3.67-1.27,5.52-.87,3.65,5.07,4.36,4.7,8.02-3.8,1.42-7.23.49-10.01-2.39-5.84,7.69-15.98,3.1-16.04-5.81-2.79,1.5-4.55,5.85-8.09,5.57-2.61-.21-3.84-3.59-3.5-5.9.19-1.34,6.2-14.05,7.14-15.2,3.74-4.62,9.15,1.47,5.44,5.96Z"/>
    <path class="cls-1" d="M544.46,371.77c-1.24.05-.97,1.93-1.84,2.9-1.67,1.86-5.89,1.9-7.66.39-2.67-2.27,1.91-6.51,1.1-9.15-3.49,5.11-4.84,13.63-11.93,6.22l1.32-3.29c-3.74-.03-15.09,1.46-13.04-5.34,1.49-4.95,10.77-1.54,14.13-1.93,1.1-.13,6.12-1.33,7.16-1.68,2.76-.92,5.62-5,8.79-4.12,1.26.35,1.92,2.31,3.23,2.68,2.84.81,5.45-1.09,7.44,2.8,3.07,5.99-3.23,21.37-8.69,10.52Z"/>
    <path class="cls-1" d="M553.98,401.75c-.18-3.35,3.82-4.31,5.84-6.95,4.15-5.39,5.91-15.63,5.86-22.31-7.63.69-13.09-5.69-10.65-13.21,1.16-3.57,6.15-4.05,7.4,0,.44,1.42-.18,6.45,2.14,5.89,2.88-2.78.06-9.06,5.2-9.46,7.01-.56,5.67,6.86,5.45,12.06-.53,12.76-4.86,34.68-21.24,33.98Z"/>
    <path class="cls-1" d="M364.6,58.48l.11,5.02c1.77,1.84,6.75-10.42,11.71-5.49,2.1,2.08-1,4.78-1.83,6.97-2.59,6.8-5.53,23.38-14.62,23.73-2.14.08-4.97-.27-6.22-2.16,6.33-3.68,9.55-8.5,10.95-15.72-2.45,1.81-5.82-2.06-6.2-2.07-.92,0-3.27,3.62-6.98,2.49-2.71-.83-5.39-5.9-6.24-8.54,3.46-2.83,5.81-10.9,11.32-7.57,2.81,1.7,3.03,4.35,8.01,3.34Z"/>
    <path class="cls-1" d="M317.96,111.43c4.94-2.07,8.02.77,8.07,5.83l7.29.03c-1.83-8.85,7.95-8.35,10.45-1.98.62,1.58-.39,2.89-.14,3.32.27.47,2.8.35,2.11,2.67-.65,2.19-6.71,1.3-8.15,1.51-5.28.77-8.05,2.79-13.55.45-2.33-.99-3-2.69-4.96-3.77-4.79,5.77-8.63,2.86-9.54-3.68l-4.77,1.09.69,4.29c-6.35,5.71-7.03-3.59-8.52-7.94l4.91-6.62c2.1-1.17,2.62,2.37,3.67,2.97,1.52.87,4.25-.29,5.49,1.81,2.09-1.65,1.13-7.74,4.82-6.97,3.1.65,3.62,4.5,2.13,6.97Z"/>
    <path class="cls-1" d="M342.94,12.1c.53-.44.82-2.17,1.63-3.11,2.6-3.04,5.07-2.26,8.65-1.67l.71,5.89-4.21,5.66c1.35.46,3.58-2.61,4.77-.75,1.46,2.28-.48,5.85-3.11,6.45-7.75,1.78-7.9-7.65-11.45-7.08-.96.16-6.82,6.48-10.71,4.31-.49,3.62,1.2,7.74-.19,11.15-1.13,2.77-4.86,5.25-5.64.9-.61-3.43-1.55-13.36-1.54-16.81,0-.78,2.19-7.79,2.62-8.38,3-4.12,6.92-1.3,10.36.58,2.42,1.33,5.36,5.15,8.1,2.85Z"/>
    <path class="cls-1" d="M320.37,272.93c-.43-.42-1.65,2.29-3.03,2.25-5.97-.15-1.3-11.19-.79-14.34.77-4.78-.13-13.92,4.91-15.03,10.07-2.22,19.49,6.23,9.93,14.41,5.59,4.47,5.92,6.28.53,10.9-1.9,1.63-8.39,5.98-10.74,4.39l-.82-2.58ZM328.77,252.69l-5.19-1.18-.36,6.61c.91.86,6.56-4.26,5.55-5.43Z"/>
    <path class="cls-1" d="M148.67,12.95c.28.32,3.53.35,5.37,3.04,1.25,1.82,1.27,4.5,2.07,5.61.5.68,2.19.73,2.62,2.18,1.61,5.34-8.64,5.14-9.78.22l-1.24,2.44c-2.16.92-5.93.66-6.44-2.07l-.35-7.67-2.46,1.94c1.42,16.15-7.53,15.94-6.7.24-6.2,1.52-9.04-5.5-2.94-7.69.69-.25,1.87.31,2.24.02.94-.72.9-3.97,3.57-4.45,3.71.42,3.3,4.74,6.62,5.54.05-3.27.79-11.17,5.54-8.09,3.34,2.17.99,7.75,1.86,8.74Z"/>
    <path class="cls-1" d="M31.16,101.84c-1.88.09-8.06,7.2-7.21,8.14,2.49-1.69,6.59-3.07,6.58-6.58h1.44s4.04,5.13,4.04,5.13l1.93-5.02c6.1.73,13.7,1.02,13.09,9.03-.54,6.96-6.37,8.69-8.07,1.84-3.02,4.35-6.93,2.35-8.4-2.2.42,6.01-3.52,9.24-7.3,3.67-8.46,6.7-14.07.91-9.27-8.54,2.44-4.79,10.75-15.82,13.19-5.46Z"/>
    <path class="cls-1" d="M660.52,228.1c-1.47-1.37-.77-3.25-.81-4.91-3.52,2.18-6.99,6.45-11.61,5.16-10.96-3.05-.28-16.85,7.37-17.43,2.33-.18,3.4.99,5.45,1.18,1.1-2.17,6.27-9.84,8.43-9.55,3.82.51,5,3.09,4.18,6.64-.63,2.73-6.23,15.67-7.8,18.04-1.42,2.16-3.06,2.87-5.21.86Z"/>
    <path class="cls-1" d="M634.27,266.36c.75.7,4.63-3.6,4.74-4.4.35-2.41-2.66-1.75-2.27-3.78,4.57-3.41,8.15,1.19,10.05,1.45,2.61.35,5.95-2.01,8.76,1.96,2.46,3.47-.69,5.64-1.17,8.62-.27,1.7,1.38,4.29-1.27,5.74-5.76,3.14-8.25-3.26-6.31-8.07-1.39-1.02-12.29,12.51-13.11,1.46-2.67,2.52-6.16,4.96-9.96,4.61-8.09-6.27.64-12.18,5.36-16.83h2c1.9.57,2.79,7.21,3.18,9.25Z"/>
    <path class="cls-1" d="M714.87,471.98l-4.14,4.26-4.63,1.59,2.19,2.54c-5.93,5.59-13.53-1.42-13.17-8.4-6.07,1.89-10.85,18.08-16.09,5.85-3.63,2.33-8.93,4.61-13.12,2.52-1.14-.57-1.78-2.16-3.01-2.83-5.08-2.78-7.19,1.69-11.87,3.37-6.05,2.17-8.89.45-11.49-5.26-.56-.39-5.32,7.16-11.15,4.22-1.15-.58-2.57-2.55-3.09-2.59-2.19-.17-7.22,7.39-12.81-.53-5.04-7.14,6.08-20.76,10.31-15.43,2.72,3.42-2.45,8.28-3.72,11.4,4.92.8,4.85-3.15,7.28-5.51,3.02-2.94,3.5-1.83,6.36-1.33,2.34.41,3.15-.27,5.43,2.25.83.91-.05,3.02,2.14,2.4.79-3.07,1.45-8.49,5.53-5.89,3.63,2.31-.1,4.95.31,8.45.33,2.78,5.25-1.37,6.26-2.53,1.76-2.05,2.57-7.26,6.18-5.55,1.7.81,1.42,3.55,2.93,4.06,1.97-12.8,18.66-8.08,10.98,3.65,5.8-.07,8.72-2.46,11.46-7.23,3.42.79,6.91-.49,10.16-.12,1.43.16,2.69,1.34,2.9,1.33.48,0,4.53-4.74,8.04-4.99,4.06-.3,10.63,3.77,10.96,8.09,2.12-2.01,5.52-5.18,8.62-4.26,1.33.39,1.75,2.4,3.44,2.07.76-.57,2.83-12.89,3.82-14.83.36-.7.71-1.18,1.47-1.46,11.24-1.64,5.22,9.79,4.96,15.94-.16,3.86,1.81,8.45-1.08,11.35-3.04,3.05-4.35-.16-6.61-2.2-6.49,8.7-15.88,7.21-15.73-4.4Z"/>
    <path class="cls-1" d="M589.1,465.4c.07.07,1.16-.65,1.79-.58,5.57.55,3.21-.63,6.05-1.47.67-.2,1.61.37,2.03.25,1.53-.41,1.4-2.41,4.03-1.57,5.5,1.76,5.19,6.49.69,9.55-1.34.91-3.29.63-3.63,1.85,1.72,1.13,11-1.08,10.2,2.51-.89,4.02-12.82,7.25-15.35,2.28-1.54-.62-3.22-6.51-4.74-6.27-2.56.41-4.99,8.99-10.1,7.24-.97-.33-3.29-4.12-3.24-5.26.08-1.84,1.99-4.28,2.58-6.15.99-3.16-.35-9.24,6.05-7.19,3.52,1.12,3.18,4.35,3.63,4.81Z"/>
    <path class="cls-1" d="M562.16,153.29c0-1.25-1.4-2.91-.4-4.39l5.44-2.27c-1.69-12.2,10.56-10.09,7.46.39l2.78,1.21c1.03,2.4-1.52,3.43-1.97,4.84-2.4,7.57-.43,14.4-6.12,22.4s-15.06,6.43-17.43-2.44l9.02.6c5.12-5.04,4.98-13.02,6.33-19.62-1.57-.01-3.71-.06-5.12-.74.01,4.42-5.02,11.23-9.81,10.96-9.28-.51-4.32-15.44,6.36-13.75,2.22.35,1.98,2.08,3.45,2.79Z"/>
    <path class="cls-1" d="M587.38,288.55c-.57-.66-2.5-5.75-2.03-6.25,2.47-.78,2.16,1.24,3.96,2.14,7.46,3.73,15.66-7.48,17.3-13.88-.44-1.51-5.9-1.24-5.3-6.19.23-1.88,5.52-6.86,7.32-7.39,6.02-1.76,10.6,2.05,9.3,8.3-.16.79-6.31,12.79-7.21,14.37-3.18,5.57-11.53,13.09-18.46,11.61-.4-.09-4.66-2.47-4.86-2.7Z"/>
    <path class="cls-1" d="M134.91,477.09c1.31.9,3.94-3.5,5.08-3.96.28-.11,5.65-.8,5.97-.78,14.07.71.68,20.76-6.31,10.6-4.01,4.53-10.11,10.4-14.91,3.19-.61-.91-.63-2.79-.95-3.06-.8-.69-6.52-.36-6.44-4.9.07-3.99,6.88-2.53,7.32-2.84,1.13-.79.82-5.11,4.11-5.4,2.91-.26,5.26,4.84,6.11,7.15Z"/>
    <path class="cls-1" d="M721.34,96.5c.72.74.8,2.45.91,3.48,3.8-3.77,8.58-1.54,8.78,3.66.35.37,6.21-5.78,8.01-6.28s6.2,1.71,6.97,3.37c1.99,4.35-3.19,15.34-8.03,7.32-2.81,2.62-5.79,5.39-9.91,4.04-3.87-1.27-2.31-4.97-7.74.91-9.07-.73-6.98-12.27-2.7-17.33.93-.29,3.06.15,3.73.83Z"/>
    <path class="cls-1" d="M817.28,267.45c2.42-1.19,11.87.93,8.03,4.01-2.83,2.27-21.79,7.05-22.68.7-.68-4.87,3-4.76,6.62-5.06l2.18-5.5c-3.61.23-12.88-.19-13.23-4.75-.64-8.2,7.26-3.04,10.67-2.96,3.89.09,8.75-4.27,11.78-1.87,3.33,2.64-.91,5.43-1.57,7.35-.77,2.24-.62,5.62-1.79,8.08Z"/>
    <path class="cls-1" d="M21.47,55.69c.41.28.52,1.67,1.35,1.85.73.16,2.16-.72,4.01-.35,9.16,1.87,6.98,21.96-2.94,10.7.08,1.67-1.9,5.27-3.45,5.74-2.49.75-3.75-1.09-4.97-1.09-1.87,0-5.15,3.51-7.12-1.19-.72-1.71-.12-15.8.5-16.68,1.58-2.24,5.43.28,6.62.42,2.03.23,3.39-1.19,6.01.59Z"/>
    <path class="cls-1" d="M79.32,477.82c.89.76,5.71-5.03,10.22-1.8,5.66,4.05-2.14,6.44-2.16,7.29,1.15,1.62,5.02,1.63,4.3,4.27-1.43,5.25-14.5,4.26-14.56-2.44-1.99.73-1.03,4.2-1.82,5.84-2.36,4.89-6.67-.51-7.31-.56-.46-.03-3.4,2.21-5.45,2.43-3.98.43-7.39-2.43-8.1-6.25-1.45.59-1.13,3.5-2.7,4.42-4.6,2.71-6.37-1.05-8-1.39-1.1-.23-3.04,1.61-4.45,1.92-11.64,2.51-9.64-10.41-1.6-14.77,5.22-2.83,18.56.77,13.1,8.34l2.85-.07c1.06-6.99,5.53-11.07,10.72-4.28l-1.13,3.63c.95-.38,3.88.08,4.38-.32,1.19-.94,4.69-12.67,5.96-15.29,1.57-3.24,2.97-6.95,6.83-4.13,5.67,4.15.16,8.17-1.08,13.16Z"/>
    <path class="cls-1" d="M18.61,469.78v12.07c0,.16-1.09.82-.73,1.09,3.32-.6,5.02-1.26,8.34.08,12.82,5.21-8.44,21.56-15.55,12.63-3.03-3.8.29-14.49.64-19.66.15-2.27-1.27-6.57.5-7.72,2.82-1.76,4.26.93,6.81,1.52Z"/>
    <path class="cls-1" d="M245.99,266.38c.19.2,3.12,4.26,3.22,4.52.49,1.41.19,3.12.35,4.6,1.19-.38.88-2.34,1.69-3.71,1.73-2.91,8.24-5.71,10.82-2.64,1.4,1.67.42,4.1.58,4.32.08.11,2.31-1.32,2.15.9-2.71,6.58-11.84,11.89-14.46,2.56-1.16.2-.95,1.67-2.09,2.64-4.4,3.79-7.31-4.41-7.86-4.4-3.14,3.58-7.5,3.38-9.56-1.07-2.95,3.49-7.23,2.98-11.24,3.73-1.17,4-7.19,20.86-11.15,21.43-9.37-2.43.66-13.69,2.51-19.53,1.4-4.41,1.47-9.09,2.42-13.58,1.59-.42,3.75-.23,5.05.81,2.12,1.7.85,6.32,4.51,2.72-2.65-1.57-9.51-10.03-3.27-10.08,5.79-.04,8.88,6.25,12.42,10.01,3.68-3.41,9.27-8.23,13.91-3.24Z"/>
    <path class="cls-1" d="M280.78,256.78c3.99,3.83-3.05,10.75-2.24,11.62,2.65-2.32,14.22-.86,7.84,2.64-1.55.85-4.55.89-5.43,2.37,2.29,1.16,11.85,1.43,11.1,4.89-2.5,4.93-7.88,3.67-12.26,2.12-2.87-1.02-4.09-2.97-6.75-3.72-.17,2.46-.87,9.38-4.77,7.93-9.34-3.48,6.39-23.54,9.37-27.97.71-.94,2.41-.58,3.14.12Z"/>
    <path class="cls-1" d="M540.82,475.63c3.34.41,6.87-1.23,9.93.69,3.37,4.28-13.79,12.52-18.04,2.66-2.1-4.87.98-9.23,2.98-13.58-4.66.74-11.03-3.9-7.32-8.43,3.34-1.77,6.42.99,9.16,1.16,3.32.21,6.36-2.29,9.05,1.86,2.62,4.03-6.27,10.79-5.76,15.63Z"/>
    <path class="cls-1" d="M304.57,376.89c-1.41.8-1.68,2.54-3.28,3.65-2.44,1.71-5.27,1.5-7.35-.7-3.11-3.27,3.1-11.58,5.88-13.94.89-.75,2.77-.68,3.2-1.92.82-2.35-.91-9.97,2.8-11.11,3.22-.99,5.51.73,6.03,3.93.57,3.51.44,22.66-1.37,24.88-.68.83-1.51,1.18-2.58,1.08-2.45-.24-3.56-3.8-3.33-5.88Z"/>
    <path class="cls-1" d="M512.52,18.43c.57.79,1.68,1.85,1.62,2.9-2.15,5.45-7.55,3.71-10.47-.23-2.31,2.58-5.18,4.58-7.1.5l-4.23-9.29c1.11,2.58-6.53,15.5-8.78,13.16-.54-3.44,1.85-6.22,2.73-9.34.69-2.46.56-5.22,1.63-7.88,5.41-13.36,11.07,3.29,12.09,3.3l4-3.35c5.19-.37,5.12,5.81,6.76,8.73.5.88,1.43,1.05,1.75,1.5Z"/>
    <path class="cls-1" d="M283.53,67.15c-.42,5.52-6.52,3.97-6.6-1.07-.03-1.63,2.57-17.23,3.12-18.86,3.07-9.13,18.13,4.32,17.36,12.19-.56,5.78-8.6,10.11-13.88,7.74ZM284.98,61.3c6.46-.42,6.37-5.28,1.82-8.77l-1.82,8.77Z"/>
    <path class="cls-1" d="M413.11,205.32c9.2-.27,6.36,15.2-1.45,8.79-1.58,5.81-5.85.98-6.96.97-1.91-.01-5.38,4.28-9.53,1.24-6.05-4.43.16-14.7,5.7-13.06,5.89,1.75-1.51,7.47-.93,7.91,1.18.03,3.4-.05,4.22-.89,1.66-1.7,3.65-19.53,8.98-17.04,3.61,3.49,1.54,8.13-.04,12.08Z"/>
    <path class="cls-1" d="M569.31,51.25c1.31,1.33,1.15,4.79.18,6.4.49.39,4.24-2.49,7.67,1.5.94,1.1.82,3.46,3.05,3.53,2.7.09,1.4-4.37,1.71-6.12.49-2.81,4.5-3.19,6.57-1.43.64.54,2.33,6.33,2.29,7.27-.09,2.05-2.53,5.21-4.32,6.04-4.13,1.93-5.43-1.89-7.09-1.75-.63.05-1.38,1.31-2.88,1.23s-2.47-1.64-4.28-1.37c-3.04.45-4.53,4.23-8.97.63-6.05-4.9,1.05-21.02,6.06-15.93Z"/>
    <path class="cls-1" d="M649.78,130.14c-3.88,3.69-6,2.9-7.87-2.03l9.69-14.26c-3.54.22-6.76-4.99-5.68-8,1.18-3.28,17.73-8.22,17.5,2.18-.1,4.52-2.31,4.09-3.64,6.35-3.03,5.13-5.5,11.48-10,15.76Z"/>
    <path class="cls-1" d="M114.49,149.39c.57.58.8,2.5,1.13,3.4,3.72-3.4,7.91-.34,9.02,3.86.79.55,5.6-10.95,8.72-6.33,3.99,5.92-3.79,18.25-9.56,17.06-2.05-.42-5.33-3.56-5.69-3.55-1.4,0-3.01,2.94-6.75,0-6.14-4.84-1.46-19.15,3.12-14.42Z"/>
    <path class="cls-1" d="M210.42,384.74c-.73-.7-1.35-3.1-1.67-4.2-13.89,3.68-14.54-16.18-.71-13.9-.64-3.75.99-7.81,5.33-7.18,5.29.77,2.75,5.88,2.69,8.98s1.17,16.2-1.93,17.14c-1,.3-2.96-.13-3.71-.85Z"/>
    <path class="cls-1" d="M484.85,164.78c-.87-.72-1.68-2.96-1.68-4.17-2.25.05-2.98,2.68-5.07,3.33-6.44,2.01-10.82-2.34-6.94-8.4,2.56-4,7.22-8.41,12-5.17.85-4,2.12-7.7,6.24-9.36,4.34.38.16,15.49.37,18.47.11,1.5,1.73,2.72,1.35,4.27-.61,2.48-4.55,2.46-6.28,1.03Z"/>
    <path class="cls-1" d="M204.72,108.39c.58.37,2.69.08,4.08.67,2.05.87,1.76,2.98,3.44,3.17,1.73-.8,4.84-.37,6.24-1.16.62-.35,1.61-2.56,2.98-3.61,6.05-4.65,12.3,2.93,8,8.36,6.52.89,5.21-5.33,7.38-8.33s3.65.12,5.38.23c2.19.14,5.46-2.66,7.7.47l-8.72,15.16c-2.8,2.52-6.65,1.3-7.37-2.4-7.31,5.71-11.58-.69-17.88-3.69-1.61,2.77-4.63,4.14-7.91,3.55-.9-.16-2.11-1.29-2.37-1.27-.41.04-2.7,5.18-6.92,3.23-1.34-.62-3.53-4.39-3.63-5.88s1.96-12.35,2.72-12.78c4.34-2.43,6.34,3.93,6.88,4.27Z"/>
    <path class="cls-1" d="M264.76,113.83c-.37.38-.24,1.47-.62,1.9-1.02,1.14-2.79,1.28-2.49,3.02l10.96,3.31c-1.85,4.94-9.77,3.66-13.66,1.95-1.78-.78-2.69-2.01-3.93-2.65-2.47-1.26-6.63-.7-7.27-5.23s3.24-3.27,4.24-4.11c.35-.3.25-1.73.82-2.45.81-1.03,2.5-.68,2.25-1.78-1.13.3-2.31-1.26-1.86-2.22,4.31-4.56,11.64-1.66,14.63,2.98,3.39,5.26-1.75,3.93-3.06,5.28Z"/>
    <path class="cls-1" d="M736.82,257.21c1.51.09,3.79.71,4.9,1.7,1.32,1.17,1.62,4.09,3.14,4.89,2.8-15.08,15.08-7.25,8.05,4.39.53.51,6.27-3.57,6.98-4.35,2.55-2.8,1.39-6.61,6.41-5.01,1.76.56,1.77,2.55,2.04,2.73.32.21,4.27-1.96,7.27,1.12,2.25,2.3,2.38,7.93-.97,9.36-4.14,1.77-3.19-2.09-5.64-3.84-.24,3.72-4.7,6.78-8.07,4.76-1.26-.75-.75-3.16-2.17-3.3-1.37,4.29-5.79,6.34-10.07,4.56-1.01-.42-1.72-1.67-2.94-2.18-3.29-1.38-6.95-.93-8.58-5.31-2.58,4.07-5.59,8.01-10.08,3.47-.31-6.97,2.47-14.63,3.49-21.77,6.38-3.12,8.22,3.82,6.22,8.78Z"/>
    <path class="cls-1" d="M709.04,258.67c1.39-.42.91-1.94,2.88-2.62,4.94-1.69,7.4,2.61,6.63,7.01l4-3.65c6.03,9.47-3.85,18.14-9.88,8.05-.63-.44-8.91,7.18-11.86-.2-.9-2.25-.33-11.34.85-13.22,2.11-3.38,8.76.36,7.38,4.63Z"/>
    <path class="cls-1" d="M742.82,69.36v-3.66c-8.42,1.03-8.64-9.07-1.33-11.24,2.35-.7,4.75.57,5.72-.05.27-.17,3.26-4.88,3.45-5.37.94-2.34.52-4.95,1.59-7.19,3.13-3.02,7.39.72,7.17,4.35-.26,4.43-7.99,20.3-11.81,22.46-1.68.94-2.99.78-4.8.7Z"/>
    <path class="cls-1" d="M28.85,387.85l7.6-2.89c6.04,1.79-6.86,12.42-9.14,13.43-1.88.83-4.49,1.37-6.12-.31-2.97-3.06.89-4.29,1.09-6.21.18-1.75-1.26-6.45-1.43-8.85-.24-3.33,2.3-4.65-3.18-2.56-6.37-4.56,1.57-8.24,6.53-8.65,8.68-.72,3.57,10.92,4.65,16.03Z"/>
    <path class="cls-1" d="M28.98,204l-2.93,15.36,5.15.34c5.25,3.6-10.76,9.43-13.01,9.78-3.08.49-8.01-4.6-4.25-7.23,1.06-.74,2.38-.57,3.3-1.08,2.14-1.19,2.16-7,2.27-9.42-3.61-.84-5.43-.98-7.21-4.56.51-5.04,4.93-2.31,7.53-2.44,2.84-.14,6.02-1.36,9.14-.74Z"/>
    <path class="cls-1" d="M662.22,419.3c1.29,1.19,9.22-7.17,12.45-6.29s4.04,5.29,4.4,5.56c.25.19,2.64-1.17,4.9-.19,1.49.65,7.02,7.32,6.4,9-2.89,4.18-6.59,3.65-8.76-.75-4.61,4.07-11.4,7.83-13.18-.75-3.94,1.79-8.27,3.74-12.66,2.45-1.66-.49-3.2-2.33-4.75-2.26-2.5.11-6.23,3.94-9.73,4.2s-3.79-2.61-5.13-2.84c-1.56-.27-3.91,4.77-7.91-.1-4.36-5.3-.78-21.76,6.23-13.35.51.61.59,2.34.69,2.42.12.08,1.29-.92,2.86-.39,1.71.57,3.24,2.6,4.14,4.08l7.46-3.13c1.63-15.27,20.19-12.45,12.6,2.35Z"/>
    <path class="cls-1" d="M703.34,421.66c-3.68,6.34,8.76,6.03,11.49,7.57,4.94,2.77-3.67,7.04-6.88,6.95-4.97-.14-11.23-4.63-12.49-9.53-.58-2.26.11-4.76-.72-6.6-1.09-2.43-5.09-2.55-2.79-7.89,1.31-3.04,4.18-.31,5.79-.16,1.8.17,3.93-1.37,5.43-.41l3.51,6.76c.03,2.17-2.99,2.68-3.35,3.3Z"/>
    <path class="cls-1" d="M560.13,114.01c.52.39,3.7-2,6.27-.28l.99,1.71c-2.15,5.78-15.39,11.15-16.51,2.03-.42-3.39,5.38-10.05,5.95-13.92,0-1.34-8.15.34-8.24-4.86-.07-3.92,11.29-3.39,13.77-1.93,5.72,3.38-.55,12.87-2.23,17.24Z"/>
    <path class="cls-1" d="M148.26,159.63c-2.73,2.27-2.34,7.83-6.95,6.7-4.39-1.08-4.36-6.99-4.18-10.7.53-10.81,4.76-3.73,7.35-3.83,1.81-.07,3.16-2.39,7.09-1.73,2.08.35,5.83,3.46,5.95,5.6.08,1.28-.69,8.87-.98,10.27-1.74,8.37-9.85-1.16-8.28-6.3Z"/>
    <path class="cls-1" d="M655.2,59.25c-.58.66-2.21,11.58-3.65,14.27-.91,1.71-3.11,4.14-5.26,3.56-3.35-1.67.22-12.15.64-15.5.44-3.57-.58-7.28.76-10.77.93-1.52,2.9-.32,2.97-.46.2-.37-.12-1.92.38-2.92,2.28-4.53,14.61,1.66,10.03,8.56-1.93,2.9-5.32,2.64-5.87,3.26Z"/>
    <path class="cls-1" d="M365.15,10.77c.24.17,3.36-1.53,5.79-.31,3.26,1.63,2.97,14.27.74,16.84-4.26,4.9-6.46-2.28-5.88-6.23-2.04.59-2.73,6.25-4.17,6.6-1.9.47-5.7-.21-6.09-2.6-.43-2.63,2.12-15.45,4.6-16.63,4.38-2.07,4.06,1.63,5.02,2.33Z"/>
    <path class="cls-1" d="M510.94,213.85c-3.63,1.26-6.32,8.76-10.68,5.27-3.77-3.02,1.53-15.34,4.66-15.65,2.94-.29,3.43,2.67,4.68,3.01,2.36.65,6.8-.71,8.64,2.78,5.21,9.87-11.06,25.75-7.29,4.59Z"/>
    <path class="cls-1" d="M602.95,102.78c1.16,1.52,5.23.54,5.37,6.13.08,3.01-3.53,7.4-6.32,8.32-3.81,1.25-10.61.48-10.45-4.71.06-1.96,3.62-8.3,4.35-11.53.46-2.02-.18-4.04.48-5.9,1.05-2.94,4.76-2.08,6.26.06,1.92,2.73,0,7.25.29,7.63Z"/>
    <path class="cls-1" d="M212.03,151.47c.99,1.16.77,2.15.21,3.44,11.25-4.94,2.83,6.72-1.26,7.9-5.04,1.45-5.58-3.48-6.42-3.49-5.57,6.39-13.73.33-9.45-7.27.63-1.12,4.96-5.29,6.13-5.61,1.74-.48,9.71,3.78,10.78,5.03Z"/>
    <path class="cls-1" d="M543.43,218.81c7.17-1.96,2.56,9.48-3.78,6.09-4.24-2.26-3.09-9.04-3.84-10.01s-6.85.34-6.84-5.23c0-6.38,8.25-1.77,8.74-2.27.02-2.98,1.09-5.48,4.42-5.35,4.72.19,2.76,4.57,5.22,7.43-1.55,3.63-5.39,4.56-3.93,9.34Z"/>
    <path class="cls-1" d="M437.94,8.94c.18.08.17,1.01.78,1.14,1.77.38,5.1-.64,5.08,2.58-.02,2.6-3.65,3.21-5.61,3.65l-.63.78,1.73,6.14,12.07-7.28c1.84,2.13-6.26,10.12-8.07,11.3-4.9,3.19-11.46.83-12.35-5.13-.3-2.03.38-4.72-.03-6.39-.24-.97-2.99-.69-3.01-3.8-.02-3.45,2.28-2.14,4.61-2.76,2.77-.74,1.52-2.03,5.42-.23Z"/>
    <path class="cls-1" d="M576.7,262.47c2.94,2.03,4.8,6.6,1.45,9.22l8.78-.82,1.32,1.36c.65,3.07-10.38,5.6-12.99,5.44-3.8-.23-9.51-4.49-12.88-6.56-2.76-6.21,4.2-4.67,5.08-5.5.29-.27-.18-2.02,1.41-3.26s6.19-.99,7.82.13Z"/>
    <path class="cls-1" d="M513.54,41.55l.46-2.25c4.45.35,8.01-12.49,6.74-14.47-.27-.41-3.51-.85-4.84-3.57-1.44-2.96-2.03-10.23,2.76-7.89,1.71.84,1.4,3.52,2.91,4.03-.64-5.49,5.25-7.9,6.41-1.65,1.37,7.38-2.73,29.61-14.45,25.79Z"/>
    <path class="cls-1" d="M332.29,57.93c.4.26.01,1.36.59,1.18,3.94-3.2,8.72-.98,8.89,4.14.05,1.67-.77,3.43-.94,5.13-.2,2.01,1.87,4.09-1.17,5.56-3.49,1.69-4.51-1.07-6.77-3.11-1.75,2.85-7.05,5.62-8.3.92-.42-1.58,1.57-6.54,2.01-8.69.82-3.97-.99-9.47,5.69-5.14Z"/>
    <path class="cls-1" d="M239.37,198.38c2.23,3.04-1.01,7.46-1.22,10.74,8.81-5.22,9.84,2.05,8.05,9.51,1.39-2.16,7.74-1.89,8.04-2.19s-.63-4.43,3.72-6.89c6.04-3.41,9.96,3.12,10.94,8.31l10.21-.69.3-9.57c2.94-4.81,6.48-2.57,8.84,1.51,1.36-1.55,3.69-3.73,5.89-3.6,2.49.14,3.44,3.82,4.06,4.28.22.16,3.49-.84,5.4-.67,10.63.93,10.21,13.41,3.7,12.47-3.03-.44-3.11-5.56-5.11-5.11-2.6.58-6.72,12.63-11.75,3.63-3.87,3.97-5.92,7.71-10.96,2.4l-16.89,5.66c-2.09.19-7.21-4.86-10.18-4.86-1.22,0-4.85,2.23-6.78,2.5-4.15.58-7.27-2.34-7.49-6.43-1.57.73-1.4,2.74-3.1,3.91-3.07,2.09-5.97,1.51-6.95-2.27-1.12-4.3,2.98-12.79,4.03-17.56.49-2.26-.67-4.59,1.4-5.91,1.75-1.11,4.62-.86,5.86.83Z"/>
    <path class="cls-1" d="M339.99,207.81c.55.56,3.17.77,3.81,2.38,3.11-4.14,7.5-4.67,12.07-2.54,12.28,5.7-9.66,26.27-13.18,9.15-.46-.48-8.03,7.03-12.04,2.17-.95-1.15-1.27-3.39-2.05-4.18-.9-.9-3.72-1.24-4.59-3.13-.84-6.35,5.56-3.34,7.28-3.76.74-.18,2.48-4.02,5.18-4.01s2.78,3.18,3.5,3.91Z"/>
    <path class="cls-1" d="M223.56,207.62l5.01.84.07,1.72c-.79,4.14-6.56,2.64-7.31,4.43-1.48,3.54,2.23.14,3.27.36,3.44.72-1.83,13.24-8.39,6.95-2.79-2.68-1.93-6.68-2.2-6.94-.24-.24-4.11.56-6.27-2.14-5.38-6.73,7.94-4.55,9.08-5.29.84-.54.88-5.64,6.02-3.23l.72,3.29Z"/>
    <path class="cls-1" d="M173.67,379.81l2.51-6.62c1.43-3.46,7.07-8.4,10.89-5.87,1.11.74.94,2.7,1.28,2.97.25.2,3.55-1.65,5.14,2.56.69,1.84-.45,6.62-1.99,7.67-1.17.8-2.39-.07-3.37.21-4.44,1.28-6.81,7.15-12.99.55,1.09,5.82-7.22,11.66-11.7,6.95,6.5-7.19.93-5.53-2.22-9.5-4.3-5.42,4.57-15.27,9.33-13s-3.57,6.15-2.7,9.23c1.66,2.31,5.58,1.41,5.82,4.85Z"/>
    <path class="cls-1" d="M716.29,51.28c3.49,2.84,5.23,15.31-.91,15.13-4.02-.12-3.05-6.31-3.63-8.76l-6.96,8.45c-2.78,1.47-5.35-2.45-5.12-5.09.05-.62,4.21-11.09,4.69-11.48,2.83-2.24,3.98,1.07,5.14,1.24,1.78.26,4.35-1.48,6.78.5Z"/>
    <path class="cls-1" d="M603.14,62.77l8.77-1.46c-.9,7.84-12.05,11.07-15.99,3.2-.99-1.98-.51-4.44-1.16-5.42-.71-1.06-5.27-1.42-5.52-5.52-.36-5.89,6.86-1.89,7.7-1.96.78-.07,3.21-3.98,6.64-1.34,4.04,3.11-1.24,8.63-.43,12.5Z"/>
    <path class="cls-1" d="M56.33,117.08c-1.87-1.86-2.31-6.33-.53-8.53.3-.37,4.9-4.25,5.23-4.33,1.67-.43,2.95,1.49,4.59,1.37l2.67-5.8c3.06-.52,6.08,2.17,5.9,5.32-.07,1.31-3.62,10.84-4.47,11.52-1.83,1.46-3.23-.14-5.02.07-2.51.3-5.04,3.7-8.37.38Z"/>
    <path class="cls-1" d="M681.4,54.72l4.12-5.72c2.88-.47,2.74,3.26,3.88,3.93.77.46,7.46-3.08,8.69,3.06.38,1.89-2.75,10.36-4.19,11.59-3.34,2.83-5.84-.59-5.92-4.08-6.06,4.42-9.61-1.43-7.31-7.31-.87,1.52-4.91,2.01-5.12,2.21-.08.08.67,1.14.41,2.17-1.2,4.78-6.01,4.85-8.85,1.52-7.83-9.2,12.19-24.65,14.31-7.36Z"/>
    <path class="cls-1" d="M673.98,269.26l5.15.46c-.36,6.25-6.57,6.62-11.17,3.56-6.27-4.17-6.22-9.21-1.94-14.93,7.83-10.44,17.27,3.17,7.95,10.91Z"/>
    <path class="cls-1" d="M19.86,21.07c3.28-.2,6.93.27,8.63,3.41l-.75,2.29c-3.81.48-14.41,3.6-15.6-1.98,1.83-3.31,2.84-10.65,1.88-14.17-.24-.87-3.74-1.65-3.56-3.68.51-5.82,11.76-3.13,12.27-.02.19,1.12-1.81,1.86-2.13,3.57-.57,2.97.32,7.3-.75,10.59Z"/>
    <path class="cls-1" d="M80.26,58.31c.22.33,3.83,1.36,3.53,3.26-.33,1.96-3.81,2.42-4.16,2.83-.31.35-1.1,5.41-.88,5.67,1.35.18,5.21.52,5.03,2.47-2.84,7.3-10.72,4.18-12.19-2.25-.3-1.29.11-3.96-.26-4.49-.51-.74-3.84.14-3.41-3.96.34-3.19,3.71-2.03,4.62-3.43,1.04-1.6.46-7.65,5.98-5.33,4.06,1.71,1.57,4.98,1.74,5.24Z"/>
    <path class="cls-1" d="M482.12,469.6c-1.92,1.99-4.76-.76-4.93-.55,1.57,5.03,4.23,8.6.73,13.54-3.53,4.98-8.02,6.64-10.8-.02l4.76-5.96c-.58-3.86-4.66-8.63-1.31-12.15,4.92-5.17,16.28.24,11.55,5.14Z"/>
    <path class="cls-1" d="M774.99,100.63c.27.28,4.75-.71,6.81,3.07,1.16,2.13,2.24,9.33-.32,10.59-3.3,1.62-4.25-3.03-5.56-3.29-.95-.19-2.07,1.52-3.11,1.78-8.63,2.14-7.14-14.61-4.31-17.76,3.33-3.71,6.15,5.25,6.5,5.6Z"/>
    <path class="cls-1" d="M182.99,150.53c-.57.75,9.83,6.34,5.14,12.09-4.1,5.03-13.75-1.95-11.72-4.04l4.39-.74c-2.67-3.26-6.72-6.46-4.22-11.17,1.63-3.07,14.25-7.04,15.21-.89.02,2.57-6.74,3.62-8.8,4.76Z"/>
    <path class="cls-1" d="M456.99,218.48c.57.63,13.69-.45,7.28,4.73-4.41,3.56-10.48,3.41-13.62-1.67-3.18-5.16-.02-7.95.34-12.36.17-2.07-1.48-3.58.1-5.74,2.31-3.17,7.42-1.14,8.08,2.26.86,4.47-1.88,8.42-2.17,12.77Z"/>
    <path class="cls-1" d="M13.92,427.47c1.09-.54,6.15-1.9,5.85.36-.69,5.27-8.52,3.49-7.72,10.67.32,2.85,5.13,3.54,1.13,6.89-5.05,1.47-8.71-3.56-8.05-8.42-.14-.19-2.62,1.91-4.45-.31-2.99-3.65,4.7-4.99,5.56-6.26.56-.84.38-2.85.92-4.2,2.24-5.55,7.06-5.03,6.76,1.26Z"/>
    <path class="cls-1" d="M476.45,414.19c11.29-.5,17.36,7.18,6.95,15.36-5.64,4.43-22.38,11.32-22.31-.73l8.78-1.47c.25-1.15-1.34-.67-1.83-1.42-1.9-2.93.67-8.05,1.06-10.68.45-2.98-1.37-9.7,3.77-8.7,5.72,1.11,2.86,6.94,3.58,7.65Z"/>
    <path class="cls-1" d="M496.94,425.16c8.98-10.35,12.89-5.54,14.53,6.06l-3.19,2.47c-5.23-4.83-5.64-.77-9.68.07-9.78,2.06-10.24-9.41-8.81-16.13,1.13-5.31,7.67-2.12,7.94,2.79.1,1.84-.6,3.04-.78,4.73Z"/>
    <path class="cls-1" d="M526.81,430.91c-6.32,4.16-7.74-6.5-9.39-7.59-1.87-1.24-7.65-.47-7.91-5.72,1.72-5.94,6.57-1.88,9.01-2.22,1.06-.15,1.86-2.26,3.05-2.58,2.29-.61,3.42,2.65,4.61,3.94,3.49,3.8,6.41,4.38.12,8.84l.5,5.32Z"/>
    <path class="cls-1" d="M559.25,68.26c-.44,2.65-4.51,10.07-7.62,9.89-2.63-.15-10.93-7.8-11.8-10.22-.36-.99-1.14-4.17.78-3.71l9.49,8.06c3.7-5.37,1.96-12.3,3.62-18.33.95-1.39,5.53-.75,5.53.41-.49,4.25.68,9.85,0,13.9Z"/>
    <path class="cls-1" d="M671.59,100.29l1.1,6.44c5.52.94,7.06,6.16,5.24,11.06-1.91,5.16-6.1.08-7.49.09-.57,0-.12,1.23-1.18,1.76-4.83,2.37-7.4-2.09-6.35-6.61.48-2.07,5.96-14.87,8.68-12.75Z"/>
    <path class="cls-1" d="M483.93,469.95c6.26-1.94,11.59-2.58,15.52,3.53,1.87,2.91.97,4.32-1.39,6.58-8.67,8.28-19.64.63-14.12-10.1Z"/>
    <path class="cls-1" d="M620.91,214.97c2.59,4.87,6.85,10.41.67,14.88-3.07,2.22-7.22,1.13-7.43-2.54-.11-1.83,3.1-2.68,2.71-5.21-3.67-4.98-8.43-8.97-.62-13.11,6.52-3.45,11.91,2.54,4.67,5.98Z"/>
    <path class="cls-1" d="M170.53,19.61c.89.64,8.32-2.15,7.31.36-4.39,4.57-10.73,7.2-16.45,3.3-6.19-4.22-1.83-12.02,3.64-14.64,5.34,2.24,10.76,4.93,5.5,10.97Z"/>
    <path class="cls-1" d="M264.15,366.06c2.33-.51,5.14-.08,6.26,2.27.44.92-.05,2,.26,2.71,1.03,2.31,4.34,6.02,2.39,9.04-2.3,3.57-4.24.52-6.16.51-1.32,0-8.87,3.64-9.77-1.23-.1-.53,2.73-9.25,3.4-10.3.92-1.44,1.83-2.6,3.61-2.99Z"/>
    <path class="cls-1" d="M93.06,149.4c3.21-.99,7.1.75,9.35,3.07,5.46,5.62-5.24,16.45-12.21,10.65-4.55-3.78-2.14-12.17,2.85-13.72Z"/>
    <path class="cls-1" d="M749.31,97.06l5.7-.88,3.73-4.65c7.44.18.7,14.26,1.53,15.03h2.94c.14,2.84.43,5.31-2.23,6.98-3.55.72-6.56-2.36-7.67-5.49-.5-1.41-.04-3.25-.71-4.41-.84-1.44-5.15-2.11-4.02-5.86-2.91,1.89-8.19-1.67-8.05-4.68.33-6.79,10.7-1.84,8.79,3.95Z"/>
    <path class="cls-1" d="M386.78,205.33c-.67.72,3.41,4.57,3.51,6.34.32,5.54-15.53,6.97-15.62-.15-.05-3.97,5.48-1.26,6.26-1.81-2.9-5.63-2.07-10.18,4.83-10.91,7.94-.85,8.21,7.83,1.03,6.53Z"/>
    <path class="cls-1" d="M135.06,57.65l7.28-.76c-.06-10.29,11.11-8.11,8.08,1.49,2.32-2.1,4.68.49,5.5.49.63,0,1.31-1.63,2.54-1.22l.7,2.64,3.29.28c5.59,8.37-3.72,19.04-11.94,11.25l-2.29-6.85c-.78,3.47,1.41,11.01-4.43,9.19-4.46-1.38-3.68-7.04-3.63-10.66l-5.75.83-1.91,7.97c-7.17,3.02-6.47-3.29-6.27-8.46.09-2.15,1.41-15.37,1.87-16.41,1.19-2.69,4.55-2.78,6.13-.31,1.67,2.62.43,7.46.81,10.53Z"/>
    <path class="cls-1" d="M206.73,59.11c3.26-2.03,7.93-.17,6.5,3.94-.45,1.28-2.25.67-2.12,1.9l5.84,1.48c.55-1.87.77-4.87,2.16-6.28.87-.88,2.08-.76,2.73-1.28s.8-1.87,1.68-2.36c1.96-1.09,5.82.83,5.15,3.33,2.64-3.47,12.56,1.43,12.27,4.64,0,1.54-6.05,5.94-6.94,6.21-2.31.7-3.59-.38-4.97-2.06-.55.01-2.12,5.46-8,4.36-3.91-.73-3.64-.43-7.35-.65-2.45-.15-8.27-1.25-10.1-.81-.52.12-3.76,6.8-5.99,2.21-1.31-2.69,1.42-11.4,1.81-15,.27-2.55-.45-5.2.33-7.71,6.17-3.02,7.44,3.23,7,8.09Z"/>
    <path class="cls-1" d="M235.98,89.84c6.21,1.13,7.78-5.91,9.54-10.58.51-1.36,3.58-10.42,3.58-11,.02-3.24-4.97-3.36-1.71-9.08,4.24-7.46,15.28-4.94,12.58,3.82-.65,2.1-3.17,6.54-4.08,9.08-2.11,5.9-6.26,22.27-13.68,22.94-3.33.3-6.9-1.37-6.23-5.18Z"/>
    <path class="cls-1" d="M173.82,76.67c.58-.49,9.49,5.99,11,4.79l2.19-10.86c-.41-1.68-6.04-.54-4.06-7.86.32-1.18,3.72-6.04,4.61-6.54,3.11-1.73,7.26.57,7.45,4.04.15,2.73-.51,7.87-.94,10.71-1.09,7.1-3.67,18.22-12.96,14.16-1.84-.8-9.74-6.37-7.28-8.44Z"/>
    <path class="cls-1" d="M165.96,72.09c-2.15-2.28-.15-14.22,2.75-15.53,4.83-2.19,4.45,2.65,5.85,3.64.73.52,2.09.31,2.86.79,2.89,1.79,5.87,9.3,1.11,9.85-3.72.43-3.81-2.44-7.42,2.81-1.16.33-4.37-.74-5.14-1.56Z"/>
    <path class="cls-1" d="M744.19,158.53l-3.85-6.37c-1.4,2.53.98,5.33-1.25,7.37-2.15,1.45-3.55-.93-5.65-.79-1.22.08-2.39,1.24-3.76,1.44-11.94,1.79-14.91-17.28-1.6-18.1,6.11-.38,5.81,4.52,7.3,5.53.98.67,4.31.76,5.67,3.09,1.41-4.94,6.49-5.44,10.95-5.16l1.43-8.26c2.81-2.5,6.93-.85,7.36,2.88l-1.06,15.65c-2.19,3.53-4.28.65-5.74.87-1.93.3-5.43,5.45-9.8,1.84Z"/>
    <path class="cls-1" d="M680.36,165.33c5.08,1.35,8.03,8.45,14.31,5.16l1.04-16.87c-3.09,2.73-8.55-2.26-7.91-5.31.21-1.02,7.32-9.37,8.39-9.97,4.09-2.29,7.84,2.03,8.72,5.76.65,2.76-.89,5.59-1.14,8.42-.49,5.55.15,19.34-3.25,23.09-1.76,1.95-6.98,1.75-9.58,1.43-6.35-.79-9.6-5.86-10.58-11.72Z"/>
    <path class="cls-1" d="M774.7,151.42h5.12c1.42,4.04-4.25,6.88-7.52,6.44-1.52-.2-10.17-6.4-10.62-7.69-1.16-3.31,1.4-2.15,2.77-3.49,1.69-1.66.56-4.96,4.83-5.47,6.6-.79,10.83,5.36,5.42,10.22Z"/>
    <path class="cls-1" d="M720.49,139.82c1.65,2.59-6.45,14.54-6.87,18.18-1.98,2.54-5.84,2.05-7.11-.91-1.63-3.8.92-5.18,1.46-8.4.4-2.38-.85-9.1,2.73-8.98.96.03,1.7,1.39,2.61,1.17,2-.5,3.62-3.51,7.18-1.07Z"/>
    <path class="cls-1" d="M289.85,381.17c-2.76,2.57-6.09-1.16-6.84-1.15-.91.01-3.5,3.55-6.97.18-1.14-1.1-1.57-11.38.32-12.9,10.95-3.95,13.29,5.22,13.5,13.87Z"/>
    <path class="cls-1" d="M368.42,267.31l4.1.45c1.68,5.36-2.84,7.55-7.41,5.19-4.42-2.27-2.5-4.97-3.6-8.38-.4-1.23-2.07-2.03-2.18-3.7-.25-3.95,3.23-2.92,4.84-3.95,1-.64,1.11-3.39,3.11-3.49,2.8-.13,4.08,5.65,5.95,7.42.6,3.66-4.85,3.26-4.8,6.46Z"/>
    <path class="cls-1" d="M157.07,317.44c5.14-.65,6.63,8.8,5.36,12.1-1.88,4.89-5.11.41-5.92.3-1.43-.21-4.68,4.9-8.54,2.38-4.86-5.07,3.73-14.09,9.1-14.77Z"/>
    <path class="cls-1" d="M613.67,103.28c1.46-.41,2.26,1.19,3.42,1.12,2.42-.13,3.34-2.72,7.08.26,9.01,7.18-9.42,18.24-13.73,8.73-1.45-3.19-.18-9.16,3.24-10.11Z"/>
    <path class="cls-1" d="M687.18,212.48c4.2,3.48.2,10.23-.17,14.48-.41.69-2.07,1.23-2.89,1.26-2.87.12-10.09-5.87-10.77-8.62-1.3-5.27,4.29-3.02,4.59-3.24.64-.49,1.55-4.11,4.22-4.98,1.05-.34,4.26.47,5.02,1.1Z"/>
    <path class="cls-1" d="M345.13,257.65c.9,4.12,5.15.02,7.47,3.68,1.39,2.19.63,3.69,1.15,5.57.17.61,1.21.52,1.49.94,3.91,5.87-5.95,7.45-7.26,1.37-.79-.49-3.92,3.47-7.41,2.49-5.16-3.79.29-10.55,3.5-13.99l1.05-.05Z"/>
    <path class="cls-1" d="M176.9,328.52c-1.18,1.18-1.46,2.87-3.47,4.18-10.08,6.55-3.95-4.19-4.06-5.19-.07-.62-3.62-.61-3.17-4.3.4-3.24,4.15-1.19,5.84-2.39.72-.52.91-3.2,1.97-4.52,3.15-3.92,7.14.19,6.75,4.11-.11,1.11-1.16,2.41-1.08,3.02s1.3,1.27,1.21,2.07c-.16,1.51-3.16,2.18-4,3.03Z"/>
    <path class="cls-1" d="M47.09,55.64c4.02,4.28-3.44,8.51-3.47,10.41l3.65,1.47c-3.11,3.99-7.32,4.18-10.88.66-7.26-7.19,4.69-18.94,10.7-12.54Z"/>
    <path class="cls-1" d="M426.15,57.65c4.14-1.24,6.39,2.83,6.64,6.51,1.22,1.05,10.89-3.43,7.6,3.72-2.93,6.38-10.62,4.43-13.89-.72-3.61,9.33-9.21,1.76-7.68-5.12-1.22.35-.79,2.48-1.54,3.93-3.03,5.81-11.2,7.34-14.9,1.21-4.8,5.32-9.96,4.71-11.14-2.78-.37-2.37-1.23-10.45,2.37-10.43,2.78.9,4.27,3.81,4.03,6.6,4.4-4.86,9.14-2.86,10.59,2.92,1.33-1.2,3.36-1.53,4.74-2.58,1.68-1.27,1.66-3.9,4.4-3.27l1.47,3.65c-.54-2.43.65-4.8.77-6.98s-2.33-6.57,1.84-6.95c4.61-.42,5.37,6.95,4.72,10.28Z"/>
    <path class="cls-1" d="M468.7,60.38c.16.12,2.2-.32,3.9.9,4.05,2.91,3.12,13.33-.9,13.76-3.04.33-3.83-1.52-3.88-4.23-.25-.27-3.46,3.75-6.82,1.52-3.93-2.9.84-15.44,4.27-15.44,2.02-.11,2.69,2.93,3.43,3.49Z"/>
    <path class="cls-1" d="M453.35,63.37c2.6.46,1.48,3.95-.61,5.16-6.16,3.56-12.48-5.35-9.98-10.72.29-.61,4.16-4.34,4.93-4.63,6.09-2.31,11.86,4.42,5.55,9.29l.11.91Z"/>
    <path class="cls-1" d="M94.67,10.63c.65.65,6.13,1.74,2.38,4.65-1.9,1.47-3.84-.21-2.24,5.09.89,1.62,3.83-1.62,4.41-2.21,2.32.03,2.69,9.61-5.68,7.86-5.09-1.06-4.47-4.37-5.84-8.05-.65-1.73-3.36-2.87-1.64-5.68,2.41-.52,4.89-6.81,7.37-4.47.85.62.73,2.28,1.25,2.8Z"/>
    <path class="cls-1" d="M312.04,68.62c.81-.7-4.13-5.25-3.35-8.07,1.73-6.25,12.89-4.18,8.05,2.96,13.87,8.66-5.02,15.1-10.54,6.22,1.41-1.83,3.86-.96,5.84-1.11Z"/>
    <path class="cls-1" d="M771.18,194.38c4.77,3.72-1.09,10.33-.7,10.78l4.14,1.22-.27,2.98c2.16-.2,4.51.12,6.59-.65,2.46-.92,2.85-4.52,6-5.11,4.39-.81,9.07,5.35,4.7,9.22-.65.57-2.35.84-2.42.95-.34.52,1.77,2.03-.08,4.42-3.1,4-7.18-.05-7.23-4.08-4.65,4.8-11.01,1.43-15.8-1.41-.49.03-.78,6.36-5.45,5.44l-1.71-2.12c-10.25,10.62-17.66-1.66-8.28-10.98,3.58-3.56,8.22-1.04,7.22,2.98-.67,2.68-3.78,2.71-3.83,5.31,1.25-.99,3.43-1.07,4.54-1.81,2.2-1.46,7.2-15.59,10.31-17.85.85-.08,1.62.22,2.27.73Z"/>
    <path class="cls-1" d="M719.19,217.36c-.97,3.34-2.63,16.62-6.93,16.42-6.38-4-.25-14.92.56-21.14.46-3.5-1.87-10.36,4.16-8.87,3.48.86,2.22,3.77,4.63,5.31,1.76-4.61-.79-8-1.34-12.38,13.23-.2,12.13,20.22-1.07,20.65Z"/>
    <path class="cls-1" d="M807.52,213.55l4.42.52c-.57,4.68-4.66,8.58-9.27,9.12-8.06-2.93-2.68-10.24-2.84-14.16-.06-1.46-4.72-4.2-1.2-6.65,1.71-.55,4.04.13,5.62-.5.56-.22,5.79-7.97,6.35-.61.35,4.73-2.03,8.07-3.08,12.27Z"/>
    <path class="cls-1" d="M734.15,205.79c6.5-6.63,14.21-.97,9.81,7.82-5.43,10.86-18.88,1.44-9.81-7.82Z"/>
    <path class="cls-1" d="M634.59,106.02c.38.23,1.92-.71,2.99-.63,3.31.25,9.28,6.75,6.58,9.66s-4.48-1.06-6.05-1.04c-2.92.04-4.73,4.61-8.83.35-3.08-3.21-2.88-9.59,1.07-11.83,3.04-.4,3.52,3.05,4.24,3.49Z"/>
    <path class="cls-1" d="M691.37,105.6c.18.07,2.75,2.42,2.85,2.59,2.42,4.42-2.24,4.57-2.26,8.15,1.19.32,4.62-.14,4.45,1.64-.47,4.87-5.29,7.41-9.28,3.96-4.49-3.89-1.58-9.99-2.9-15.1.07-.89,5.8-1.75,7.14-1.24Z"/>
    <path class="cls-1" d="M490.64,203.14c-8.77-7.63,4.68-11.2,5.03-2.8.06,1.54-.92,2.52-.99,3.68-.06.95.72,2.2.57,3.6-.06.59-3.57,10.68-3.89,11.18-2,3.14-6.03.25-5.94-3.2.06-2.29,2.53-11.85,5.22-12.46Z"/>
    <path class="cls-1" d="M406.03,10.11l-1.46,2.91c4.99,1.4,9.74,7.59,5.62,12.22-3.78,4.25-12.87,2.15-10.74-4.16l3.29,1.26,1.81-1.63c-1.76-2.89-7.36-3.45-7.29-7.25.09-4.39,5.73-3.89,8.77-3.36Z"/>
    <path class="cls-1" d="M558.9,15.22c5.2-7.82,14.02-1.67,14.25,5.86,1.77,0-2.2-9.69,1.59-10.9.47-.15,7.66,2.1,8.23,2.5,4.4,3.07-.75,4.8-1.4,6.03-1.4,2.64.54,7.1-4.03,7.96l-4.39-4.13-1.53,2.88-4.96-2.11c-3.74,5.36-10.63,2.54-9.98-3.7-2.28,1.87-4.29,2.58-7.31,2.2,1.3,2.78,1.7,13.91-2.56,13.92-4.64,0-1.33-10.39-1.8-13.6-.26-1.79-1.43-2.64-1.57-4.34l2.31-3.25,3.22,1.93,1.85-1.24c-20.43-7.27,4.01-11.26,8.06,0Z"/>
    <path class="cls-1" d="M630.37,11.75c.61.62,1.04,2.11.83,2.96-.65,2.64-7.46,2.07-3.19,7.08,2.15-2.07,4.07-1.71,4.64,1.3,1.04,5.41-8.29,8.2-12,.96-1.12-2.19-1.29-6.09-1.98-7.16-.93-1.43-4.62-1.95-3.34-6.26.51-1.73,6.94-3.53,8.21-3.28.84.17,2.05,1.98,3.13,2.65s3.12,1.16,3.71,1.76Z"/>
    <path class="cls-1" d="M603.29,10.94c2.54-.69,2.71,1.21,3.84,1.67.76.31,1.95-.41,3.46.22,6.55,2.71,6.77,20.49-1.61,12.65l-4.39,3.4c-1.96-.46-3.9-2.56-4-4.54-.07-1.47.45-9.53.74-10.91.24-1.13.77-2.16,1.95-2.49Z"/>
    <path class="cls-1" d="M598.13,19.36c-1.21,1.21-4.65,2.23-4.87,2.45-.5.51-.31,1.63,1.08,1.45,1.86-.24,4.94-4.1,5.49-1.81.64,2.63-2.8,7.01-5.39,6.92-5.62-.19-6.83-6.76-8.17-11.05,1.18-1.16,5.64-7.21,6.98-5.77l.36,2.2,1.23-3.51c2.01-1.65,5.44,1.1,5.74,3.19.21,1.85-1.18,4.65-2.46,5.93Z"/>
    <path class="cls-1" d="M643.46,18.4c1.8,2.49,3.4,3.98,1,6.71-5.02,5.69-15.13,2.44-7.3-2.95-.04-1.21-2.15-3.08-2.6-4.72-1.47-5.33,3.91-12.49,8.06-7.32,2.58,3.22-1.12,4.3-1.13,6.23,0,1.51,1.53,1.44,1.97,2.05Z"/>
    <path class="cls-1" d="M421.39,20.34c7.45,1.29-3.07,8.34-7.23,3.22-.97-1.19-2.51-5.65-2.29-7.2.08-.6,3.81-5.34,4.18-5.57,2.43-1.45,7.91-1.12,9.21,1.71,1.68,3.64-4.36,7.33-3.87,7.83Z"/>
    <path class="cls-1" d="M528.59,60.68l.34,4.28-1.65,1.34c-4.31,1.28-4.7-3.1-6.26-4.06-1.32-.81-3.49-.17-4.95-2.73-3.48-6.1,3.67-4.56,5.7-5.71.42-.24.61-1.66,1.82-2.22,3.57-1.65,6.39,3.79,8.54,5.8l-3.54,3.29Z"/>
    <path class="cls-1" d="M426.08,206.18c10.58-2.11,9.87,14.63.54,14.53-8.24-.09-6.46-13.35-.54-14.53Z"/>
    <path class="cls-1" d="M725.28,61.3c.44,3.33-2.5,3.47-3.98.67-3.49-6.64,5.3-14.25,11.95-10.48,7.74,4.4-1.86,13.5-7.98,9.8Z"/>
    <path class="cls-1" d="M138.04,114.36l3.64.33c2.7,2.14-1.46,5.95-4.14,6.07-2.38.11-4.02-2.96-5.82-4.16-5.06,4.1-9.75,5.34-14.53-.03-4.04,5.21-8.31,3.06-8.46-3.3-.08-3.16,1.36-17.03,6.69-13.22l.78,4.71c4.9.87,6.77,3.04,6.49,8.15l7.88-1.64c1.17-1.25.07-2.98.54-4.18.38-.96,6.07-7.34,6.95-7.71,6.8-2.89,12.34,5.15,5.47,10.59-1.04.82-6.61,2.87-5.48,4.38Z"/>
    <path class="cls-1" d="M105.23,106.93l2,1.3c1.67,4.68-3.75,3.99-4.68,5.39-1.04,1.57-.06,8.35-5.02,5.05-2.81-1.87-1.61-6.21-1.91-6.5-.13-.13-2.41.16-3.64-.38-1.77-.76-5.21-5.61-2.38-6.93s5.38.56,8.21.73c-.81-9.52,10.14-6.94,7.42,1.34Z"/>
    <path class="cls-1" d="M167.3,112.92l.42,1.49c10.01,2.1.61,9.72-5.58,4.01-4.02-3.7-5.23-7.79-2.18-12.49,4.68-7.19,16.47,3.2,7.34,6.98Z"/>
    <path class="cls-1" d="M156.96,103.48c1.03,2.27-1.29,4.48-1.38,6.19-.11,1.84,1.9,3.3,2,5.17.34,6.04-9.15,10.18-11.32,2.81l3.97-4.36c-1.94-3.93-1.74-8.76,2.36-11.01l4.37,1.21Z"/>
    <path class="cls-1" d="M75.58,325.38c4.17.03,8.56-6.5,11.82-7.02,2.19-.35.45,2.1,1.56,2.88,1.01-2.06,2.77-.77,3.99-1.22,4.05-1.46,6.17-4.88,10.7-.52,3.68,3.54.99,7.74-3.06,9.38-.14,1.22,2.16.86,2.24,1.73.2,2.08-6.36,3.15-7.92,2.51-1.79-.74-5.94-6.26-6.92-8.18-1.46,1.3-2.18,3.15-3.86,4.52-5.85,4.77-14.63,4.48-15.88-4.17-.55-3.81-.55-14.06,5.43-10.41,4.41,2.69,1.23,6.41,1.9,10.51Z"/>
    <path class="cls-1" d="M129.66,309.73c.85,1.09,1.19,3.61,1.01,5.04-.38,2.98-6.25,18.33-8.16,20.36-.74.79-2.45,1.99-3.56,1.78-1.86-.71-2.19-2.4-2.13-4.24-5.13,5.41-12,.93-9.52-5.68,2.05-5.45,7.4-9.16,12.77-5.42.22-3.72,4.15-18.81,9.59-11.83Z"/>
    <path class="cls-1" d="M24.44,327.96c1.91-.82,3.17-.51,3.74,1.7.05,1.24-3.42,4.79-4.63,4.95-1.68.22-2.87-1.24-4.37-1.24-2.49,0-6.34,2.53-8.53-.83-2.19-3.36.82-7.9,3.01-10.71,7.75-9.94,13.57-4.54,10.78,6.13Z"/>
    <path class="cls-1" d="M52.16,321.69c.94.49,2.4-.2,3.46.08,1.91,4.02-1.67,5.1-3.2,7.86-1.39,2.51-2.19,7.75-5.46,8.38-8.63,1.66-2.87-17.09-.15-18.55,4.04-2.16,4.51,1.79,5.35,2.23Z"/>
    <path class="cls-1" d="M63.7,320.69l.03.71c5.99,1.72-.89,20.52-6.45,13.37-1.47-1.9.65-13.21,1.78-13.98.79-.53,2.18-.66,3.15-.79-1.76-3.11-2.71-5.88.96-7.98,6.34-.01,6.34,7.64.53,8.67Z"/>
    <path class="cls-1" d="M40.13,319.44c.53.31,1.01,2.83.84,3.71-.11.56-4.52,9.49-5.04,10.21-2.45,3.4-6.92,3.78-7.5-.9-.21-1.64,1.88-3.36,1.8-5.07s-2.1-2.51-1.24-4.68c1.37-3.45,4.13-1.59,5.72-1.91,1.38-.28,3.75-2.34,5.43-1.35Z"/>
    <path class="cls-1" d="M632.54,49.76c12.71-3.28,12.49,17.8.89,13.06-5.41-2.21-3.65-9.48-.89-13.06Z"/>
    <path class="cls-1" d="M63.52,15c1.41-1.85.41-3.42,4.28-3.48,6.54-.09,7.49,10.26,2.08,13.11-4.69,2.47-10.04-1.31-8.93-6.68.46-2.22,1.9-2.07,2.58-2.96Z"/>
    <path class="cls-1" d="M25.16,433.2l1.05-3,1.57-.67c8.24-.8,5.06,16.04-4.99,13.76-6.12-1.39-3.14-12.23,2.37-10.09Z"/>
    <path class="cls-1" d="M96.77,69.11c-4.71,4.46-13.48,1.57-12.02-5.05.17-.78,1.39-2.65,2.2-3,.53-.22,6.4-1.87,6.75-1.88,5.37-.17,6.79,6.39,3.07,9.92Z"/>
    <path class="cls-1" d="M53.55,29.08c-.12-1.11-1.1-2.19-1.17-3.22-.26-3.87-.27-13.78.02-17.61.12-1.52.79-3.1,2.18-3.85,4.05-.34,4.16,10,4.06,12.69-.08,2.05-1.34,14.61-5.1,11.99Z"/>
    <path class="cls-1" d="M84,19.83c4.27,4.54-2.95,11.47-7.5,6.38l1.74-3.31c0-.7-2.68-2.28-3.14-3.3-2.13-4.65,3.57-13.44,6.89-9.04,1.94,2.57-2.76,4.18-2.11,6.39.82,1.5,3.12,1.82,4.12,2.88Z"/>
    <path class="cls-1" d="M439.92,207.58c8.3.37,13.35,10.26,3.37,12.22-8.83,1.73-8.05-7.72-3.37-12.22Z"/>
    <path class="cls-1" d="M300.86,57.75c2.37-.69,5.16,2.28,5.14,4.52-.02,2.04-2.3,10.23-4.2,11.1-8.17,3.72-5.04-14.42-.94-15.62Z"/>
    <path class="cls-1" d="M278.97,147.03c11.98-2.24,7.09,12.49-1.26,13.77-5.56-.52.97-10.96,1.26-13.77Z"/>
    <path class="cls-1" d="M325.22,433.79c-1.52-2.63,1.5-3.1,2.8-4.57,5.38-6.07.49-4.57.2-9.65-.36-6.19,10.1-17.3,14.29-9.3,2.3,4.39-2.08,4.17-4.28,7.21-3.77,5.21,1.13,5.53,1.45,8.81.42,4.21-6.83,10.99-11.15,9.72-.19-.06-3.2-2.04-3.3-2.22Z"/>
    <path class="cls-1" d="M428.73,403.41c3.46,3.27-.32,8.42-1.24,11.92-.57,2.18-1.56,5.89-1.56,8.01,0,2.66,3.16,8.71.97,9.88-7.33,3.9-9.42-9.9-8.89-14.92.21-1.91,4.32-15.16,5.16-15.68.94-.58,4.66-.04,5.55.8Z"/>
    <path class="cls-1" d="M409.15,417.85l1.82-2.69c12.21,4.52,3.69,21.04-6.96,17.72-8.6-2.68-2.16-20.05,5.14-15.03Z"/>
    <path class="cls-1" d="M472.79,375.42c-3.82,2.88-7.44-1.93-8.39-2.01-1.89-.15-6.69,7.41-11.69,7.74-.99.07-2.06-.73-3.5-.49-1.32.21-2.66,1.72-4.02,1.96-3.47.6-8.89-3.06-10.32-6.2-1.65-3.61-1.03-7.34-2.25-10.92l-6.63-.32c-.05,1.99-.17,3.91.34,5.88.74,2.85,5.1,4.88,2.25,7.33-5.58,4.78-12.66-8.71-10.74-13.82-4.1-1.91-10.42,3.09-8.66,7.93l3.65-.73c-.71,12.48-16.03,4.93-11.75-5.06l-4.34-1.53c.2,7.24-.01,21.31-10.3,13.43.98-4.65,2.06-8.95,1.53-13.8-.45-4.12-5.13-8.07-1.45-10.95,4.98-3.9,6.57,2.65,8.77,3.64,1.7.76,3.6.11,5.34.51,1.46.34,2.46,1.92,3.84,2.06s7.73-3.32,10.26-3.65c4.52-.59,2.59,1.05,7.64-1.1,6.22-2.64,3.78,3.29,6.49,3.65,1.62.21,2.75-1.47,4.18-1.63,3.58-.4,6.14,1.48,8.9,2.5,1.83.68,4.41-.11,4.97,2.36.89,4-4.61,4.02-4.85,4.89.14,2.82-.76,6.71,2.23,8.32-3.91-12.4,14.42-17.52,10.98-2.2.85.7,6.45-3.1,6.91-4.35.29-.78-.41-2.03-.17-3.1.92-4.1,3.78-10.56,8.61-7.18.35-4.22.32-11.24,6.19-10.24s2.74,9.33,2.61,12.81c-.14,3.76.88,14.07-1.13,16.42-2.33,2.73-5.64,1.4-5.47-2.17Z"/>
    <path class="cls-1" d="M380.15,360.56c.51.62,1.61.72,2.29,1.72,1.33,1.97.65,8.62.4,11.31-.41,4.43-1.5,9.92-2.55,14.27-.8,3.31-4.68,12.34-4.77,14.33-.08,1.62,1.29,2.38,1.49,3.65.39,2.51-2.87,7.18-3.67,9.81,3.54-1.3,8.11,1.23,7.67,5.22-.08.7-3.07,7.73-3.6,8.73-3.83,7.16-6.1,1.92-8.95,1.52-.9-.13-1.52,1.01-2.27,1.21-2.94.79-6.97-2.83-6.73-5.98.4-5.23,7.48-15.55,8.73-21.34-6.01-4.78-.82-4.55.7-6.61,1.9-2.57,4.65-16.74,5.09-20.51.25-2.13,1.08-9.79.1-10.89-.41-.45-2.54-1.37-2.92-1.09-.57,3.82-4.61,6.35-8.06,7.33-.22,2.31,5.24,4.23,4.38,6.2-.65,1.5-4.81,1.36-6.2,1.08-3.03-.59-5.82-6.52-6.07-9.29-.23-2.58,3.05-11.69,5.45-12.52,3.7-1.28,7.15,2.74,8.66,2.62,1.2-.1,3.61-4.93,7.99-4.2,2.67.44,1.92,2.32,2.83,3.43Z"/>
    <path class="cls-1" d="M354.98,368.05l-5.67,1.64c-1.05,3.45,1.61,13.13-4.7,12.19s-3.84-8.06-4.23-12.58c-.2-2.29-3.01-5.8-.4-7.84,3.82-2.99,6.02,1.81,7.52,2.16,1.18.27,2.48-.85,4.05-.5,1.68.37,4.65,3.14,3.42,4.93Z"/>
    <path class="cls-1" d="M354.82,420.56c-.71.86-3.11,1.47-3.43,3.13l6.11-.62.9.57c.91,9.05-11.76,11.1-15.62,3.15-2.64-5.43,5.92-15.73,11.23-11.94,1.7,1.22,2.24,3.98.82,5.69Z"/>
    <path class="cls-1" d="M390.75,417.32c3.09-.19,6.53.12,8.89,2.36-2.46,2.11-.76,4.97-2.27,7.96-3.45,6.82-13.78,5.17-14.34-1.48-.05-.64,2.03-7.21,2.35-7.58.59-.68,4.26-1.18,5.37-1.25Z"/>
    <path class="cls-1" d="M442.59,427.57c.49.59,1.48,3.23,1.5,3.94.03,1.38-4.51,8.18-6.07,8.32-1.75.16-4.46-2.45-4.46-4.06,0-.95,1.29-2.21,1.6-3.27.42-1.46.11-3.16.7-4.41,1.18-2.5,5.01-2.59,6.73-.52Z"/>
    <path class="cls-1" d="M451.39,477.23c2.38-.52,4.38.42,5.02,2.78,1.12,4.16-12.37,13.43-12.92,6.95-.17-2.03,5.95-9.3,7.9-9.72Z"/>
    <path class="cls-1" d="M632.34,214.43c2.32-.76,5.57,2.12,5.56,4.31-.01,2.35-3.71,8.97-6.49,8.86-6.07-.25-2.01-12.2.93-13.16Z"/>
    <path class="cls-1" d="M513.73,69.18c-4.62,4.82-9.04-6.98-5.75-11.24,4.55-2.94,7.62.1,7.33,5.08-.06,1.05-1.02,5.58-1.57,6.16Z"/>
    <path class="cls-1" d="M250.07,142.69c4.98,5.52-13.5,8.07-11.49-2.02.27-1.35,1.89-3.08,3.29-3.07.48,0,7.74,4.58,8.2,5.09Z"/>
    <path class="cls-1" d="M461.24,0c7.51.91,3.42,18.7-1.47,13.77-2.02-2.07-1.41-13.55,1.47-13.77Z"/>
    <path class="cls-1" d="M792.91,155.86c2.23-.78,5.06.97,5.38,3.24.89,6.24-10.55,10.08-10.16,5.94l4.77-9.18Z"/>
    <path class="cls-1" d="M761.59,64.34c6.93-2.39,5.33,10.09-1.55,9.42-5.36-.52-.55-8.7,1.55-9.42Z"/>
    <path class="cls-1" d="M514.43,53.8c-4,4.16-11.74.1-9.2-5.56,3.9-.61,7.11-.16,9.81,2.84.44.86,0,2.09-.62,2.72Z"/>
    <path class="cls-1" d="M552.47,42.41c2.64-.41,6.47,3.3,6.07,6.05-1.06,7.46-15.77-4.54-6.07-6.05Z"/>
    <circle class="cls-1" cx="164.15" cy="535.3" r="4.23"/>
    <path class="cls-1" d="M348.36,480.12c-9.61-2.42-2.79-19.02,5.16-14.3,1.8,1.07,6.8,8.18,6.52,10-4.87,11.49-7.02,24.45-14.2,34.86-5.89,8.54-10.73,12.17-17.85,1.91,1.59-2.43,3.85.15,5.82-.71,4.16-1.82,16.53-28.67,14.56-31.75Z"/>
    <path class="cls-1" d="M412.82,482.95c11.15-1.53,6.75,10.24-2.38,7.87-2.07-.54-4.9-3.38-4.94-5.67h-1.08c-9.31,9.27-14.15-1.17-8.01-10.19,2.56-3.75,3.89.38,5.17.61s5.15-4.66,9.31-1.3,1.47,8.23,1.93,8.68Z"/>
    <path class="cls-1" d="M330.66,467.03c2.27-.18,6.11,3.38,6.66,5.5.79,3.08-.92,4.01-1,5.66-.1,2.19,4.05,6.24.43,8.07-3.35,1.7-4.14-2.6-6.2-2.59s-7.25,7.25-10.8-.92c-1.99-4.58,6.11-15.34,10.91-15.73Z"/>
    <path class="cls-1" d="M370.21,469.91c4.43-.93,8.42,4.89,9.38,8.64.52,2.04-.02,8.78-2.39,9.42-2.14.57-3.07-1.08-4.35-1.21-1.07-.11-2.28,1.09-3.58,1.28-7.86,1.17-9.28-7.85-5.33-13.4.88-1.23,4.91-4.45,6.28-4.74Z"/>
    <path class="cls-1" d="M387.58,474.46c9.08,2.08,5.38,11.26-1.47,13.59-7.05-1.15-2.62-13.42,1.47-13.59Z"/>
    <path class="cls-1" d="M388.91,473.23c-3.42-4.24,1.23-10.26,5.65-5.29,4.7,5.3-2.12,9.66-5.65,5.29Z"/>
    <path class="cls-1" d="M637.78,212.36c-3.37-2.62-3.6-9.29,2.38-7.63,5.92,1.65,2.33,11.29-2.38,7.63Z"/>
    <path class="cls-1" d="M411.98,105.71l1.08-.05c5.77-8.58,15.26,1.66,11.57,7.2-2.66,3.99-5.63-1.09-7.1-1.41-1.86-.41-3.53,2.65-7.92,1-2.34-.88-2.67-2.79-4.5-4.27-2.59,6.74-14.87,8.32-13.42-1.15.75-4.93,4.52-5.18,8.7-5.03,1.25.04,2.65,1.18,3.7.95,1.23-.28,1.94-2.89,3.52-2.82,2.21.11,4.54,3.36,4.37,5.58Z"/>
    <path class="cls-1" d="M470.08,113.03l-3.98,5.9c-3.34.51-5.6-1.44-5.21-4.83.14-1.21,4.03-12.64,4.52-13.14,2.53-2.64,4.98.78,6.07.79,1.59.02,3.28-2.93,6.93-.37,4.47,3.14.84,14.66-2.11,15.68-4.24,1.47-3.55-2.43-6.22-4.03Z"/>
    <path class="cls-1" d="M504.59,102.42c.7.75.78,2.35,1.13,2.57.95.6,3.9-.83,6.59,1.64,5.87,5.41-4.5,4.91-7.08,6.9-2.85,2.19-2.33,10.62-7.91,9.33-1.65-.38-3.7-3.45-3.65-5.19.03-.85,5.04-15.56,5.73-16.06,1.55-1.14,3.94-.52,5.18.8Z"/>
    <path class="cls-1" d="M459.85,98.95c3.81,3.54-2.66,9.18-4.84,11.77-.63.74-.64,2.09-1.22,2.73-1.64,1.83-5.7,2.46-7.8.83-8.07-6.29,8.1-20.68,13.86-15.33Z"/>
    <path class="cls-1" d="M386.78,103.52c-.6.8-3.6,2.96-4.77,3.33,1.34,2.3,4.59,1.87,5.16,4.71,1.22,6.09-5.14,8.18-9.21,4.56l1.34-3.32c-3.19.96-8.01-1.14-6.41-4.87.28-.65,7.7-9.02,8.25-9.29,1.68-.81,3.73-1.14,5.37-.09,1.59,1.14,1.34,3.53.26,4.97Z"/>
    <path class="cls-1" d="M520.64,114.77c9.51,1.18,7.3,9.78-1.43,10.38-5.14.35-11.08-3.65-3.52-5.8-5.23-6.58,3.4-16.92,8.34-8.85l-3.39,4.28Z"/>
    <path class="cls-1" d="M435.32,103.37l5.35-3.68c6.38,2.34-1.81,13.62-5.48,14.54-6.63,1.66-8.47-9.1-6.56-13.71,1.24-3,7.25-.78,6.69,2.86Z"/>
    <path class="cls-1" d="M482.22,119.69c-1.03-.89-1.82-3.46-1.54-4.86.1-.48,3.83-8.53,4.13-8.92,1.86-2.43,6.02-.76,6.86,1.71,1.31,3.85-5.4,15.57-9.46,12.08Z"/>
    <path class="cls-1" d="M495.76,101.59c-2.26,2.95-6.44,1.44-7.15-2.13-1.71-8.68,11.4-3.43,7.15,2.13Z"/>
    <path class="cls-1" d="M274.92,164.51c3.09.16,6.09,2.5,5.03,5.79-2.03,6.31-11.73-2.07-5.03-5.79Z"/>
    <path class="cls-1" d="M305.1,45.52c2.53.25,5.35,4.15,2.52,6.61-5.29,4.58-8.86-7.23-2.52-6.61Z"/>
    <path class="cls-1" d="M236.43,321.01c2.08-3.2,8.19-3.39,8.51.78.06.83-4.12,11.05-4.82,12.2-2.4,3.91-3.98,2.27-6.54-.41-2.56,4.59-7.26,4.93-7.73-1.2-9.69,9.52-22.46-2.88-11.79-12.03,3.17-2.72,8.91-2.12,6.7,2.7-.75,1.65-5.67,2.64-3.47,5.99,1.3,1.97,8.28,1.31,9.74.19,1.12-.86,5.58-15.93,7.51-18.61.76-1.06,2.2-1.63,3.35-.73,3.57,2.8-2.24,10.23-1.46,11.12Z"/>
    <path class="cls-1" d="M276.4,333.46l6.52-1.69c.99,3.99-6.34,7.31-9.45,6.8-2.74-.45-4.1-3.99-4.7-4.02-1.03-.04-3.4,3.18-7.35.21s-.65-8.51.03-12.37c2.12-.47,5.14-.38,6.51,1.61.69,1,.2,2.12.55,3.13.32.91.96,3.48,1.92,3.62,1.13-3.33,3.55-5.89,5.09-9.04,1.36-2.79,2.45-11.16,7.2-4.53,3.61,5.04-4.18,11.85-6.32,16.29Z"/>
    <path class="cls-1" d="M201.4,323.75l7.5,3.7.67,2.06c-.59,2.73-16.71,10.18-15.64,1.82l4.73-2c-5.85-3-6.52-7.1-.14-10.02,9.52-4.36,13.62,2.99,2.87,4.44Z"/>
    <path class="cls-1" d="M251.62,321.33c3.76-.47,6.01,5.91,5.63,8.77-.32,2.44-4.8,5.97-7.34,5.66-7.33-.89-4.7-13.63,1.7-14.43Z"/>
    <path class="cls-1" d="M293.86,316.12c3.49-1.17,5.53,1.62,4.63,5.03-.72,2.72-9.66,13.23-12.21,8.07-.95-1.93,5.45-12.39,7.58-13.11Z"/>
    <path class="cls-1" d="M284.87,340.3c-2.91-2.69.48-7.82,4.45-5.16,4.91,3.3-.95,8.39-4.45,5.16Z"/>
    <path class="cls-1" d="M95.92,421.77c.36.21-.06,2,1.67,1.19-.32-3.38,9.08-1.64,10.66-.76,3.3,1.84,3.32,7.13,4.17,7.95.32.31,3.52-.06,2.22,2.86-2.59,5.81-9.65-1.07-10.43-.52-1.28,4.03-4.38,4.53-7.61,2.08-1-.76-.83-2.11-1.9-2.09l-1.64,6.41c-6.68,2.43-8.55-4.17-6.36-9.6l-2.62-1.94c-1.63,2.3-1.59,8.72-4.02,9.89-2.19,1.06-6.25-1.01-6.94-3.35-.36-1.23,3.05-10.15,2.7-12.62,1.66-3.16,4.46-.59,5.76-.84.87-.17,1.88-1.27,2.85-1.53,1.54-.41,9.95,1.97,11.5,2.86Z"/>
    <path class="cls-1" d="M129.13,425.26c-.42.59,1.27,2.72,1.23,4.45-.1,4.07-3.05,12.61-4.61,16.66-1.05,2.73-6.63,15.28-8.06,16.81-2.06,2.2-6.85,2.27-8.25-.09-.91-1.54,4.37-9.34,5.35-11.58,1.21-2.74,7.41-19,6.16-20.43-12.99-2.97,1.77-18.7,9.21-11.77,4.1,3.82,0,4.53-1.03,5.96Z"/>
    <path class="cls-1" d="M66.88,422.97c11.3-1.13,5.44,14.88-1.07,15.27-.75.04-1.98-.88-2.46-.55-.4.28-.43,2.06-2.24,2.5-1.5.36-4.76-1.3-5.41-2.78s5.47-19.5,4.97-23.2l1.61-1.34c7.13-.24,6.08,5,4.6,10.11Z"/>
    <path class="cls-1" d="M93.77,412.9c.78.79,1.49,4.28.47,5.02-3.72,2.71-9.65-4.51-5.67-5.83,1.19-.39,4.32-.08,5.2.81Z"/>
    <path class="cls-1" d="M645.54,156.94c15.24,6.32-3.23,15.98-6.78,6.39-.39-1.05.29-2.2.01-2.89-.75-1.86-2.62-3.42-2.77-5.68l-6.09,1.39c-1.12,2.67-2.75,8.32-6.52,7.28-6.53-1.8-1.85-12.1.92-15.64,4.72-.59,8.27,2.84,13.55,2.62,3.55-.15,7.22-2.98,9.52-2.91,2.1.07,3.1.71,6.57.65,1.11-.02,2.27.8,2.86.77.73-.04.61-3.12,3.65-2.96,4.69.25,5.15,7.87,5.9,11.01,1.16,1.44,3.37-.96,4.43.67,2.13,3.26-1.34,7-5.08,6.62-4.58-.47-6.57-7.06-8.25-7.91-.39-.2-6.68-2.15-7.05-2.14-.85.02-5.46,1.88-4.88,2.73Z"/>
    <path class="cls-1" d="M604.58,144.52c-1.67.17-2.48,6.3-2.19,6.58,2.51-.86,8.02,1.89,9.79,1.39,1.05-.3,1.13-3.24,4.31-2.72,8.27,1.36-1.4,19.39-5.8,7.13l-8.3.79c-.19,3.19,2.82,14.42-1.84,14.37-5.01-.06-4.75-10.88-4.74-14.38-4.7.51-7.41.07-10.06-4.01,1.3-4.7,7.14-3.72,10.78-2.57-.97-6.22,6.12-13.81,12.26-11.15,8.12,3.52-1.85,17.1-4.21,4.57Z"/>
    <circle class="cls-1" cx="620.24" cy="144.75" r="3.29"/>
    <circle class="cls-1" cx="463.49" cy="25.68" r="3.26"/>
    <path class="cls-1" d="M711.96,357.87c5.11-2.03,12.64-.56,14.63,5.11,6.74-4.01,12.12-2.78,13.07,5.56l6.55,2.58c.03,8.26-14.45,5.98-15.27-1.56-.88-.69-7,8.04-11.46,2.71-2.76-3.3,4.61-8.59-4.61-8.56,3.36,7.33-7.01,15.95-12.43,8.41-3.93-5.47,2.86-9.16,1.32-14.47-1.02-3.5-8.98-2.7-7.94-7.37.08-.37,3.57-2.39,4.14-2.47,5.04-.65,11.64,4.79,12,10.05Z"/>
    <path class="cls-1" d="M623.45,374.69h-1.08c-3.83,6.65-14.64,4.64-13.38-3.84.93-6.23,6.24-12.68,13-9.33-1.12-4.24,2.27-15,7.69-10.25,2.65,2.32-.15,14.09.36,18.66.4,3.55,3.98,7.01.73,9.52-3.17,1.58-7.09-1.4-7.32-4.76Z"/>
    <path class="cls-1" d="M676.12,362.26c.46-.68,5.09-6.37,5.43-6.63,2.68-2.03,6.26,1.18,5.45,3.93l-5.75,4.16c3.63.67,6.15,2.74,8.76,5.13,1.64-2.88,1.45-9.47,5.5-9.45,8.26.03,3.86,15.81-2.76,14.46-1.28-.26-2.75-1.97-3.1-1.97-.92,0-5.85,7.67-10.9,4.2-4.05-2.79,3.05-4.06,2.53-6.83-.08-.44-4.59-2.78-5.16-7-2.44,3.66-3.03,14.14-7.11,15.25-2.83.77-5.37-1.78-5.28-4.56.13-4.26,4.44-21.23,11.24-16.48,2.71,1.89.96,4.34,1.15,5.79Z"/>
    <path class="cls-1" d="M641.02,370.32l.38,1.45c3.57-.66,6.06,1.85,3.25,4.73-5.07,5.19-15.03-4.47-13.79-8.61.42-1.39,2.05-1.5,2.6-2.21,1.44-1.87,1.91-3.51,3.94-5.2,12.33-10.21,16.18,5.69,3.62,9.85Z"/>
    <path class="cls-1" d="M660.65,355.04c2.59,5.59-7.65,9.18-4.17,15.89l5.01.1c.18,10.97-12.95,6.64-13.23-1.83-.2-5.83,5.43-15.89,12.39-14.16Z"/>
    <path class="cls-1" d="M676.67,346.34c2.1,2.15.2,8.32-3.71,5.73-1.49-.99-1.41-3.96-.55-5.41.8-1.24,3.27-1.33,4.26-.31Z"/>
    <path class="cls-1" d="M404.75,143.21c2.56,3.44-1.4,8.72-4.59,4.98l-1.09,3.64c2.58-1.92,7.26,1.22,8.42,1.22s5.33-4.83,6.94.97c1.38-.07.42-2.08,1.38-3.35,2.06-2.71,4.38.48,5.43.32,1.54-.23,4.03-4.32,7.13-.31.77.99.16,2.69,1.4,2.6.85-3.64,3.65-4.31,7-3.22,2.87-2.73,7.13-2.52,10.84-3.29,3.77,2.79-.39,7.24.52,9.72.38,1.25,2.03.88,2.65,1.37,3.01,2.42-3.26,8.85-7.61,4.7-1.01-.96-1.05-3.15-2.41-3.42,2.54,5.34-4.69,9.86-8.47,5.9-1.33-1.39-.71-2.81-1.21-3.54-.73-1.08-5.47-1.25-4.59-6.01-2.79,6.05-8.46,15.94-12.08,4.39-4.82,5.51-8.04,2.27-7.67-4.38l-6.93,2.96c-.33.45,1.68,8.23,1.15,10.22-1.25,4.74-7.48,3.09-8.18-.7-.16-.87.98-1.46.96-2.43-.05-1.67-1.01-3.72-.54-5.65-14.59,5.3-14.6-7.26-.76-7.35-1.23-6.89,6.5-10.89,12.31-9.32Z"/>
    <path class="cls-1" d="M409.49,146.12c1.05-2.39,6.85-3.2,6.43.92-.44,4.37-8.05,2.75-6.43-.92Z"/>
    <path class="cls-1" d="M271.48,469.23c.6.62.8,1.88.92,2.75l3.43-2.85c4.34.71,5.22,4.11,3.88,7.97,3.23-1.59,1.83-5.44,6.21-5.19,8.23.47,2.61,18.14.71,22.73-4.3,10.4-16.93,21.21-28.13,13.55,10.92-5.18,19.78-9.34,22.66-22.3-3.76,1.88-6.86-2.89-8.39-2.92-1.39-.03-4.57,2.37-6.78,2.74-6.54,1.08-11.5-2.88-10.39-9.66.57-3.49,7.45-9.7,11.1-9.07.43.08,4.53,2.02,4.76,2.25Z"/>
    <path class="cls-1" d="M184.78,486.45c-6.81-7.21-2.24-14.15-1.59-22.18.22-2.67-2.58-6.48,3.24-6.24,4.59.19,17.02,7.51,17.13,12.84s-12.34,17.64-18.78,15.58ZM188.3,477.83c4.92-2.85,11.77-9.53,2.53-11.67l-2.53,11.67Z"/>
    <path class="cls-1" d="M250.64,481.31c.09.17,1.02.23,1.22.74,1.53,3.82.37,6.32-3.98,6.09-3.18-.16-4.85-5.32-5.48-8.12-.86-.68-5.17,9.24-8.76,6.98-1.07-1.73-3.07-3.72-2.93-5.83.06-.81,4.8-14.6,5.41-15.12,2.61-2.24,5.02,2.5,6.61,2.7,3.18.4,4.22-1.87,7.37,2.47,3.61,4.96-.49,8.08.52,10.09Z"/>
    <path class="cls-1" d="M217.32,460.5c.72,1.05.74,3.86,1.03,4.1.8.66,5.9-1.12,7.6,3.78,1.03,2.99-1.14,4.88-2.55,7.25,1.49.43,5.31,2.88,5.72,4.18,1.82,5.74-7.66,12.19-11.2,5.34-1.49-2.89,1.78-1.68,1.09-3.28-2.74-1.73-5.26-4.97-4-8.38.89-2.41,4.74-4.42,3.26-7.34-1.23-.15-.66,1.72-1.89,2.14-4.07,1.4-9.1-9.76-3.54-10.23,1.04-.09,4.02,1.78,4.48,2.45Z"/>
    <path class="cls-1" d="M208.55,473.52c1.88-.48,4.65,2.75,4.67,4.66,0,.91-2.82,7.61-3.4,8.39-2.32,3.15-6.58-1.03-6.58-3.98,0-1.89,3.41-8.57,5.31-9.06Z"/>
    <path class="cls-1" d="M82.37,212.06c.15.15,2.82-.81,3.97-.77,2.87.11,6.16,2.06,8.13,2.21,3.8.27,5.93-3.87,11.72-1.5,8.7,3.56-3.36,23.71-11.77,16.15-4.03-3.62-1.46-7.5-3.23-9.94-.58-.8-3.45-2.31-4.53-2.17-4.94.64-3.33,17.02-10.37,14.91-4.49-1.35-1.78-7.29-1.44-9.95.42-3.31.33-11.7,3.14-12.97,4.51-2.05,3.82,3.48,4.38,4.02Z"/>
    <path class="cls-1" d="M63.35,210.58c11.58-.41,10.39,8.06,5.7,15.58-1.38,2.21-2.31,4.22-5.34,4.21-2.1,0-11.18-6.2-11.3-8.41-.08-1.45,3.69-11.06,4.21-14.15.4-2.37-1.64-7.43,3.44-7.41s4.77,6.94,3.29,10.18ZM64.8,214.25c-1.75-.5-2.12,1.8-2.52,2.95-.73,2.11-1.27,4.29-1.13,6.56,3.82-.5,4.25-6.64,3.65-9.5Z"/>
    <path class="cls-1" d="M129.07,238.34l6.69-14.2c-13.79-3.24,4.43-19.29,8.93-11.16,1.8,3.26.18,7.83-.88,11.17-1.53,4.83-7.67,18.85-12.46,20.51s-7.93-5.07-5.12-6.7l2.83.38Z"/>
    <path class="cls-1" d="M116.74,218.64c7.71-8.67,13.75-5.49,8.81,5.55-1.01.75-2.44-.59-3.68-.09-1.3.53-2.99,3.62-5.55,4.04-9.07,1.47-7.53-15.93-3.5-16.71,3.03-.59,4.61,4.77,3.93,7.21Z"/>
    <path class="cls-1" d="M256.15,11.55c5.14-3.18,9.33.21,11.28,5.13,4.41-2.04,2.65-2.62,4.59-5.66,3.84-6.03,15.31-3.13,11.88,4.93l2.81-2.57,3.47,1.08-.43,3.68,2.91-5.52c2.43-.88,5.01.11,5.01,2.92,0,4.59-1.16,16.45-2.88,20.44-2.86,6.65-9.03,10.85-16.01,7.02.59-3.18,4.76-2.4,7.35-4.71,3.74-3.33,4.49-8.91,5.08-13.56-3.08-.05-6.75.98-7.32-2.93-1.59,1.27-1.69,2.64-3.87,3.8-9.55,5.08-7.96-3.37-12.93-7.46,3.24,4.8-3.98,13.2-6.66,7.02l-1.38-7.75-1.58,10.13-5.65.74-2.95-19.15c2.38-3.6,6.38-.93,7.29,2.41Z"/>
    <path class="cls-1" d="M215.13,9.37l1.56-7.95c1.55-.4,3.9-.2,4.67,1.36-.2,5.48,2.45,15.72.95,20.71s-6.84,1.26-7.41,1.34c-1.68.24-3.85,4.29-7.48.66-1.96-1.97-.37-10.67.6-13.38,1.34-3.74,3.37-4.41,7.11-2.76ZM210.76,21.07c3.33-2.22,4.65-5.2,1.08-8.04-1.42-.53-1.62,3.67-1.62,4.22-.02,1.38.46,2.48.55,3.82Z"/>
    <path class="cls-1" d="M239.27,10.84c.49.36.84,3.61,0,4.38,3.39.2,10.59,2.59,8.43,7.3-2.05,4.47-14.72,4.36-13.54-2.17h6.58c-.61-2.03-3.09-1.07-4.38-1.84-3.42-2.02,1.44-8.76,2.91-7.67Z"/>
    <path class="cls-1" d="M228.83,9.47c6.55-1.81,6.26,13.32,2.37,15.59-1.65.96-4.3,1.46-4.93-.84-.69-2.53-.26-13.96,2.56-14.74Z"/>
    <path class="cls-1" d="M204.72,1.43c3.83-1.05,7.58,4.28,3.86,6.11-5.71,2.82-7.95-4.99-3.86-6.11Z"/>
  </g>
</svg>